<?xml version='1.0' encoding='utf-8'?>
<svg width="512.9999999969mm" height="317.4801695509mm" viewBox="-2.4797074719 -1.5346158843 4.9594149438 3.0692317685" version="1.1" xmlns="http://www.w3.org/2000/svg">
  <g transform="scale(1,-1)" stroke-linecap="round">
    <g fill="none" stroke="rgb(64,192,64)" stroke-width="0.009667475524034831" id="Visible">
      <line x1="-2.4748737342" y1="-0.3060585339" x2="-2.4748737342" y2="-0.101849337" />
      <line x1="-2.4748737342" y1="-0.101849337" x2="0.3535533906" y2="1.5297821465" />
      <line x1="-0.3535533906" y1="-1.5297821465" x2="-0.3535533906" y2="-1.3255729496" />
      <line x1="-2.4748737342" y1="-0.3060585339" x2="-0.3535533906" y2="-1.5297821465" />
      <line x1="-2.4748737342" y1="-0.101849337" x2="-0.3535533906" y2="-1.3255729496" />
      <line x1="2.4748737342" y1="0.101849337" x2="2.4748737342" y2="0.3060585339" />
      <line x1="0.3535533906" y1="1.5297821465" x2="2.4748737342" y2="0.3060585339" />
      <line x1="-0.3535533906" y1="-1.5297821465" x2="2.4748737342" y2="0.101849337" />
      <line x1="-0.3535533906" y1="-1.3255729496" x2="2.4748737342" y2="0.3060585339" />
      <line x1="-0.8838834765" y1="-0.2040815662" x2="-0.8838834765" y2="0.0001276307" />
      <line x1="-0.9384848662" y1="-0.3216331073" x2="-0.8838834765" y2="-0.2040815662" />
      <line x1="-1.013292999" y1="-0.2784786263" x2="-0.8838834765" y2="0.0001276307" />
      <line x1="-0.6597396084" y1="-0.4824325617" x2="-1.013292999" y2="-0.2784786263" />
      <line x1="-0.1767766953" y1="-0.4077802401" x2="-0.6597396084" y2="-0.4824325617" />
      <line x1="-0.0473671727" y1="-0.1291739831" x2="-0.1767766953" y2="-0.4077802401" />
      <line x1="-0.4009205633" y1="-0.1294292446" x2="-0.4009205633" y2="0.0747799523" />
      <line x1="-0.4009205633" y1="-0.1294292446" x2="-0.1221753056" y2="-0.290228699" />
      <line x1="-0.4009205633" y1="0.0747799523" x2="-0.0473671727" y2="-0.1291739831" />
      <line x1="-0.8838834765" y1="-0.2040815662" x2="-0.4009205633" y2="-0.1294292446" />
      <line x1="-0.8838834765" y1="0.0001276307" x2="-0.4009205633" y2="0.0747799523" />
      <line x1="0.1767766953" y1="0.4077802401" x2="0.1767766953" y2="0.611989437" />
      <line x1="0.1221753056" y1="0.290228699" x2="0.1767766953" y2="0.4077802401" />
      <line x1="0.0473671727" y1="0.33338318" x2="0.1767766953" y2="0.611989437" />
      <line x1="0.4009205633" y1="0.1294292446" x2="0.0473671727" y2="0.33338318" />
      <line x1="0.8838834765" y1="0.2040815662" x2="0.4009205633" y2="0.1294292446" />
      <line x1="1.013292999" y1="0.4826878232" x2="0.8838834765" y2="0.2040815662" />
      <line x1="0.6597396084" y1="0.4824325617" x2="0.6597396084" y2="0.6866417586" />
      <line x1="0.6597396084" y1="0.4824325617" x2="0.9384848662" y2="0.3216331073" />
      <line x1="0.6597396084" y1="0.6866417586" x2="1.013292999" y2="0.4826878232" />
      <line x1="0.1767766953" y1="0.4077802401" x2="0.6597396084" y2="0.4824325617" />
      <line x1="0.1767766953" y1="0.611989437" x2="0.6597396084" y2="0.6866417586" />
    </g>
  </g>
</svg>