<?xml version='1.0' encoding='utf-8'?>
<svg width="512.9999999969mm" height="296.6033378281mm" viewBox="-2.4797074719 -1.4337027544 4.9594149438 2.8674055088" version="1.1" xmlns="http://www.w3.org/2000/svg">
  <g transform="scale(1,-1)" stroke-linecap="round">
    <g fill="none" stroke="rgb(64,192,64)" stroke-width="0.009667475524034828" id="Visible">
      <line x1="-2.4748737342" y1="-0.2041241452" x2="0.3535533906" y2="1.4288690166" />
      <line x1="-2.4748737342" y1="-0.2041241452" x2="-0.3535533906" y2="-1.4288690166" />
      <line x1="0.3535533906" y1="1.4288690166" x2="2.4748737342" y2="0.2041241452" />
      <line x1="-0.3535533906" y1="-1.4288690166" x2="2.4748737342" y2="0.2041241452" />
      <line x1="-1.013292999" y1="-0.3809008405" x2="-0.8838834765" y2="-0.1020620726" />
      <line x1="-0.6597396084" y1="-0.5850249858" x2="-1.013292999" y2="-0.3809008405" />
      <line x1="-0.1767766953" y1="-0.5103103631" x2="-0.6597396084" y2="-0.5850249858" />
      <line x1="-0.0473671727" y1="-0.2314715952" x2="-0.1767766953" y2="-0.5103103631" />
      <line x1="-0.4009205633" y1="-0.0273474499" x2="-0.0473671727" y2="-0.2314715952" />
      <line x1="-0.8838834765" y1="-0.1020620726" x2="-0.4009205633" y2="-0.0273474499" />
      <line x1="0.0473671727" y1="0.2314715952" x2="0.1767766953" y2="0.5103103631" />
      <line x1="0.4009205633" y1="0.0273474499" x2="0.0473671727" y2="0.2314715952" />
      <line x1="0.8838834765" y1="0.1020620726" x2="0.4009205633" y2="0.0273474499" />
      <line x1="1.013292999" y1="0.3809008405" x2="0.8838834765" y2="0.1020620726" />
      <line x1="0.6597396084" y1="0.5850249858" x2="1.013292999" y2="0.3809008405" />
      <line x1="0.1767766953" y1="0.5103103631" x2="0.6597396084" y2="0.5850249858" />
    </g>
  </g>
</svg>