<?xml version='1.0' encoding='utf-8'?>
<svg width="512.9999999998mm" height="446.5081805003mm" viewBox="-57.0745790792 -34.0768288583 91.0740795323 79.2696326369" version="1.1" xmlns="http://www.w3.org/2000/svg">
  <g transform="scale(1,-1)" stroke-linecap="round">
    <g fill="none" stroke="rgb(64,192,64)" stroke-width="0.17753231877649428" id="Visible">
      <line x1="-56.9858129198" y1="8.7388631683" x2="13.4303489729" y2="-14.0298914212" />
      <line x1="-56.9858129198" y1="8.7388631683" x2="-56.9858129198" y2="7.3028195195" />
      <line x1="-56.9858129198" y1="7.3028195195" x2="13.4303489729" y2="-15.4659350701" />
      <path d="M 13.4303489729,-15.4659350701 A 2.0,1.3023663819793987 -33.72137289861882 0,0 15.2441745944,-17.4884712135" />
      <line x1="15.2441745944" y1="-17.4884712135" x2="15.2441745944" y2="-44.5175451246" />
      <line x1="17.0580002159" y1="-45.1040376192" x2="15.2441745944" y2="-44.5175451246" />
      <line x1="17.0580002159" y1="-18.074963708" x2="17.0580002159" y2="-45.1040376192" />
      <path d="M 13.4303489729,-14.0298914212 A 4.0,2.6047327639587974 -33.72137289861882 0,0 17.0580002159,-18.074963708" />
      <line x1="-40.1330788419" y1="33.988062699" x2="30.2830830507" y2="11.2193081094" />
      <path d="M 30.2830830507,11.2193081094 A 4.0,2.6047327639587974 -33.72137289861882 0,0 33.9107342938,7.1742358226" />
      <line x1="33.9107342938" y1="7.1742358226" x2="33.9107342938" y2="-19.8548380886" />
      <line x1="-40.1330788419" y1="33.988062699" x2="-56.9858129198" y2="8.7388631683" />
      <line x1="33.9107342938" y1="-19.8548380886" x2="17.0580002159" y2="-45.1040376192" />
      <line x1="30.2830830507" y1="11.2193081094" x2="13.4303489729" y2="-14.0298914212" />
      <line x1="33.9107342938" y1="7.1742358226" x2="17.0580002159" y2="-18.074963708" />
    </g>
  </g>
</svg>