<?xml version='1.0' encoding='utf-8'?>
<svg width="418.2501195148mm" height="513.0mm" viewBox="-42.5280584904 -54.8390245177 85.0561904616 104.3247178445" version="1.1" xmlns="http://www.w3.org/2000/svg">
  <g transform="scale(1,-1)" stroke-linecap="round">
    <g fill="none" stroke="rgb(64,192,64)" stroke-width="0.20336202308867538" id="Visible">
      <path d="M 4.5962296241,2.7150489969 A 6.5,2.8697746465331417 1.7723719243429951e-15 0,1 6.2785541743,4.0015335833" />
      <path d="M 1.6823589025,1.9722969975 A 6.5,2.8697746465331417 1.7723719243429951e-15 0,1 4.5962296241,2.7150489969" />
      <path d="M -4.5961585313,2.7150500513 A 6.5,2.8697746465331417 1.7723719243429951e-15 0,1 1.6823589025,1.9722969975" />
      <path d="M -6.2784806934,5.487039691 A 6.5,2.8697746465331417 1.7723719243429951e-15 0,1 -4.5961585313,2.7150500513" />
      <path d="M -1.6822854216,7.5162762768 A 6.5,2.8697746465331417 1.7723719243429951e-15 0,1 -6.2784806934,5.487039691" />
      <path d="M 4.5962320122,6.773523223 A 6.5,2.8697746465331417 1.7723719243429951e-15 0,1 -1.6822854216,7.5162762768" />
      <path d="M 6.2785541743,4.0015335833 A 6.5,2.8697746465331417 1.7723719243429951e-15 0,1 4.5962320122,6.773523223" />
      <path d="M 6.2785541743,4.0015335833 C 5.9704583242,3.4927845946 5.6625490349,2.8750105713 5.3072631377,2.0527831161" />
      <path d="M 4.5962320122,6.773523223 C 5.4379644933,6.4007994565 6.2791872816,5.9189682884 7.2498452108,5.2536005998" />
      <path d="M 7.2498452108,5.2536005998 C 6.8945593136,4.9050097639 6.5866500243,4.5080915893 6.2785541743,4.0015335833" />
      <path d="M -1.6822854216,7.5162762768 C -0.5324570905,7.6512060077 0.6166749871,7.6767209385 1.9426188136,7.5967623955" />
      <path d="M 1.9426188136,7.5967623955 C 2.9132767428,7.4050313262 3.7544995311,7.1440560068 4.5962320122,6.773523223" />
      <path d="M -6.2784806934,5.487039691 C -5.9703848434,5.993597697 -5.6624755541,6.3905158715 -5.3071896568,6.7391067074" />
      <path d="M -5.3071896568,6.7391067074 C -3.9812458303,7.1327847837 -2.8321137527,7.3791555632 -1.6822854216,7.5162762768" />
      <path d="M -7.24977173,3.5382892237 C -6.8944858327,4.360516679 -6.5865765434,4.9782907022 -6.2784806934,5.487039691" />
      <path d="M -4.5961585313,2.7150500513 C -5.4378910124,3.0855828351 -6.2791138007,3.3465581545 -7.24977173,3.5382892237" />
      <path d="M -1.9425453327,1.1951274281 C -2.913203262,1.8604951167 -3.7544260503,2.3423262848 -4.5961585313,2.7150500513" />
      <path d="M 1.6823589025,1.9722969975 C 0.5325305714,1.8351762839 -0.6166015062,1.5888055044 -1.9425453327,1.1951274281" />
      <path d="M 5.3072631377,2.0527831161 C 3.9813193112,2.1327416591 2.8321872336,2.1072267283 1.6823589025,1.9722969975" />
      <line x1="7.2498452108" y1="1.1156454061" x2="5.3072631377" y2="-2.0851720776" />
      <line x1="5.3072631377" y1="2.0527831161" x2="5.3072631377" y2="-2.0851720776" />
      <line x1="7.2498452108" y1="1.1156454061" x2="7.2498452108" y2="5.2536005998" />
      <line x1="-7.24977173" y1="-0.59966597" x2="-7.24977173" y2="3.5382892237" />
      <line x1="-1.9425453327" y1="-2.9428277656" x2="-7.24977173" y2="-0.59966597" />
      <line x1="-1.9425453327" y1="-2.9428277656" x2="-1.9425453327" y2="1.1951274281" />
      <line x1="5.3072631377" y1="-2.0851720776" x2="-1.9425453327" y2="-2.9428277656" />
      <path d="M -1.8442678475,-10.2859290016 Q -2.1348962665,-10.2338180318 -2.3971177307,-10.1617587611" />
      <path d="M -2.3971177307,-10.1617587611 C -3.0338792942,-9.9875332522 -3.5226353424,-9.7272914258 -3.7806958453,-9.4309882539" />
      <path d="M 4.0000367334,-9.4744755279 C 4.0042849982,-9.9842106693 3.5729422187,-10.4906771013 2.8284631304,-10.8634350915" />
      <path d="M -2.5301047549,-9.9831292491 Q -3.0690437897,-9.8190724832 -3.4286525797,-9.5864167713" />
      <path d="M 4.0000367341,-9.3341794025 L 4.0000367357,-9.3342336672" />
      <path d="M 4.0000367357,-9.3342336672 C 4.0042851865,-9.8439663587 3.5729348526,-10.3504195952 2.8284631305,-10.7231914056" />
      <path d="M 2.8284631304,-10.8634350915 Q 2.3793785384,-11.0893958535 1.8142055552,-11.2447792611" />
      <path d="M 1.8142055552,-11.2447792611 C 1.2025336365,-11.4132482094 0.5094253491,-11.5101538171 -0.1765948968,-11.5270457411 C -0.9741627107,-11.5477402609 -1.7589195357,-11.4594654188 -2.3970777025,-11.2833436125" />
      <path d="M -2.3970777025,-11.2833436125 C -2.6686256489,-11.2085600297 -2.9105003819,-11.1202435604 -3.1227019014,-11.0183942046 C -3.6874357694,-10.7487477178 -4.0023191812,-10.3927781575 -3.9999632595,-10.0352660599" />
      <path d="M 4.0000367328,-10.5960494446 C 4.0042851575,-11.1057850912 3.5729405925,-11.6122519894 2.8284631304,-11.9850089446" />
      <path d="M 2.8284631305,-10.7231914056 C 2.1311243667,-11.0773017344 1.1648099808,-11.3092470644 0.1759795135,-11.3710807406 C -0.5052958093,-11.4150994732 -1.1935584686,-11.3802242516 -1.8020416213,-11.2746902279 C -2.2880140264,-11.1908594838 -2.7228811709,-11.0625969279 -3.0712662798,-10.9023109037 C -3.667793279,-10.6298653819 -4.0026106364,-10.2633262705 -3.9999632397,-9.8950196126" />
      <path d="M -3.9999632397,-9.8950196126 Q -3.9993830746,-9.6494668993 -3.8133086092,-9.4165895875" />
      <path d="M 3.8708617813,-9.9651439932 Q 3.9997626344,-10.2068437742 4.0000367347,-10.4558103135" />
      <path d="M 4.0000367347,-10.4558103135 C 4.0042851664,-10.9655428663 3.5729355166,-11.4719956679 2.8284631304,-11.8447680398" />
      <path d="M 2.8284631304,-11.9850089446 Q 2.3793582975,-12.2109798152 1.8141559356,-12.3663667468" />
      <path d="M 1.8141559356,-12.3663667468 C 1.2024961412,-12.5348273675 0.5094066721,-12.6317281138 -0.1765950703,-12.6486195985 C -0.9741461282,-12.6693136299 -1.7588868572,-12.5810430166 -2.3970376721,-12.4049284642" />
      <path d="M -2.3970376721,-12.4049284642 C -2.6686017885,-12.3301426061 -2.9104899357,-12.2418224366 -3.1227021137,-12.1399679557 C -3.6874358503,-11.8703214821 -4.0023191802,-11.514351964 -3.9999632595,-11.1568399133" />
      <path d="M 4.0000367337,-11.717623295 C 4.004284786,-12.2273586285 3.572942265,-12.7338247719 2.8284631304,-13.1065827976" />
      <path d="M 2.8284631304,-11.8447680398 C 2.1311267834,-12.1988771192 1.1648167411,-12.430822109 0.1759898412,-12.4926567128 C -0.5052746355,-12.5366755113 -1.1935267251,-12.501802917 -1.8020035591,-12.3962734396 C -2.2878122171,-12.3124735265 -2.7225524429,-12.1842723673 -3.0708814063,-12.0240643524 C -3.667645232,-11.7515994121 -4.002612435,-11.3849844462 -3.9999632391,-11.016596129" />
      <path d="M -3.9999632391,-11.016596129 Q -3.9993183468,-10.7644082129 -3.8033509677,-10.5259311041" />
      <path d="M 3.8708610378,-11.086719238 Q 3.9997620163,-11.3284171661 4.0000367353,-11.5773869395" />
      <path d="M 4.0000367353,-11.5773869395 C 4.0042858404,-12.0871198525 3.5729324206,-12.5935744762 2.8284631304,-12.9663446741" />
      <path d="M 2.8284631304,-13.1065827976 Q 2.3793380075,-13.3325638015 1.8141061952,-13.4879542654" />
      <path d="M 1.8141061952,-13.4879542654 C 1.2024584643,-13.6564065634 0.5093877445,-13.75330244 -0.1765955489,-13.7701934636 C -0.9741297455,-13.7908869768 -1.7588542585,-13.7026205917 -2.3969976398,-13.5265133161" />
      <path d="M -2.3969976398,-13.5265133161 C -2.6685782349,-13.4517250975 -2.9104800339,-13.363401114 -3.1227030369,-13.2615413655 C -3.6874365171,-12.9918948015 -4.0023195161,-12.6359252212 -3.9999632595,-12.2784131782" />
      <path d="M 4.0000367339,-12.8391970966 C 4.0042846261,-13.3489324038 3.5729429213,-13.8553982023 2.8284631304,-14.2281566506" />
      <path d="M 2.8284631304,-12.9663446741 C 2.1311286906,-13.3204527674 1.164822076,-13.5523974888 0.1759979914,-13.6142328246 C -0.5052581518,-13.65825169 -1.1935021302,-13.6233811304 -1.8019741267,-13.5178551599 C -2.2876563467,-13.434079055 -2.7222985631,-13.3059252981 -3.0705841429,-13.145777513 C -3.6675318555,-12.8732982776 -4.0026146806,-12.5066207735 -3.9999632416,-12.1381727898" />
      <path d="M -3.9999632416,-12.1381727898 Q -3.9993193471,-11.8859864662 -3.8033498252,-11.6475063413" />
      <path d="M 3.8708602954,-12.2082944816 Q 3.9997621521,-12.4499936886 4.0000367338,-12.6989635812" />
      <path d="M 4.0000367338,-12.6989635812 C 4.0042862809,-13.2086964817 3.572931426,-13.7151516604 2.8284631304,-14.0879213085" />
      <path d="M 2.8284631304,-14.2281566506 Q 2.3793177652,-14.4541477639 1.8140565718,-14.6095417514" />
      <path d="M 1.8140565718,-14.6095417514 C 1.2024209912,-14.7779857148 0.5093691225,-14.8748767291 -0.1765956392,-14.8917673189 C -0.9741131072,-14.9124603518 -1.7588215556,-14.8241981957 -2.396957606,-14.6480981681" />
      <path d="M -2.396957606,-14.6480981681 C -2.6685542974,-14.5733076952 -2.9104694539,-14.4849800391 -3.1227030755,-14.3831152 C -3.6874365318,-14.1134686383 -4.0023195159,-13.7574990659 -3.9999632595,-13.3999870312" />
      <path d="M 4.0000367338,-13.9607709521 C 4.0042847375,-14.470506275 3.572942563,-14.9769722876 2.8284631304,-15.3497305037" />
      <path d="M 2.8284631304,-14.0879213085 C 2.1311319665,-14.442027708 1.1648312401,-14.6739719682 0.1760119914,-14.7358085614 C -0.5052289842,-14.7798274853 -1.1934581616,-14.7449605667 -1.8019212848,-14.6394409252 C -2.2873723883,-14.555708268 -2.7218353883,-14.4276410636 -3.0700415008,-14.2676032822 C -3.6673237434,-13.9950972405 -4.0026177898,-13.6283100808 -3.9999632397,-13.2597493965" />
      <path d="M -3.9999632397,-13.2597493965 Q -3.9993191922,-13.0075619988 -3.8033486768,-12.7690815857" />
      <path d="M 3.8708595525,-13.3298697256 Q 3.9997622145,-13.5715698694 4.0000367349,-13.8205402131" />
      <path d="M 4.0000367349,-13.8205402131 C 4.004285437,-14.3302729205 3.5729342562,-14.8367264537 2.8284631304,-15.2094979428" />
      <path d="M 2.8284631304,-15.3497305037 Q 2.3792975223,-15.5757317266 1.8140069464,-15.7311292375" />
      <path d="M 1.8140069464,-15.7311292375 C 1.2023834258,-15.8995648914 0.5093502929,-15.9964510467 -0.1765960364,-16.013341182 C -0.97409667,-16.0340337046 -1.7587889331,-15.945775777 -2.3969175704,-15.7696830203" />
      <path d="M -2.3969175704,-15.7696830203 C -2.6685306626,-15.694890209 -2.9104594109,-15.6065587682 -3.1227038154,-15.5046886979 C -3.6874368137,-15.2350421823 -4.0023195125,-14.8790727566 -3.9999632595,-14.521560886" />
      <path d="M 4.0000367334,-15.0823448073 C 4.0042852131,-15.5920803183 3.5729407847,-16.098547303 2.8284631304,-16.4713043567" />
      <path d="M 2.8284631304,-15.2094979428 C 2.1311330907,-15.5636037611 1.1648343847,-15.7955478631 0.1760167954,-15.8573848878 C -0.505219757,-15.9014038834 -1.1934446506,-15.8665380804 -1.8019052454,-15.761020331 C -2.2872882098,-15.6773005158 -2.721698386,-15.5492588605 -3.0698810926,-15.3892535405 C -3.6672621153,-15.1167395606 -4.0026186815,-14.7499202142 -3.9999632374,-14.381326037" />
      <path d="M -3.9999632374,-14.381326037 Q -3.9993190526,-14.1291373113 -3.8033475307,-13.8906568273" />
      <path d="M 3.8708588095,-14.4514449694 Q 3.9997620858,-14.6931451898 4.000036736,-14.9421168428" />
      <path d="M 4.000036736,-14.9421168428 C 4.0042864022,-15.4518498584 3.5729304629,-15.9583056985 2.8284631304,-16.3310745772" />
      <path d="M 2.8284631304,-16.4713043567 Q 2.3792772786,-16.6973156897 1.813957319,-16.8527167237" />
      <path d="M 1.813957319,-16.8527167237 C 1.2023458869,-17.0211440604 0.5093315258,-17.1180253557 -0.1765963402,-17.1349150427 C -0.9740801708,-17.1556070642 -1.7587562847,-17.0673533652 -2.3968775331,-16.8912678726" />
      <path d="M -2.3968775331,-16.8912678726 C -2.6685069399,-16.8164727471 -2.9104492136,-16.7281375536 -3.1227043543,-16.6262622922 C -3.6874370189,-16.3566158103 -4.00231951,-16.0006464915 -3.9999632595,-15.6431347405" />
      <path d="M 4.0000367334,-16.2039186508 C 4.0042849052,-16.7136538121 3.5729424424,-17.2201200697 2.8284631304,-17.5928782098" />
      <path d="M 2.8284631304,-16.3310745772 C 2.1311363081,-16.685178732 1.1648433849,-16.9171223811 0.1760305451,-16.9789606406 C -0.5051911541,-17.0229796965 -1.1934015554,-16.9881174617 -1.8018534637,-16.8826059126 C -2.2870075812,-16.7989290755 -2.7212402389,-16.6709730481 -3.0693440806,-16.5110765796 C -3.6670563052,-16.2385361832 -4.002621847,-15.8716079634 -3.9999632381,-15.5029026008" />
      <path d="M -3.9999632381,-15.5029026008 Q -3.9993190584,-15.2507133432 -3.8033463822,-15.0122320719" />
      <path d="M 3.8708580668,-15.5730202122 Q 3.9997625108,-15.8147229055 4.0000367347,-16.0636934888" />
      <path d="M 4.0000367347,-16.0636934888 C 4.0042851357,-16.5734260289 3.5729356207,-17.0798787713 2.8284631304,-17.4526512116" />
      <path d="M 2.8284631304,-17.5928782098 Q 2.3792570343,-17.8188996532 1.8139076897,-17.9743042101" />
      <path d="M 1.8139076897,-17.9743042101 C 1.2023083574,-18.1427232265 0.509312782,-18.2395996614 -0.1765966084,-18.2564889025 C -0.9740636477,-18.2771804263 -1.7587236256,-18.1889309561 -2.396837494,-18.0128527251" />
      <path d="M -2.396837494,-18.0128527251 C -2.6684831663,-17.9380552993 -2.9104389278,-17.8497163715 -3.1227047782,-17.7478359417 C -3.6874371804,-17.4781894862 -4.002319508,-17.1222202517 -3.9999632595,-16.7647085945" />
      <path d="M 4.0000367338,-17.3254925078 C 4.0042845715,-17.8352277465 3.5729432407,-18.3416934 2.8284631304,-18.7144520629" />
      <path d="M 2.8284631304,-17.4526512116 C 2.131138764,-17.8067540966 1.164850255,-18.0386974 0.1760410406,-18.1005366021 C -0.5051695964,-18.1445557222 -1.1933692156,-18.1096961639 -1.8018146751,-18.0041892489 C -2.2867970949,-17.9205446505 -2.7208965432,-17.7926528466 -3.0689411443,-17.6328380258 C -3.6669016217,-17.3602778286 -4.0026241088,-16.9932683748 -3.999963237,-16.6244793031" />
      <path d="M -3.999963237,-16.6244793031 Q -3.9993189979,-16.3722889818 -3.8033452349,-16.133807315" />
      <path d="M 3.8708573237,-16.6945954558 Q 3.9997624887,-16.9362987313 4.0000367349,-17.1852701188" />
      <path d="M 4.0000367349,-17.1852701188 C 4.0042850515,-17.6950026507 3.572935864,-18.2014552577 2.8284631304,-18.574227846" />
      <path d="M 2.8284631304,-18.7144520629 Q 2.3792367892,-18.940483617 1.8138580584,-19.0958916967" />
      <path d="M 1.8138580584,-19.0958916967 C 1.2022709459,-19.2643023596 0.5092943083,-19.3611739296 -0.1765964751,-19.3780627522 C -0.9740468601,-19.3987538174 -1.7586908585,-19.3105085769 -2.3967974531,-19.1344375777" />
      <path d="M -2.3967974531,-19.1344375777 C -2.6684589674,-19.0596379692 -2.9104278906,-18.9712954639 -3.1227042224,-18.8694100616 C -3.6874369687,-18.5997635714 -4.0023195105,-18.2437942269 -3.9999632595,-17.8862824461" />
      <path d="M 4.0000367339,-18.4470663629 C 4.0042848032,-18.9568017323 3.5729422644,-19.4632679004 2.8284631304,-19.8360259159" />
      <path d="M 2.8284631304,-18.574227846 C 2.1311408504,-18.9283296523 1.1648560911,-19.160272662 0.1760499564,-19.2221126649 C -0.5051514346,-19.2661318495 -1.1933420485,-19.231274539 -1.8017821298,-19.1257715064 C -2.2866202581,-19.0421539957 -2.7206077446,-18.9143161491 -3.0686025134,-18.754569929 C -3.6667734138,-18.4819946144 -4.0026279027,-18.1149085947 -3.9999632528,-17.7460563456" />
      <path d="M -3.9999632528,-17.7460563456 Q -3.9993204762,-17.4938694722 -3.8033440815,-17.2553825653" />
      <path d="M 3.8708565811,-17.8161706999 Q 3.9997625365,-18.0578748424 4.0000367346,-18.3068467544" />
      <path d="M 4.0000367346,-18.3068467544 C 4.0042852186,-18.8165793237 3.572935333,-19.3230322267 2.8284631304,-19.6958044805" />
      <path d="M 2.8284631304,-19.8360259159 Q 2.3792165434,-20.0620675811 1.8138084251,-20.2174791834" />
      <path d="M 1.8138084251,-20.2174791834 C 1.2022333349,-20.3858815478 0.5092753839,-20.4827482602 -0.1765970095,-20.4996366187 C -0.9740305107,-20.5203271603 -1.7586582679,-20.432086148 -2.3967574104,-20.2560224306" />
      <path d="M -2.3967574104,-20.2560224306 C -2.668435482,-20.1812204416 -2.9104181173,-20.0928740946 -3.1227053161,-19.9909833896 C -3.6874373853,-19.7213369676 -4.0023195055,-19.36536784 -3.9999632595,-19.0078563019" />
      <path d="M 4.0000367334,-19.5686402075 C 4.0042849281,-20.0783753647 3.5729423896,-20.5848416642 2.8284631304,-20.957599769" />
      <path d="M 2.8284631304,-19.6958044805 C 2.1311409191,-20.0499062511 1.1648562832,-20.2818492513 0.17605025,-20.3436892806 C -0.5051519797,-20.3877085428 -1.1933434599,-20.3528511108 -1.8017841197,-20.247347797 C -2.2866347832,-20.1637279932 -2.7206320326,-20.0358855248 -3.0686312089,-19.8761334078 C -3.666782734,-19.6035580324 -4.002625913,-19.236485838 -3.999963237,-18.8676325925" />
      <path d="M -3.999963237,-18.8676325925 Q -3.9993189934,-18.6154408146 -3.8033429385,-18.3769578033" />
      <path d="M 3.870855838,-18.937745944 Q 3.9997623108,-19.179449915 4.0000367345,-19.4284233895" />
      <path d="M 4.0000367345,-19.4284233895 C 4.0042852868,-19.9381559864 3.5729350791,-20.4446090258 2.8284631304,-20.8173811149" />
      <path d="M 2.8284631304,-20.957599769 Q 2.3791962969,-21.1836515456 1.8137587898,-21.3390666703" />
      <path d="M 1.8137587898,-21.3390666703 C 1.2021960347,-21.5074606494 0.5092571671,-21.6043224927 -0.1765964932,-21.6212104588 C -0.9740134702,-21.6419005791 -1.7586253965,-21.5536637974 -2.3967173659,-21.3776072836" />
      <path d="M -2.3967173659,-21.3776072836 C -2.668410835,-21.3028032356 -2.9104062897,-21.2144534757 -3.1227037302,-21.1125580041 C -3.6874367811,-20.8429114828 -4.0023195128,-20.4869420416 -3.9999632595,-20.1294301507" />
      <path d="M 4.0000367335,-20.69021407 C 4.0042848101,-21.1999493677 3.572942424,-21.7064154902 2.8284631304,-22.0791736221" />
      <path d="M 2.8284631304,-20.8173811149 C 2.1311448848,-21.1714808352 1.1648673767,-21.4034232771 0.1760671976,-21.4652648285 C -0.505116417,-21.5092841445 -1.1932897214,-21.4744311628 -1.8017194702,-21.3689356009 C -2.2862780143,-21.285370544 -2.7200485091,-21.1576371877 -3.0679465731,-20.9980238335 C -3.6665201794,-20.7254149775 -4.0026300172,-20.3582040748 -3.9999632381,-19.9892091337" />
      <path d="M -3.9999632381,-19.9892091337 Q -3.9993190351,-19.737016856 -3.8033417909,-19.4985330466" />
      <path d="M 3.8708550949,-20.0593211869 Q 3.9997624941,-20.3010265207 4.0000367344,-20.550000028" />
      <path d="M 4.0000367344,-20.550000028 C 4.0042853503,-21.0597326426 3.5729348526,-21.566185806 2.8284631304,-21.9389577494" />
      <path d="M 2.8284631304,-22.0791736221 Q 2.3791760981,-22.3052354862 1.8137092715,-22.4606541246" />
      <path d="M 1.8137092715,-22.4606541246 C 1.2021584268,-22.6290398484 0.509238095,-22.7258968487 -0.1765973109,-22.7427843325 C -0.9739973058,-22.7634739014 -1.7585928788,-22.6752413475 -2.3966773194,-22.4991921368" />
      <path d="M -2.3966773194,-22.4991921368 C -2.6683876737,-22.4243856181 -2.910397093,-22.3360318959 -3.1227055772,-22.2341309703 C -3.6874371705,-21.9644847122 -4.002319165,-21.6085158815 -3.9999632595,-21.2510045975" />
      <path d="M 4.0000367332,-21.8117879745 C 4.0042850783,-22.3215233279 3.5729413926,-22.8279900109 2.8284631304,-23.2007474752" />
      <path d="M 2.8284631304,-21.9389577494 C 2.1311426156,-22.293058643 1.1648610286,-22.5250014044 0.1760574996,-22.5868420848 C -0.5051386178,-22.6308614924 -1.1933242056,-22.5960056475 -1.8017614211,-22.4905049877 C -2.2865156999,-22.4069033462 -2.7204381952,-22.2790969904 -3.0684041524,-22.1193907643 C -3.666695754,-21.8468043128 -4.00262726,-21.4796858972 -3.9999632409,-21.1107858827" />
      <path d="M -3.9999632409,-21.1107858827 Q -3.9993192308,-20.8585934436 -3.8033406412,-20.6201082926" />
      <path d="M 3.870854352,-21.1808964312 Q 3.9997623268,-21.4226016994 4.000036734,-21.6715766557" />
      <path d="M 4.000036734,-21.6715766557 C 4.0042861597,-22.1813095462 3.572931788,-22.687764503 2.8284631304,-23.060534384" />
      <path d="M 2.8284631304,-23.2007474752 Q 2.3791558017,-23.4268194757 1.8136595133,-23.5822416444" />
      <path d="M 1.8136595133,-23.5822416444 C 1.2021209993,-23.7506189725 0.5092197528,-23.8474710934 -0.1765969128,-23.8643581756 C -0.9739803419,-23.8850473117 -1.7585600367,-23.7968189882 -2.3966372716,-23.6207769901" />
      <path d="M -2.3966372716,-23.6207769901 C -2.6683631749,-23.545968371 -2.9103855303,-23.4576111804 -3.1227043378,-23.3557054185 C -3.6874370126,-23.0860589351 -4.0023195099,-22.7300896146 -3.9999632595,-22.3725778583" />
      <path d="M 4.0000367331,-22.9333617797 C 4.0042851566,-23.4430973936 3.5729407617,-23.9495642786 2.8284631304,-24.3223213282" />
      <path d="M 2.8284631304,-23.060534384 C 2.1311483758,-23.4146322993 1.1648771421,-23.6465742498 0.1760821163,-23.708417141 C -0.5050864382,-23.752436592 -1.193245092,-23.7175873008 -1.8016661124,-23.612098088 C -2.2859854445,-23.5285778887 -2.7195702354,-23.4009338852 -3.0673854191,-23.2414341632 C -3.6663048165,-22.9687978657 -4.0026332211,-22.6014738126 -3.9999632366,-22.2323624021" />
      <path d="M -3.9999632366,-22.2323624021 Q -3.9993188987,-21.9801683788 -3.803339494,-21.7416835355" />
      <path d="M 3.8708536088,-22.3024716749 Q 3.9997623151,-22.5441776896 4.0000367348,-22.7931532957" />
      <path d="M 4.0000367348,-22.7931532957 C 4.0042850853,-23.3028858143 3.5729358093,-23.8093384549 2.8284631304,-24.1821110185" />
      <path d="M 2.8284631304,-24.3223213282 Q 2.379135553,-24.5484034412 1.813609872,-24.7038291317" />
      <path d="M 1.813609872,-24.7038291317 C 1.2020833759,-24.872198163 0.509200809,-24.9690454263 -0.1765974724,-24.9859320427 C -0.9739640067,-25.0066206527 -1.7585274481,-24.9183965576 -2.3965972218,-24.7423618436" />
      <path d="M -2.3965972218,-24.7423618436 C -2.6683397154,-24.667550836 -2.9103758082,-24.5791897927 -3.1227055003,-24.4772787134 C -3.6874374554,-24.2076323027 -4.0023195045,-23.8516632125 -3.9999632595,-23.4941517143" />
      <path d="M 4.0000367342,-24.0549356317 C 4.0042851225,-24.5646711628 3.5729409375,-25.0711380515 2.8284631304,-25.4438951813" />
      <path d="M 2.8284631304,-24.1821110185 C 2.1311470798,-24.5362096039 1.1648735163,-24.768151737 0.1760765773,-24.8299941307 C -0.5050996074,-24.8740136664 -1.1932657745,-24.8391626563 -1.8016913831,-24.7336703569 C -2.2861310964,-24.6501276971 -2.7198094124,-24.5224388543 -3.0676664629,-24.3628820688 C -3.666412789,-24.0902595981 -4.0026316819,-23.7229917505 -3.9999632406,-23.3539390916" />
      <path d="M -3.9999632406,-23.3539390916 Q -3.9993192032,-23.1017450154 -3.8033383471,-22.8632587781" />
      <path d="M 3.8708528658,-23.424046919 Q 3.9997622908,-23.6657534362 4.0000367351,-23.9147299232" />
      <path d="M 4.0000367351,-23.9147299232 C 4.0042853214,-24.4244625849 3.5729346894,-24.9309158788 2.8284631304,-25.3036876531" />
      <path d="M 2.8284631304,-25.4438951813 Q 2.3791153521,-25.6699873829 1.8135603479,-25.8254165865" />
      <path d="M 1.8135603479,-25.8254165865 C 1.2020459712,-25.9937773047 0.5091822045,-26.0906197174 -0.1765975938,-26.1075058989 C -0.9739473828,-26.1281940254 -1.7584947415,-26.0399741597 -2.3965571699,-25.8639466974" />
      <path d="M -2.3965571699,-25.8639466974 C -2.6683157953,-25.7891334287 -2.9103652727,-25.7007687021 -3.1227056023,-25.5988525176 C -3.68743718,-25.3292062607 -4.0023191648,-24.9732374359 -3.9999632595,-24.6157261565" />
      <path d="M 4.0000367329,-25.1765095341 C 4.0042850491,-25.6862451342 3.572940996,-26.1927118177 2.8284631304,-26.5654690344" />
      <path d="M 2.8284631304,-25.3036876531 C 2.1311506223,-25.6577844069 1.1648834257,-25.8897260413 0.176091716,-25.9515697946 C -0.5050679582,-25.9955893861 -1.1932180093,-25.9607423309 -1.8016339487,-25.8552569135 C -2.2858109022,-25.7717634407 -2.7192851642,-25.6441726388 -3.0670510039,-25.484740568 C -3.6661766,-25.2120880466 -4.0026352361,-24.8446960194 -3.9999632391,-24.4755157063" />
      <path d="M -3.9999632391,-24.4755157063 Q -3.9993190715,-24.2233206031 -3.8033371987,-23.9848340225" />
      <path d="M 3.8708521231,-24.5456221635 Q 3.9997621726,-24.7873288508 4.0000367349,-25.0363065547" />
      <path d="M 4.0000367349,-25.0363065547 C 4.0042858874,-25.5460394246 3.5729325133,-26.0524939756 2.8284631304,-26.4252642877" />
      <path d="M 2.8284631304,-26.5654690344 Q 2.3790950296,-26.7915713853 1.8135105251,-26.9470041228" />
      <path d="M 1.8135105251,-26.9470041228 C 1.2020082935,-27.1153564913 0.5091633794,-27.2121940262 -0.1765978768,-27.2290797591 C -0.9739308685,-27.2497673865 -1.7584620843,-27.1615517489 -2.3965171254,-26.9855315488" />
      <path d="M -2.3965171254,-26.9855315488 C -2.6682920199,-26.9107159806 -2.9103549875,-26.8223475198 -3.122706028,-26.7204261662 C -3.6874379508,-26.45077965 -4.0023198198,-26.0948104359 -3.9999632595,-25.73729887" />
      <path d="M 2.8284631304,-26.4252642877 C 2.1311521263,-26.7793602639 1.1648876328,-27.0113016866 0.1760981432,-27.0731460171 C -0.5050552177,-27.1171656783 -1.1931991349,-27.0823201831 -1.8016114295,-26.9768374383 C -2.2856868661,-26.8933629914 -2.7190822957,-26.7658100843 -3.0668128916,-26.6064262129 C -3.6660850611,-26.3337622397 -4.0026363755,-25.9663220927 -3.9999632417,-25.5970928099" />
      <path d="M -3.9999632417,-25.5970928099 Q -3.9993194217,-25.3448972284 -3.8033360506,-25.1064092666" />
      <path d="M 3.8708513796,-25.6671974069 Q 3.9997644047,-25.9089142996 4.0000367407,-26.1578832056" />
      <line x1="28.28431901" y1="-9.6780313341" x2="42.4264509597" y2="-15.9218394579" />
      <line x1="42.4264509597" y1="-18.1649879174" x2="42.4264509597" y2="-15.9218394579" />
      <line x1="-42.4263774788" y1="-43.1402041915" x2="-42.4263774788" y2="-40.8970557319" />
      <line x1="-42.4263774788" y1="-40.8970557319" x2="-28.2842455292" y2="-47.1408638557" />
      <line x1="-28.2842455292" y1="-49.3840123152" x2="-28.2842455292" y2="-47.1408638557" />
      <line x1="-42.4263774788" y1="-43.1402041915" x2="-28.2842455292" y2="-49.3840123152" />
      <line x1="28.28431901" y1="-9.6780313341" x2="3.988836444" y2="-20.4045734366" />
      <line x1="-14.1420988833" y1="-28.4094459728" x2="-42.4263774788" y2="-40.8970557319" />
      <line x1="42.4264509597" y1="-18.1649879174" x2="19.2228726919" y2="-28.4094503825" />
      <line x1="2.5403832302" y1="-35.7748289091" x2="-28.2842455292" y2="-49.3840123152" />
      <line x1="42.4264509597" y1="-15.9218394579" x2="16.682522528" y2="-27.28787557" />
      <line x1="3.30664e-05" y1="-34.6532540966" x2="-28.2842455292" y2="-47.1408638557" />
      <line x1="-42.4263627827" y1="-15.9218297253" x2="-42.4263627827" y2="-13.6786812657" />
      <line x1="-42.4263627827" y1="-13.6786812657" x2="-28.2842234849" y2="-7.4348763862" />
      <line x1="28.2842969658" y1="-47.1408703441" x2="28.2842969658" y2="-44.8977218846" />
      <line x1="28.2842969658" y1="-44.8977218846" x2="42.4264362635" y2="-38.653917005" />
      <line x1="42.4264362635" y1="-40.8970654645" x2="42.4264362635" y2="-38.653917005" />
      <line x1="28.2842969658" y1="-47.1408703441" x2="42.4264362635" y2="-40.8970654645" />
      <line x1="-42.4263627827" y1="-15.9218297253" x2="28.2842969658" y2="-47.1408703441" />
      <line x1="-42.4263627827" y1="-13.6786812657" x2="28.2842969658" y2="-44.8977218846" />
      <line x1="-28.2842234849" y1="-7.4348763862" x2="-3.9265104116" y2="-18.1889046546" />
      <line x1="4.0000367404" y1="-21.6885070963" x2="42.4264362635" y2="-38.653917005" />
      <line x1="3.30664e-05" y1="-11.1001952714" x2="-14.1420988833" y2="-4.8563871476" />
      <line x1="3.30664e-05" y1="-11.1001952714" x2="28.2843116619" y2="1.3874144878" />
      <line x1="28.2843116619" y1="46.2503836787" x2="14.1421797123" y2="52.4941918024" />
      <line x1="28.2843116619" y1="1.3874144878" x2="28.2843116619" y2="46.2503836787" />
      <line x1="3.30664e-05" y1="33.7627739195" x2="-14.1420988833" y2="40.0065820433" />
      <line x1="28.2843116619" y1="46.2503836787" x2="3.30664e-05" y2="33.7627739195" />
      <line x1="14.1421797123" y1="52.4941918024" x2="2.5403905783" y2="47.3719605699" />
      <line x1="3.30664e-05" y1="31.51962546" x2="-14.1420988833" y2="37.7634335838" />
      <line x1="3.30664e-05" y1="33.7627739195" x2="3.30664e-05" y2="31.51962546" />
      <line x1="-14.1420988833" y1="40.0065820433" x2="-14.1420988833" y2="37.7634335838" />
      <line x1="3.30664e-05" y1="31.51962546" x2="26.5165442497" y2="43.2267596092" />
      <line x1="26.5165442497" y1="2.8500873374" x2="12.3744123" y2="9.0938954611" />
      <line x1="26.5165442497" y1="43.2267596092" x2="26.5165442497" y2="2.8500873374" />
      <line x1="12.3744123" y1="36.9829579738" x2="12.3744123" y2="9.0938954611" />
      <line x1="3.30664e-05" y1="-8.8570468118" x2="-14.1420988833" y2="-2.613238688" />
      <line x1="26.5165442497" y1="2.8500873374" x2="3.30664e-05" y2="-8.8570468118" />
      <line x1="12.3744123" y1="9.0938954611" x2="5.7749870895" y2="6.1802257211" />
      <line x1="3.30664e-05" y1="-8.8570468118" x2="3.30664e-05" y2="-11.1001952714" />
      <line x1="-14.1420988833" y1="-2.613238688" x2="-14.1420988833" y2="-4.8563871476" />
      <line x1="14.1421723642" y1="-2.6132419322" x2="3.30664e-05" y2="-8.8570468118" />
      <line x1="3.30664e-05" y1="-8.8570468118" x2="-28.284230833" y2="3.6305694357" />
      <line x1="-14.1420915352" y1="54.7373435062" x2="-28.284230833" y2="48.4935386266" />
      <line x1="-28.284230833" y1="3.6305694357" x2="-28.284230833" y2="48.4935386266" />
      <line x1="14.1421723642" y1="42.2497272586" x2="3.30664e-05" y2="36.0059223791" />
      <line x1="-14.1420915352" y1="54.7373435062" x2="14.1421723642" y2="42.2497272586" />
      <line x1="-28.284230833" y1="48.4935386266" x2="3.30664e-05" y2="36.0059223791" />
      <line x1="14.1421723642" y1="40.0065787991" x2="3.30664e-05" y2="33.7627739195" />
      <line x1="14.1421723642" y1="42.2497272586" x2="14.1421723642" y2="40.0065787991" />
      <line x1="3.30664e-05" y1="36.0059223791" x2="3.30664e-05" y2="33.7627739195" />
      <line x1="3.30664e-05" y1="33.7627739195" x2="-26.5164643393" y2="45.4699141516" />
      <line x1="-12.3743250415" y1="11.3370467594" x2="-26.5164643393" y2="5.0932418798" />
      <line x1="-12.3743250415" y1="36.9829543241" x2="-12.3743250415" y2="11.3370467594" />
      <line x1="-26.5164643393" y1="45.4699141516" x2="-26.5164643393" y2="5.0932418798" />
      <line x1="14.1421723642" y1="-0.3700934727" x2="3.30664e-05" y2="-6.6138983523" />
      <line x1="-12.3743250415" y1="11.3370467594" x2="-3.1772020296" y2="7.2764799664" />
      <line x1="7.2498452108" y1="2.6728966807" x2="14.1421723642" y2="-0.3700934727" />
      <line x1="-26.5164643393" y1="5.0932418798" x2="3.30664e-05" y2="-6.6138983523" />
      <line x1="14.1421723642" y1="-0.3700934727" x2="14.1421723642" y2="-2.6132419322" />
      <line x1="3.30664e-05" y1="-6.6138983523" x2="3.30664e-05" y2="-8.8570468118" />
      <path d="M 2.8325770433,-9.849617015 Q 2.6272964518,-10.0181143602 2.3500877346,-10.1615713407" />
      <path d="M 2.3500877346,-10.1615713407 Q 2.3210560676,-10.1272740506 2.3038957973,-10.0830316684" />
      <path d="M 2.8284631305,-10.7231914056 L 2.3500877346,-10.1615713407" />
      <path d="M -1.7384931392,-10.3326289607 Q -1.8974529116,-10.2995552265 -2.0445070174,-10.2589049868" />
      <path d="M 2.3500877346,-10.1615713407 C 2.0289030835,-10.3279546856 1.6409051118,-10.4646632235 1.2179333144,-10.5624879732" />
      <path d="M -0.8395041856,-10.7295361987 C -1.4206334667,-10.6951673581 -1.9585579475,-10.5894371041 -2.3774871001,-10.4317883246 C -2.7975984178,-10.2746494787 -3.0973532625,-10.0662080297 -3.2345096001,-9.8403784419" />
      <path d="M 3.0810346446,-10.7241882569 C 2.9146659768,-10.9299567049 2.6644679072,-11.1206385813 2.3500853554,-11.2831424224" />
      <path d="M 2.3500853554,-11.2831424224 C 2.306312442,-11.2326585857 2.2804137612,-11.1550789273 2.28728639,-11.0950261926" />
      <path d="M 2.8284631304,-11.8447680398 L 2.3500853554,-11.2831424224" />
      <path d="M 1.4635719005,-11.3413731881 C 0.9074866652,-11.4955303181 0.2737571985,-11.5786720982 -0.3426787301,-11.5833233667 C -0.9593086404,-11.588797516 -1.5563795178,-11.5158829693 -2.0444738164,-11.3804851121" />
      <path d="M 2.3500853554,-11.2831424224 C 1.9344673018,-11.4987163633 1.4059549141,-11.6638668838 0.8361622554,-11.7605120963 C 0.2667582746,-11.8578085397 -0.3421920567,-11.8863945044 -0.9081051946,-11.8466715783 C -1.4744363502,-11.8075979243 -1.9960388504,-11.7004282775 -2.4021852648,-11.5439833519 C -2.8094358584,-11.3880046247 -3.1000113215,-11.1833140984 -3.2345029969,-10.9619558012" />
      <path d="M 3.0810250608,-11.8457678907 C 2.9146565473,-12.0515330818 2.6644611156,-12.2422119245 2.3500829762,-12.404713504" />
      <path d="M 2.3500829762,-12.404713504 C 2.3063110806,-12.3542305429 2.2804126349,-12.2766530056 2.2872840697,-12.2166008859" />
      <path d="M 2.8284631304,-12.9663446741 L 2.3500829762,-12.404713504" />
      <path d="M 1.4635291721,-12.4629559457 C 0.9074534617,-12.6171059228 0.2737394929,-12.7002435508 -0.3426815413,-12.7048945085 C -0.959296541,-12.7103682706 -1.5563533771,-12.6374571669 -2.044440614,-12.5020652376" />
      <path d="M 2.3500829762,-12.404713504 C 1.9344662007,-12.6202867952 1.4059556979,-12.7854369366 0.8361649802,-12.8820821575 C 0.2667629385,-12.979378603 -0.3421854182,-13.0079649587 -0.9080971535,-12.9682427487 C -1.4744268992,-12.929169805 -1.9960285803,-12.8220011895 -2.4021751684,-12.6655573895 C -2.8094259219,-12.5095797853 -3.1000025479,-12.3048904679 -3.2344963935,-12.0835331605" />
      <path d="M 3.0810154779,-12.9673475233 C 2.9146471186,-13.1731094579 2.6644543247,-13.3637852674 2.3500805971,-13.5262845856" />
      <path d="M 2.3500805971,-13.5262845856 C 2.3063097191,-13.4758025001 2.2804115086,-13.3982270838 2.2872817495,-13.3381755792" />
      <path d="M 2.8284631304,-14.0879213085 L 2.3500805971,-13.5262845856" />
      <path d="M 1.4634864421,-13.5845387035 C 0.9074202572,-13.7386815274 0.2737217869,-13.8218150035 -0.3426843526,-13.8264656503 C -0.9592844413,-13.8319390252 -1.5563272355,-13.7590313645 -2.0444074103,-13.6236453631" />
      <path d="M 2.3500805971,-13.5262845856 C 1.9344650995,-13.7418572271 1.4059564818,-13.9070069894 0.836167705,-14.0036522187 C 0.2667676023,-14.1009486662 -0.3421787797,-14.1295354129 -0.9080891123,-14.089813919 C -1.4744174482,-14.0507416857 -1.99601831,-13.9435741015 -2.402165072,-13.7871314272 C -2.8094159854,-13.6311549458 -3.0999937741,-13.4264668373 -3.2344897901,-13.2051105199" />
      <path d="M 3.0810058947,-14.0889271563 C 2.9146376897,-14.2946858343 2.6644475336,-14.4853586104 2.3500782179,-14.6478556672" />
      <path d="M 2.3500782179,-14.6478556672 C 2.3063083577,-14.5973744572 2.2804103823,-14.519801162 2.2872794293,-14.4597502724" />
      <path d="M 2.8284631304,-15.2094979428 L 2.3500782179,-14.6478556672" />
      <path d="M 1.4634437106,-14.7061214613 C 0.9073870517,-14.8602571321 0.2737040804,-14.9433864561 -0.3426871638,-14.9480367921 C -0.9592723411,-14.9535097798 -1.5563010931,-14.8806055621 -2.0443742052,-14.7452254888" />
      <path d="M 2.3500782179,-14.6478556672 C 1.9344639984,-14.8634276589 1.4059572656,-15.0285770422 0.8361704299,-15.1252222798 C 0.2667722663,-15.2225187294 -0.3421721411,-15.2511058672 -0.908081071,-15.2113850893 C -1.4744079971,-15.1723135664 -1.9960080397,-15.0651470135 -2.4021549755,-14.9087054648 C -2.8094060487,-14.7527301064 -3.0999850003,-14.5480432068 -3.2344831867,-14.3266878793" />
      <path d="M 3.0809963098,-15.2105067913 C 2.9146282591,-15.4162622119 2.6644407415,-15.6069319538 2.3500758388,-15.7694267488" />
      <path d="M 2.3500758388,-15.7694267488 C 2.3063069962,-15.7189464144 2.2804092561,-15.6413752401 2.2872771092,-15.5813249656" />
      <path d="M 2.8284631304,-16.3310745772 L 2.3500758388,-15.7694267488" />
      <path d="M 1.4634009776,-15.8277042192 C 0.9073538453,-15.9818327367 0.2736863733,-16.0649579088 -0.3426899752,-16.0696079339 C -0.9592602404,-16.0750805344 -1.5562749498,-16.0021797598 -2.0443409987,-15.8668056146" />
      <path d="M 2.3500758388,-15.7694267488 C 1.9344628973,-15.9849980908 1.4059580495,-16.1501470949 0.8361731548,-16.246792341 C 0.2667769302,-16.3440887926 -0.3421655024,-16.3726763214 -0.9080730297,-16.3329562596 C -1.4743985459,-16.293885447 -1.9959977693,-16.1867199255 -2.4021448789,-16.0302795024 C -2.809396112,-15.8743052669 -3.0999762263,-15.6696195763 -3.2344765831,-15.4482652388" />
      <path d="M 3.0809867236,-16.3320864276 C 2.9146188274,-16.5378385903 2.6644339487,-16.7285052977 2.3500734596,-16.8909978304" />
      <path d="M 2.3500734596,-16.8909978304 C 2.3063056347,-16.8405183716 2.2804081298,-16.7629493182 2.2872747891,-16.7028996588" />
      <path d="M 2.8284631304,-17.4526512116 L 2.3500734596,-16.8909978304" />
      <path d="M 1.463358243,-16.9492869773 C 0.9073206379,-17.1034083414 0.2736686658,-17.1865293614 -0.3426927865,-17.1911790757 C -0.9592481394,-17.196651289 -1.5562488057,-17.1237539575 -2.0443077909,-16.9883857405" />
      <path d="M 2.3500734596,-16.8909978304 C 1.9344617962,-17.1065685226 1.4059588334,-17.2717171476 0.8361758798,-17.3683624021 C 0.2667815942,-17.4656588558 -0.3421588637,-17.4942467756 -0.9080649884,-17.4545274299 C -1.4743890946,-17.4154573277 -1.9959874988,-17.3082928374 -2.4021347822,-17.1518535401 C -2.8093861751,-16.9958804275 -3.0999674523,-16.7911959459 -3.2344699794,-16.5698425982" />
      <path d="M 3.0809771396,-17.4536660613 C 2.9146093978,-17.6594149671 2.6644271572,-17.8500786409 2.3500710805,-18.0125689119" />
      <path d="M 2.3500710805,-18.0125689119 C 2.3063042732,-17.9620903287 2.2804070035,-17.8845233962 2.2872724691,-17.824474352" />
      <path d="M 2.8284631304,-18.574227846 L 2.3500710805,-18.0125689119" />
      <path d="M 1.4633155068,-18.0708697354 C 0.9072874295,-18.2249839461 0.2736509578,-18.308100814 -0.3426955979,-18.3127502174 C -0.959236038,-18.3182220436 -1.5562226607,-18.2453281552 -2.0442745817,-18.1099658665" />
      <path d="M 2.3500710805,-18.0125689119 C 1.9344606951,-18.2281389545 1.4059596173,-18.3932872004 0.8361786047,-18.4899324632 C 0.2667862582,-18.587228919 -0.342152225,-18.6158172298 -0.9080569469,-18.5760986002 C -1.4743796433,-18.5370292084 -1.9959772282,-18.4298657494 -2.4021246855,-18.2734275777 C -2.8093762382,-18.1174555881 -3.0999586782,-17.9127723154 -3.2344633757,-17.6914199577" />
      <path d="M 3.0809675568,-18.5752456932 C 2.9145999696,-18.7809913428 2.6644203666,-18.9716519835 2.3500687013,-19.1341399935" />
      <path d="M 2.3500687013,-19.1341399935 C 2.3063029117,-19.0836622858 2.2804058772,-19.0060974741 2.2872701492,-18.9460490452" />
      <path d="M 2.8284631304,-19.6958044805 L 2.3500687013,-19.1341399935" />
      <path d="M 1.4632727691,-19.1924524936 C 0.9072542201,-19.3465595508 0.2736332493,-19.4296722666 -0.3426984093,-19.4343213592 C -0.9592239361,-19.4397927982 -1.5561965148,-19.3669023529 -2.0442413712,-19.2315459926" />
      <path d="M 2.3500687013,-19.1341399935 C 1.934459594,-19.3497093863 1.4059604012,-19.5148572531 0.8361813297,-19.6115025243 C 0.2667909223,-19.7087989821 -0.3421455862,-19.7373876839 -0.9080489055,-19.6976697704 C -1.4743701919,-19.6586010891 -1.9959669576,-19.5514386614 -2.4021145886,-19.3950016154 C -2.8093663012,-19.2390307487 -3.099949904,-19.034348685 -3.2344567719,-18.8129973172" />
      <path d="M 3.0809579712,-19.6968253285 C 2.9145905385,-19.9025677206 2.6644135743,-20.0932253271 2.3500663222,-20.2557110751" />
      <path d="M 2.3500663222,-20.2557110751 C 2.3063015502,-20.2052342429 2.280404751,-20.1276715519 2.2872678293,-20.0676237383" />
      <path d="M 2.8284631304,-20.8173811149 L 2.3500663222,-20.2557110751" />
      <path d="M 1.4632300298,-20.3140352519 C 0.9072210098,-20.4681351555 0.2736155403,-20.5512437192 -0.3427012208,-20.555892501 C -0.9592118338,-20.5613635528 -1.5561703681,-20.4884765507 -2.0442081592,-20.3531261189" />
      <path d="M 2.3500663222,-20.2557110751 C 1.9344584929,-20.4712798181 1.4059611852,-20.6364273057 0.8361840548,-20.7330725854 C 0.2667955864,-20.8303690453 -0.3421389473,-20.8589581381 -0.9080408639,-20.8192409407 C -1.4743607404,-20.7801729697 -1.9959566868,-20.6730115734 -2.4021044917,-20.5165756531 C -2.8093563641,-20.3606059093 -3.0999411297,-20.1559250546 -3.234450168,-19.9345746768" />
      <path d="M 3.080948385,-20.8184049644 C 2.9145811071,-21.0241440987 2.6644067817,-21.2147986708 2.3500639431,-21.3772821566" />
      <path d="M 2.3500639431,-21.3772821566 C 2.3063001887,-21.3268062 2.2804036247,-21.2492456297 2.2872655095,-21.1891984314" />
      <path d="M 2.8284631304,-21.9389577494 L 2.3500639431,-21.3772821566" />
      <path d="M 1.4631872888,-21.4356180103 C 0.9071877984,-21.5897107602 0.2735978308,-21.6728151718 -0.3427040323,-21.6774636427 C -0.9591997311,-21.6829343074 -1.5561442204,-21.6100507485 -2.0441749459,-21.4747062453" />
      <path d="M 2.3500639431,-21.3772821566 C 1.9344573918,-21.5928502499 1.4059619691,-21.7579973584 0.8361867798,-21.8546426465 C 0.2668002506,-21.9519391084 -0.3421323084,-21.9805285922 -0.9080328223,-21.9408121109 C -1.4743512889,-21.9017448504 -1.995946416,-21.7945844853 -2.4020943947,-21.6381496907 C -2.8093464269,-21.4821810699 -3.0999323553,-21.2775014242 -3.234443564,-21.0561520363" />
      <path d="M 3.0809388008,-21.9399845978 C 2.9145716775,-22.1457204753 2.6643999903,-22.3363720139 2.3500615639,-22.4988532382" />
      <path d="M 2.3500615639,-22.4988532382 C 2.3062988271,-22.4483781571 2.2804024985,-22.3708197074 2.2872631897,-22.3107731245" />
      <path d="M 2.8284631304,-23.060534384 L 2.3500615639,-22.4988532382" />
      <path d="M 1.4631445463,-22.5572007688 C 0.9071545861,-22.711286365 0.2735801208,-22.7943866244 -0.3427068438,-22.7990347845 C -0.9591876279,-22.804505062 -1.5561180719,-22.7316249463 -2.0441417312,-22.5962863718" />
      <path d="M 2.3500615639,-22.4988532382 C 1.9344562908,-22.7144206817 1.4059627531,-22.8795674111 0.8361895049,-22.9762127075 C 0.2668049148,-23.0735091715 -0.3421256694,-23.1020990464 -0.9080247806,-23.0623832812 C -1.4743418373,-23.023316731 -1.9959361451,-22.9161573973 -2.4020842975,-22.7597237284 C -2.8093364896,-22.6037562306 -3.0999235808,-22.3990777938 -3.2344369599,-22.1777293959" />
      <path d="M 3.0809292144,-23.0615642337 C 2.9145622459,-23.2672968534 2.6643931977,-23.4579453576 2.3500591848,-23.6204243197" />
      <path d="M 2.3500591848,-23.6204243197 C 2.3062974656,-23.5699501142 2.2804013722,-23.4923937851 2.28726087,-23.4323478176" />
      <path d="M 2.8284631304,-24.1821110185 L 2.3500591848,-23.6204243197" />
      <path d="M 1.4631018023,-23.6787835274 C 0.9071213728,-23.8328619697 0.2735624104,-23.915958077 -0.3427096554,-23.9206059263 C -0.9591755243,-23.9260758167 -1.5560919225,-23.8531991442 -2.0441085151,-23.7178664984" />
      <path d="M 2.3500591848,-23.6204243197 C 1.9344551897,-23.8359911134 1.4059635372,-24.0011374637 0.83619223,-24.0977827685 C 0.266809579,-24.1950792346 -0.3421190304,-24.2236695005 -0.9080167389,-24.1839544514 C -1.4743323856,-24.1448886116 -1.9959258741,-24.0377303092 -2.4020742003,-23.8812977661 C -2.8093265523,-23.7253313912 -3.0999148062,-23.5206541634 -3.2344303557,-23.2993067556" />
      <path d="M 3.0809196293,-24.1831438678 C 2.9145528157,-24.3888732305 2.664386406,-24.5795187009 2.3500568057,-24.7419954012" />
      <path d="M 2.3500568057,-24.7419954012 C 2.306296104,-24.6915220712 2.2804002459,-24.6139678627 2.2872585504,-24.5539225106" />
      <path d="M 2.8284631304,-25.3036876531 L 2.3500568057,-24.7419954012" />
      <path d="M 1.4630590566,-24.8003662861 C 0.9070881585,-24.9544375745 0.2735446994,-25.0375295296 -0.342712467,-25.042177068 C -0.9591634203,-25.0476465713 -1.5560657722,-24.9747733421 -2.0440752976,-24.8394466251" />
      <path d="M 2.3500568057,-24.7419954012 C 1.9344540887,-24.9575615452 1.4059643212,-25.1227075163 0.8361949552,-25.2193528295 C 0.2668142433,-25.3166492976 -0.3421123914,-25.3452399546 -0.908008697,-25.3055256216 C -1.4743229338,-25.2664604922 -1.9959156031,-25.1593032212 -2.402064103,-25.0028718037 C -2.8093166148,-24.8469065519 -3.0999060315,-24.6422305331 -3.2344237514,-24.4208841152" />
      <path d="M 3.0809100442,-25.304723502 C 2.9145433855,-25.5104496075 2.6643796142,-25.7010920441 2.3500544266,-25.8635664827" />
      <path d="M 2.3500544266,-25.8635664827 C 2.3062947424,-25.8130940283 2.2803991197,-25.7355419402 2.2872562308,-25.6754972037" />
      <path d="M 2.8284631304,-26.4252642877 L 2.3500544266,-25.8635664827" />
      <path d="M 1.4630163095,-25.9219490449 C 0.9070549432,-26.0760131792 0.2735269879,-26.1591009821 -0.3427152786,-26.1637482097 C -0.9591513159,-26.1692173259 -1.5560396211,-26.09634754 -2.0440420788,-25.9610267519" />
      <path d="M 2.3500544266,-25.8635664827 C 1.9344529877,-26.0791319769 1.4059651052,-26.244277569 0.8361976804,-26.3409228906 C 0.2668189076,-26.4382193607 -0.3421057522,-26.4668104086 -0.9080006552,-26.4270967918 C -1.474313482,-26.3880323728 -1.9959053319,-26.2808761331 -2.4020540057,-26.1244458414 C -2.8093066772,-25.9684817125 -3.0998972567,-25.7638069028 -3.2344171471,-25.5424614749" />
      <path d="M 3.0809004585,-26.4263031366 C 2.9145339548,-26.6320259848 2.6643728222,-26.8226653875 2.3500520475,-26.9851375642" />
      <path d="M 2.3500520475,-26.9851375642 C 2.3062933808,-26.9346659853 2.2803979934,-26.8571160177 2.2872539113,-26.7970718967" />
      <path d="M 2.7850374229,-27.495854717 L 2.3500520475,-26.9851375642" />
      <path d="M 1.4629735607,-27.0435318038 C 0.907021727,-27.197588784 0.2735092759,-27.2806724347 -0.3427180903,-27.2853193515 C -0.9591392111,-27.2907880805 -1.5560134691,-27.2179217379 -2.0440088586,-27.0826068789" />
      <line x1="4.0000367404" y1="-9.3342337054" x2="4.0000367404" y2="-9.47447541" />
      <line x1="-3.9999632596" y1="-9.8950195812" x2="-3.9999632596" y2="-10.0352650319" />
      <line x1="4.0000367404" y1="-10.4558103396" x2="4.0000367404" y2="-10.5960492628" />
      <path d="M -2.0445070174,-10.2589049868 L -2.3971177368,-10.1617587824" />
      <line x1="-3.9999632596" y1="-11.0165962215" x2="-3.9999632596" y2="-11.1568388849" />
      <line x1="4.0000367404" y1="-11.5773869736" x2="4.0000367404" y2="-11.717623116" />
      <path d="M 1.4635719005,-11.3413731881 L 1.8142053032,-11.2447793354" />
      <path d="M -2.0444738164,-11.3804851121 L -2.3970777082,-11.283343634" />
      <line x1="-3.9999632596" y1="-12.1381728506" x2="-3.9999632596" y2="-12.278412738" />
      <line x1="4.0000367404" y1="-12.6989636075" x2="4.0000367404" y2="-12.8391969691" />
      <path d="M 1.4635291721,-12.4629559457 L 1.8141556838,-12.3663668211" />
      <path d="M -2.044440614,-12.5020652376 L -2.3970376779,-12.4049284856" />
      <line x1="-3.9999632596" y1="-13.2597494844" x2="-3.9999632596" y2="-13.399986591" />
      <line x1="4.0000367404" y1="-13.8205402424" x2="4.0000367404" y2="-13.9607708221" />
      <path d="M 1.4634864421,-13.5845387035 L 1.8141060618,-13.4879543071" />
      <path d="M -2.0444074103,-13.6236453631 L -2.3969976458,-13.5265133375" />
      <line x1="-3.9999632596" y1="-14.3813261176" x2="-3.9999632596" y2="-14.521560444" />
      <line x1="4.0000367404" y1="-14.9421168763" x2="4.0000367404" y2="-15.0823446751" />
      <path d="M 1.4634437106,-14.7061214613 L 1.8140564385,-14.6095417931" />
      <path d="M -2.0443742052,-14.7452254888 L -2.396957612,-14.6480981895" />
      <line x1="-3.9999632596" y1="-15.5029027525" x2="-3.9999632596" y2="-15.6431342971" />
      <line x1="4.0000367404" y1="-16.0636935113" x2="4.0000367404" y2="-16.2039185284" />
      <path d="M 1.4634009776,-15.8277042192 L 1.8140068132,-15.7311292792" />
      <path d="M -2.0443409987,-15.8668056146 L -2.3969175764,-15.7696830417" />
      <line x1="-3.9999632596" y1="-16.6244793862" x2="-3.9999632596" y2="-16.7647081501" />
      <line x1="4.0000367404" y1="-17.1852701458" x2="4.0000367404" y2="-17.3254923814" />
      <path d="M 1.463358243,-16.9492869773 L 1.8139571859,-16.8527167654" />
      <path d="M -2.0443077909,-16.9883857405 L -2.396877539,-16.891267894" />
      <line x1="-3.9999632596" y1="-17.7460560248" x2="-3.9999632596" y2="-17.8862820032" />
      <line x1="4.0000367404" y1="-18.3068467801" x2="4.0000367404" y2="-18.4470662344" />
      <path d="M 1.4633155068,-18.0708697354 L 1.8139075567,-17.9743042518" />
      <path d="M -2.0442745817,-18.1099658665 L -2.3968374998,-18.0128527465" />
      <line x1="-3.9999632596" y1="-18.8676326552" x2="-3.9999632596" y2="-19.0078558562" />
      <line x1="4.0000367404" y1="-19.4284234146" x2="4.0000367404" y2="-19.5686400876" />
      <path d="M 1.4632727691,-19.1924524936 L 1.8138579255,-19.0958917383" />
      <path d="M -2.0442413712,-19.2315459926 L -2.3967974589,-19.1344375992" />
      <line x1="-3.9999632596" y1="-19.9892092902" x2="-3.9999632596" y2="-20.1294297093" />
      <line x1="4.0000367404" y1="-20.550000049" x2="4.0000367404" y2="-20.6902139406" />
      <path d="M 1.4632300298,-20.3140352519 L 1.8138082923,-20.217479225" />
      <path d="M -2.0442081592,-20.3531261189 L -2.3967574162,-20.256022452" />
      <line x1="-3.9999632596" y1="-21.1107859257" x2="-3.9999632596" y2="-21.2510035624" />
      <line x1="4.0000367404" y1="-21.671576683" x2="4.0000367404" y2="-21.8117877937" />
      <path d="M 1.4631872888,-21.4356180103 L 1.8137586571,-21.3390667118" />
      <path d="M -2.0441749459,-21.4747062453 L -2.3967173717,-21.3776073051" />
      <line x1="-3.9999632596" y1="-22.2323625589" x2="-3.9999632596" y2="-22.3725774154" />
      <line x1="4.0000367404" y1="-22.7931533182" x2="4.0000367404" y2="-22.9333616466" />
      <path d="M 1.4631445463,-22.5572007688 L 1.8137090204,-22.4606541987" />
      <path d="M -2.0441417312,-22.5962863718 L -2.3966773254,-22.4991921582" />
      <line x1="-3.9999632596" y1="-23.3539391946" x2="-3.9999632596" y2="-23.4941512685" />
      <line x1="4.0000367404" y1="-23.9147299527" x2="4.0000367404" y2="-24.0549354997" />
      <path d="M 1.4631018023,-23.6787835274 L 1.8136593807,-23.5822416859" />
      <path d="M -2.0441085151,-23.7178664984 L -2.3966372773,-23.6207770116" />
      <line x1="-3.9999632596" y1="-24.4755158288" x2="-3.9999632596" y2="-24.6157251216" />
      <line x1="4.0000367404" y1="-25.036306587" x2="4.0000367404" y2="-25.1765093528" />
      <path d="M 1.4630590566,-24.8003662861 L 1.8136097395,-24.7038291732" />
      <path d="M -2.0440752976,-24.8394466251 L -2.3965972275,-24.7423618651" />
      <line x1="-3.9999632596" y1="-25.5970924631" x2="-3.9999632596" y2="-25.7372989747" />
      <path d="M 1.4630163095,-25.9219490449 L 1.813560097,-25.8254166605" />
      <path d="M -2.0440420788,-25.9610267519 L -2.3965571759,-25.8639467188" />
      <path d="M 1.4629735607,-27.0435318038 L 1.8135104507,-26.9470041484" />
      <path d="M -2.0440088586,-27.0826068789 L -2.3965171221,-26.9855315728" />
    </g>
  </g>
</svg>