<?xml version='1.0' encoding='utf-8'?>
<svg width="77.685233mm" height="100.999999mm" viewBox="-10.130403 -11.807495 20.260806 26.341446" version="1.1" xmlns="http://www.w3.org/2000/svg">
  <g transform="scale(1,-1)" stroke-linecap="round">
    <g fill="none" stroke="rgb(64,192,64)" stroke-width="0.26080639936590544" id="Visible">
      <line x1="-7.071068" y1="-10.535474" x2="-7.071068" y2="-6.032408" />
      <line x1="0.0" y1="-14.403549" x2="0.0" y2="-7.634617" />
      <line x1="7.071068" y1="-10.535474" x2="7.071068" y2="-6.032408" />
      <line x1="0.0" y1="-14.403549" x2="7.071068" y2="-10.535474" />
      <line x1="-7.071068" y1="-10.535474" x2="0.0" y2="-14.403549" />
      <path d="M 7.071068,-6.032408 A 10.0,5.470284155867162 0.0 0,1 10.0,-2.164333" />
      <path d="M -10.0,-2.164333 A 10.0,5.470284155867162 0.0 0,1 7.071068,-6.032408" />
      <path d="M 7.071068,2.338732 A 10.0,5.470284155867162 0.0 0,1 10.0,6.206807" />
      <path d="M 10.0,6.206807 A 10.0,5.470284155867162 0.0 0,1 -10.0,6.206807" />
      <path d="M -10.0,6.206807 A 10.0,5.470284155867162 0.0 0,1 7.071068,2.338732" />
      <line x1="-10.0" y1="6.206807" x2="-10.0" y2="-2.164333" />
      <line x1="10.0" y1="6.206807" x2="10.0" y2="-2.164333" />
    </g>
    <g fill="none" stroke="rgb(32,64,32)" stroke-width="0.02347257594293149" id="Hidden" stroke-dasharray="0.000596 0.070716">
      <line x1="-7.071068" y1="-6.032408" x2="-7.071068" y2="-2.164333" />
      <line x1="-7.071068" y1="-2.164333" x2="0.0" y2="1.703742" />
      <line x1="0.0" y1="-6.667399" x2="0.0" y2="1.703742" />
      <line x1="-7.071068" y1="-10.535474" x2="0.0" y2="-6.667399" />
      <line x1="0.0" y1="-7.634617" x2="0.0" y2="-6.032408" />
      <line x1="0.0" y1="-6.032408" x2="7.071068" y2="-2.164333" />
      <line x1="7.071068" y1="-6.032408" x2="7.071068" y2="-2.164333" />
      <line x1="-7.071068" y1="-2.164333" x2="0.0" y2="-6.032408" />
      <line x1="0.0" y1="-6.667399" x2="7.071068" y2="-10.535474" />
      <line x1="0.0" y1="1.703742" x2="7.071068" y2="-2.164333" />
      <path d="M 10.0,-2.164333 A 10.0,5.470284155867162 0.0 0,1 -10.0,-2.164333" />
    </g>
  </g>
</svg>