<?xml version="1.0" encoding="UTF-8" standalone="no"?>
<svg
   xmlns:svg="http://www.w3.org/2000/svg"
   xmlns="http://www.w3.org/2000/svg"
   width="1024.0"
   height="1024.0"

>
    <g transform="scale(29.92145290076111, -29.92145290076111)   translate(16.684167398666414,-18.605412725506408)" stroke-width="0.13333333333333333"  fill="none">
       <!-- hidden lines -->
       <g  stroke="rgb(32,64,32)" fill="none" stroke-dasharray="0.13333333333333333,0.13333333333333333" >

       </g>

       <!-- solid lines -->
       <g  stroke="rgb(64,192,64)" fill="none">
			<path d="M7.071067811865474,1.104315260748463 L7.242470829514667,1.186616817604667 L7.409511253549594,1.27086439374068 L7.572088465064849,1.3570072415668513 L7.730104533627372,1.444993471852742 L7.883464276266064,1.5347700849832457 L8.032075314806452,1.6262830028835742 L8.175848131515838,1.719477101593876 L8.314696123025453,1.8142962444738373 L8.448535652497071,1.9106833160173045 L8.57728610000272,2.008580256256524 L8.700869911087114,2.1079280957352986 L8.81921264348355,2.2086669910299808 L8.932243011955151,2.310736260796915 L9.039892931234434,2.41407442232461 L9.142097557035306,2.518619228568623 L9.238795325112864,2.6243077056468564 L9.329927988347386,2.7310761907726633 L9.415440651830206,2.8388603706029363 L9.495281805930365,2.9475953199780545 L9.569403357322088,3.0572155410303767 L9.637760657954399,3.167655002637705 L9.700312531945439,3.278847180197964 L9.757021300385286,3.3907250957011392 L9.807852804032304,3.5032213580743083 L9.852776423889413,3.6162682037755274 L9.89176509964781,3.7297975376120447 L9.9247953459871,3.8437409737582833 L9.95184726672197,3.9580298769489333 L9.972904566786902,4.072595403822249 L9.987954562051726,4.187368544388724 L9.996988186962042,4.302280163600123 L10.0,4.417261042993816 " />
			<path d="M-10.0,4.417261042993863 L-9.998305817958233,4.331021595390153 L-9.993223845883495,4.244811368851125 L-9.984755805732949,4.158659574540305 L-9.972904566786902,4.072595403822252 L-9.957674144676595,3.9866480183714574 L-9.939069700023559,3.9008465402913184 L-9.917097536690996,3.815220042246496 L-9.89176509964781,3.729797537612047 L-9.863080972445985,3.6446079706426353 L-9.831054874312162,3.559680206665162 L-9.795697656854404,3.4750430222981428 L-9.757021300385283,3.3907250957011437 L-9.715038909862518,3.3067549968575705 L-9.669764710448518,3.223161177894123 L-9.621214042690415,3.139971963440181 L-9.569403357322088,3.0572155410303834 L-9.514350209690079,2.9749199515536677 L-9.456073253805211,2.893113079751996 L-9.394592236021893,2.811822644771988 L-9.329927988347386,2.7310761907726677 L-9.262102421383112,2.6509010775924935 L-9.191138516900573,2.571324471478853 L-9.117060320054296,2.492373335883152 L-9.039892931234426,2.414074422324612 L-8.959662497561848,2.3364542613258803 L-8.876396204028534,2.259539153423526 L-8.790122264286328,2.1833551602564585 L-8.700869911087107,2.107928095735299 L-8.608669386377667,2.0332835172956796 L-8.513551931052646,1.9594467172384613 L-8.415549774368976,1.8864427141597804 L-8.314696123025445,1.8142962444738364 L-8.211025149911038,1.7430317540312923 L-8.104571982525936,1.6726733898361328 L-7.995372691079039,1.6032449918637806 L-7.883464276266052,1.5347700849832417 L-7.768884656732316,1.4672718709860266 L-7.65167265622458,1.4007732207245338 L-7.531867990436114,1.3352966663625794 L-7.409511253549579,1.2708643937406752 L-7.284643904482238,1.2074982348586585 L-7.157308252838171,1.145219660478216 L-7.027547444572237,1.0840497728478082 L-6.8954054473706545,1.0240092985524596 L-6.624157775901704,0.9073975759819901 L-6.3439328416364384,0.7955425285675921 L-6.055110414043235,0.6885957457172642 L-5.758081914178438,0.5867021650075808 L-5.453249884220454,0.48999987575981363 L-5.141027441932203,0.3986199318970325 L-4.82183772079121,0.31268617433579493 L-4.496113296546046,0.23231506315310924 L-4.164295600976348,0.1576155197561535 L-3.8268343236508784,0.08868877926862773 L-3.4841868024943317,0.02562825333378793 L-3.1368174039888976,-0.03148059647988699 L-2.785196893850511,-0.08256037449884435 L-2.429801799032616,-0.12754185583346533 L-2.071113761922159,-0.1663640801937678 L-1.709618887602991,-0.19897443450467023 L-1.3458070850712465,-0.22532872420884953 L-0.980171403295587,-0.2453912331605741 L-0.6132073630220637,-0.25913477202932 L-0.24541228522909753,-0.2665407151475909 L0.12271538285722779,-0.26759902575299677 L0.49067674327420296,-0.26230826959038556 L0.857973123444416,-0.25067561685558637 L1.2241067519921822,-0.23271683247814146 L1.5885814333386377,-0.20845625475619034 L1.9509032201613088,-0.17792676237245164 L2.31058108280674,-0.14116972983602327 L2.6671275747490157,-0.09823497141037141 L3.0200594931923153,-0.049180673603506087 L3.3688985339222293,0.005926683688167955 L3.7131719395183986,0.06701241727545959 L4.052413140049925,0.13399374188934932 L4.386162385385305,0.20677988237413292 L4.713967368260007,0.28527219670871684 L5.035383837257208,0.3693643096893222 L5.3499761988709995,0.45894225709243885 L5.657318107836153,0.5538846401226611 L5.956993044924356,0.65406278993607 L6.248594881423889,0.7593409420162147 L6.531728429537794,0.8695764201663776 L6.8060099779545595,0.9846198298687479 L6.939714608896569,1.0438960358670726 L7.0710678118654355,1.1043152607484452 " />
			<path d="M7.0710678118654755,9.938837346736188 L7.2424708295146685,10.02113890359239 L7.409511253549596,10.105386479728404 L7.572088465064851,10.191529327554576 L7.730104533627374,10.279515557840465 L7.883464276266066,10.36929217097097 L8.032075314806452,10.460805088871298 L8.175848131515838,10.5539991875816 L8.314696123025456,10.648818330461562 L8.448535652497071,10.745205402005029 L8.577286100002723,10.843102342244247 L8.700869911087118,10.942450181723023 L8.81921264348355,11.043189077017704 L8.932243011955155,11.14525834678464 L9.039892931234434,11.248596508312334 L9.142097557035306,11.353141314556348 L9.238795325112868,11.45882979163458 L9.32992798834739,11.565598276760388 L9.415440651830206,11.67338245659066 L9.495281805930365,11.78211740596578 L9.569403357322088,11.8917376270181 L9.637760657954399,12.002177088625428 L9.700312531945439,12.113369266185689 L9.757021300385286,12.225247181688864 L9.807852804032304,12.337743444062033 L9.852776423889413,12.450790289763251 L9.891765099647813,12.564319623599769 L9.924795345987103,12.678263059746008 L9.951847266721973,12.792551962936658 L9.972904566786905,12.907117489809973 L9.987954562051726,13.021890630376447 L9.996988186962046,13.136802249587847 L10.000000000000004,13.251783128981542 " />
			<path d="M10.000000000000004,13.251783128981584 L9.996988186962046,13.366764008375318 L9.987954562051726,13.48167562758672 L9.972904566786905,13.596448768153193 L9.951847266721973,13.71101429502651 L9.924795345987103,13.82530319821716 L9.891765099647813,13.9392466343634 L9.852776423889416,14.052775968199914 L9.807852804032308,14.165822813901132 L9.75702130038529,14.278319076274302 L9.700312531945443,14.390196991777474 L9.637760657954402,14.501389169337733 L9.569403357322091,14.611828630945062 L9.495281805930368,14.721448851997383 L9.41544065183021,14.830183801372502 L9.329927988347393,14.937967981202776 L9.238795325112871,15.044736466328585 L9.14209755703531,15.150424943406817 L9.039892931234437,15.254969749650831 L8.932243011955155,15.358307911178526 L8.819212643483553,15.46037718094546 L8.700869911087118,15.561116076240143 L8.577286100002723,15.66046391571892 L8.448535652497071,15.758360855958138 L8.314696123025456,15.854747927501606 L8.175848131515838,15.949567070381569 L8.032075314806452,16.042761169091868 L7.883464276266066,16.1342740869922 L7.730104533627372,16.224050700122703 L7.572088465064848,16.312036930408595 L7.409511253549594,16.398179778234766 L7.242470829514673,16.482427354370778 L7.071067811865478,16.56472891122698 L6.895405447370673,16.645034873422983 L6.715589548470188,16.723296867649985 L6.531728429537771,16.799467751809075 L6.343932841636459,16.87350164340785 L6.1523159058062715,16.94535394719831 L5.956993044924336,17.014981382039384 L5.758081914178456,17.082342006967863 L5.555702330196024,17.147395246462064 L5.349976198870975,17.210101914883015 L5.141027441932219,17.270424240078412 L4.928981922297841,17.328325886135154 L4.713967368259977,17.38377197526674 L4.496113296546068,17.436729108822334 L4.2755509343028235,17.487165387404882 L4.052413140049902,17.535050430086102 L3.8268343236508997,17.580355392706817 L3.5989503653498818,17.623052985251604 L3.3688985339222017,17.663117488287284 L3.1368174039889176,17.70052476845533 L2.902846772544627,17.735252293008926 L2.667127574748988,17.76727914338582 L2.4298017990326417,17.79658602780891 L2.1910124015686994,17.823155292906872 L1.9509032201612848,17.8469709343479 L1.7096188876030152,17.868018606480113 L1.467304744553619,17.88628563097285 L1.224106751992162,17.90176100445359 L0.9801714032956071,17.91443540513602 L0.7356456359966762,17.924301198435096 L0.4906767432741829,17.931352441565835 L0.2454122852291265,17.93558488712304 L2.2339819534365705e-15,17.93699598563977 L-0.24541228522912203,17.93558488712304 L-0.4906767432741785,17.931352441565835 L-0.7356456359966718,17.924301198435096 L-0.9801714032956027,17.91443540513602 L-1.224106751992158,17.90176100445359 L-1.467304744553615,17.886285630972846 L-1.709618887603011,17.868018606480113 L-1.9509032201612804,17.8469709343479 L-2.191012401568695,17.823155292906876 L-2.429801799032637,17.796586027808914 L-2.667127574748983,17.76727914338582 L-2.902846772544622,17.735252293008926 L-3.1368174039889123,17.700524768455335 L-3.3688985339221995,17.663117488287284 L-3.598950365349882,17.623052985251604 L-3.8268343236508975,17.580355392706817 L-4.0524131400498975,17.535050430086102 L-4.275550934302819,17.487165387404886 L-4.4961132965460635,17.436729108822334 L-4.713967368259977,17.38377197526674 L-4.928981922297844,17.328325886135154 L-5.14102744193222,17.270424240078412 L-5.349976198870974,17.210101914883015 L-5.555702330196023,17.147395246462064 L-5.758081914178453,17.082342006967863 L-5.956993044924333,17.014981382039384 L-6.152315905806267,16.94535394719831 L-6.3439328416364535,16.873501643407852 L-6.531728429537765,16.79946775180908 L-6.715589548470181,16.72329686764999 L-6.895405447370666,16.645034873422986 L-7.071067811865475,16.564728911226982 L-7.242470829514671,16.482427354370778 L-7.409511253549592,16.398179778234766 L-7.572088465064845,16.312036930408595 L-7.730104533627369,16.224050700122707 L-7.883464276266061,16.134274086992203 L-8.032075314806448,16.04276116909187 L-8.175848131515835,15.94956707038157 L-8.314696123025449,15.85474792750161 L-8.448535652497068,15.758360855958143 L-8.577286100002716,15.660463915718923 L-8.70086991108711,15.561116076240149 L-8.81921264348355,15.460377180945464 L-8.932243011955151,15.358307911178528 L-9.039892931234434,15.254969749650833 L-9.142097557035306,15.15042494340682 L-9.238795325112864,15.044736466328587 L-9.329927988347386,14.93796798120278 L-9.415440651830206,14.830183801372506 L-9.495281805930365,14.721448851997389 L-9.569403357322088,14.611828630945064 L-9.637760657954399,14.501389169337735 L-9.700312531945439,14.390196991777476 L-9.757021300385283,14.278319076274304 L-9.807852804032304,14.165822813901135 L-9.85277642388941,14.052775968199915 L-9.891765099647806,13.939246634363402 L-9.924795345987096,13.825303198217163 L-9.951847266721966,13.711014295026514 L-9.972904566786898,13.596448768153198 L-9.987954562051723,13.481675627586723 L-9.996988186962039,13.366764008375323 L-9.999999999999996,13.251783128981607 " />
			<path d="M-9.999999999999996,13.251783128981588 L-9.998305817958233,13.165543681377876 L-9.993223845883492,13.07933345483885 L-9.984755805732945,12.99318166052803 L-9.972904566786898,12.907117489809975 L-9.957674144676595,12.821170104359181 L-9.939069700023555,12.735368626279042 L-9.917097536690992,12.649742128234221 L-9.891765099647806,12.564319623599772 L-9.863080972445982,12.47913005663036 L-9.831054874312159,12.394202292652887 L-9.7956976568544,12.309565108285867 L-9.757021300385283,12.225247181688868 L-9.715038909862514,12.141277082845296 L-9.669764710448518,12.057683263881847 L-9.621214042690411,11.974494049427905 L-9.569403357322084,11.891737627018108 L-9.514350209690079,11.809442037541393 L-9.456073253805208,11.72763516573972 L-9.394592236021893,11.646344730759713 L-9.329927988347382,11.565598276760392 L-9.262102421383108,11.485423163580219 L-9.191138516900573,11.405846557466576 L-9.117060320054293,11.326895421870876 L-9.039892931234426,11.248596508312335 L-8.959662497561844,11.170976347313605 L-8.87639620402853,11.09406123941125 L-8.790122264286325,11.017877246244183 L-8.700869911087104,10.942450181723023 L-8.608669386377663,10.867805603283404 L-8.513551931052643,10.793968803226186 L-8.415549774368976,10.720964800147504 L-8.314696123025442,10.64881833046156 L-8.211025149911034,10.577553840019016 L-8.104571982525936,10.507195475823856 L-7.995372691079037,10.437767077851504 L-7.88346427626605,10.369292170970965 L-7.768884656732315,10.30179395697375 L-7.651672656224578,10.235295306712258 L-7.531867990436112,10.169818752350304 L-7.409511253549577,10.105386479728399 L-7.284643904482237,10.042020320846383 L-7.1573082528381695,9.97974174646594 L-7.027547444572235,9.918571858835532 L-6.895405447370653,9.858531384540184 L-6.624157775901702,9.741919661969714 L-6.343932841636437,9.630064614555316 L-6.0551104140432335,9.523117831704988 L-5.758081914178436,9.421224250995305 L-5.453249884220452,9.324521961747537 L-5.141027441932201,9.233142017884756 L-4.821837720791208,9.14720826032352 L-4.496113296546044,9.066837149140834 L-4.164295600976346,8.992137605743878 L-3.8268343236508766,8.923210865256351 L-3.48418680249433,8.860150339321512 L-3.136817403988896,8.803041489507837 L-2.785196893850509,8.75196171148888 L-2.429801799032614,8.706980230154258 L-2.0711137619221573,8.668158005793956 L-1.7096188876029892,8.635547651483055 L-1.3458070850712447,8.609193361778875 L-0.9801714032955853,8.58913085282715 L-0.6132073630220619,8.575387313958405 L-0.24541228522909575,8.567981370840133 L0.12271538285722956,8.566923060234728 L0.49067674327420474,8.572213816397339 L0.8579731234444178,8.583846469132137 L1.224106751992184,8.601805253509582 L1.5885814333386394,8.626065831231534 L1.9509032201613106,8.656595323615273 L2.310581082806742,8.693352356151701 L2.6671275747490175,8.736287114577353 L3.020059493192317,8.785341412384218 L3.368898533922231,8.840448769675891 L3.7131719395184004,8.901534503263184 L4.052413140049927,8.968515827877074 L4.3861623853853065,9.041301968361857 L4.7139673682600085,9.119794282696441 L5.03538383725721,9.203886395677046 L5.349976198871001,9.293464343080164 L5.657318107836155,9.388406726110386 L5.956993044924358,9.488584875923795 L6.248594881423891,9.59386302800394 L6.531728429537796,9.704098506154102 L6.806009977954561,9.819141915856472 L6.939714608896571,9.878418121854796 L7.071067811865437,9.93883734673617 " />
			<path d="M-7.0710678118654755,-4.417261042993861 L-7.071067811865475,1.1043152607484679 " />
			<path d="M-1.5681900222830336e-15,-7.730206825239259 L-1.6153204200327156e-16,-0.26795181366431997 " />
			<path d="M7.071067811865475,-4.417261042993864 L7.0710678118654755,1.1043152607484643 " />
			<path d="M-1.5681900222830336e-15,-7.730206825239259 L7.0710678118654755,-4.417261042993864 " />
			<path d="M-7.0710678118654755,-4.417261042993861 L-8.881784197001252e-16,-7.730206825239259 " />
			<path d="M-9.999999999999998,13.251783128981586 L-10.0,4.417261042993864 " />
			<path d="M10.000000000000004,13.251783128981582 L10.000000000000002,4.41726104299386 " />

       </g>
    </g>
    
</svg>
