<?xml version='1.0' encoding='utf-8'?>
<svg width="393.6284027121mm" height="513.0000000007mm" viewBox="-10.0254693749 -11.7025607373 20.0509387499 26.1315786865" version="1.1" xmlns="http://www.w3.org/2000/svg">
  <g transform="scale(1,-1)" stroke-linecap="round">
    <g fill="none" stroke="rgb(64,192,64)" stroke-width="0.05093874987615341" id="Visible">
      <line x1="-7.0710678119" y1="-10.5354735526" x2="-7.0710678119" y2="-6.0324081947" />
      <line x1="0.0" y1="-14.4035485742" x2="0.0" y2="-7.6346173289" />
      <line x1="7.0710678119" y1="-10.5354735526" x2="7.0710678119" y2="-6.0324081947" />
      <line x1="0.0" y1="-14.4035485742" x2="7.0710678119" y2="-10.5354735526" />
      <line x1="-7.0710678119" y1="-10.5354735526" x2="0.0" y2="-14.4035485742" />
      <path d="M 7.0710678119,-6.0324081947 A 10.0,5.470284155867162 0.0 0,1 10.0,-2.1643331731" />
      <path d="M -10.0,-2.1643331731 A 10.0,5.470284155867162 0.0 0,1 7.0710678119,-6.0324081947" />
      <path d="M 7.0710678119,2.3387321848 A 10.0,5.470284155867162 0.0 0,1 10.0,6.2068072065" />
      <path d="M 10.0,6.2068072065 A 10.0,5.470284155867162 0.0 0,1 -10.0,6.2068072065" />
      <path d="M -10.0,6.2068072065 A 10.0,5.470284155867162 0.0 0,1 7.0710678119,2.3387321848" />
      <line x1="-10.0" y1="6.2068072065" x2="-10.0" y2="-2.1643331731" />
      <line x1="10.0" y1="6.2068072065" x2="10.0" y2="-2.1643331731" />
    </g>
  </g>
</svg>