<?xml version="1.0" encoding="UTF-8" standalone="no"?>
<svg
   xmlns:svg="http://www.w3.org/2000/svg"
   xmlns="http://www.w3.org/2000/svg"
   width="1024.0"
   height="1024.0"

>
    <g transform="scale(38.400000000000006, -38.400000000000006)   translate(15.208333333333332,-14.040568275979242)" stroke-width="0.25"  fill="none">
       <!-- hidden lines -->
       <g  stroke="rgb(32,64,32)" fill="none" stroke-dasharray="0.25,0.25" >

       </g>

       <!-- solid lines -->
       <g  stroke="rgb(64,192,64)" fill="none">
			<path d="M7.071067811865473,-3.3129457822453987 L7.242470829514666,-3.2306442253891947 L7.409511253549593,-3.1463966492531816 L7.572088465064848,-3.0602538014270104 L7.7301045336273715,-2.9722675711411197 L7.883464276266063,-2.882490958010616 L8.03207531480645,-2.7909780401102875 L8.175848131515837,-2.697783941399986 L8.314696123025453,-2.6029647985200244 L8.44853565249707,-2.5065777269765572 L8.57728610000272,-2.408680786737338 L8.700869911087114,-2.309332947258563 L8.819212643483548,-2.208594051963881 L8.932243011955151,-2.1065247821969466 L9.039892931234432,-2.003186620669252 L9.142097557035305,-1.8986418144252386 L9.238795325112864,-1.7929533373470055 L9.329927988347386,-1.6861848522211982 L9.415440651830204,-1.5784006723909254 L9.495281805930363,-1.469665723015807 L9.569403357322086,-1.360045501963485 L9.637760657954397,-1.2496060403561569 L9.700312531945437,-1.1384138627958977 L9.757021300385285,-1.0265359472927225 L9.807852804032303,-0.9140396849195535 L9.852776423889411,-0.8009928392183342 L9.89176509964781,-0.687463505381817 L9.9247953459871,-0.5735200692355782 L9.95184726672197,-0.4592311660449286 L9.972904566786902,-0.3446656391716128 L9.987954562051724,-0.22989249860513833 L9.996988186962042,-0.11498087939373841 L10.0,-4.527396996480198e-14 " />
			<path d="M-10.0,1.0064948866325133e-15 L-9.998305817958235,-0.08623944760370905 L-9.993223845883495,-0.1724496741427368 L-9.984755805732949,-0.2586014684535563 L-9.972904566786902,-0.3446656391716102 L-9.957674144676597,-0.43061302462240436 L-9.939069700023559,-0.5164145027025434 L-9.917097536690996,-0.6020410007473653 L-9.89176509964781,-0.6874635053818147 L-9.863080972445985,-0.7726530723512264 L-9.831054874312162,-0.8575808363286997 L-9.795697656854404,-0.9422180206957189 L-9.757021300385285,-1.0265359472927178 L-9.715038909862518,-1.110506046136291 L-9.66976471044852,-1.1940998650997385 L-9.621214042690415,-1.2772890795536809 L-9.569403357322088,-1.3600455019634785 L-9.51435020969008,-1.4423410914401937 L-9.456073253805211,-1.5241479632418655 L-9.394592236021895,-1.6054383982218734 L-9.329927988347386,-1.6861848522211937 L-9.262102421383112,-1.766359965401368 L-9.191138516900574,-1.845936571515009 L-9.117060320054296,-1.9248877071107096 L-9.039892931234428,-2.0031866206692497 L-8.959662497561848,-2.0808067816679814 L-8.876396204028534,-2.1577218895703356 L-8.790122264286328,-2.233905882737403 L-8.700869911087107,-2.3093329472585626 L-8.608669386377667,-2.383977525698182 L-8.513551931052646,-2.4578143257554004 L-8.415549774368978,-2.5308183288340813 L-8.314696123025445,-2.6029647985200253 L-8.211025149911038,-2.6742292889625694 L-8.104571982525938,-2.744587653157729 L-7.99537269107904,-2.814016051130081 L-7.883464276266053,-2.88249095801062 L-7.768884656732317,-2.949989172007835 L-7.651672656224581,-3.016487822269328 L-7.5318679904361145,-3.0819643766312823 L-7.40951125354958,-3.1463966492531865 L-7.284643904482239,-3.209762808135203 L-7.157308252838172,-3.2720413825156456 L-7.027547444572238,-3.3332112701460535 L-6.895405447370655,-3.393251744441402 L-6.624157775901705,-3.5098634670118716 L-6.343932841636439,-3.6217185144262696 L-6.055110414043236,-3.7286652972765975 L-5.7580819141784385,-3.830558877986281 L-5.453249884220455,-3.927261167234048 L-5.141027441932204,-4.018641111096829 L-4.821837720791211,-4.104574868658067 L-4.496113296546047,-4.1849459798407525 L-4.164295600976349,-4.259645523237708 L-3.8268343236508793,-4.328572263725234 L-3.4841868024943325,-4.391632789660074 L-3.1368174039888985,-4.448741639473749 L-2.785196893850512,-4.499821417492706 L-2.429801799032617,-4.544802898827327 L-2.07111376192216,-4.5836251231876295 L-1.7096188876029919,-4.616235477498532 L-1.3458070850712474,-4.642589767202711 L-0.9801714032955879,-4.662652276154436 L-0.6132073630220646,-4.676395815023182 L-0.24541228522909841,-4.683801758141453 L0.1227153828572269,-4.6848600687468585 L0.4906767432742021,-4.679569312584247 L0.8579731234444151,-4.667936659849448 L1.2241067519921813,-4.649977875472003 L1.5885814333386368,-4.625717297750052 L1.950903220161308,-4.595187805366313 L2.3105810828067392,-4.558430772829885 L2.667127574749015,-4.515496014404233 L3.0200594931923144,-4.466441716597368 L3.3688985339222284,-4.411334359305694 L3.7131719395183977,-4.350248625718402 L4.052413140049924,-4.283267301104512 L4.386162385385304,-4.210481160619729 L4.713967368260006,-4.131988846285145 L5.035383837257207,-4.0478967333045395 L5.349976198870999,-3.958318785901423 L5.6573181078361525,-3.8633764028712005 L5.9569930449243556,-3.7631982530577917 L6.248594881423888,-3.657920100977647 L6.531728429537793,-3.547684622827484 L6.806009977954559,-3.432641213125114 L6.939714608896568,-3.373365007126789 L7.071067811865435,-3.3129457822454165 " />
			<path d="M7.071067811865475,5.521576303742327 L7.242470829514668,5.60387786059853 L7.409511253549595,5.688125436734543 L7.57208846506485,5.774268284560715 L7.730104533627373,5.862254514846605 L7.883464276266065,5.95203112797711 L8.032075314806452,6.043544045877438 L8.175848131515838,6.136738144587739 L8.314696123025454,6.231557287467701 L8.448535652497071,6.327944359011168 L8.577286100002722,6.425841299250387 L8.700869911087116,6.5251891387291625 L8.81921264348355,6.625928034023844 L8.932243011955153,6.7279973037907785 L9.039892931234434,6.831335465318473 L9.142097557035306,6.935880271562486 L9.238795325112866,7.04156874864072 L9.329927988347388,7.148337233766527 L9.415440651830206,7.2561214135968 L9.495281805930365,7.364856362971918 L9.569403357322088,7.47447658402424 L9.637760657954399,7.5849160456315685 L9.700312531945439,7.696108223191827 L9.757021300385286,7.807986138695003 L9.807852804032304,7.920482401068171 L9.852776423889413,8.03352924676939 L9.891765099647811,8.147058580605908 L9.924795345987102,8.261002016752148 L9.951847266721972,8.375290919942797 L9.972904566786903,8.489856446816113 L9.987954562051726,8.604629587382586 L9.996988186962044,8.719541206593986 L10.000000000000002,8.83452208598768 " />
			<path d="M10.000000000000002,8.834522085987723 L9.996988186962044,8.949502965381457 L9.987954562051726,9.064414584592859 L9.972904566786903,9.179187725159332 L9.951847266721972,9.29375325203265 L9.924795345987102,9.4080421552233 L9.891765099647811,9.521985591369539 L9.852776423889415,9.635514925206053 L9.807852804032306,9.748561770907271 L9.757021300385288,9.861058033280441 L9.70031253194544,9.972935948783613 L9.6377606579544,10.084128126343872 L9.56940335732209,10.194567587951202 L9.495281805930368,10.304187809003523 L9.41544065183021,10.412922758378642 L9.329927988347391,10.520706938208916 L9.23879532511287,10.627475423334724 L9.142097557035308,10.733163900412956 L9.039892931234435,10.83770870665697 L8.932243011955155,10.941046868184666 L8.819212643483551,11.0431161379516 L8.700869911087116,11.143855033246282 L8.577286100002722,11.243202872725059 L8.448535652497071,11.341099812964277 L8.314696123025454,11.437486884507745 L8.175848131515838,11.532306027387708 L8.032075314806452,11.625500126098009 L7.883464276266065,11.717013043998339 L7.7301045336273715,11.806789657128842 L7.572088465064847,11.894775887414735 L7.409511253549593,11.980918735240905 L7.242470829514672,12.065166311376915 L7.071067811865477,12.14746786823312 L6.895405447370672,12.227773830429122 L6.715589548470187,12.306035824656126 L6.53172842953777,12.382206708815216 L6.343932841636458,12.456240600413988 L6.152315905806271,12.528092904204449 L5.956993044924335,12.597720339045523 L5.758081914178455,12.665080963974 L5.5557023301960236,12.730134203468204 L5.349976198870974,12.792840871889155 L5.141027441932218,12.853163197084552 L4.92898192229784,12.911064843141293 L4.7139673682599765,12.966510932272877 L4.496113296546067,13.019468065828473 L4.275550934302823,13.069904344411022 L4.052413140049901,13.117789387092241 L3.826834323650899,13.163094349712956 L3.598950365349881,13.205791942257743 L3.368898533922201,13.245856445293423 L3.1368174039889167,13.28326372546147 L2.9028467725446263,13.317991250015066 L2.6671275747489873,13.35001810039196 L2.429801799032641,13.37932498481505 L2.1910124015686985,13.405894249913011 L1.950903220161284,13.42970989135404 L1.7096188876030143,13.450757563486254 L1.467304744553618,13.469024587978987 L1.2241067519921611,13.48449996145973 L0.9801714032956063,13.497174362142161 L0.7356456359966753,13.507040155441235 L0.49067674327418204,13.514091398571972 L0.24541228522912562,13.518323844129178 L1.345803533736445e-15,13.519734942645908 L-0.24541228522912292,13.518323844129178 L-0.49067674327417937,13.514091398571972 L-0.7356456359966727,13.507040155441235 L-0.9801714032956036,13.497174362142161 L-1.224106751992159,13.48449996145973 L-1.4673047445536158,13.469024587978986 L-1.7096188876030118,13.450757563486254 L-1.9509032201612813,13.42970989135404 L-2.191012401568696,13.405894249913013 L-2.4298017990326377,13.379324984815051 L-2.6671275747489838,13.350018100391962 L-2.9028467725446228,13.317991250015067 L-3.136817403988913,13.283263725461474 L-3.3688985339222004,13.245856445293423 L-3.598950365349883,13.205791942257743 L-3.8268343236508984,13.163094349712956 L-4.052413140049898,13.117789387092243 L-4.27555093430282,13.069904344411023 L-4.496113296546064,13.019468065828473 L-4.713967368259978,12.966510932272877 L-4.928981922297845,12.911064843141292 L-5.141027441932221,12.85316319708455 L-5.349976198870975,12.792840871889155 L-5.5557023301960236,12.730134203468204 L-5.758081914178454,12.665080963974003 L-5.956993044924334,12.597720339045525 L-6.152315905806268,12.528092904204449 L-6.343932841636454,12.456240600413992 L-6.531728429537766,12.38220670881522 L-6.715589548470182,12.30603582465613 L-6.895405447370667,12.227773830429125 L-7.0710678118654755,12.147467868233122 L-7.242470829514672,12.065166311376917 L-7.409511253549593,11.980918735240905 L-7.572088465064846,11.894775887414735 L-7.73010453362737,11.806789657128844 L-7.883464276266062,11.71701304399834 L-8.032075314806448,11.625500126098013 L-8.175848131515837,11.53230602738771 L-8.31469612302545,11.437486884507749 L-8.44853565249707,11.341099812964282 L-8.577286100002718,11.243202872725062 L-8.700869911087112,11.143855033246288 L-8.81921264348355,11.043116137951603 L-8.932243011955153,10.941046868184667 L-9.039892931234434,10.837708706656972 L-9.142097557035306,10.73316390041296 L-9.238795325112866,10.627475423334726 L-9.329927988347388,10.52070693820892 L-9.415440651830206,10.412922758378645 L-9.495281805930365,10.304187809003528 L-9.56940335732209,10.194567587951203 L-9.637760657954399,10.084128126343874 L-9.70031253194544,9.972935948783615 L-9.757021300385285,9.861058033280443 L-9.807852804032304,9.748561770907274 L-9.852776423889411,9.635514925206055 L-9.891765099647808,9.52198559136954 L-9.924795345987098,9.408042155223303 L-9.951847266721968,9.293753252032653 L-9.9729045667869,9.179187725159338 L-9.987954562051723,9.064414584592862 L-9.99698818696204,8.949502965381463 L-9.999999999999998,8.834522085987746 " />
			<path d="M-9.999999999999998,8.834522085987727 L-9.998305817958233,8.748282638384016 L-9.993223845883493,8.662072411844989 L-9.984755805732947,8.57592061753417 L-9.9729045667869,8.489856446816114 L-9.957674144676595,8.40390906136532 L-9.939069700023557,8.318107583285181 L-9.917097536690994,8.23248108524036 L-9.891765099647808,8.147058580605911 L-9.863080972445983,8.0618690136365 L-9.83105487431216,7.976941249659025 L-9.795697656854403,7.892304065292006 L-9.757021300385283,7.807986138695007 L-9.715038909862516,7.724016039851434 L-9.669764710448518,7.640422220887986 L-9.621214042690413,7.5572330064340445 L-9.569403357322086,7.474476584024247 L-9.514350209690079,7.392180994547531 L-9.45607325380521,7.310374122745859 L-9.394592236021893,7.2290836877658515 L-9.329927988347384,7.148337233766531 L-9.26210242138311,7.068162120586357 L-9.191138516900573,6.9885855144727165 L-9.117060320054295,6.909634378877016 L-9.039892931234426,6.8313354653184755 L-8.959662497561846,6.753715304319744 L-8.876396204028532,6.676800196417389 L-8.790122264286326,6.600616203250322 L-8.700869911087105,6.5251891387291625 L-8.608669386377665,6.4505445602895435 L-8.513551931052644,6.376707760232325 L-8.415549774368976,6.303703757153643 L-8.314696123025444,6.2315572874677 L-8.211025149911036,6.160292797025155 L-8.104571982525936,6.089934432829996 L-7.995372691079038,6.020506034857644 L-7.883464276266051,5.952031127977105 L-7.7688846567323155,5.88453291397989 L-7.651672656224579,5.818034263718397 L-7.531867990436113,5.752557709356443 L-7.409511253549578,5.688125436734539 L-7.2846439044822375,5.624759277852522 L-7.15730825283817,5.56248070347208 L-7.027547444572236,5.501310815841672 L-6.895405447370654,5.441270341546323 L-6.624157775901703,5.324658618975853 L-6.343932841636438,5.212803571561455 L-6.055110414043234,5.105856788711128 L-5.758081914178437,5.003963208001444 L-5.453249884220453,4.907260918753677 L-5.141027441932202,4.815880974890896 L-4.821837720791209,4.729947217329658 L-4.496113296546045,4.649576106146973 L-4.164295600976347,4.574876562750017 L-3.8268343236508775,4.505949822262491 L-3.4841868024943308,4.442889296327651 L-3.1368174039888967,4.3857804465139765 L-2.78519689385051,4.334700668495019 L-2.429801799032615,4.289719187160398 L-2.0711137619221582,4.250896962800096 L-1.70961888760299,4.218286608489193 L-1.3458070850712456,4.191932318785014 L-0.9801714032955862,4.171869809833289 L-0.6132073630220628,4.1581262709645435 L-0.24541228522909664,4.1507203278462725 L0.12271538285722867,4.149662017240867 L0.49067674327420385,4.154952773403478 L0.8579731234444169,4.166585426138277 L1.224106751992183,4.184544210515722 L1.5885814333386385,4.208804788237673 L1.9509032201613097,4.239334280621412 L2.310581082806741,4.27609131315784 L2.6671275747490166,4.319026071583492 L3.020059493192316,4.368080369390357 L3.36889853392223,4.423187726682031 L3.7131719395183995,4.484273460269323 L4.052413140049926,4.551254784883213 L4.386162385385306,4.624040925367996 L4.713967368260008,4.70253323970258 L5.035383837257209,4.786625352683186 L5.349976198871,4.876203300086303 L5.657318107836154,4.971145683116525 L5.956993044924357,5.0713238329299335 L6.24859488142389,5.176601985010079 L6.531728429537795,5.286837463160241 L6.80600997795456,5.401880872862611 L6.93971460889657,5.461157078860936 L7.071067811865436,5.521576303742309 " />
			<path d="M-9.999999999999998,8.834522085987723 L-10.0,1.1791239898235602e-15 " />
			<path d="M10.000000000000002,8.834522085987722 L10.0,-2.0212015558384167e-15 " />

       </g>
    </g>
    
</svg>
