<?xml version='1.0' encoding='utf-8'?>
<svg width="42.059823mm" height="101.000001mm" viewBox="-7.425926 -15.036709 14.852763 35.666557" version="1.1" xmlns="http://www.w3.org/2000/svg">
  <g transform="scale(1,-1)" stroke-linecap="round">
    <g fill="none" stroke="rgb(64,192,64)" stroke-width="0.35313422488868457" id="Visible">
      <path d="M 4.596635,9.067749 A 6.5,3.3528821741637183 -1.856299644223798e-15 0,1 6.278968,10.570802" />
      <path d="M 1.682759,8.199964 A 6.5,3.3528821741637183 -1.856299644223798e-15 0,1 4.596635,9.067749" />
      <path d="M -4.595753,9.067764 A 6.5,3.3528821741637183 -1.856299644223798e-15 0,1 1.682759,8.199964" />
      <path d="M -6.278057,12.306403 A 6.5,3.3528821741637183 -1.856299644223798e-15 0,1 -4.595753,9.067764" />
      <path d="M -1.681848,14.677241 A 6.5,3.3528821741637183 -1.856299644223798e-15 0,1 -6.278057,12.306403" />
      <path d="M 4.596664,13.809441 A 6.5,3.3528821741637183 -1.856299644223798e-15 0,1 -1.681848,14.677241" />
      <path d="M 6.278968,10.570802 A 6.5,3.3528821741637183 -1.856299644223798e-15 0,1 4.596664,13.809441" />
      <path d="M 6.278968,10.570802 C 5.970869,9.976643 5.662956,9.278454 5.307666,8.368384" />
      <path d="M 4.596664,13.809441 C 5.438394,13.374204 6.279615,12.834841 7.25027,12.108035" />
      <path d="M 7.25027,12.108035 C 6.89498,11.650188 6.587067,11.162869 6.278968,10.570802" />
      <path d="M -1.681848,14.677241 C -0.532019,14.835117 0.617114,14.888508 1.943059,14.845661" />
      <path d="M 1.943059,14.845661 C 2.913714,14.571078 3.754934,14.242585 4.596664,13.809441" />
      <path d="M -6.278057,12.306403 C -5.969958,12.89847 -5.662045,13.385789 -5.306755,13.843636" />
      <path d="M -5.306755,13.843636 C -3.98081,14.253011 -2.831677,14.517272 -1.681848,14.677241" />
      <path d="M -7.249359,10.103985 C -6.894069,11.014054 -6.586156,11.712244 -6.278057,12.306403" />
      <path d="M -4.595753,9.067764 C -5.437483,9.500909 -6.278704,9.829402 -7.249359,10.103985" />
      <path d="M -1.942148,7.366359 C -2.912803,8.093165 -3.754023,8.632528 -4.595753,9.067764" />
      <path d="M 1.682759,8.199964 C 0.53293,8.039996 -0.616203,7.775734 -1.942148,7.366359" />
      <path d="M 5.307666,8.368384 C 3.981721,8.411232 2.832588,8.357841 1.682759,8.199964" />
      <line x1="7.25027" y1="8.157167" x2="5.307666" y2="4.417516" />
      <line x1="5.307666" y1="8.368384" x2="5.307666" y2="4.417516" />
      <line x1="7.25027" y1="8.157167" x2="7.25027" y2="12.108035" />
      <line x1="-7.249359" y1="6.153116" x2="-7.249359" y2="10.103985" />
      <line x1="-1.942148" y1="3.415491" x2="-7.249359" y2="6.153116" />
      <line x1="-1.942148" y1="3.415491" x2="-1.942148" y2="7.366359" />
      <line x1="5.307666" y1="4.417516" x2="-1.942148" y2="3.415491" />
      <path d="M 2.828874,-1.588412 C 3.5739,-1.166851 4.005031,-0.608467 4.000455,-0.063368" />
      <path d="M 3.931782,-0.450405 Q 4.000327,-0.66866 4.000456,-0.888352" />
      <path d="M 4.000456,-0.888352 C 4.005061,-1.503235 3.57651,-2.102607 2.828874,-2.525371" />
      <path d="M 2.828874,-1.588412 C 2.049151,-2.041577 0.930526,-2.312925 -0.176187,-2.332109 C -0.869947,-2.346309 -1.55455,-2.264906 -2.140639,-2.102385 C -2.516433,-1.998027 -2.843651,-1.865686 -3.12229,-1.705362 C -3.68702,-1.381745 -4.001901,-0.957274 -3.999544,-0.531001" />
      <path d="M 4.000456,-1.06643 C 4.004704,-1.651998 3.573356,-2.233746 2.828874,-2.659277" />
      <path d="M 2.828874,-2.659277 C 2.049151,-3.112442 0.930526,-3.38379 -0.176188,-3.402974 C -0.869947,-3.417173 -1.55455,-3.335771 -2.140639,-3.17325 C -2.516434,-3.068892 -2.843651,-2.936551 -3.12229,-2.776227 C -3.68702,-2.45261 -4.001901,-2.028139 -3.999544,-1.601866" />
      <path d="M 4.000456,-2.137295 C 4.004704,-2.722863 3.573358,-3.30461 2.828874,-3.730142" />
      <path d="M 2.828874,-2.525371 C 2.13153,-2.929674 1.16521,-3.191243 0.176376,-3.254062 C -0.50491,-3.298992 -1.193182,-3.251744 -1.801671,-3.121941 C -2.287803,-3.018774 -2.722793,-2.863661 -3.071231,-2.671115 C -3.667522,-2.343994 -4.00219,-1.907007 -3.999544,-1.467958" />
      <path d="M -3.999544,-1.467958 Q -3.999286,-1.229683 -3.87486,-0.999479" />
      <path d="M 3.911596,-1.534913 Q 4.000326,-1.766731 4.000456,-2.003394" />
      <path d="M 4.000456,-2.003394 C 4.004704,-2.58896 3.57335,-3.170694 2.828874,-3.596239" />
      <path d="M 2.828874,-3.730142 C 2.049151,-4.183307 0.930526,-4.454655 -0.176188,-4.473839 C -0.869947,-4.488038 -1.55455,-4.406636 -2.140639,-4.244115 C -2.516434,-4.139757 -2.843651,-4.007416 -3.122291,-3.847091 C -3.68702,-3.523475 -4.0019,-3.099004 -3.999544,-2.672731" />
      <path d="M 4.000456,-3.20816 C 4.004704,-3.793728 3.573356,-4.375476 2.828874,-4.801006" />
      <path d="M 2.828874,-3.596239 C 2.131533,-4.00054 1.165217,-4.262108 0.176386,-4.324929 C -0.504889,-4.369859 -1.193151,-4.322615 -1.801633,-4.192816 C -2.287605,-4.089687 -2.722471,-3.934645 -3.070855,-3.74219 C -3.667377,-3.415045 -4.002192,-2.977968 -3.999544,-2.538825" />
      <path d="M -3.999544,-2.538825 Q -3.999286,-2.30055 -3.87486,-2.070346" />
      <path d="M 3.911596,-2.605779 Q 4.000326,-2.8376 4.000456,-3.074261" />
      <path d="M 4.000456,-3.074261 C 4.004704,-3.659827 3.573351,-4.241561 2.828874,-4.667106" />
      <path d="M 2.828874,-4.801006 C 2.049151,-5.254172 0.930526,-5.52552 -0.176188,-5.544704 C -0.869947,-5.558903 -1.554551,-5.477501 -2.140639,-5.314979 C -2.516434,-5.210622 -2.843651,-5.078281 -3.122291,-4.917956 C -3.68702,-4.594339 -4.0019,-4.169869 -3.999544,-3.743596" />
      <path d="M 4.000456,-4.279025 C 4.004704,-4.864593 3.573358,-5.446339 2.828874,-5.871871" />
      <path d="M 2.828874,-4.667106 C 2.131535,-5.071406 1.165224,-5.332974 0.176397,-5.395796 C -0.504868,-5.440726 -1.193119,-5.393485 -1.801595,-5.263692 C -2.287403,-5.1606 -2.722142,-5.005632 -3.07047,-4.81327 C -3.667229,-4.4861 -4.002194,-4.048933 -3.999544,-3.609693" />
      <path d="M -3.999544,-3.609693 Q -3.999286,-3.371416 -3.874859,-3.141212" />
      <path d="M 3.911595,-3.676645 Q 4.000326,-3.908464 4.000456,-4.145129" />
      <path d="M 4.000456,-4.145129 C 4.004705,-4.730695 3.573348,-5.312431 2.828874,-5.737974" />
      <path d="M 2.828874,-5.871871 C 2.049151,-6.325037 0.930526,-6.596385 -0.176189,-6.615568 C -0.869948,-6.629768 -1.554551,-6.548365 -2.14064,-6.385844 C -2.516435,-6.281486 -2.843652,-6.149145 -3.122292,-5.98882 C -3.687021,-5.665204 -4.001901,-5.240733 -3.999544,-4.81446" />
      <path d="M 4.000456,-5.34989 C 4.004703,-5.935457 3.573358,-6.517204 2.828874,-6.942736" />
      <path d="M 2.828874,-5.737974 C 2.131537,-6.142273 1.165229,-6.40384 0.176405,-6.466663 C -0.504851,-6.511593 -1.193095,-6.464354 -1.801566,-6.334565 C -2.287247,-6.231503 -2.721889,-6.076592 -3.070173,-5.884301 C -3.667116,-5.557114 -4.002196,-5.119871 -3.999544,-4.68056" />
      <path d="M -3.999544,-4.68056 Q -3.999286,-4.442284 -3.874858,-4.212078" />
      <path d="M 3.911595,-4.747511 Q 4.000326,-4.979332 4.000456,-5.215996" />
      <path d="M 4.000456,-5.215996 C 4.004705,-5.801562 3.573347,-6.383299 2.828874,-6.808841" />
      <path d="M 2.828874,-6.942736 C 2.049151,-7.395902 0.930526,-7.66725 -0.176189,-7.686433 C -0.869948,-7.700633 -1.554551,-7.61923 -2.14064,-7.456709 C -2.516435,-7.352351 -2.843652,-7.22001 -3.122292,-7.059685 C -3.687021,-6.736068 -4.001901,-6.311598 -3.999544,-5.885325" />
      <path d="M 4.000456,-6.420755 C 4.004704,-7.006322 3.573358,-7.588069 2.828874,-8.013601" />
      <path d="M 2.828874,-6.808841 C 2.13154,-7.213138 1.165238,-7.474705 0.176419,-7.537529 C -0.504822,-7.58246 -1.193051,-7.535225 -1.801513,-7.405444 C -2.286963,-7.302435 -2.721425,-7.147628 -3.06963,-6.955468 C -3.666908,-6.628246 -4.002199,-6.190873 -3.999544,-5.751428" />
      <path d="M -3.999544,-5.751428 Q -3.999286,-5.513151 -3.874857,-5.282944" />
      <path d="M 3.911594,-5.818378 Q 4.000326,-6.050199 4.000456,-6.286864" />
      <path d="M 4.000456,-6.286864 C 4.004704,-6.87243 3.57335,-7.454165 2.828874,-7.879709" />
      <path d="M 2.828874,-8.013601 C 2.049151,-8.466767 0.930525,-8.738115 -0.176189,-8.757298 C -0.869948,-8.771498 -1.554552,-8.690095 -2.140641,-8.527574 C -2.516436,-8.423216 -2.843653,-8.290874 -3.122292,-8.13055 C -3.687021,-7.806933 -4.001901,-7.382462 -3.999544,-6.95619" />
      <path d="M 4.000456,-7.491619 C 4.004704,-8.077187 3.573356,-8.658935 2.828874,-9.084466" />
      <path d="M 2.828874,-7.879709 C 2.131541,-8.284005 1.165241,-8.545572 0.176424,-8.608396 C -0.504813,-8.653327 -1.193037,-8.606094 -1.801497,-8.476315 C -2.286879,-8.373321 -2.721288,-8.218545 -3.06947,-8.026424 C -3.666846,-7.699192 -4.0022,-7.261781 -3.999544,-6.822295" />
      <path d="M -3.999544,-6.822295 Q -3.999286,-6.584016 -3.874857,-6.35381" />
      <path d="M 3.911594,-6.889244 Q 4.000326,-7.121065 4.000456,-7.357731" />
      <path d="M 4.000456,-7.357731 C 4.004705,-7.943297 3.573346,-8.525035 2.828874,-8.950576" />
      <path d="M 2.828874,-9.084466 C 2.049151,-9.537632 0.930525,-9.80898 -0.176189,-9.828163 C -0.869949,-9.842362 -1.554552,-9.76096 -2.140641,-9.598438 C -2.516436,-9.49408 -2.843654,-9.361739 -3.122293,-9.201414 C -3.687021,-8.877797 -4.001901,-8.453327 -3.999544,-8.027055" />
      <path d="M 4.000456,-8.562484 C 4.004704,-9.148052 3.573358,-9.729798 2.828874,-10.155331" />
      <path d="M 2.828874,-8.950576 C 2.131545,-9.354871 1.16525,-9.616437 0.176437,-9.679263 C -0.504784,-9.724194 -1.192994,-9.676965 -1.801445,-9.547193 C -2.286599,-9.444253 -2.72083,-9.289579 -3.068933,-9.097587 C -3.66664,-8.770322 -4.002203,-8.33278 -3.999544,-7.893163" />
      <path d="M -3.999544,-7.893163 Q -3.999286,-7.654883 -3.874856,-7.424676" />
      <path d="M 3.911593,-7.96011 Q 4.000326,-8.191934 4.000456,-8.428599" />
      <path d="M 4.000456,-8.428599 C 4.004704,-9.014164 3.573351,-9.595899 2.828874,-10.021444" />
      <path d="M 2.828874,-10.155331 C 2.049151,-10.608496 0.930525,-10.879844 -0.17619,-10.899028 C -0.869949,-10.913227 -1.554552,-10.831825 -2.140641,-10.669303 C -2.516437,-10.564945 -2.843654,-10.432604 -3.122293,-10.272279 C -3.687021,-9.948662 -4.001901,-9.524192 -3.999544,-9.09792" />
      <path d="M 4.000456,-9.633349 C 4.004703,-10.218917 3.573359,-10.800663 2.828874,-11.226195" />
      <path d="M 2.828874,-10.021444 C 2.131547,-10.425737 1.165257,-10.687302 0.176448,-10.75013 C -0.504763,-10.795061 -1.192962,-10.747835 -1.801406,-10.618069 C -2.286388,-10.515168 -2.720487,-10.360571 -3.06853,-10.168677 C -3.666486,-9.841386 -4.002205,-9.403748 -3.999544,-8.96403" />
      <path d="M -3.999544,-8.96403 Q -3.999286,-8.72575 -3.874855,-8.495543" />
      <path d="M 3.911593,-9.030976 Q 4.000326,-9.2628 4.000456,-9.499466" />
      <path d="M 4.000456,-9.499466 C 4.004704,-10.085032 3.573351,-10.666766 2.828874,-11.092311" />
      <path d="M 2.828874,-11.226195 C 2.049151,-11.679361 0.930525,-11.950709 -0.17619,-11.969893 C -0.869949,-11.984092 -1.554552,-11.902689 -2.140641,-11.740168 C -2.516436,-11.63581 -2.843653,-11.503469 -3.122293,-11.343144 C -3.687021,-11.019527 -4.001901,-10.595057 -3.999544,-10.168784" />
      <path d="M 4.000456,-10.704214 C 4.004704,-11.289781 3.573358,-11.871528 2.828874,-12.29706" />
      <path d="M 2.828874,-11.092311 C 2.131549,-11.496603 1.165263,-11.758168 0.176457,-11.820997 C -0.504745,-11.865928 -1.192935,-11.818705 -1.801374,-11.688944 C -2.286211,-11.586076 -2.720198,-11.431543 -3.068191,-11.239731 C -3.666358,-10.912421 -4.002209,-10.474691 -3.999544,-10.034898" />
      <path d="M -3.999544,-10.034898 Q -3.999288,-9.796623 -3.874855,-9.566409" />
      <path d="M 3.911592,-10.101842 Q 4.000326,-10.333667 4.000456,-10.570334" />
      <path d="M 4.000456,-10.570334 C 4.004704,-11.155899 3.573351,-11.737634 2.828874,-12.163179" />
      <path d="M 2.828874,-12.29706 C 2.049151,-12.750226 0.930525,-13.021574 -0.17619,-13.040758 C -0.869949,-13.054957 -1.554553,-12.973554 -2.140642,-12.811033 C -2.516437,-12.706675 -2.843655,-12.574333 -3.122294,-12.414008 C -3.687021,-12.090391 -4.001901,-11.665921 -3.999544,-11.239649" />
      <path d="M 4.000456,-11.775079 C 4.004704,-12.360646 3.573358,-12.942393 2.828874,-13.367925" />
      <path d="M 2.828874,-12.163179 C 2.131549,-12.56747 1.165263,-12.829036 0.176457,-12.891864 C -0.504745,-12.936796 -1.192936,-12.889573 -1.801376,-12.759811 C -2.286226,-12.65694 -2.720222,-12.502402 -3.06822,-12.310582 C -3.666367,-11.983272 -4.002207,-11.545559 -3.999544,-11.105765" />
      <path d="M -3.999544,-11.105765 Q -3.999286,-10.867484 -3.874854,-10.637275" />
      <path d="M 3.911592,-11.172708 Q 4.000326,-11.404534 4.000456,-11.641201" />
      <path d="M 4.000456,-11.641201 C 4.004704,-12.226767 3.573351,-12.808502 2.828874,-13.234046" />
      <path d="M 2.828874,-13.367925 C 2.049151,-13.821091 0.930525,-14.092439 -0.17619,-14.111622 C -0.869949,-14.125822 -1.554552,-14.044419 -2.140641,-13.881898 C -2.516436,-13.77754 -2.843653,-13.645199 -3.122292,-13.484874 C -3.687021,-13.161257 -4.001901,-12.736786 -3.999544,-12.310514" />
      <path d="M 4.000456,-12.845944 C 4.004704,-13.431511 3.573358,-14.013258 2.828874,-14.43879" />
      <path d="M 2.828874,-13.234046 C 2.131553,-13.638336 1.165274,-13.8999 0.176474,-13.96273 C -0.50471,-14.007662 -1.192882,-13.960445 -1.801311,-13.830692 C -2.285869,-13.727888 -2.719639,-13.573481 -3.067535,-13.381827 C -3.666104,-13.054474 -4.002211,-12.616596 -3.999544,-12.176633" />
      <path d="M -3.999544,-12.176633 Q -3.999286,-11.938351 -3.874853,-11.708141" />
      <path d="M 3.911591,-12.243575 Q 4.000326,-12.475401 4.000456,-12.712069" />
      <path d="M 4.000456,-12.712069 C 4.004704,-13.297634 3.57335,-13.879369 2.828874,-14.304914" />
      <path d="M 2.828874,-14.43879 C 2.049151,-14.891956 0.930524,-15.163304 -0.17619,-15.182487 C -0.86995,-15.196686 -1.554553,-15.115284 -2.140642,-14.952762 C -2.516437,-14.848404 -2.843655,-14.716063 -3.122294,-14.555737 C -3.687021,-14.232121 -4.0019,-13.807651 -3.999544,-13.38138" />
      <path d="M 4.000456,-13.916808 C 4.004704,-14.502376 3.573357,-15.084123 2.828874,-15.509655" />
      <path d="M 2.828874,-14.304914 C 2.131551,-14.709204 1.165268,-14.97077 0.176464,-15.033599 C -0.504732,-15.07853 -1.192917,-15.031309 -1.801353,-14.90155 C -2.286107,-14.798702 -2.720028,-14.644207 -3.067993,-14.452442 C -3.66628,-14.125118 -4.002208,-13.68735 -3.999544,-13.2475" />
      <path d="M -3.999544,-13.2475 Q -3.999287,-13.009219 -3.874852,-12.779007" />
      <path d="M 3.911591,-13.314441 Q 4.000326,-13.546267 4.000456,-13.782936" />
      <path d="M 4.000456,-13.782936 C 4.004705,-14.368502 3.573347,-14.950239 2.828874,-15.375781" />
      <path d="M 2.828874,-15.509655 C 2.049151,-15.962821 0.930525,-16.234169 -0.17619,-16.253352 C -0.869949,-16.267551 -1.554553,-16.186149 -2.140641,-16.023627 C -2.516436,-15.919269 -2.843654,-15.786928 -3.122293,-15.626603 C -3.687021,-15.302986 -4.001901,-14.878516 -3.999544,-14.452244" />
      <path d="M 4.000456,-14.987673 C 4.004704,-15.573241 3.573356,-16.154989 2.828874,-16.58052" />
      <path d="M 2.828874,-15.375781 C 2.131557,-15.780068 1.165284,-16.041633 0.176489,-16.104464 C -0.50468,-16.149397 -1.192838,-16.102183 -1.801258,-15.972438 C -2.285577,-15.869689 -2.71916,-15.715389 -3.066974,-15.52387 C -3.665889,-15.196483 -4.002214,-14.75847 -3.999544,-14.318368" />
      <path d="M -3.999544,-14.318368 Q -3.999286,-14.080084 -3.874852,-13.849873" />
      <path d="M 3.91159,-14.385307 Q 4.000326,-14.617134 4.000456,-14.853804" />
      <path d="M 4.000456,-14.853804 C 4.004704,-15.439369 3.573351,-16.021103 2.828874,-16.446649" />
      <path d="M 2.828874,-16.58052 C 2.049151,-17.033686 0.930524,-17.305034 -0.176191,-17.324217 C -0.86995,-17.338416 -1.554553,-17.257013 -2.140642,-17.094492 C -2.516437,-16.990134 -2.843655,-16.857792 -3.122294,-16.697467 C -3.687021,-16.373851 -4.001901,-15.94938 -3.999544,-15.523109" />
      <path d="M 4.000456,-16.058538 C 4.004704,-16.644106 3.573356,-17.225853 2.828874,-17.651384" />
      <path d="M 2.828874,-16.446649 C 2.131555,-16.850937 1.165281,-17.112501 0.176484,-17.175332 C -0.504693,-17.220265 -1.192858,-17.173049 -1.801283,-17.0433 C -2.285722,-16.940524 -2.719399,-16.78617 -3.067255,-16.594583 C -3.665997,-16.267213 -4.002213,-15.829267 -3.999544,-15.389235" />
      <path d="M -3.999544,-15.389235 Q -3.999286,-15.150952 -3.874851,-14.92074" />
      <path d="M 3.91159,-15.456173 Q 4.000326,-15.688 4.000456,-15.924671" />
      <path d="M 4.000456,-15.924671 C 4.004704,-16.510237 3.57335,-17.091972 2.828874,-17.517516" />
      <path d="M 2.828874,-17.651384 C 2.049151,-18.10455 0.930524,-18.375898 -0.176191,-18.395082 C -0.86995,-18.409281 -1.554553,-18.327878 -2.140642,-18.165357 C -2.516438,-18.060999 -2.843655,-17.928657 -3.122294,-17.768332 C -3.687021,-17.444716 -4.0019,-17.020246 -3.999544,-16.593974" />
      <path d="M 4.000456,-17.129403 C 4.004704,-17.714971 3.573356,-18.296718 2.828874,-18.722249" />
      <path d="M 2.828874,-17.517516 C 2.131559,-17.921802 1.16529,-18.183366 0.176499,-18.246199 C -0.504661,-18.291131 -1.192811,-18.243921 -1.801226,-18.11418 C -2.285402,-18.011464 -2.718875,-17.857227 -3.06664,-17.665789 C -3.665761,-17.338381 -4.002216,-16.900287 -3.999544,-16.460103" />
      <path d="M -3.999544,-16.460103 Q -3.999286,-16.221818 -3.87485,-15.991606" />
      <path d="M 3.911589,-16.527039 Q 4.000326,-16.758867 4.000456,-16.995539" />
      <path d="M 4.000456,-16.995539 C 4.004705,-17.581105 3.573348,-18.162841 2.828874,-18.588383" />
      <path d="M 3.823564,-18.724081 A 4.0,2.0633121071776728 -1.856299644223798e-15 0,1 4.000456,-18.117277" />
      <path d="M 2.828874,-18.722249 C 2.049151,-19.175415 0.930524,-19.446763 -0.176191,-19.465947 C -0.86995,-19.480146 -1.554554,-19.398743 -2.140642,-19.236221 C -2.516438,-19.131863 -2.843655,-18.999522 -3.122295,-18.839197 C -3.687022,-18.51558 -4.001901,-18.091109 -3.999544,-17.664838" />
      <path d="M 2.828874,-18.588383 C 2.13156,-18.992669 1.165295,-19.254232 0.176505,-19.317066 C -0.504648,-19.361998 -1.192792,-19.31479 -1.801203,-19.185052 C -2.285278,-19.08236 -2.718672,-18.928168 -3.066402,-18.736788 C -3.665669,-18.409365 -4.002218,-17.971213 -3.999544,-17.530971" />
      <path d="M -3.999544,-17.530971 Q -3.999287,-17.292686 -3.87485,-17.062472" />
      <path d="M 3.911589,-17.597905 Q 4.000327,-17.829744 4.000456,-18.066406" />
      <path d="M 4.000456,-18.066406 Q 3.999938,-18.402064 3.823564,-18.724081" />
      <path d="M 2.785448,-19.606475 Q 2.986259,-19.501759 3.159082,-19.383575" />
      <path d="M 3.159082,-19.383575 Q 3.596222,-19.083828 3.823564,-18.724081" />
      <path d="M 2.768243,-19.650905 Q 2.597734,-19.767483 2.405383,-19.870894" />
      <path d="M 2.289393,-19.95159 Q 2.444522,-19.872139 2.581951,-19.778327" />
      <path d="M 2.581951,-19.778327 L 2.663456,-19.720001" />
      <path d="M 2.785448,-19.606475 C 2.15928,-19.93453 1.334278,-20.151004 0.4791,-20.214551 C -0.336599,-20.277194 -1.174337,-20.20028 -1.869479,-20.001824 C -2.3026,-19.879033 -2.680488,-19.710566 -2.971944,-19.510953" />
      <path d="M -2.971944,-19.510953 C -3.422296,-19.204398 -3.66189,-18.823409 -3.64216,-18.444742" />
      <path d="M 2.26319,-19.96982 A 3.2,1.6506496857421382 -1.856299644223798e-15 0,1 2.555363,-19.796513" />
      <path d="M 2.555363,-19.796513 A 3.2,1.6506496857421382 -1.856299644223798e-15 0,1 2.568582,-19.787407" />
      <path d="M -2.554452,-19.796513 A 3.2,1.6506496857421382 -1.856299644223798e-15 0,1 2.26319,-19.96982" />
      <path d="M 2.289393,-19.95159 C 2.175468,-20.010138 2.053363,-20.062889 1.941972,-20.103611 C 1.893655,-20.121212 1.853132,-20.134784 1.820404,-20.144327 C 1.778692,-20.156161 1.782999,-20.151892 1.833326,-20.131518" />
      <path d="M 1.833326,-20.131518 Q 1.875702,-20.11453 1.932526,-20.091754" />
      <path d="M 2.405383,-19.870894 Q 2.180983,-19.991467 1.932526,-20.091754" />
      <path d="M 2.888549,-1.553721 Q 2.659004,-1.765003 2.350502,-1.944044" />
      <path d="M 2.350502,-1.944044 Q 2.31556,-1.901168 2.298368,-1.847848" />
      <path d="M 2.828874,-2.525371 L 2.350502,-1.944044" />
      <path d="M 2.350502,-1.944044 C 1.591551,-2.396649 0.441702,-2.634691 -0.619181,-2.58192 C -1.148862,-2.557994 -1.652969,-2.46613 -2.073792,-2.320012 C -2.49529,-2.174329 -2.832614,-1.974758 -3.047144,-1.747315" />
      <path d="M 2.839841,-2.652935 Q 2.632411,-2.849006 2.3505,-3.014906" />
      <path d="M 2.3505,-3.014906 Q 2.315559,-2.972031 2.298367,-2.918713" />
      <path d="M 2.828874,-3.596239 L 2.3505,-3.014906" />
      <path d="M 2.350486,-2.747183 C 1.849993,-3.042866 1.184289,-3.251669 0.482157,-3.340255 C -0.219508,-3.43046 -0.953155,-3.400098 -1.576801,-3.262073 C -2.201955,-3.125491 -2.713195,-2.882339 -3.011574,-2.586717 C -3.312834,-2.291789 -3.399347,-1.946473 -3.254367,-1.624636" />
      <path d="M 2.3505,-3.014906 C 1.591552,-3.46751 0.441708,-3.705551 -0.619171,-3.652782 C -1.14885,-3.628857 -1.652956,-3.536994 -2.073779,-3.390877 C -2.495276,-3.245196 -2.832602,-3.045627 -3.047134,-2.818186" />
      <path d="M 2.839827,-3.723808 Q 2.632401,-3.919873 2.350497,-4.085768" />
      <path d="M 2.350497,-4.085768 Q 2.315558,-4.042895 2.298366,-3.989578" />
      <path d="M 2.828874,-4.667106 L 2.350497,-4.085768" />
      <path d="M 2.350485,-3.818045 C 1.849992,-4.113728 1.184289,-4.322531 0.482158,-4.411117 C -0.219506,-4.501322 -0.953152,-4.47096 -1.576798,-4.332935 C -2.201952,-4.196354 -2.713191,-3.953203 -3.011571,-3.657582 C -3.312831,-3.362653 -3.399345,-3.017339 -3.254366,-2.695501" />
      <path d="M 2.350497,-4.085768 C 1.591552,-4.53837 0.441714,-4.776411 -0.61916,-4.723644 C -1.148839,-4.699719 -1.652943,-4.607858 -2.073765,-4.461743 C -2.495262,-4.316063 -2.832589,-4.116497 -3.047123,-3.889057" />
      <path d="M 2.839813,-4.794681 Q 2.63239,-4.99074 2.350495,-5.15663" />
      <path d="M 2.350495,-5.15663 Q 2.315557,-5.113758 2.298365,-5.060444" />
      <path d="M 2.828874,-5.737974 L 2.350495,-5.15663" />
      <path d="M 2.350483,-4.888907 C 1.849991,-5.18459 1.184289,-5.393393 0.482159,-5.481979 C -0.219505,-5.572184 -0.95315,-5.541823 -1.576795,-5.403798 C -2.201948,-5.267217 -2.713187,-5.024066 -3.011567,-4.728446 C -3.312828,-4.433518 -3.399343,-4.088204 -3.254365,-3.766367" />
      <path d="M 2.350495,-5.15663 C 1.591553,-5.60923 0.441721,-5.847271 -0.61915,-5.794506 C -1.148827,-5.770582 -1.652929,-5.678723 -2.073752,-5.532609 C -2.495249,-5.386931 -2.832576,-5.187366 -3.047112,-4.959927" />
      <path d="M 2.839798,-5.865554 Q 2.63238,-6.061607 2.350492,-6.227492" />
      <path d="M 2.350492,-6.227492 Q 2.315556,-6.184621 2.298363,-6.131309" />
      <path d="M 2.828874,-6.808841 L 2.350492,-6.227492" />
      <path d="M 2.350481,-5.95977 C 1.84999,-6.255452 1.184289,-6.464254 0.48216,-6.552841 C -0.219503,-6.643046 -0.953147,-6.612685 -1.576791,-6.474661 C -2.201945,-6.33808 -2.713183,-6.09493 -3.011564,-5.79931 C -3.312824,-5.504383 -3.39934,-5.159069 -3.254364,-4.837232" />
      <path d="M 2.350492,-6.227492 C 1.591554,-6.68009 0.441727,-6.918131 -0.61914,-6.865368 C -1.148815,-6.841445 -1.652916,-6.749587 -2.073739,-6.603474 C -2.495235,-6.457798 -2.832563,-6.258235 -3.047102,-6.030798" />
      <path d="M 2.839784,-6.936428 Q 2.632369,-7.132473 2.35049,-7.298354" />
      <path d="M 2.35049,-7.298354 Q 2.315555,-7.255485 2.298362,-7.202174" />
      <path d="M 2.828874,-7.879709 L 2.35049,-7.298354" />
      <path d="M 2.35049,-7.298354 C 1.591554,-7.75095 0.441734,-7.988991 -0.61913,-7.93623 C -1.148803,-7.912308 -1.652903,-7.820451 -2.073725,-7.67434 C -2.495222,-7.528665 -2.832551,-7.329104 -3.047091,-7.101669" />
      <path d="M 2.83977,-8.007301 Q 2.632359,-8.20334 2.350488,-8.369216" />
      <path d="M 2.350488,-8.369216 Q 2.315554,-8.326348 2.298361,-8.27304" />
      <path d="M 2.828874,-8.950576 L 2.350488,-8.369216" />
      <path d="M 2.350488,-8.369216 C 1.591555,-8.82181 0.44174,-9.059851 -0.61912,-9.007092 C -1.148791,-8.983171 -1.65289,-8.891315 -2.073712,-8.745206 C -2.495208,-8.599532 -2.832538,-8.399973 -3.04708,-8.172539" />
      <path d="M 2.839756,-9.078174 Q 2.632348,-9.274207 2.350485,-9.440078" />
      <path d="M 2.350485,-9.440078 Q 2.315553,-9.397212 2.29836,-9.343905" />
      <path d="M 2.828874,-10.021444 L 2.350485,-9.440078" />
      <path d="M 2.350477,-9.172357 C 1.849987,-9.468038 1.184289,-9.67684 0.482162,-9.765426 C -0.219498,-9.855632 -0.953139,-9.825271 -1.576782,-9.687248 C -2.201934,-9.550669 -2.713172,-9.307521 -3.011553,-9.011902 C -3.312815,-8.716977 -3.399333,-8.371665 -3.254361,-8.049829" />
      <path d="M 2.350485,-9.440078 C 1.591556,-9.892671 0.441746,-10.130711 -0.61911,-10.077954 C -1.148779,-10.054033 -1.652877,-9.962179 -2.073698,-9.816072 C -2.495194,-9.6704 -2.832525,-9.470842 -3.047069,-9.24341" />
      <path d="M 2.839742,-10.149047 Q 2.632338,-10.345074 2.350483,-10.51094" />
      <path d="M 2.350483,-10.51094 Q 2.315552,-10.468075 2.298359,-10.41477" />
      <path d="M 2.828874,-11.092311 L 2.350483,-10.51094" />
      <path d="M 2.350475,-10.243219 C 1.849986,-10.5389 1.184289,-10.747702 0.482163,-10.836288 C -0.219496,-10.926494 -0.953137,-10.896133 -1.576779,-10.758111 C -2.20193,-10.621532 -2.713168,-10.378384 -3.01155,-10.082767 C -3.312812,-9.787842 -3.399331,-9.44253 -3.254359,-9.120694" />
      <path d="M 2.350483,-10.51094 C 1.591556,-10.963531 0.441753,-11.201571 -0.6191,-11.148816 C -1.148767,-11.124896 -1.652863,-11.033043 -2.073685,-10.886937 C -2.495181,-10.741267 -2.832512,-10.541711 -3.047059,-10.314281" />
      <path d="M 2.839727,-11.21992 Q 2.632327,-11.41594 2.350481,-11.581802" />
      <path d="M 2.350481,-11.581802 Q 2.31555,-11.538938 2.298358,-11.485635" />
      <path d="M 2.828874,-12.163179 L 2.350481,-11.581802" />
      <path d="M 2.350481,-11.581802 C 1.591557,-12.034391 0.441759,-12.272431 -0.61909,-12.219677 C -1.148755,-12.195759 -1.65285,-12.103908 -2.073672,-11.957803 C -2.495167,-11.812134 -2.8325,-11.61258 -3.047048,-11.385151" />
      <path d="M 2.839713,-12.290793 Q 2.632317,-12.486807 2.350478,-12.652664" />
      <path d="M 2.350478,-12.652664 Q 2.315549,-12.609802 2.298357,-12.556501" />
      <path d="M 2.828874,-13.234046 L 2.350478,-12.652664" />
      <path d="M 2.350478,-12.652664 C 1.591557,-13.105251 0.441766,-13.343291 -0.61908,-13.290539 C -1.148743,-13.266622 -1.652837,-13.174772 -2.073658,-13.028669 C -2.495154,-12.883002 -2.832487,-12.683449 -3.047037,-12.456022" />
      <path d="M 2.839699,-13.361666 Q 2.632306,-13.557674 2.350476,-13.723526" />
      <path d="M 2.350476,-13.723526 Q 2.315548,-13.680665 2.298356,-13.627366" />
      <path d="M 2.828874,-14.304914 L 2.350476,-13.723526" />
      <path d="M 2.350476,-13.723526 C 1.591558,-14.176111 0.441772,-14.414151 -0.61907,-14.361401 C -1.148731,-14.337485 -1.652824,-14.245636 -2.073645,-14.099535 C -2.49514,-13.953869 -2.832474,-13.754318 -3.047027,-13.526892" />
      <path d="M 2.839685,-14.432539 Q 2.632296,-14.628541 2.350473,-14.794388" />
      <path d="M 2.350473,-14.794388 Q 2.315547,-14.751529 2.298355,-14.698231" />
      <path d="M 2.828874,-15.375781 L 2.350473,-14.794388" />
      <path d="M 2.350473,-14.794388 C 1.591559,-15.246971 0.441779,-15.485011 -0.61906,-15.432263 C -1.148719,-15.408347 -1.652811,-15.3165 -2.073632,-15.1704 C -2.495126,-15.024736 -2.832461,-14.825187 -3.047016,-14.597763" />
      <path d="M 2.83967,-15.503412 Q 2.632285,-15.699407 2.350471,-15.86525" />
      <path d="M 2.350471,-15.86525 Q 2.315546,-15.822392 2.298354,-15.769097" />
      <path d="M 2.828874,-16.446649 L 2.350471,-15.86525" />
      <path d="M 2.350471,-15.86525 C 1.591559,-16.317832 0.441785,-16.555871 -0.61905,-16.503125 C -1.148708,-16.47921 -1.652798,-16.387364 -2.073618,-16.241266 C -2.495113,-16.095604 -2.832448,-15.896056 -3.047005,-15.668634" />
      <path d="M 2.839656,-16.574285 Q 2.632275,-16.770274 2.350469,-16.936112" />
      <path d="M 2.350469,-16.936112 Q 2.315545,-16.893255 2.298353,-16.839962" />
      <path d="M 2.828874,-17.517516 L 2.350469,-16.936112" />
      <path d="M 2.350469,-16.936112 C 1.59156,-17.388692 0.441791,-17.626731 -0.619039,-17.573987 C -1.148696,-17.550073 -1.652784,-17.458228 -2.073605,-17.312132 C -2.495099,-17.166471 -2.832436,-16.966925 -3.046994,-16.739504" />
      <path d="M 2.839642,-17.645159 Q 2.632264,-17.841141 2.350466,-18.006973" />
      <path d="M 2.350466,-18.006973 Q 2.315544,-17.964119 2.298351,-17.910827" />
      <path d="M 2.828874,-18.588383 L 2.350466,-18.006973" />
      <path d="M 2.350466,-18.006973 C 1.59156,-18.459552 0.441798,-18.697591 -0.619029,-18.644849 C -1.148684,-18.620936 -1.652771,-18.529093 -2.073591,-18.382998 C -2.495086,-18.237338 -2.832423,-18.037794 -3.046984,-17.810375" />
      <path d="M 2.839628,-18.716032 Q 2.632254,-18.912008 2.350464,-19.077835" />
      <path d="M 2.350464,-19.077835 Q 2.315543,-19.034982 2.29835,-18.981692" />
      <path d="M 2.785448,-19.606475 L 2.350464,-19.077835" />
      <path d="M 2.350464,-19.077835 C 1.591561,-19.530412 0.441804,-19.768451 -0.619019,-19.715711 C -1.148672,-19.691799 -1.652758,-19.599957 -2.073578,-19.453863 C -2.495072,-19.308205 -2.83241,-19.108663 -3.046973,-18.881246" />
      <path d="M 2.289393,-19.95159 L 2.296505,-19.927504" />
      <line x1="-3.999544" y1="4.47676" x2="-3.999544" y2="-0.531" />
      <line x1="4.000456" y1="4.236841" x2="4.000456" y2="-0.063368" />
      <line x1="4.000456" y1="-0.888352" x2="4.000456" y2="-1.06643" />
      <line x1="-3.999544" y1="-1.467958" x2="-3.999544" y2="-1.601865" />
      <line x1="4.000456" y1="-2.003394" x2="4.000456" y2="-2.137295" />
      <line x1="-3.999544" y1="-2.538825" x2="-3.999544" y2="-2.67273" />
      <line x1="4.000456" y1="-3.074261" x2="4.000456" y2="-3.20816" />
      <line x1="-3.999544" y1="-3.609693" x2="-3.999544" y2="-3.743595" />
      <line x1="4.000456" y1="-4.145129" x2="4.000456" y2="-4.279025" />
      <line x1="-3.999544" y1="-4.68056" x2="-3.999544" y2="-4.81446" />
      <line x1="4.000456" y1="-5.215996" x2="4.000456" y2="-5.34989" />
      <line x1="-3.999544" y1="-5.751428" x2="-3.999544" y2="-5.885325" />
      <line x1="4.000456" y1="-6.286864" x2="4.000456" y2="-6.420754" />
      <line x1="-3.999544" y1="-6.822295" x2="-3.999544" y2="-6.956189" />
      <line x1="4.000456" y1="-7.357731" x2="4.000456" y2="-7.491619" />
      <line x1="-3.999544" y1="-7.893163" x2="-3.999544" y2="-8.027054" />
      <line x1="4.000456" y1="-8.428599" x2="4.000456" y2="-8.562484" />
      <line x1="-3.999544" y1="-8.96403" x2="-3.999544" y2="-9.097919" />
      <line x1="4.000456" y1="-9.499466" x2="4.000456" y2="-9.633349" />
      <line x1="-3.999544" y1="-10.034898" x2="-3.999544" y2="-10.168784" />
      <line x1="4.000456" y1="-10.570334" x2="4.000456" y2="-10.704214" />
      <line x1="-3.999544" y1="-11.105765" x2="-3.999544" y2="-11.239649" />
      <line x1="4.000456" y1="-11.641201" x2="4.000456" y2="-11.775079" />
      <line x1="-3.999544" y1="-12.176633" x2="-3.999544" y2="-12.310514" />
      <line x1="4.000456" y1="-12.712069" x2="4.000456" y2="-12.845943" />
      <line x1="-3.999544" y1="-13.2475" x2="-3.999544" y2="-13.381378" />
      <line x1="4.000456" y1="-13.782936" x2="4.000456" y2="-13.916808" />
      <line x1="-3.999544" y1="-14.318368" x2="-3.999544" y2="-14.452243" />
      <line x1="4.000456" y1="-14.853804" x2="4.000456" y2="-14.987673" />
      <line x1="-3.999544" y1="-15.389235" x2="-3.999544" y2="-15.523108" />
      <line x1="4.000456" y1="-15.924671" x2="4.000456" y2="-16.058538" />
      <line x1="-3.999544" y1="-16.460103" x2="-3.999544" y2="-16.593973" />
      <line x1="4.000456" y1="-16.995539" x2="4.000456" y2="-17.129403" />
      <line x1="-3.999544" y1="-17.53097" x2="-3.999544" y2="-17.664838" />
      <line x1="4.000456" y1="-18.066406" x2="4.000456" y2="-18.117277" />
      <line x1="2.768243" y1="-19.650905" x2="3.159082" y2="-19.383575" />
      <line x1="2.555363" y1="-19.796513" x2="2.581951" y2="-19.778327" />
      <line x1="-2.554452" y1="-19.796513" x2="-2.971944" y2="-19.510953" />
    </g>
    <g fill="none" stroke="rgb(32,64,32)" stroke-width="0.03178208023998161" id="Hidden" stroke-dasharray="0.000807 0.09575">
      <line x1="1.943059" y1="10.894793" x2="7.25027" y2="8.157167" />
      <line x1="1.943059" y1="10.894793" x2="1.943059" y2="14.845661" />
      <line x1="-5.306755" y1="9.892767" x2="1.943059" y2="10.894793" />
      <line x1="-5.306755" y1="9.892767" x2="-5.306755" y2="13.843636" />
      <line x1="-7.249359" y1="6.153116" x2="-5.306755" y2="9.892767" />
      <path d="M 4.137017,5.021374 A 5.85,3.0175939567473464 -1.856299644223798e-15 0,1 5.850456,7.155142" />
      <path d="M 5.850456,7.155142 A 5.85,3.0175939567473464 -1.856299644223798e-15 0,1 -5.849544,7.155142" />
      <path d="M -5.849544,7.155142 A 5.85,3.0175939567473464 -1.856299644223798e-15 0,1 4.137017,5.021374" />
      <path d="M 4.137017,4.764366 A 5.85,3.0175939567473464 -1.856299644223798e-15 0,1 5.850456,6.898134" />
      <path d="M 5.850456,6.898134 A 5.85,3.0175939567473464 -1.856299644223798e-15 0,1 -5.849544,6.898134" />
      <path d="M -5.849544,6.898134 A 5.85,3.0175939567473464 -1.856299644223798e-15 0,1 4.137017,4.764366" />
      <path d="M 4.000455,-0.063368 Q 4.000455,-0.011111 3.995432,0.04089" />
      <path d="M 3.835695,0.523591 A 4.0,2.0633121071776728 180.0 0,0 3.995432,0.04089" />
      <path d="M 3.835695,0.523591 C 3.629336,0.882364 3.22727,1.20433 2.688911,1.448621 C 2.053984,1.738856 1.229547,1.918262 0.375637,1.960879" />
      <path d="M 0.375637,1.960879 C 0.205526,1.969574 0.037678,1.970485 -0.127908,1.963613 C -0.272093,1.957703 -0.408519,1.945553 -0.537186,1.927162 C -0.665714,1.908447 -0.801956,1.878652 -0.808365,1.849141 C -0.81052,1.827465 -0.731462,1.813902 -0.644282,1.803173 C -0.538243,1.791326 -0.421295,1.779779 -0.29344,1.768531 C -0.094672,1.750614 0.109934,1.72798 0.320378,1.700628" />
      <path d="M 0.320378,1.700628 L 0.375861,1.693142" />
      <path d="M 0.375861,1.693142 C 1.294038,1.568401 2.175547,1.265199 2.827018,0.84122 C 3.392623,0.475883 3.78467,0.022337 3.931782,-0.450405" />
      <path d="M -3.999544,-0.531001 C -4.003739,-0.03616 -3.575092,0.454908 -2.834517,0.791138 C -2.09595,1.132295 -1.052176,1.311428 -0.000847,1.264651 C 0.920946,1.226895 1.838955,1.017441 2.547965,0.674352 C 2.845568,0.530994 3.102365,0.368551 3.318355,0.187023 C 3.761077,-0.18448 4.001871,-0.624984 4.000456,-1.06643" />
      <path d="M 3.995432,0.04089 Q 3.968028,0.286993 3.835695,0.523591" />
      <path d="M -3.999544,-1.601866 C -4.003742,-1.106938 -3.574939,-0.615787 -2.834133,-0.279551 C -2.095032,0.061759 -1.050396,0.240818 0.001554,0.193683 C 0.892692,0.156781 1.780428,-0.040162 2.478551,-0.363798 C 2.810275,-0.516998 3.093618,-0.693232 3.328582,-0.892498 C 3.764851,-1.262163 4.001829,-1.699277 4.000456,-2.137295" />
      <path d="M -3.87486,-0.999479 C -3.70761,-0.689339 -3.369184,-0.402176 -2.901998,-0.177528 C -2.189442,0.168897 -1.171267,0.360773 -0.131832,0.332147 C 0.746987,0.310812 1.632683,0.133815 2.344054,-0.170291 C 3.139461,-0.506526 3.709528,-0.998979 3.911596,-1.534913" />
      <path d="M -3.999544,-2.672731 C -4.003743,-2.177766 -3.574874,-1.686579 -2.833969,-1.350341 C -2.094561,-1.008939 -1.049646,-0.82995 0.002575,-0.877225 C 0.894993,-0.914293 1.783906,-1.111878 2.482354,-1.43642 C 2.805011,-1.585763 3.081892,-1.757025 3.312999,-1.950206 C 3.759099,-2.322657 4.001894,-2.764928 4.000456,-3.20816" />
      <path d="M -3.87486,-2.070346 C -3.707258,-1.759545 -3.367735,-1.471824 -2.899019,-1.246961 C -2.196846,-0.906488 -1.199119,-0.715535 -0.176669,-0.737704 C 0.725527,-0.754301 1.638307,-0.935383 2.36533,-1.25027 C 3.14978,-1.586178 3.711267,-2.07468 3.911596,-2.605779" />
      <path d="M -3.999544,-3.743596 C -4.003745,-3.248594 -3.574808,-2.75737 -2.833801,-2.421129 C -2.094164,-2.079662 -1.048878,-1.900705 0.003609,-1.948134 C 0.896768,-1.985349 1.786326,-2.183357 2.484898,-2.508462 C 2.811497,-2.659871 3.091034,-2.833691 3.323509,-3.029923 C 3.76298,-3.400504 4.00185,-3.839303 4.000456,-4.279025" />
      <path d="M -3.874859,-3.141212 C -3.712179,-2.839653 -3.387804,-2.559734 -2.940317,-2.338011 C -2.223107,-1.978583 -1.181884,-1.77881 -0.119326,-1.809918 C 0.766885,-1.832832 1.659057,-2.014112 2.371803,-2.323932 C 3.152921,-2.659732 3.711796,-3.147021 3.911595,-3.676645" />
      <path d="M -3.999544,-4.81446 C -4.00375,-4.319272 -3.574479,-3.82787 -2.832976,-3.491617 C -2.098508,-3.152799 -1.062843,-2.973959 -0.017994,-3.0181 C 0.87513,-3.052826 1.766338,-3.248348 2.4679,-3.571495 C 2.805972,-3.72663 3.094126,-3.90557 3.332364,-4.108314 C 3.766245,-4.477291 4.001813,-4.913144 4.000456,-5.34989" />
      <path d="M -3.874858,-4.212078 C -3.713575,-3.913153 -3.3935,-3.635495 -2.952013,-3.414714 C -2.298654,-3.084948 -1.374473,-2.886428 -0.407343,-2.87831 C 0.559348,-2.86694 1.558865,-3.046591 2.34466,-3.383151 C 3.139753,-3.719377 3.709574,-4.211716 3.911595,-4.747511" />
      <path d="M -3.999544,-5.885325 C -4.00375,-5.390135 -3.574475,-4.89873 -2.832965,-4.562476 C -2.098487,-4.223657 -1.062807,-4.044819 -0.017948,-4.088967 C 0.874055,-4.123659 1.764155,-4.318729 2.465298,-4.641167 C 2.796467,-4.792883 3.07995,-4.96753 3.315747,-5.165107 C 3.760114,-5.537073 4.001882,-5.978439 4.000456,-6.420755" />
      <path d="M -3.874857,-5.282944 C -3.709215,-4.975829 -3.375782,-4.691222 -2.915576,-4.467578 C -2.199503,-4.115659 -1.169605,-3.92097 -0.119353,-3.951652 C 0.757584,-3.974358 1.640449,-4.152013 2.34938,-4.456031 C 3.142044,-4.792189 3.709958,-5.283654 3.911594,-5.818378" />
      <path d="M -3.999544,-6.95619 C -4.003756,-6.460842 -3.574198,-5.969287 -2.832269,-5.633023 C -2.097158,-5.294084 -1.06054,-5.115377 -0.015034,-5.159949 C 0.888351,-5.195378 1.789422,-5.395456 2.494269,-5.725409 C 2.812109,-5.873588 3.085163,-6.043127 3.313428,-6.234026 C 3.759258,-6.606401 4.001892,-7.048531 4.000456,-7.491619" />
      <path d="M -3.874857,-6.35381 C -3.711442,-6.050885 -3.384878,-5.769831 -2.934286,-5.547626 C -2.221404,-5.192126 -1.190833,-4.993728 -0.137498,-5.022048 C 0.753506,-5.042981 1.651897,-5.224099 2.369043,-5.535342 C 3.15158,-5.871188 3.711567,-6.358992 3.911594,-6.889244" />
      <path d="M -3.999544,-8.027055 C -4.003759,-7.531587 -3.573984,-7.039915 -2.831732,-6.703642 C -2.09614,-6.364615 -1.058809,-6.18601 -0.012813,-6.230905 C 0.879072,-6.266183 1.768656,-6.461791 2.469045,-6.784614 C 2.796072,-6.934767 3.076521,-7.107345 3.310391,-7.302348 C 3.758135,-7.675257 4.001905,-8.118387 4.000456,-8.562484" />
      <path d="M -3.874856,-7.424676 C -3.709031,-7.117223 -3.375045,-6.832332 -2.914061,-6.608575 C -2.203112,-6.259658 -1.183561,-6.065424 -0.141713,-6.092812 C 0.739933,-6.113082 1.629224,-6.290075 2.343091,-6.595086 C 3.138986,-6.931331 3.709444,-7.423961 3.911593,-7.96011" />
      <path d="M -3.999544,-9.09792 C -4.003763,-8.602359 -3.573821,-8.110599 -2.831321,-7.77432 C -2.095362,-7.435225 -1.057491,-7.256698 -0.011124,-7.301839 C 0.884912,-7.33746 1.778447,-7.534961 2.480115,-7.860574 C 2.813612,-8.014743 3.098117,-8.19217 3.333631,-8.392856 C 3.766712,-8.761601 4.001808,-9.197031 4.000456,-9.633349" />
      <path d="M -3.874855,-8.495543 C -3.712438,-8.194492 -3.38892,-7.915028 -2.942602,-7.693485 C -2.230382,-7.335974 -1.19794,-7.135888 -0.142058,-7.163671 C 0.743805,-7.183983 1.637373,-7.362577 2.353037,-7.670196 C 3.143814,-8.006298 3.710255,-8.497084 3.911593,-9.030976" />
      <path d="M -3.999544,-10.168784 C -4.003758,-9.67336 -3.574061,-9.18173 -2.831925,-8.84546 C -2.096504,-8.506464 -1.059429,-8.327822 -0.013608,-8.372602 C 0.887084,-8.408101 1.785394,-8.607233 2.489085,-8.935593 C 2.81788,-9.088412 3.098776,-9.263926 3.331773,-9.462134 C 3.766028,-9.831219 4.001816,-10.267269 4.000456,-10.704214" />
      <path d="M -3.874855,-9.566409 C -3.713254,-9.266886 -3.392195,-8.988709 -2.949332,-8.767709 C -2.296622,-8.438979 -1.374509,-8.241046 -0.40947,-8.232669 C 0.558693,-8.221006 1.559964,-8.400987 2.346642,-8.738333 C 3.140709,-9.074527 3.709732,-9.566499 3.911592,-10.101842" />
      <path d="M -3.999544,-11.239649 C -4.003766,-10.743968 -3.573607,-10.252091 -2.830785,-9.915804 C -2.09435,-9.576624 -1.055779,-9.398198 -0.008932,-9.443659 C 0.889216,-9.47961 1.784656,-9.678231 2.486779,-10.005388 C 2.814639,-10.157557 3.094978,-10.332299 3.327796,-10.529613 C 3.764562,-10.899421 4.001832,-11.336796 4.000456,-11.775079" />
      <path d="M -3.874854,-10.637275 C -3.712034,-10.335469 -3.387285,-10.055362 -2.939245,-9.833551 C -2.225632,-9.476277 -1.191777,-9.276837 -0.135199,-9.305575 C 0.74398,-9.326536 1.630293,-9.503298 2.342261,-9.807336 C 3.138584,-10.143592 3.709373,-10.636373 3.911592,-11.172708" />
      <path d="M -3.999544,-12.310514 C -4.003754,-11.815217 -3.574286,-11.32371 -2.832492,-10.987449 C -2.097583,-10.648548 -1.061264,-10.469799 -0.015964,-10.514236 C 0.879517,-10.549279 1.772886,-10.745997 2.475029,-11.070823 C 2.800324,-11.220722 3.079332,-11.392847 3.312053,-11.587197 C 3.758749,-11.959815 4.001898,-12.402398 4.000456,-12.845944" />
      <path d="M -3.874853,-11.708141 C -3.71381,-11.409673 -3.394469,-11.132405 -2.954018,-10.911792 C -2.300718,-10.58153 -1.375997,-10.382616 -0.408174,-10.37439 C 0.561507,-10.362866 1.56426,-10.543604 2.351308,-10.882059 C 3.142973,-11.218186 3.710111,-11.709291 3.911591,-12.243575" />
      <path d="M -3.999544,-13.38138 C -4.003769,-12.885645 -3.573515,-12.393718 -2.83055,-12.057427 C -2.093831,-11.718184 -1.055043,-11.53984 -0.007981,-11.585428 C 0.894339,-11.62164 1.793802,-11.822093 2.497274,-12.151999 C 2.816688,-12.301187 3.090732,-12.471934 3.319406,-12.664241 C 3.761466,-13.035557 4.001867,-13.475714 4.000456,-13.916808" />
      <path d="M -3.874852,-12.779007 C -3.707102,-12.467934 -3.367119,-12.179983 -2.897765,-11.955034 C -2.189533,-11.611887 -1.180875,-11.420978 -0.14974,-11.446959 C 0.740157,-11.466466 1.638384,-11.645773 2.356741,-11.955252 C 3.145608,-12.291297 3.710554,-12.781392 3.911591,-13.314441" />
      <path d="M -3.999544,-14.452244 C -4.003758,-13.956818 -3.574059,-13.465187 -2.831919,-13.128917 C -2.096494,-12.78992 -1.059411,-12.611279 -0.013585,-12.656062 C 0.890129,-12.691671 1.791408,-12.892053 2.496166,-13.222347 C 2.815097,-13.371208 3.088844,-13.541566 3.317408,-13.733422 C 3.760728,-14.105094 4.001875,-14.545911 4.000456,-14.987673" />
      <path d="M -3.874852,-13.849873 C -3.713123,-13.550118 -3.391695,-13.271751 -2.948319,-13.050672 C -2.295504,-12.722152 -1.373521,-12.524412 -0.408708,-12.516131 C 0.560394,-12.504548 1.562585,-12.684993 2.349499,-13.023022 C 3.142097,-13.359176 3.709961,-13.850614 3.91159,-14.385307" />
      <path d="M -3.999544,-15.523109 C -4.003767,-15.027407 -3.573572,-14.535511 -2.830695,-14.199223 C -2.094182,-13.860029 -1.055494,-13.68162 -0.008568,-13.727133 C 0.891355,-13.76319 1.788509,-13.962585 2.491214,-14.290906 C 2.811208,-14.439814 3.085888,-14.610338 3.315254,-14.802476 C 3.759932,-15.174529 4.001884,-15.616058 4.000456,-16.058538" />
      <path d="M -3.874851,-14.92074 C -3.708097,-14.611546 -3.371238,-14.325188 -2.906236,-14.100852 C -2.194606,-13.753739 -1.176679,-13.561047 -0.136925,-13.589002 C 0.747553,-13.609872 1.639331,-13.788502 2.353734,-14.095699 C 3.14415,-14.43179 3.710306,-14.922442 3.91159,-15.456173" />
      <path d="M -3.999544,-16.593974 C -4.003768,-16.098258 -3.573546,-15.606347 -2.830629,-15.270057 C -2.09398,-14.930827 -1.055294,-14.752468 -0.008302,-14.798009 C 0.892764,-14.834138 1.79102,-15.034036 2.494094,-15.363111 C 2.811811,-15.511216 3.084785,-15.680666 3.313014,-15.871462 C 3.759104,-16.24391 4.001894,-16.686176 4.000456,-17.129403" />
      <path d="M -3.87485,-15.991606 C -3.713605,-15.692761 -3.393652,-15.415172 -2.952344,-15.194422 C -2.299128,-14.864643 -1.375106,-14.66607 -0.408076,-14.657859 C 0.558481,-14.6464 1.557925,-14.82591 2.343782,-15.16232 C 3.139318,-15.498554 3.709493,-15.991051 3.911589,-16.527039" />
      <path d="M 4.000456,-18.117277 A 4.0,2.0633121071776728 -1.856299644223798e-15 0,1 3.535519,-17.151793" />
      <path d="M -3.999544,-17.664838 C -4.003771,-17.169019 -3.573365,-16.677011 -2.830175,-16.340715 C -2.093157,-16.001428 -1.053942,-15.823155 -0.006593,-15.868945 C 0.885042,-15.90493 1.773899,-16.101146 2.473334,-16.424367 C 2.911015,-16.62542 3.275403,-16.874277 3.535519,-17.151793" />
      <path d="M -3.87485,-17.062472 C -3.713481,-16.763399 -3.39316,-16.485615 -2.95133,-16.264781 C -2.237481,-15.903934 -1.198515,-15.701982 -0.136327,-15.730752 C 0.756113,-15.751848 1.65586,-15.933663 2.373427,-16.245912 C 3.153699,-16.581679 3.711918,-17.068658 3.911589,-17.597905" />
      <path d="M 3.535519,-17.151793 C 3.847555,-17.649577 3.887029,-18.201751 3.634891,-18.710688 C 3.466394,-19.054976 3.167272,-19.378459 2.768243,-19.650905" />
      <path d="M 2.663456,-19.720001 C 3.07213,-19.416161 3.292144,-19.025609 3.259093,-18.63366 C 3.234742,-18.307567 3.03989,-17.981643 2.704524,-17.700242" />
      <path d="M -3.64216,-18.444742 C -3.624057,-17.975259 -3.198562,-17.514814 -2.486969,-17.209711 C -1.985226,-16.991882 -1.346919,-16.852407 -0.674828,-16.818372 C -0.021954,-16.784164 0.660113,-16.849898 1.262416,-17.009452 C 1.847257,-17.16318 2.354686,-17.40465 2.704524,-17.700242" />
      <path d="M 2.568582,-19.787407 A 3.2,1.6506496857421382 -1.856299644223798e-15 1,1 -2.554452,-19.796513" />
      <line x1="-5.849544" y1="7.155142" x2="-5.849544" y2="6.898134" />
      <line x1="5.850456" y1="7.155142" x2="5.850456" y2="6.898134" />
      <path d="M 2.928344,5.306064 C 2.468684,5.068069 1.874529,4.882049 1.226017,4.780347 C 0.364802,4.642914 -0.590417,4.656101 -1.43487,4.81662 C -2.312764,4.978801 -3.064168,5.306506 -3.498484,5.679738 C -3.632977,5.794677 -3.738806,5.908815 -3.815972,6.022151 C -3.947728,6.214852 -3.998908,6.38862 -3.999544,6.555457" />
      <path d="M 4.000456,6.555457 C 4.001078,6.458921 3.981731,6.359054 3.942417,6.255856 C 3.925519,6.211928 3.9043,6.16707 3.878763,6.121281 C 3.732106,5.853291 3.408502,5.551697 2.928344,5.306064" />
      <line x1="-3.999544" y1="6.555457" x2="-3.999544" y2="4.47676" />
      <line x1="4.000456" y1="6.555457" x2="4.000456" y2="4.236841" />
      <path d="M 0.320378,1.700628 C 0.918121,1.621786 1.488858,1.465862 1.962372,1.251432 C 2.557682,0.984748 2.989328,0.624144 3.193208,0.26534 C 3.303181,0.072186 3.357856,-0.11843 3.357231,-0.306509 C 3.358103,-0.440134 3.331806,-0.574953 3.27834,-0.710967 C 3.14818,-1.046458 2.823952,-1.398448 2.328674,-1.684323" />
      <path d="M 2.328319,-1.68453 C 1.741438,-2.033866 0.889,-2.265527 0.02745,-2.310815 C -0.679587,-2.35111 -1.387773,-2.269135 -1.950127,-2.092145 C -2.386418,-1.95682 -2.732995,-1.764168 -2.944368,-1.562615 C -3.037096,-1.473824 -3.106092,-1.386763 -3.151356,-1.301432 C -3.206781,-1.196689 -3.23393,-1.096354 -3.232802,-1.000426 C -3.23325,-0.932717 -3.220465,-0.863295 -3.194449,-0.792159 C -3.154031,-0.675974 -3.068276,-0.555154 -2.937183,-0.4297 C -2.729181,-0.234276 -2.394295,-0.047734 -1.974042,0.085532 C -1.442013,0.256453 -0.775935,0.342358 -0.102397,0.317644 C 0.619824,0.293309 1.347279,0.14092 1.923366,-0.109922 C 2.231975,-0.243332 2.497314,-0.403655 2.702333,-0.576814 C 2.873606,-0.722716 3.002463,-0.871797 3.088905,-1.024057 C 3.186641,-1.197146 3.234907,-1.367107 3.233703,-1.533942 C 3.23424,-1.65292 3.210409,-1.773324 3.162209,-1.895155 C 3.047775,-2.188116 2.764811,-2.499874 2.328317,-2.755393" />
      <path d="M 2.328317,-2.755393 C 1.741437,-3.104728 0.888999,-3.336389 0.02745,-3.381677 C -0.679585,-3.421972 -1.387769,-3.339997 -1.950122,-3.163008 C -2.386414,-3.027684 -2.732991,-2.835032 -2.944365,-2.633478 C -3.037093,-2.544688 -3.106089,-2.457627 -3.151353,-2.372295 C -3.206779,-2.267553 -3.233927,-2.167218 -3.232799,-2.071289 C -3.233247,-2.003581 -3.220463,-1.934159 -3.194446,-1.863023 C -3.154029,-1.746838 -3.068274,-1.626018 -2.937181,-1.500565 C -2.72918,-1.305141 -2.394295,-1.118599 -1.974044,-0.985334 C -1.44202,-0.814413 -0.775947,-0.728508 -0.102413,-0.753221 C 0.619806,-0.777554 1.34726,-0.92994 1.923348,-1.18078 C 2.231961,-1.31419 2.497304,-1.474513 2.702326,-1.647674 C 2.873599,-1.793576 3.002458,-1.942657 3.088901,-2.094918 C 3.186638,-2.268007 3.234904,-2.437968 3.233701,-2.604803 C 3.234238,-2.723781 3.210407,-2.844185 3.162208,-2.966015 C 3.047774,-3.258977 2.76481,-3.570735 2.328315,-3.826255" />
      <path d="M 2.328315,-3.826255 C 1.741435,-4.17559 0.888999,-4.407251 0.02745,-4.452539 C -0.679583,-4.492834 -1.387765,-4.410859 -1.950117,-4.233872 C -2.38641,-4.098547 -2.732988,-3.905895 -2.944362,-3.704342 C -3.03709,-3.615551 -3.106086,-3.52849 -3.15135,-3.443159 C -3.206776,-3.338416 -3.233925,-3.238081 -3.232796,-3.142153 C -3.233244,-3.074445 -3.22046,-3.005023 -3.194444,-2.933887 C -3.154026,-2.817702 -3.068272,-2.696883 -2.93718,-2.57143 C -2.729179,-2.376006 -2.394296,-2.189465 -1.974047,-2.0562 C -1.442026,-1.88528 -0.775959,-1.799374 -0.102429,-1.824085 C 0.619788,-1.848416 1.347241,-2.0008 1.92333,-2.251637 C 2.231947,-2.385047 2.497293,-2.545371 2.702318,-2.718533 C 2.873593,-2.864436 3.002453,-3.013517 3.088896,-3.165778 C 3.186634,-3.338867 3.234901,-3.508829 3.233698,-3.675663 C 3.234236,-3.794641 3.210405,-3.915045 3.162206,-4.036875 C 3.047774,-4.329838 2.764809,-4.641597 2.328313,-4.897118" />
      <path d="M 2.328313,-4.897118 C 1.741434,-5.246452 0.888998,-5.478113 0.02745,-5.523401 C -0.679582,-5.563696 -1.387761,-5.481722 -1.950112,-5.304735 C -2.386406,-5.169411 -2.732985,-4.976759 -2.944359,-4.775205 C -3.037087,-4.686414 -3.106083,-4.599353 -3.151348,-4.514022 C -3.206773,-4.40928 -3.233922,-4.308945 -3.232794,-4.213017 C -3.233242,-4.145309 -3.220457,-4.075887 -3.194441,-4.004751 C -3.154024,-3.888566 -3.06827,-3.767747 -2.937178,-3.642294 C -2.729178,-3.446871 -2.394297,-3.260331 -1.974049,-3.127066 C -1.442033,-2.956146 -0.77597,-2.87024 -0.102445,-2.894949 C 0.619769,-2.919278 1.347222,-3.071659 1.923312,-3.322495 C 2.231933,-3.455905 2.497283,-3.61623 2.70231,-3.789392 C 2.873587,-3.935295 3.002447,-4.084378 3.088892,-4.236639 C 3.18663,-4.409728 3.234898,-4.57969 3.233695,-4.746524 C 3.234233,-4.865502 3.210403,-4.985906 3.162205,-5.107736 C 3.047773,-5.400699 2.764808,-5.712459 2.328311,-5.96798" />
      <path d="M 2.328311,-5.96798 C 1.741432,-6.317315 0.888997,-6.548975 0.02745,-6.594263 C -0.67958,-6.634558 -1.387757,-6.552584 -1.950107,-6.375598 C -2.386402,-6.240274 -2.732981,-6.047622 -2.944356,-5.846068 C -3.037084,-5.757278 -3.10608,-5.670217 -3.151345,-5.584886 C -3.20677,-5.480143 -3.233919,-5.379808 -3.232791,-5.283881 C -3.233239,-5.216173 -3.220455,-5.146751 -3.194439,-5.075615 C -3.154022,-4.959431 -3.068267,-4.838612 -2.937176,-4.713159 C -2.729178,-4.517737 -2.394297,-4.331196 -1.974052,-4.197931 C -1.442039,-4.027013 -0.775982,-3.941106 -0.102461,-3.965813 C 0.619751,-3.990141 1.347203,-4.142519 1.923294,-4.393352 C 2.231919,-4.526762 2.497273,-4.687088 2.702302,-4.860252 C 2.87358,-5.006155 3.002442,-5.155238 3.088888,-5.307499 C 3.186627,-5.480589 3.234895,-5.650551 3.233692,-5.817385 C 3.234231,-5.936363 3.210401,-6.056766 3.162203,-6.178596 C 3.047772,-6.47156 2.764807,-6.783321 2.328309,-7.038843" />
      <path d="M 2.328309,-7.038843 C 1.741431,-7.388177 0.888996,-7.619837 0.02745,-7.665125 C -0.679578,-7.70542 -1.387753,-7.623447 -1.950102,-7.446462 C -2.386397,-7.311138 -2.732978,-7.118486 -2.944353,-6.916932 C -3.037081,-6.828141 -3.106077,-6.74108 -3.151342,-6.655749 C -3.206768,-6.551007 -3.233916,-6.450672 -3.232788,-6.354744 C -3.233236,-6.287036 -3.220452,-6.217615 -3.194436,-6.146479 C -3.154019,-6.030295 -3.068265,-5.909476 -2.937175,-5.784024 C -2.729177,-5.588602 -2.394298,-5.402062 -1.974054,-5.268797 C -1.442046,-5.097879 -0.775994,-5.011972 -0.102477,-5.036677 C 0.619733,-5.061003 1.347184,-5.213379 1.923277,-5.46421 C 2.231905,-5.59762 2.497262,-5.757946 2.702294,-5.931111 C 2.873574,-6.077015 3.002437,-6.226098 3.088883,-6.37836 C 3.186623,-6.55145 3.234892,-6.721412 3.23369,-6.888246 C 3.234229,-7.007224 3.210399,-7.127627 3.162202,-7.249456 C 3.047771,-7.54242 2.764806,-7.854183 2.328307,-8.109705" />
      <path d="M 2.328307,-8.109705 C 1.741429,-8.459039 0.888995,-8.690699 0.02745,-8.735987 C -0.679576,-8.776281 -1.387749,-8.694309 -1.950097,-8.517325 C -2.386393,-8.382002 -2.732974,-8.189349 -2.94435,-7.987795 C -3.037078,-7.899004 -3.106074,-7.811944 -3.151339,-7.726613 C -3.206765,-7.62187 -3.233914,-7.521536 -3.232786,-7.425608 C -3.233234,-7.3579 -3.22045,-7.288478 -3.194434,-7.217343 C -3.154017,-7.101159 -3.068263,-6.980341 -2.937173,-6.854888 C -2.729176,-6.659467 -2.394299,-6.472928 -1.974057,-6.339663 C -1.442052,-6.168746 -0.776006,-6.082838 -0.102493,-6.107542 C 0.619715,-6.131865 1.347165,-6.284239 1.923259,-6.535067 C 2.231891,-6.668478 2.497252,-6.828805 2.702287,-7.001971 C 2.873568,-7.147875 3.002432,-7.296958 3.088879,-7.449221 C 3.186619,-7.622311 3.234889,-7.792273 3.233687,-7.959107 C 3.234226,-8.078084 3.210397,-8.198488 3.1622,-8.320317 C 3.04777,-8.613281 2.764805,-8.925045 2.328305,-9.180568" />
      <path d="M 2.328305,-9.180568 C 1.741428,-9.529901 0.888994,-9.761561 0.027449,-9.806849 C -0.679574,-9.847143 -1.387745,-9.765172 -1.950091,-9.588189 C -2.386389,-9.452865 -2.732971,-9.260213 -2.944347,-9.058658 C -3.037075,-8.969868 -3.106072,-8.882807 -3.151336,-8.797476 C -3.206762,-8.692734 -3.233911,-8.592399 -3.232783,-8.496472 C -3.233231,-8.428764 -3.220447,-8.359342 -3.194431,-8.288207 C -3.154015,-8.172023 -3.068261,-8.051205 -2.937171,-7.925753 C -2.729175,-7.730333 -2.3943,-7.543794 -1.974059,-7.410529 C -1.442059,-7.239613 -0.776017,-7.153704 -0.102509,-7.178406 C 0.619697,-7.202728 1.347146,-7.355099 1.923241,-7.605924 C 2.231877,-7.739335 2.497241,-7.899663 2.702279,-8.07283 C 2.873561,-8.218734 3.002426,-8.367818 3.088875,-8.520081 C 3.186615,-8.693171 3.234885,-8.863134 3.233684,-9.029968 C 3.234224,-9.148945 3.210395,-9.269348 3.162199,-9.391177 C 3.04777,-9.684142 2.764804,-9.995906 2.328303,-10.25143" />
      <path d="M 2.328303,-10.25143 C 1.741426,-10.600763 0.888994,-10.832423 0.027449,-10.877711 C -0.679572,-10.918005 -1.387741,-10.836034 -1.950086,-10.659052 C -2.386385,-10.523729 -2.732968,-10.331076 -2.944344,-10.129522 C -3.037072,-10.040731 -3.106069,-9.95367 -3.151333,-9.868339 C -3.206759,-9.763597 -3.233908,-9.663263 -3.23278,-9.567335 C -3.233228,-9.499628 -3.220445,-9.430206 -3.194429,-9.359071 C -3.154012,-9.242887 -3.068259,-9.12207 -2.93717,-8.996618 C -2.729174,-8.801198 -2.3943,-8.614659 -1.974062,-8.481395 C -1.442065,-8.310479 -0.776029,-8.224571 -0.102526,-8.24927 C 0.619679,-8.27359 1.347127,-8.425959 1.923223,-8.676782 C 2.231863,-8.810193 2.497231,-8.970521 2.702271,-9.14369 C 2.873555,-9.289594 3.002421,-9.438678 3.08887,-9.590942 C 3.186612,-9.764032 3.234882,-9.933994 3.233682,-10.100829 C 3.234221,-10.219806 3.210393,-10.340209 3.162197,-10.462037 C 3.047769,-10.755003 2.764804,-11.066768 2.328301,-11.322293" />
      <path d="M 2.328301,-11.322293 C 1.741424,-11.671626 0.888993,-11.903285 0.027449,-11.948573 C -0.67957,-11.988867 -1.387737,-11.906896 -1.950081,-11.729915 C -2.386381,-11.594592 -2.732964,-11.40194 -2.944341,-11.200385 C -3.037069,-11.111594 -3.106066,-11.024534 -3.151331,-10.939203 C -3.206756,-10.834461 -3.233905,-10.734126 -3.232778,-10.638199 C -3.233226,-10.570492 -3.220442,-10.50107 -3.194426,-10.429935 C -3.15401,-10.313752 -3.068257,-10.192934 -2.937168,-10.067482 C -2.729174,-9.872063 -2.394301,-9.685525 -1.974064,-9.552261 C -1.442071,-9.381346 -0.776041,-9.295437 -0.102542,-9.320134 C 0.61966,-9.344453 1.347107,-9.496819 1.923205,-9.747639 C 2.231849,-9.88105 2.49722,-10.04138 2.702263,-10.214549 C 2.873548,-10.360454 3.002416,-10.509538 3.088866,-10.661803 C 3.186608,-10.834893 3.234879,-11.004855 3.233679,-11.17169 C 3.234219,-11.290667 3.210391,-11.411069 3.162195,-11.532898 C 3.047768,-11.825864 2.764803,-12.13763 2.328299,-12.393155" />
      <path d="M 2.328299,-12.393155 C 1.741423,-12.742488 0.888992,-12.974147 0.027449,-13.019435 C -0.679568,-13.059729 -1.387733,-12.977759 -1.950076,-12.800779 C -2.386377,-12.665456 -2.732961,-12.472803 -2.944338,-12.271248 C -3.037066,-12.182458 -3.106063,-12.095397 -3.151328,-12.010066 C -3.206754,-11.905324 -3.233903,-11.80499 -3.232775,-11.709063 C -3.233223,-11.641355 -3.220439,-11.571934 -3.194424,-11.500799 C -3.154007,-11.384616 -3.068255,-11.263799 -2.937166,-11.138347 C -2.729173,-10.942928 -2.394302,-10.756391 -1.974067,-10.623126 C -1.442078,-10.452212 -0.776053,-10.366303 -0.102558,-10.390998 C 0.619642,-10.415315 1.347088,-10.567678 1.923187,-10.818497 C 2.231835,-10.951908 2.49721,-11.112238 2.702255,-11.285409 C 2.873542,-11.431314 3.002411,-11.580399 3.088861,-11.732663 C 3.186604,-11.905754 3.234876,-12.075716 3.233676,-12.242551 C 3.234217,-12.361527 3.210389,-12.48193 3.162194,-12.603758 C 3.047767,-12.896725 2.764802,-13.208492 2.328297,-13.464017" />
      <path d="M 2.328297,-13.464017 C 1.741421,-13.81335 0.888991,-14.045009 0.027449,-14.090297 C -0.679566,-14.130591 -1.387729,-14.048621 -1.950071,-13.871642 C -2.386372,-13.736319 -2.732957,-13.543667 -2.944335,-13.342112 C -3.037064,-13.253321 -3.10606,-13.166261 -3.151325,-13.08093 C -3.206751,-12.976188 -3.2339,-12.875853 -3.232772,-12.779926 C -3.23322,-12.712219 -3.220437,-12.642798 -3.194421,-12.571663 C -3.154005,-12.45548 -3.068253,-12.334663 -2.937164,-12.209211 C -2.729172,-12.013794 -2.394303,-11.827256 -1.974069,-11.693992 C -1.442084,-11.523079 -0.776064,-11.437169 -0.102574,-11.461863 C 0.619624,-11.486177 1.347069,-11.638538 1.923169,-11.889354 C 2.231821,-12.022765 2.497199,-12.183096 2.702248,-12.356268 C 2.873536,-12.502173 3.002406,-12.651259 3.088857,-12.803524 C 3.186601,-12.976614 3.234873,-13.146577 3.233674,-13.313412 C 3.234214,-13.432388 3.210387,-13.55279 3.162192,-13.674618 C 3.047766,-13.967586 2.764801,-14.279354 2.328295,-14.53488" />
      <path d="M 2.328295,-14.53488 C 1.74142,-14.884212 0.88899,-15.115871 0.027449,-15.161159 C -0.679564,-15.201453 -1.387725,-15.119484 -1.950066,-14.942505 C -2.386368,-14.807183 -2.732954,-14.61453 -2.944332,-14.412975 C -3.037061,-14.324185 -3.106057,-14.237124 -3.151322,-14.151793 C -3.206748,-14.047051 -3.233897,-13.946717 -3.23277,-13.85079 C -3.233218,-13.783083 -3.220434,-13.713662 -3.194419,-13.642527 C -3.154003,-13.526344 -3.068251,-13.405528 -2.937163,-13.280076 C -2.729171,-13.084659 -2.394303,-12.898122 -1.974072,-12.764858 C -1.442091,-12.593945 -0.776076,-12.508035 -0.10259,-12.532727 C 0.619606,-12.55704 1.34705,-12.709398 1.923151,-12.960212 C 2.231807,-13.093623 2.497189,-13.253955 2.70224,-13.427128 C 2.873529,-13.573033 3.0024,-13.722119 3.088853,-13.874385 C 3.186597,-14.047475 3.23487,-14.217438 3.233671,-14.384273 C 3.234212,-14.503249 3.210385,-14.623651 3.162191,-14.745479 C 3.047766,-15.038447 2.7648,-15.350216 2.328293,-15.605742" />
      <path d="M 2.328293,-15.605742 C 1.741418,-15.955074 0.888989,-16.186733 0.027448,-16.232021 C -0.679562,-16.272315 -1.387721,-16.190346 -1.950061,-16.013369 C -2.386364,-15.878046 -2.732951,-15.685394 -2.944329,-15.483838 C -3.037058,-15.395048 -3.106055,-15.307987 -3.151319,-15.222657 C -3.206745,-15.117915 -3.233895,-15.017581 -3.232767,-14.921654 C -3.233215,-14.853947 -3.220432,-14.784526 -3.194416,-14.713391 C -3.154,-14.597209 -3.068249,-14.476392 -2.937161,-14.350941 C -2.729171,-14.155524 -2.394304,-13.968988 -1.974074,-13.835724 C -1.442097,-13.664812 -0.776088,-13.578901 -0.102606,-13.603591 C 0.619588,-13.627902 1.347031,-13.780258 1.923133,-14.031069 C 2.231793,-14.164481 2.497178,-14.324813 2.702232,-14.497987 C 2.873523,-14.643893 3.002395,-14.792979 3.088848,-14.945245 C 3.186593,-15.118336 3.234867,-15.288299 3.233668,-15.455134 C 3.23421,-15.57411 3.210383,-15.694511 3.162189,-15.816339 C 3.047765,-16.109308 2.764799,-16.421077 2.328291,-16.676605" />
      <path d="M 2.328291,-16.676605 C 1.741417,-17.025937 0.888988,-17.257596 0.027448,-17.302883 C -0.67956,-17.343177 -1.387717,-17.261209 -1.950056,-17.084232 C -2.38636,-16.94891 -2.732947,-16.756257 -2.944326,-16.554702 C -3.037055,-16.465911 -3.106052,-16.378851 -3.151317,-16.29352 C -3.206743,-16.188778 -3.233892,-16.088444 -3.232764,-15.992517 C -3.233213,-15.92481 -3.220429,-15.85539 -3.194414,-15.784255 C -3.153998,-15.668073 -3.068247,-15.547256 -2.937159,-15.421805 C -2.72917,-15.226389 -2.394305,-15.039854 -1.974077,-14.90659 C -1.442104,-14.735678 -0.7761,-14.649767 -0.102622,-14.674455 C 0.619569,-14.698764 1.347012,-14.851118 1.923115,-15.101927 C 2.231779,-15.235338 2.497168,-15.395671 2.702224,-15.568846 C 2.873517,-15.714753 3.00239,-15.863839 3.088844,-16.016106 C 3.18659,-16.189197 3.234864,-16.35916 3.233666,-16.525995 C 3.234207,-16.64497 3.210381,-16.765372 3.162188,-16.887199 C 3.047764,-17.180169 2.764798,-17.491939 2.328289,-17.747467" />
      <path d="M 2.328289,-17.747467 C 1.741415,-18.096799 0.888988,-18.328458 0.027448,-18.373745 C -0.679559,-18.414039 -1.387713,-18.332071 -1.950051,-18.155095 C -2.386356,-18.019773 -2.732944,-17.827121 -2.944323,-17.625565 C -3.037052,-17.536775 -3.106049,-17.449714 -3.151314,-17.364383 C -3.20674,-17.259642 -3.233889,-17.159308 -3.232762,-17.063381 C -3.23321,-16.995674 -3.220426,-16.926254 -3.194411,-16.855119 C -3.153996,-16.738937 -3.068245,-16.618121 -2.937158,-16.49267 C -2.729169,-16.297255 -2.394306,-16.110719 -1.974079,-15.977455 C -1.44211,-15.806545 -0.776111,-15.720633 -0.102638,-15.745319 C 0.619551,-15.769627 1.346993,-15.921978 1.923097,-16.172784 C 2.231765,-16.306196 2.497157,-16.46653 2.702216,-16.639706 C 2.87351,-16.785612 3.002385,-16.934699 3.08884,-17.086967 C 3.186586,-17.260057 3.23486,-17.43002 3.233663,-17.596856 C 3.234205,-17.715831 3.210379,-17.836232 3.162186,-17.95806 C 3.047763,-18.25103 2.764797,-18.562801 2.328287,-18.81833" />
      <path d="M 2.328287,-18.81833 C 1.741414,-19.167661 0.888987,-19.39932 0.027448,-19.444607 C -0.679557,-19.4849 -1.387709,-19.402933 -1.950046,-19.225959 C -2.386351,-19.090637 -2.73294,-18.897984 -2.94432,-18.696428 C -3.037049,-18.607638 -3.106046,-18.520577 -3.151311,-18.435247 C -3.206737,-18.330505 -3.233886,-18.230171 -3.232759,-18.134245 C -3.233207,-18.066538 -3.220424,-17.997117 -3.194409,-17.925983 C -3.153993,-17.809801 -3.068242,-17.688985 -2.937156,-17.563535 C -2.729168,-17.36812 -2.394306,-17.181585 -1.974082,-17.048321 C -1.442117,-16.877411 -0.776123,-16.791499 -0.102653,-16.816184 C 0.619534,-16.840489 1.346975,-16.992838 1.923081,-17.243642 C 2.231752,-17.377054 2.497148,-17.537388 2.702209,-17.710566 C 2.873504,-17.856472 3.00238,-18.00556 3.088835,-18.157827 C 3.186582,-18.330918 3.234857,-18.500881 3.23366,-18.667717 C 3.234202,-18.786692 3.210377,-18.907093 3.162185,-19.02892 C 3.047762,-19.321891 2.764796,-19.633663 2.328285,-19.889192" />
      <path d="M 1.833326,-20.131518 Q 2.10301,-20.021919 2.328285,-19.889192" />
      <path d="M 3.111715,5.293249 A 4.4,2.26964331789544 -1.856299644223798e-15 0,1 -3.110804,8.503019 A 4.4,2.26964331789544 -1.856299644223798e-15 0,1 3.111715,5.293249" />
      <path d="M 2.828874,5.096471 A 4.0,2.0633121071776728 -1.856299644223798e-15 0,1 4.000456,6.555457" />
      <path d="M 4.000456,6.555457 A 4.0,2.0633121071776728 -1.856299644223798e-15 0,1 -3.999544,6.555457" />
      <path d="M -3.999544,6.555457 A 4.0,2.0633121071776728 -1.856299644223798e-15 0,1 2.828874,5.096471" />
      <path d="M 0.375637,1.960879 C 1.043907,1.86747 1.676915,1.677753 2.184802,1.414269 C 2.693943,1.151516 3.076295,0.815756 3.277598,0.450266 C 3.480705,0.085066 3.502095,-0.308758 3.338715,-0.679696 C 3.177174,-1.050863 2.831383,-1.398049 2.350488,-1.67632" />
      <path d="M 2.350488,-1.67632 L 2.828874,-1.588412" />
      <path d="M 0.375861,1.693142 C 0.972712,1.609566 1.541818,1.449546 2.018184,1.228202 C 2.4953,1.007348 2.878675,0.725575 3.124541,0.411907 C 3.371513,0.098494 3.480458,-0.246211 3.438926,-0.585992 C 3.398603,-0.925814 3.207881,-1.260058 2.888549,-1.553721" />
      <path d="M 2.298368,-1.847848 C 2.275009,-1.776591 2.287754,-1.707094 2.328319,-1.68453" />
      <path d="M 2.328319,-1.68453 L 2.328674,-1.684323" />
      <path d="M 2.328674,-1.684323 Q 2.338738,-1.678485 2.350488,-1.67632" />
      <path d="M 2.350488,-1.67632 C 1.736879,-2.040029 0.87175,-2.26948 0.000445,-2.312288 C -0.870852,-2.35873 -1.735983,-2.218501 -2.349585,-1.944029 C -2.968174,-1.672131 -3.326533,-1.270484 -3.323004,-0.86567 C -3.326529,-0.460855 -2.968166,-0.059213 -2.349572,0.212683 C -1.735965,0.487151 -0.870828,0.627384 0.000462,0.580943 C 0.871751,0.53814 1.736897,0.308666 2.350501,-0.055039 C 2.969095,-0.416172 3.327439,-0.907049 3.323905,-1.401111 C 3.32742,-1.895177 2.969097,-2.386054 2.350486,-2.747183" />
      <path d="M 2.350486,-2.747183 L 2.828874,-2.659277" />
      <path d="M -3.047144,-1.747315 C -3.274209,-1.508033 -3.364209,-1.238412 -3.305756,-0.976245 C -3.248621,-0.714008 -3.043184,-0.459982 -2.715439,-0.249987 C -2.388778,-0.039598 -1.940659,0.126139 -1.427781,0.222569 C -0.915472,0.319616 -0.339734,0.347029 0.226593,0.297657 C 0.793009,0.248968 1.348545,0.123545 1.82291,-0.066422 C 2.298002,-0.255817 2.690689,-0.509338 2.951284,-0.798593 C 3.213058,-1.087534 3.342061,-1.411536 3.32198,-1.733291 C 3.303223,-2.055069 3.135437,-2.373838 2.839841,-2.652935" />
      <path d="M 2.298367,-2.918713 C 2.275007,-2.847455 2.287752,-2.777957 2.328317,-2.755393" />
      <path d="M 2.328317,-2.755393 Q 2.338526,-2.749387 2.350486,-2.747183" />
      <path d="M -3.254367,-1.624636 C -3.150547,-1.390513 -2.92678,-1.169404 -2.606582,-0.98732 C -2.287096,-0.804947 -1.871747,-0.661969 -1.404182,-0.576193 C -0.469919,-0.400475 0.670764,-0.470468 1.577711,-0.779562 C 2.031851,-0.932044 2.42742,-1.140063 2.722846,-1.384539 C 3.019016,-1.628746 3.214519,-1.909024 3.288812,-2.198703 C 3.364002,-2.488313 3.317853,-2.786859 3.155218,-3.065738 C 2.993443,-3.344767 2.715475,-3.603668 2.350485,-3.818045" />
      <path d="M 2.350485,-3.818045 L 2.828874,-3.730142" />
      <path d="M -3.047134,-2.818186 C -3.274202,-2.578904 -3.364205,-2.309282 -3.305754,-2.047115 C -3.248622,-1.784877 -3.043186,-1.53085 -2.715442,-1.320854 C -2.388781,-1.110464 -1.940662,-0.944727 -1.427783,-0.848297 C -0.915474,-0.751249 -0.339734,-0.723835 0.226594,-0.773208 C 0.793012,-0.821897 1.348548,-0.947321 1.822914,-1.137289 C 2.298006,-1.326685 2.690693,-1.580207 2.951287,-1.869463 C 3.213059,-2.158405 3.34206,-2.482408 3.321976,-2.804163 C 3.303216,-3.125942 3.135427,-3.444711 2.839827,-3.723808" />
      <path d="M 2.298366,-3.989578 C 2.275005,-3.918319 2.287749,-3.848819 2.328315,-3.826255" />
      <path d="M 2.328315,-3.826255 Q 2.338525,-3.820249 2.350485,-3.818045" />
      <path d="M -3.254366,-2.695501 C -3.150547,-2.461379 -2.92678,-2.240269 -2.606583,-2.058186 C -2.287097,-1.875812 -1.871749,-1.732834 -1.404184,-1.647057 C -0.469922,-1.47134 0.67076,-1.541332 1.577708,-1.850426 C 2.031848,-2.002907 2.427417,-2.210926 2.722844,-2.455401 C 3.019014,-2.699609 3.214516,-2.979887 3.288809,-3.269565 C 3.364,-3.559176 3.317851,-3.857721 3.155216,-4.136601 C 2.993441,-4.415629 2.715473,-4.67453 2.350483,-4.888907" />
      <path d="M 2.350483,-4.888907 L 2.828874,-4.801006" />
      <path d="M -3.047123,-3.889057 C -3.274195,-3.649775 -3.364201,-3.380153 -3.305752,-3.117985 C -3.248622,-2.855747 -3.043188,-2.601718 -2.715444,-2.391722 C -2.388784,-2.181331 -1.940665,-2.015593 -1.427785,-1.919162 C -0.915475,-1.822114 -0.339734,-1.7947 0.226595,-1.844072 C 0.793014,-1.892762 1.348552,-2.018187 1.822917,-2.208155 C 2.29801,-2.397552 2.690696,-2.651076 2.951289,-2.940333 C 3.21306,-3.229276 3.342059,-3.55328 3.321972,-3.875036 C 3.303209,-4.196815 3.135416,-4.515585 2.839813,-4.794681" />
      <path d="M 2.298365,-5.060444 C 2.275003,-4.989184 2.287747,-4.919682 2.328313,-4.897118" />
      <path d="M 2.328313,-4.897118 Q 2.338523,-4.891111 2.350483,-4.888907" />
      <path d="M -3.254365,-3.766367 C -3.150547,-3.532244 -2.92678,-3.311135 -2.606584,-3.129051 C -2.287099,-2.946677 -1.871751,-2.803699 -1.404187,-2.717922 C -0.469925,-2.542204 0.670757,-2.612196 1.577705,-2.921289 C 2.031845,-3.07377 2.427414,-3.281789 2.722841,-3.526264 C 3.019011,-3.770471 3.214514,-4.050749 3.288807,-4.340428 C 3.363998,-4.630038 3.317849,-4.928584 3.155215,-5.207463 C 2.99344,-5.486492 2.715472,-5.745393 2.350481,-5.95977" />
      <path d="M 2.350481,-5.95977 L 2.828874,-5.871871" />
      <path d="M -3.047112,-4.959927 C -3.274187,-4.720646 -3.364197,-4.451023 -3.30575,-4.188854 C -3.248623,-3.926616 -3.04319,-3.672587 -2.715447,-3.462589 C -2.388787,-3.252197 -1.940668,-3.086458 -1.427787,-2.990027 C -0.915476,-2.892978 -0.339734,-2.865564 0.226596,-2.914937 C 0.793016,-2.963628 1.348555,-3.089053 1.822921,-3.279022 C 2.298014,-3.46842 2.6907,-3.721944 2.951292,-4.011203 C 3.213061,-4.300147 3.342058,-4.624152 3.321968,-4.945909 C 3.303203,-5.267689 3.135406,-5.586458 2.839798,-5.865554" />
      <path d="M 2.298363,-6.131309 C 2.275,-6.060048 2.287744,-5.990545 2.328311,-5.96798" />
      <path d="M 2.328311,-5.96798 Q 2.338521,-5.961974 2.350481,-5.95977" />
      <path d="M -3.254364,-4.837232 C -3.150546,-4.60311 -2.926781,-4.382 -2.606585,-4.199916 C -2.287101,-4.017542 -1.871753,-3.874564 -1.404189,-3.788787 C -0.469928,-3.613068 0.670754,-3.683059 1.577702,-3.992153 C 2.031842,-4.144633 2.427412,-4.352652 2.722838,-4.597127 C 3.019009,-4.841334 3.214511,-5.121612 3.288805,-5.411291 C 3.363996,-5.700901 3.317847,-5.999447 3.155213,-6.278326 C 2.993438,-6.557354 2.71547,-6.816255 2.35048,-7.030632" />
      <path d="M 2.35048,-7.030632 L 2.828874,-6.942736" />
      <path d="M -3.047102,-6.030798 C -3.27418,-5.791517 -3.364193,-5.521894 -3.305749,-5.259724 C -3.248623,-4.997485 -3.043192,-4.743455 -2.715449,-4.533456 C -2.38879,-4.323064 -1.940671,-4.157324 -1.427789,-4.060892 C -0.915478,-3.963843 -0.339734,-3.936429 0.226597,-3.985802 C 0.793018,-4.034493 1.348558,-4.159918 1.822925,-4.349889 C 2.298018,-4.539287 2.690704,-4.792813 2.951294,-5.082073 C 3.213063,-5.371018 3.342057,-5.695024 3.321964,-6.016781 C 3.303196,-6.338562 3.135395,-6.657332 2.839784,-6.936428" />
      <path d="M 2.298362,-7.202174 C 2.274998,-7.130912 2.287741,-7.061408 2.328309,-7.038843" />
      <path d="M 2.328309,-7.038843 Q 2.338519,-7.032836 2.35048,-7.030632" />
      <path d="M 2.35048,-7.030632 C 1.736873,-7.39434 0.871747,-7.62379 0.000445,-7.666598 C -0.87085,-7.71304 -1.735978,-7.572811 -2.349578,-7.298341 C -2.968165,-7.026443 -3.326522,-6.624798 -3.322993,-6.219985 C -3.326518,-5.815171 -2.968156,-5.413531 -2.349564,-5.141636 C -1.735959,-4.867169 -0.870825,-4.726937 0.000462,-4.773379 C 0.871749,-4.816181 1.736892,-5.045655 2.350494,-5.409359 C 2.969085,-5.770491 3.327428,-6.261367 3.323895,-6.755427 C 3.327409,-7.249492 2.969087,-7.740367 2.350478,-8.101494" />
      <path d="M 2.350478,-8.101494 L 2.828874,-8.013601" />
      <path d="M -3.047091,-7.101669 C -3.274173,-6.862388 -3.364189,-6.592764 -3.305747,-6.330594 C -3.248624,-6.068354 -3.043194,-5.814323 -2.715452,-5.604324 C -2.388794,-5.39393 -1.940674,-5.22819 -1.427791,-5.131758 C -0.915479,-5.034708 -0.339735,-5.007294 0.226598,-5.056667 C 0.793021,-5.105358 1.348562,-5.230784 1.822928,-5.420755 C 2.298022,-5.610155 2.690708,-5.863682 2.951297,-6.152943 C 3.213064,-6.441889 3.342056,-6.765896 3.321961,-7.087654 C 3.303189,-7.409435 3.135385,-7.728205 2.83977,-8.007301" />
      <path d="M 2.298361,-8.27304 C 2.274996,-8.201777 2.287739,-8.13227 2.328307,-8.109705" />
      <path d="M 2.328307,-8.109705 Q 2.338517,-8.103698 2.350478,-8.101494" />
      <path d="M 2.350478,-8.101494 C 1.736872,-8.465202 0.871746,-8.694652 0.000444,-8.73746 C -0.870849,-8.783902 -1.735977,-8.643673 -2.349576,-8.369203 C -2.968163,-8.097306 -3.32652,-7.695661 -3.322991,-7.290848 C -3.326516,-6.886035 -2.968154,-6.484394 -2.349562,-6.2125 C -1.735958,-5.938033 -0.870824,-5.797801 0.000463,-5.844243 C 0.871749,-5.887045 1.736891,-6.116519 2.350493,-6.480223 C 2.969084,-6.841355 3.327426,-7.33223 3.323892,-7.82629 C 3.327407,-8.320354 2.969085,-8.81123 2.350477,-9.172357" />
      <path d="M 2.350477,-9.172357 L 2.828874,-9.084466" />
      <path d="M -3.04708,-8.172539 C -3.274166,-7.933258 -3.364185,-7.663635 -3.305745,-7.401464 C -3.248624,-7.139223 -3.043196,-6.885192 -2.715454,-6.675191 C -2.388797,-6.464797 -1.940676,-6.299056 -1.427794,-6.202623 C -0.91548,-6.105573 -0.339735,-6.078158 0.226599,-6.127532 C 0.793023,-6.176223 1.348565,-6.30165 1.822932,-6.491622 C 2.298026,-6.681022 2.690711,-6.934551 2.951299,-7.223812 C 3.213065,-7.51276 3.342056,-7.836768 3.321957,-8.158527 C 3.303182,-8.480308 3.135375,-8.799079 2.839756,-9.078174" />
      <path d="M 2.29836,-9.343905 C 2.274993,-9.272641 2.287736,-9.203133 2.328305,-9.180568" />
      <path d="M 2.328305,-9.180568 Q 2.338515,-9.174561 2.350477,-9.172357" />
      <path d="M -3.254361,-8.049829 C -3.150545,-7.815706 -2.926782,-7.594596 -2.606588,-7.412512 C -2.287105,-7.230138 -1.871759,-7.087159 -1.404196,-7.001381 C -0.469937,-6.825661 0.670744,-6.895651 1.577693,-7.204743 C 2.031833,-7.357223 2.427403,-7.565241 2.72283,-7.809716 C 3.019001,-8.053922 3.214504,-8.3342 3.288798,-8.623878 C 3.36399,-8.913488 3.317841,-9.212034 3.155207,-9.490913 C 2.993433,-9.769942 2.715465,-10.028842 2.350475,-10.243219" />
      <path d="M 2.350475,-10.243219 L 2.828874,-10.155331" />
      <path d="M -3.047069,-9.24341 C -3.274159,-9.004129 -3.364181,-8.734505 -3.305743,-8.472334 C -3.248625,-8.210093 -3.043198,-7.95606 -2.715457,-7.746059 C -2.3888,-7.535664 -1.940679,-7.369921 -1.427796,-7.273488 C -0.915482,-7.176438 -0.339735,-7.149023 0.2266,-7.198397 C 0.793025,-7.247088 1.348568,-7.372516 1.822936,-7.562489 C 2.29803,-7.75189 2.690715,-8.005419 2.951302,-8.294682 C 3.213067,-8.583631 3.342055,-8.90764 3.321953,-9.229399 C 3.303176,-9.551182 3.135364,-9.869952 2.839742,-10.149047" />
      <path d="M 2.298359,-10.41477 C 2.274991,-10.343505 2.287734,-10.273996 2.328303,-10.25143" />
      <path d="M 2.328303,-10.25143 Q 2.338514,-10.245423 2.350475,-10.243219" />
      <path d="M -3.254359,-9.120694 C -3.150545,-8.886572 -2.926782,-8.665462 -2.606589,-8.483377 C -2.287107,-8.301003 -1.871761,-8.158024 -1.404199,-8.072246 C -0.469941,-7.896525 0.670741,-7.966514 1.577689,-8.275606 C 2.03183,-8.428086 2.4274,-8.636104 2.722827,-8.880579 C 3.018998,-9.124785 3.214502,-9.405063 3.288796,-9.694741 C 3.363988,-9.984351 3.317839,-10.282897 3.155205,-10.561776 C 2.993431,-10.840804 2.715463,-11.099705 2.350473,-11.314082" />
      <path d="M 2.350473,-11.314082 L 2.828874,-11.226195" />
      <path d="M -3.047059,-10.314281 C -3.274151,-10.075 -3.364177,-9.805376 -3.305741,-9.543204 C -3.248626,-9.280962 -3.0432,-9.026928 -2.71546,-8.816926 C -2.388803,-8.60653 -1.940682,-8.440787 -1.427798,-8.344354 C -0.915483,-8.247302 -0.339735,-8.219888 0.226601,-8.269262 C 0.793027,-8.317953 1.348572,-8.443381 1.822939,-8.633355 C 2.298034,-8.822758 2.690719,-9.076288 2.951304,-9.365552 C 3.213068,-9.654502 3.342054,-9.978512 3.321949,-10.300272 C 3.303169,-10.622055 3.135354,-10.940826 2.839727,-11.21992" />
      <path d="M 2.298358,-11.485635 C 2.274989,-11.41437 2.287731,-11.344859 2.328301,-11.322293" />
      <path d="M 2.328301,-11.322293 Q 2.338512,-11.316285 2.350473,-11.314082" />
      <path d="M 2.350473,-11.314082 C 1.736868,-11.677788 0.871744,-11.907238 0.000444,-11.950046 C -0.870848,-11.996488 -1.735974,-11.85626 -2.349572,-11.58179 C -2.968157,-11.309893 -3.326514,-10.908249 -3.322984,-10.503437 C -3.326509,-10.098625 -2.968148,-9.696985 -2.349558,-9.425092 C -1.735954,-9.150625 -0.870822,-9.010394 0.000463,-9.056835 C 0.871747,-9.099638 1.736888,-9.329112 2.350489,-9.692815 C 2.969078,-10.053946 3.32742,-10.54482 3.323886,-11.038879 C 3.3274,-11.532943 2.969079,-12.023817 2.350472,-12.384944" />
      <path d="M 2.350472,-12.384944 L 2.828874,-12.29706" />
      <path d="M -3.047048,-11.385151 C -3.274144,-11.145871 -3.364173,-10.876246 -3.30574,-10.614073 C -3.248626,-10.351831 -3.043202,-10.097796 -2.715462,-9.887794 C -2.388806,-9.677397 -1.940685,-9.511653 -1.4278,-9.415219 C -0.915484,-9.318167 -0.339735,-9.290752 0.226602,-9.340127 C 0.79303,-9.388818 1.348575,-9.514247 1.822943,-9.704222 C 2.298038,-9.893625 2.690722,-10.147157 2.951307,-10.436422 C 3.213069,-10.725373 3.342053,-11.049384 3.321945,-11.371144 C 3.303162,-11.692928 3.135343,-12.011699 2.839713,-12.290793" />
      <path d="M 2.298357,-12.556501 C 2.274987,-12.485234 2.287728,-12.415721 2.328299,-12.393155" />
      <path d="M 2.328299,-12.393155 Q 2.33851,-12.387148 2.350472,-12.384944" />
      <path d="M 2.350472,-12.384944 C 1.736867,-12.748651 0.871743,-12.9781 0.000444,-13.020908 C -0.870847,-13.06735 -1.735973,-12.927122 -2.349571,-12.652652 C -2.968155,-12.380756 -3.326512,-11.979112 -3.322982,-11.5743 C -3.326507,-11.169488 -2.968146,-10.767849 -2.349556,-10.495955 C -1.735953,-10.221489 -0.870821,-10.081258 0.000463,-10.1277 C 0.871747,-10.170502 1.736887,-10.399976 2.350487,-10.763679 C 2.969076,-11.12481 3.327418,-11.615684 3.323884,-12.109742 C 3.327398,-12.603806 2.969077,-13.09468 2.35047,-13.455806" />
      <path d="M 2.35047,-13.455806 L 2.828874,-13.367925" />
      <path d="M -3.047037,-12.456022 C -3.274137,-12.216742 -3.364168,-11.947117 -3.305738,-11.684943 C -3.248627,-11.4227 -3.043204,-11.168665 -2.715465,-10.958661 C -2.388809,-10.748263 -1.940688,-10.582519 -1.427802,-10.486084 C -0.915486,-10.389032 -0.339735,-10.361617 0.226604,-10.410992 C 0.793032,-10.459684 1.348578,-10.585113 1.822946,-10.775089 C 2.298042,-10.964493 2.690726,-11.218025 2.951309,-11.507292 C 3.21307,-11.796243 3.342052,-12.120256 3.321942,-12.442017 C 3.303156,-12.763801 3.135333,-13.082573 2.839699,-13.361666" />
      <path d="M 2.298356,-13.627366 C 2.274984,-13.556099 2.287726,-13.486584 2.328297,-13.464017" />
      <path d="M 2.328297,-13.464017 Q 2.338508,-13.45801 2.35047,-13.455806" />
      <path d="M 2.35047,-13.455806 C 1.736866,-13.819513 0.871743,-14.048962 0.000444,-14.09177 C -0.870847,-14.138212 -1.735972,-13.997984 -2.349569,-13.723515 C -2.968154,-13.451618 -3.32651,-13.049975 -3.32298,-12.645163 C -3.326505,-12.240351 -2.968144,-11.838713 -2.349555,-11.566819 C -1.735952,-11.292353 -0.870821,-11.152122 0.000463,-11.198564 C 0.871746,-11.241366 1.736886,-11.47084 2.350486,-11.834543 C 2.969074,-12.195673 3.327416,-12.686547 3.323882,-13.180606 C 3.327396,-13.674669 2.969075,-14.165543 2.350469,-14.526669" />
      <path d="M 2.350469,-14.526669 L 2.828874,-14.43879" />
      <path d="M -3.047027,-13.526892 C -3.27413,-13.287613 -3.364164,-13.017987 -3.305736,-12.755813 C -3.248627,-12.49357 -3.043206,-12.239533 -2.715467,-12.029528 C -2.388812,-11.81913 -1.940691,-11.653384 -1.427804,-11.556949 C -0.915487,-11.459897 -0.339735,-11.432482 0.226605,-11.481856 C 0.793034,-11.530549 1.348581,-11.655979 1.82295,-11.845956 C 2.298046,-12.03536 2.69073,-12.288894 2.951312,-12.578162 C 3.213072,-12.867114 3.342051,-13.191128 3.321938,-13.51289 C 3.303149,-13.834675 3.135323,-14.153446 2.839685,-14.432539" />
      <path d="M 2.298355,-14.698231 C 2.274982,-14.626963 2.287723,-14.557447 2.328295,-14.53488" />
      <path d="M 2.328295,-14.53488 Q 2.338506,-14.528872 2.350469,-14.526669" />
      <path d="M 2.350469,-14.526669 C 1.736864,-14.890375 0.871742,-15.119824 0.000444,-15.162632 C -0.870847,-15.209074 -1.735971,-15.068846 -2.349568,-14.794377 C -2.968152,-14.522481 -3.326508,-14.120838 -3.322978,-13.716026 C -3.326503,-13.311215 -2.968142,-12.909576 -2.349553,-12.637683 C -1.735951,-12.363217 -0.87082,-12.222987 0.000463,-12.269428 C 0.871746,-12.312231 1.736885,-12.541704 2.350484,-12.905407 C 2.969073,-13.266537 3.327414,-13.757411 3.32388,-14.251469 C 3.327394,-14.745532 2.969073,-15.236405 2.350467,-15.597531" />
      <path d="M 2.350467,-15.597531 L 2.828874,-15.509655" />
      <path d="M -3.047016,-14.597763 C -3.274123,-14.358484 -3.36416,-14.088858 -3.305734,-13.826683 C -3.248628,-13.564439 -3.043208,-13.310401 -2.71547,-13.100396 C -2.388816,-12.889996 -1.940694,-12.72425 -1.427806,-12.627815 C -0.915488,-12.530762 -0.339735,-12.503346 0.226606,-12.552721 C 0.793037,-12.601414 1.348585,-12.726845 1.822954,-12.916822 C 2.29805,-13.106228 2.690734,-13.359763 2.951314,-13.649031 C 3.213073,-13.937985 3.34205,-14.262 3.321934,-14.583762 C 3.303142,-14.905548 3.135312,-15.22432 2.83967,-15.503412" />
      <path d="M 2.298354,-15.769097 C 2.27498,-15.697827 2.287721,-15.62831 2.328293,-15.605742" />
      <path d="M 2.328293,-15.605742 Q 2.338505,-15.599735 2.350467,-15.597531" />
      <path d="M 2.350467,-15.597531 C 1.736863,-15.961237 0.871741,-16.190686 0.000444,-16.233494 C -0.870846,-16.279936 -1.73597,-16.139708 -2.349566,-15.865239 C -2.96815,-15.593343 -3.326505,-15.1917 -3.322976,-14.786889 C -3.326501,-14.382078 -2.96814,-13.98044 -2.349551,-13.708547 C -1.73595,-13.434081 -0.870819,-13.293851 0.000463,-13.340292 C 0.871746,-13.383095 1.736884,-13.612568 2.350483,-13.976271 C 2.969071,-14.337401 3.327412,-14.828274 3.323878,-15.322332 C 3.327392,-15.816395 2.969071,-16.307268 2.350465,-16.668394" />
      <path d="M 2.350465,-16.668394 L 2.828874,-16.58052" />
      <path d="M -3.047005,-15.668634 C -3.274115,-15.429354 -3.364156,-15.159728 -3.305733,-14.897553 C -3.248628,-14.635308 -3.04321,-14.38127 -2.715472,-14.171263 C -2.388819,-13.960863 -1.940697,-13.795116 -1.427808,-13.69868 C -0.91549,-13.601626 -0.339735,-13.574211 0.226607,-13.623586 C 0.793039,-13.672279 1.348588,-13.79771 1.822957,-13.987689 C 2.298054,-14.177096 2.690737,-14.430632 2.951317,-14.719901 C 3.213074,-15.008856 3.342049,-15.332872 3.32193,-15.654635 C 3.303135,-15.976421 3.135302,-16.295193 2.839656,-16.574285" />
      <path d="M 2.298353,-16.839962 C 2.274978,-16.768692 2.287718,-16.699172 2.328291,-16.676605" />
      <path d="M 2.328291,-16.676605 Q 2.338503,-16.670597 2.350465,-16.668394" />
      <path d="M 2.350465,-16.668394 C 1.736862,-17.032099 0.871741,-17.261548 0.000443,-17.304356 C -0.870846,-17.350798 -1.735969,-17.21057 -2.349565,-16.936102 C -2.968148,-16.664206 -3.326503,-16.262563 -3.322974,-15.857752 C -3.326498,-15.452941 -2.968138,-15.051303 -2.34955,-14.779411 C -1.735948,-14.504946 -0.870819,-14.364715 0.000464,-14.411156 C 0.871745,-14.453959 1.736883,-14.683432 2.350482,-15.047135 C 2.969069,-15.408265 3.32741,-15.899138 3.323875,-16.393195 C 3.32739,-16.887258 2.969069,-17.37813 2.350464,-17.739256" />
      <path d="M 2.350464,-17.739256 L 2.828874,-17.651384" />
      <path d="M -3.046994,-16.739504 C -3.274108,-16.500225 -3.364152,-16.230599 -3.305731,-15.968423 C -3.248629,-15.706177 -3.043212,-15.452138 -2.715475,-15.242131 C -2.388822,-15.031729 -1.940699,-14.865982 -1.42781,-14.769545 C -0.915491,-14.672491 -0.339735,-14.645076 0.226608,-14.694451 C 0.793041,-14.743144 1.348591,-14.868576 1.822961,-15.058556 C 2.298058,-15.247963 2.690741,-15.5015 2.951319,-15.790771 C 3.213075,-16.079727 3.342048,-16.403744 3.321926,-16.725508 C 3.303129,-17.047295 3.135291,-17.366067 2.839642,-17.645159" />
      <path d="M 2.298351,-17.910827 C 2.274975,-17.839556 2.287716,-17.770035 2.328289,-17.747467" />
      <path d="M 2.328289,-17.747467 Q 2.338501,-17.74146 2.350464,-17.739256" />
      <path d="M 2.350464,-17.739256 C 1.736861,-18.102961 0.87174,-18.33241 0.000443,-18.375218 C -0.870845,-18.42166 -1.735968,-18.281432 -2.349564,-18.006964 C -2.968146,-17.735068 -3.326501,-17.333426 -3.322972,-16.928615 C -3.326496,-16.523805 -2.968136,-16.122167 -2.349548,-15.850275 C -1.735947,-15.57581 -0.870818,-15.435579 0.000464,-15.482021 C 0.871745,-15.524823 1.736882,-15.754296 2.35048,-16.117999 C 2.969067,-16.479128 3.327407,-16.970001 3.323873,-17.464058 C 3.327387,-17.958121 2.969067,-18.448993 2.350462,-18.810118" />
      <path d="M 2.350462,-18.810118 L 2.828874,-18.722249" />
      <path d="M -3.046984,-17.810375 C -3.274101,-17.571096 -3.364148,-17.301469 -3.305729,-17.039293 C -3.248629,-16.777046 -3.043214,-16.523006 -2.715478,-16.312998 C -2.388825,-16.102596 -1.940702,-15.936847 -1.427812,-15.840411 C -0.915492,-15.743356 -0.339735,-15.71594 0.226609,-15.765316 C 0.793043,-15.814009 1.348595,-15.939442 1.822965,-16.129422 C 2.298062,-16.318831 2.690745,-16.572369 2.951322,-16.861641 C 3.213077,-17.150598 3.342048,-17.474616 3.321922,-17.79638 C 3.303122,-18.118168 3.135281,-18.43694 2.839628,-18.716032" />
      <path d="M 2.29835,-18.981692 C 2.274973,-18.91042 2.287713,-18.840898 2.328287,-18.81833" />
      <path d="M 2.328287,-18.81833 Q 2.338499,-18.812322 2.350462,-18.810118" />
      <path d="M 2.350462,-18.810118 C 1.73686,-19.173824 0.871739,-19.403272 0.000443,-19.44608 C -0.870845,-19.492522 -1.735967,-19.352294 -2.349562,-19.077826 C -2.968144,-18.805931 -3.326499,-18.404289 -3.32297,-17.999478 C -3.326494,-17.594668 -2.968134,-17.193031 -2.349547,-16.921138 C -1.735946,-16.646674 -0.870817,-16.506443 0.000464,-16.552885 C 0.871744,-16.595688 1.736881,-16.82516 2.350479,-17.188862 C 2.969065,-17.549992 3.327405,-18.040865 3.323871,-18.534921 C 3.327385,-19.028983 2.969065,-19.519856 2.350461,-19.880981" />
      <path d="M 2.350461,-19.880981 L 2.405383,-19.870894" />
      <path d="M -3.046973,-18.881246 C -3.37374,-18.539002 -3.411799,-18.13442 -3.151652,-17.77886 C -2.89662,-17.422419 -2.346153,-17.11927 -1.637641,-16.955467 C -0.931788,-16.789244 -0.075485,-16.76459 0.717561,-16.898052 C 1.51177,-17.028796 2.234195,-17.316681 2.704524,-17.700242" />
      <path d="M 2.296505,-19.927504 Q 2.307454,-19.901586 2.328285,-19.889192" />
      <path d="M 2.328285,-19.889192 Q 2.338497,-19.883184 2.350461,-19.880981" />
      <path d="M 2.350461,-19.880981 Q 2.156102,-19.995268 1.932526,-20.091754" />
    </g>
  </g>
</svg>