<?xml version='1.0' encoding='utf-8'?>
<svg width="211.2262919684mm" height="513.0000000005mm" viewBox="-7.2838445661 -14.894628005 14.5686001739 35.3823940172" version="1.1" xmlns="http://www.w3.org/2000/svg">
  <g transform="scale(1,-1)" stroke-linecap="round">
    <g fill="none" stroke="rgb(64,192,64)" stroke-width="0.06897152829857121" id="Visible">
      <path d="M 4.5966347941,9.0677491165 A 6.5,3.3528821741637183 0.0 0,1 6.2789679729,10.5708022805" />
      <path d="M 1.6827590907,8.1999641952 A 6.5,3.3528821741637183 0.0 0,1 4.5966347941,9.0677491165" />
      <path d="M -4.5957533613,9.0677643896 A 6.5,3.3528821741637183 0.0 0,1 1.6827590907,8.1999641952" />
      <path d="M -6.2780569312,12.3064026692 A 6.5,3.3528821741637183 0.0 0,1 -4.5957533613,9.0677643896" />
      <path d="M -1.6818480491,14.6772407546 A 6.5,3.3528821741637183 0.0 0,1 -6.2780569312,12.3064026692" />
      <path d="M 4.5966644029,13.8094405602 A 6.5,3.3528821741637183 0.0 0,1 -1.6818480491,14.6772407546" />
      <path d="M 6.2789679729,10.5708022805 A 6.5,3.3528821741637183 0.0 0,1 4.5966644029,13.8094405602" />
      <path d="M 6.2789679729,10.5708022805 C 5.9708687179,9.9766431929 5.6629560258,9.2784539983 5.3076662021,8.3683844576" />
      <path d="M 4.5966644029,13.8094405602 C 5.4383943914,13.3742038825 6.2796146887,12.8348408657 7.2502697436,12.1080353676" />
      <path d="M 7.2502697436,12.1080353676 C 6.8949799199,11.6501882088 6.5870672278,11.1628694449 6.2789679729,10.5708022805" />
      <path d="M -1.6818480491,14.6772407546 C -0.5320188057,14.8351172028 0.6171141837,14.8885081653 1.9430590623,14.845661017" />
      <path d="M 1.9430590623,14.845661017 C 2.9137141172,14.5710779008 3.7549344144,14.2425853147 4.5966644029,13.8094405602" />
      <path d="M -6.2780569312,12.3064026692 C -5.9699576763,12.8984698336 -5.6620449842,13.3857885975 -5.3067551605,13.8436357564" />
      <path d="M -5.3067551605,13.8436357564 C -3.980810282,14.2530109899 -2.8316772926,14.5172723831 -1.6818480491,14.6772407546" />
      <path d="M -7.249358702,10.1039848464 C -6.8940688783,11.014054387 -6.5861561862,11.7122435816 -6.2780569312,12.3064026692" />
      <path d="M -4.5957533613,9.0677643896 C -5.4374833498,9.5009091441 -6.2787036471,9.8294017301 -7.249358702,10.1039848464" />
      <path d="M -1.9421480206,7.366359197 C -2.9128030755,8.0931646951 -3.7540233728,8.6325277118 -4.5957533613,9.0677643896" />
      <path d="M 1.6827590907,8.1999641952 C 0.5329298473,8.0399958237 -0.6162031421,7.7757344305 -1.9421480206,7.366359197" />
      <path d="M 5.3076662021,8.3683844576 C 3.9817213236,8.411231606 2.8325883342,8.3578406434 1.6827590907,8.1999641952" />
      <line x1="7.2502697436" y1="8.1571669654" x2="5.3076662021" y2="4.4175160554" />
      <line x1="5.3076662021" y1="8.3683844576" x2="5.3076662021" y2="4.4175160554" />
      <line x1="7.2502697436" y1="8.1571669654" x2="7.2502697436" y2="12.1080353676" />
      <line x1="-7.249358702" y1="6.1531164441" x2="-7.249358702" y2="10.1039848464" />
      <line x1="-1.9421480206" y1="3.4154907947" x2="-7.249358702" y2="6.1531164441" />
      <line x1="-1.9421480206" y1="3.4154907947" x2="-1.9421480206" y2="7.366359197" />
      <line x1="5.3076662021" y1="4.4175160554" x2="-1.9421480206" y2="3.4154907947" />
      <path d="M 2.8288735351,-1.5884119237 C 3.5739001427,-1.1668510374 4.0050311736,-0.6084666479 4.0004554955,-0.0633681549" />
      <path d="M 3.9317822516,-0.4504046363 Q 4.0003270526,-0.6686599446 4.0004555172,-0.8883520484" />
      <path d="M 4.0004555172,-0.8883520484 C 4.0050611834,-1.5032352588 3.5765104798,-2.1026066501 2.8288735352,-2.5253711656" />
      <path d="M 2.8288735351,-1.5884119237 C 2.0491513195,-2.0415774455 0.930526368,-2.3129254568 -0.1761874814,-2.3321091455 C -0.8699466506,-2.3463086704 -1.5545498816,-2.2649063394 -2.140638709,-2.1023850297 C -2.5164334895,-1.9980274868 -2.8436505301,-1.8656864804 -3.1222898309,-1.7053620107 C -3.6870198561,-1.3817451382 -4.0019007037,-0.9572738523 -3.9995444792,-0.5310008771" />
      <path d="M 4.0004555132,-1.0664303533 C 4.0047039985,-1.6519983301 3.5733561662,-2.2337458228 2.8288735351,-2.6592767566" />
      <path d="M 2.8288735351,-2.6592767566 C 2.0491512582,-3.1124423147 0.9305261904,-3.3837903314 -0.1761877435,-3.4029739835 C -0.8699469437,-3.4171734857 -1.5545501925,-3.335771123 -2.140639014,-3.1732497782 C -2.5164338831,-3.0688921868 -2.8436509769,-2.9365511194 -3.1222902953,-2.7762265759 C -3.6870200331,-2.4526097396 -4.0019007015,-2.0281385637 -3.9995444792,-1.6018657113" />
      <path d="M 4.0004555138,-2.1372951687 C 4.0047038405,-2.7228625587 3.573357665,-3.3046095606 2.8288735351,-3.7301415894" />
      <path d="M 2.8288735352,-2.5253711656 C 2.1315303166,-2.9296741585 1.1652104009,-3.1912425083 0.1763763079,-3.2540619475 C -0.504909781,-3.2989921513 -1.1931824056,-3.2517444398 -1.8016708664,-3.1219405319 C -2.2878025597,-3.0187741388 -2.7227926799,-2.8636611898 -3.0712313433,-2.6711151509 C -3.6675216912,-2.3439935345 -4.0021897125,-1.9070073737 -3.9995444578,-1.4679577546" />
      <path d="M -3.9995444578,-1.4679577546 Q -3.9992862982,-1.2296829727 -3.8748603449,-0.9994794869" />
      <path d="M 3.9115962849,-1.5349129888 Q 4.0003256168,-1.7667308928 4.000455516,-2.0033939457" />
      <path d="M 4.000455516,-2.0033939457 C 4.0047040288,-2.5889595326 3.5733502987,-3.1706944568 2.8288735352,-3.5962386539" />
      <path d="M 2.8288735351,-3.7301415894 C 2.0491512101,-4.1833071762 0.9305260506,-4.4546551971 -0.1761879497,-4.4738388205 C -0.869947166,-4.4880383045 -1.5545504208,-4.406635919 -2.1406392329,-4.2441145505 C -2.516434117,-4.139756938 -2.8436512138,-4.007415847 -3.1222905232,-3.8470912774 C -3.6870198048,-3.5234746365 -4.0019003603,-3.0990038061 -3.9995444792,-2.6727312487" />
      <path d="M 4.0004555131,-3.2081600747 C 4.0047039999,-3.7937280462 3.5733560387,-4.3754755783 2.8288735351,-4.8010064222" />
      <path d="M 2.8288735352,-3.5962386539 C 2.1315326923,-4.000540244 1.1652170466,-4.2621082354 0.1763864604,-4.3249287723 C -0.5048889535,-4.3698591517 -1.1931511748,-4.3226145615 -1.8016334157,-4.1928159816 C -2.2876050956,-4.0896865447 -2.722471217,-3.9346454632 -3.070855088,-3.7421902568 C -3.6673774082,-3.4150450706 -4.0021918121,-2.9779679012 -3.9995444594,-2.5388254403" />
      <path d="M -3.9995444594,-2.5388254403 Q -3.9992864605,-2.3005503605 -3.8748596257,-2.0703456468" />
      <path d="M 3.9115957763,-2.60577915 Q 4.0003260682,-2.837600061 4.000455515,-3.0742614478" />
      <path d="M 4.000455515,-3.0742614478 C 4.0047040087,-3.6598268751 3.5733509628,-4.2415613017 2.8288735352,-4.6671061422" />
      <path d="M 2.8288735351,-4.8010064222 C 2.0491511695,-5.2541720332 0.930525933,-5.5255200576 -0.1761881233,-5.5447036568 C -0.8699473468,-5.5589031255 -1.5545506005,-5.4775007224 -2.1406394014,-5.3149793368 C -2.516434314,-5.2106217033 -2.8436514254,-5.078280587 -3.1222907355,-4.917955988 C -3.6870198857,-4.5943393635 -4.0019003594,-4.1698685835 -3.9995444792,-3.743596082" />
      <path d="M 4.000455514,-4.2790249046 C 4.0047036283,-4.8645925147 3.5733577113,-5.4463391858 2.8288735351,-5.8718712551" />
      <path d="M 2.8288735352,-4.6671061422 C 2.1315351089,-5.0714063053 1.1652238069,-5.3329739322 0.1763967881,-5.3957955856 C -0.5048677797,-5.4407261446 -1.1931194314,-5.3934847266 -1.8015953535,-5.2636915611 C -2.2874032866,-5.1605999184 -2.7221424898,-5.0056323424 -3.0704702158,-4.8132700503 C -3.667229362,-4.4861002591 -4.0021936107,-4.0489326089 -3.9995444587,-3.6096927865" />
      <path d="M -3.9995444587,-3.6096927865 Q -3.9992860914,-3.3714159614 -3.8748589076,-3.1412118046" />
      <path d="M 3.9115952673,-3.6766453099 Q 4.000325556,-3.9084641617 4.0004555157,-4.1451289267" />
      <path d="M 4.0004555157,-4.1451289267 C 4.0047046828,-4.7306947705 3.5733478667,-5.3124312795 2.8288735352,-5.7379736306" />
      <path d="M 2.8288735351,-5.8718712551 C 2.0491510577,-6.3250369325 0.9305256088,-6.5963849667 -0.1761886018,-6.6155684991 C -0.8699478866,-6.6297679264 -1.5545511773,-6.5483654642 -2.1406399701,-6.3858440124 C -2.5164350743,-6.2814862812 -2.8436523038,-6.14914504 -3.1222916587,-5.9888202889 C -3.6870205524,-5.6652035589 -4.0019006951,-5.240732706 -3.9995444792,-4.8144602137" />
      <path d="M 4.0004555143,-5.3498896783 C 4.0047034684,-5.9354572575 3.5733583676,-6.5172035349 2.8288735351,-6.9427360879" />
      <path d="M 2.8288735352,-5.7379736306 C 2.1315370161,-6.1422726675 1.1652291418,-6.4038400067 0.1764049383,-6.4666625412 C -0.5048512961,-6.5115932573 -1.1930948365,-6.4643542953 -1.8015659211,-6.3345653059 C -2.2872474165,-6.2315028484 -2.7218886106,-6.0765920237 -3.0701729534,-5.8843014695 C -3.667115986,-5.557113511 -4.0021958562,-5.1198712638 -3.9995444612,-4.6805603078" />
      <path d="M -3.9995444612,-4.6805603078 Q -3.9992864874,-4.4422841124 -3.8748581868,-4.2120779675" />
      <path d="M 3.911594759,-4.7475114697 Q 4.0003257221,-4.9793318402 4.0004555142,-5.2159964236" />
      <path d="M 4.0004555142,-5.2159964236 C 4.0047051232,-5.8015622543 3.5733468721,-6.3832993967 2.8288735352,-6.8088411189" />
      <path d="M 2.8288735351,-6.9427360879 C 2.0491510366,-7.3959017779 0.9305255476,-7.6672498139 -0.1761886921,-7.6864333338 C -0.8699479772,-7.700632753 -1.554551264,-7.6192302825 -2.1406400489,-7.4567088235 C -2.5164351385,-7.3523510903 -2.8436523546,-7.2200098489 -3.1222916973,-7.0596850994 C -3.6870205672,-6.7360683724 -4.001900695,-6.3115975289 -3.9995444792,-5.8853250465" />
      <path d="M 4.0004555141,-6.4207545139 C 4.0047035799,-7.0063221117 3.5733580093,-7.5880686336 2.8288735351,-8.0136009208" />
      <path d="M 2.8288735352,-6.8088411189 C 2.1315402921,-7.2131382215 1.1652383059,-7.4747050664 0.1764189383,-7.5375291146 C -0.5048221284,-7.5824600425 -1.193050868,-7.5352254779 -1.8015130794,-7.4054440264 C -2.2869634586,-7.3024348328 -2.7214254368,-7.1476276329 -3.0696303133,-6.9554681023 C -3.6669078748,-6.6282461333 -4.0021989654,-6.1908730855 -3.9995444594,-5.7514277633" />
      <path d="M -3.9995444594,-5.7514277633 Q -3.9992864157,-5.5131506662 -3.874857467,-5.2829441286" />
      <path d="M 3.9115942501,-5.8183776307 Q 4.0003257567,-6.0501988726 4.0004555153,-6.2868639091" />
      <path d="M 4.0004555153,-6.2868639091 C 4.0047042793,-6.872429515 3.5733497023,-7.4541647777 2.8288735352,-7.8797086073" />
      <path d="M 2.8288735351,-8.0136009208 C 2.0491509438,-8.466766666 0.9305252784,-8.7381147101 -0.1761890894,-8.7572981745 C -0.8699484217,-8.7714975593 -1.5545517359,-8.6900950406 -2.140640512,-8.5275735283 C -2.5164357521,-8.423215717 -2.8436530605,-8.2908743763 -3.1222924371,-8.130549506 C -3.687020849,-7.8069328367 -4.0019006916,-7.3824621682 -3.9995444792,-6.9561898814" />
      <path d="M 4.0004555138,-7.4916193493 C 4.0047040554,-8.077187165 3.5733562309,-8.658934797 2.8288735351,-9.0844657536" />
      <path d="M 2.8288735352,-7.8797086073 C 2.1315414163,-8.284005046 1.1652414505,-8.5455717214 0.1764237424,-8.608396289 C -0.5048129012,-8.6533273425 -1.1930373569,-8.6060941231 -1.8014970399,-8.4763149241 C -2.2868792801,-8.3733214722 -2.7212884349,-8.2185448603 -3.0694699057,-8.0264239936 C -3.6668462471,-7.6991919541 -4.0021998571,-7.2617805127 -3.999544457,-6.8222952593" />
      <path d="M -3.999544457,-6.8222952593 Q -3.9992861736,-6.5840163548 -3.8748567468,-6.3538102905" />
      <path d="M 3.9115937409,-6.8892437922 Q 4.0003256121,-7.1210648643 4.0004555164,-7.3577313922" />
      <path d="M 4.0004555164,-7.3577313922 C 4.0047052446,-7.9432973558 3.573345909,-8.5250352551 2.8288735352,-8.9505760958" />
      <path d="M 2.8288735351,-9.0844657536 C 2.0491508729,-9.537631541 0.9305250725,-9.8089795913 -0.1761893932,-9.8281630134 C -0.8699487602,-9.8423623718 -1.5545520938,-9.7609598167 -2.1406408626,-9.5984382643 C -2.5164362068,-9.4940803966 -2.843653578,-9.3617389847 -3.122292976,-9.2014140283 C -3.6870210543,-8.8777974012 -4.001900689,-8.4533268601 -3.9995444792,-8.027054716" />
      <path d="M 4.0004555138,-8.5624841711 C 4.0047037475,-9.1480515837 3.5733578887,-9.7297983862 2.8288735351,-10.1553305865" />
      <path d="M 2.8288735352,-8.9505760958 C 2.1315446337,-9.3548706346 1.1652504507,-9.6164368246 0.176437492,-9.6792628787 C -0.5047842984,-9.7241941431 -1.1929942618,-9.6769652332 -1.8014452583,-9.5471934188 C -2.286598652,-9.4442526568 -2.7208302889,-9.2895785647 -3.0689328956,-9.0975873504 C -3.6666404379,-8.7703217852 -4.0022030225,-8.3327804771 -3.9995444577,-7.8931626635" />
      <path d="M -3.9995444577,-7.8931626635 Q -3.9992862324,-7.6548834911 -3.8748560275,-7.4246764506" />
      <path d="M 3.9115932322,-7.9601099519 Q 4.0003259935,-8.1919337429 4.0004555151,-8.4285988939" />
      <path d="M 4.0004555151,-8.4285988939 C 4.004703978,-9.0141643064 3.5733510668,-9.5958986655 2.8288735352,-10.0214435842" />
      <path d="M 2.8288735351,-10.1553305865 C 2.0491508102,-10.6084964112 0.9305248908,-10.8798444669 -0.1761896613,-10.8990278516 C -0.8699490573,-10.9132271867 -1.5545524065,-10.8318245998 -2.1406411677,-10.6693030128 C -2.5164365819,-10.5649451019 -2.8436539926,-10.4326036366 -3.1222934,-10.2722786169 C -3.6870212158,-9.9486620228 -4.001900687,-9.5241915823 -3.9995444792,-9.09791955" />
      <path d="M 4.0004555142,-9.6333490084 C 4.0047034138,-10.2189165089 3.573358687,-10.8006626207 2.8288735351,-11.2261954193" />
      <path d="M 2.8288735352,-10.0214435842 C 2.1315470896,-10.4257366729 1.1652573208,-10.6873024923 0.1764479875,-10.7501296811 C -0.5047627406,-10.7950611252 -1.192961922,-10.747835447 -1.8014064698,-10.6180691515 C -2.286388166,-10.5151679137 -2.720486594,-10.3605707148 -3.0685299607,-10.168676751 C -3.6664857552,-9.8413860549 -4.0022052843,-9.4037478478 -3.9995444567,-8.9640302331" />
      <path d="M -3.9995444567,-8.9640302331 Q -3.9992861557,-8.725749899 -3.8748553075,-8.495542612" />
      <path d="M 3.9115927235,-9.0309761132 Q 4.0003259697,-9.2628004317 4.0004555153,-9.4994663772" />
      <path d="M 4.0004555153,-9.4994663772 C 4.0047038938,-10.0850317802 3.5733513101,-10.6667659846 2.8288735352,-11.0923110727" />
      <path d="M 2.8288735351,-11.2261954193 C 2.0491508413,-11.6793612254 0.9305249811,-11.9507092785 -0.1761895281,-11.9698926818 C -0.8699488837,-11.9840920279 -1.5545522,-11.9026894635 -2.1406409503,-11.7401679057 C -2.5164361976,-11.6358100586 -2.8436534956,-11.50346868 -3.1222928442,-11.34314377 C -3.687021004,-11.0195271324 -4.0019006896,-10.5950565608 -3.9995444792,-10.1687843811" />
      <path d="M 4.0004555142,-10.7042138437 C 4.0047036455,-11.2897814951 3.5733577106,-11.8715281946 2.8288735351,-12.2970602522" />
      <path d="M 2.8288735352,-11.0923110727 C 2.1315491759,-11.4966029294 1.1652631569,-11.7581684341 0.1764569034,-11.8209965868 C -0.5047445789,-11.8659281937 -1.1929347549,-11.8187052291 -1.8013739245,-11.688943557 C -2.2862113295,-11.5860755286 -2.7201977961,-11.4315429319 -3.068191331,-11.2397306787 C -3.6663575477,-10.9124206707 -4.002209078,-10.474691147 -3.9995444725,-10.0348982069" />
      <path d="M -3.9995444725,-10.0348982069 Q -3.9992877634,-9.79662343 -3.8748545925,-9.5664087643" />
      <path d="M 3.9115922147,-10.1018422737 Q 4.0003260119,-10.3336674558 4.000455515,-10.5703338671" />
      <path d="M 4.000455515,-10.5703338671 C 4.0047040609,-11.1558993135 3.5733507791,-11.737633856 2.8288735351,-12.1631785612" />
      <path d="M 2.8288735351,-12.2970602522 C 2.0491507165,-12.7502261326 0.930524619,-13.0215741965 -0.1761900624,-13.0407575253 C -0.8699494883,-13.0549568252 -1.5545528477,-12.9735541943 -2.1406415899,-12.8110325618 C -2.5164370783,-12.7066745975 -2.8436545276,-12.5743330678 -3.1222939379,-12.4140079727 C -3.6870214207,-12.0903914205 -4.0019006845,-11.6659211075 -3.9995444792,-11.2396492172" />
      <path d="M 4.0004555138,-11.7750786668 C 4.0047037704,-12.3606460747 3.5733578358,-12.9423929253 2.8288735351,-13.367925085" />
      <path d="M 2.8288735351,-12.1631785612 C 2.1315492447,-12.5674703773 1.1652633491,-12.8290358717 0.176457197,-12.8918640561 C -0.504745124,-12.9367957457 -1.1929361663,-12.8895726311 -1.8013759144,-12.7598106226 C -2.2862258546,-12.6569397799 -2.720222084,-12.5024016484 -3.0682200264,-12.3105823704 C -3.666366868,-11.983272406 -4.0022070885,-11.54555936 -3.9995444566,-11.1057652345" />
      <path d="M -3.9995444566,-11.1057652345 Q -3.9992862023,-10.8674837138 -3.8748538686,-10.637274933" />
      <path d="M 3.9115917061,-11.1727084332 Q 4.0003258737,-11.4045335758 4.0004555149,-11.6412013563" />
      <path d="M 4.0004555149,-11.6412013563 C 4.0047041292,-12.2267668348 3.5733505252,-12.808501533 2.8288735351,-13.2340460497" />
      <path d="M 2.8288735351,-13.367925085 C 2.0491508371,-13.8210908936 0.9305249689,-14.0924389472 -0.1761895462,-14.1116223479 C -0.869948868,-14.1258216916 -1.5545521506,-14.0444191344 -2.1406408802,-13.8818975908 C -2.5164359293,-13.7775398048 -2.8436530866,-13.6451985143 -3.122292352,-13.4848737193 C -3.6870208165,-13.1612570429 -4.0019006918,-12.7367863559 -3.9995444792,-12.310514045" />
      <path d="M 4.0004555139,-12.8459435105 C 4.0047036524,-13.4315110795 3.5733578703,-14.0132577272 2.8288735351,-14.4387899179" />
      <path d="M 2.8288735351,-13.2340460497 C 2.1315532104,-13.6383355241 1.1652744425,-13.8999004202 0.1764741445,-13.9627304368 C -0.5047095613,-14.0076623655 -1.1928824278,-13.9604446266 -1.801311265,-13.830691851 C -2.2858690863,-13.7278881321 -2.7196385619,-13.5734806414 -3.067535393,-13.381826646 C -3.6661043146,-13.0544741736 -4.0022111926,-12.6165956726 -3.9995444578,-12.1766326118" />
      <path d="M -3.9995444578,-12.1766326118 Q -3.9992862064,-11.9383505806 -3.8748531492,-11.7081410933" />
      <path d="M 3.9115911971,-12.243574595 Q 4.0003259903,-12.4754009645 4.0004555148,-12.7120688495" />
      <path d="M 4.0004555148,-12.7120688495 C 4.0047041926,-13.2976343485 3.5733502988,-13.8793691883 2.8288735351,-14.3049135382" />
      <path d="M 2.8288735351,-14.4387899179 C 2.0491506461,-14.8919558402 0.9305244148,-15.1633039103 -0.1761903639,-15.1824871971 C -0.8699498046,-15.1966864703 -1.5545531643,-15.1152838083 -2.1406418881,-14.9527621451 C -2.516437374,-14.8484041585 -2.843654811,-14.7160626061 -3.122294199,-14.5557374879 C -3.6870212059,-14.2321211332 -4.0019003441,-13.807651173 -3.9995444792,-13.3813795856" />
      <path d="M 4.0004555136,-13.9168084025 C 4.0047039206,-14.5023760366 3.5733568389,-15.0841233242 2.8288735351,-15.5096547508" />
      <path d="M 2.8288735351,-14.3049135382 C 2.1315509412,-14.7092043526 1.1652680945,-14.9707695912 0.1764644466,-15.0335985593 C -0.5047317621,-15.0785304765 -1.192916912,-15.0313092739 -1.8013532159,-14.9015504238 C -2.2861067714,-14.7987018448 -2.7200282471,-14.6442069491 -3.0679929707,-14.452442331 C -3.6662798884,-14.125118302 -4.0022084355,-13.6873501225 -3.9995444606,-13.2475002365" />
      <path d="M -3.9995444606,-13.2475002365 Q -3.9992865102,-13.0092186738 -3.8748524303,-12.7790072527" />
      <path d="M 3.9115906879,-13.3144407562 Q 4.0003258304,-13.5462668731 4.0004555144,-13.7829363303" />
      <path d="M 4.0004555144,-13.7829363303 C 4.004705002,-14.3685021491 3.5733472341,-14.9502390381 2.8288735351,-15.3757810268" />
      <path d="M 2.8288735351,-15.5096547508 C 2.049150739,-15.9628206176 0.9305246845,-16.2341686798 -0.1761899658,-16.253352022 C -0.8699493224,-16.267551329 -1.5545526193,-16.1861487248 -2.1406413312,-16.0236271319 C -2.5164364748,-15.9192692845 -2.8436536843,-15.7869279188 -3.1222929596,-15.626603035 C -3.687021048,-15.3029864059 -4.001900689,-14.8785158629 -3.9995444792,-14.4522437125" />
      <path d="M 4.0004555135,-14.9876731804 C 4.0047039989,-15.5732411142 3.573356208,-16.1549886319 2.8288735351,-16.5805195837" />
      <path d="M 2.8288735351,-15.3757810268 C 2.1315567015,-15.7800684398 1.1652842079,-16.0416328093 0.1764890633,-16.1044644386 C -0.5046795824,-16.1493966675 -1.1928377985,-16.1021833829 -1.8012579073,-15.9724381676 C -2.285576517,-15.8696894461 -2.7191602893,-15.7153889386 -3.066974241,-15.5238702926 C -3.6658889528,-15.1964829795 -4.0022143965,-14.7584695085 -3.9995444562,-14.3183675881" />
      <path d="M -3.9995444562,-14.3183675881 Q -3.9992861925,-14.0800841869 -3.8748517098,-13.8498734151" />
      <path d="M 3.9115901795,-14.3853069156 Q 4.0003258743,-14.6171340184 4.0004555151,-14.853803825" />
      <path d="M 4.0004555151,-14.853803825 C 4.0047039277,-15.4393692127 3.5733512555,-16.0211034556 2.8288735351,-16.4466485154" />
      <path d="M 2.8288735351,-16.5805195837 C 2.0491506083,-17.0336855283 0.9305243053,-17.3050336018 -0.1761905254,-17.324216866 C -0.8699499564,-17.3384161246 -1.5545532992,-17.2570134505 -2.1406420032,-17.094491779 C -2.5164374063,-16.9901338068 -2.8436547793,-16.8577922798 -3.1222941221,-16.697467198 C -3.6870214908,-16.3738506598 -4.0019006836,-15.9493803916 -3.9995444792,-15.5231085488" />
      <path d="M 4.0004555145,-16.058538012 C 4.0047039648,-16.6441058505 3.5733563837,-17.2258533731 2.8288735351,-17.6513844165" />
      <path d="M 2.8288735351,-16.4466485154 C 2.1315554054,-16.8509366937 1.1652805822,-17.1125012588 0.1764835242,-17.1753322894 C -0.5046927517,-17.2202645448 -1.192858481,-17.1730491795 -1.8012831779,-17.0433002858 C -2.2857221686,-16.9405240213 -2.7193994658,-16.7861698247 -3.0672552838,-16.5945832077 C -3.6659969247,-16.2672134429 -4.0022128573,-15.8292670169 -3.9995444603,-15.389235142" />
      <path d="M -3.9995444603,-15.389235142 Q -3.9992863517,-15.1509515595 -3.8748509908,-14.9207395746" />
      <path d="M 3.9115896701,-15.456173077 Q 4.0003258088,-15.6880004397 4.0004555154,-15.9246713055" />
      <path d="M 4.0004555154,-15.9246713055 C 4.0047041637,-16.5102368586 3.5733501355,-17.091971848 2.8288735351,-17.517516004" />
      <path d="M 2.8288735351,-17.6513844165 C 2.04915058,-18.104550378 0.9305242231,-18.375898454 -0.1761906467,-18.3950817013 C -0.8699500841,-18.4092809492 -1.5545534274,-18.3278782625 -2.1406421242,-18.1653565784 C -2.5164375245,-18.0609985977 -2.8436548911,-17.9286570622 -3.1222942241,-17.7683319721 C -3.6870212154,-17.444715619 -4.0019003439,-17.0202456659 -3.9995444791,-16.593974084" />
      <path d="M 4.0004555133,-17.1294029015 C 4.0047038914,-17.7149708192 3.5733564423,-18.2967181063 2.8288735351,-18.7222492494" />
      <path d="M 2.8288735351,-17.517516004 C 2.1315589479,-17.9218020905 1.1652904916,-18.1833661212 0.1764986629,-18.2461987883 C -0.5046611025,-18.2911312652 -1.1928107158,-18.2439206769 -1.8012257437,-18.1141799799 C -2.2854019749,-18.011464025 -2.7188752189,-17.857227216 -3.066639827,-17.6657891505 C -3.6657607368,-17.3383812281 -4.0022164114,-16.9002866762 -3.9995444587,-16.460102607" />
      <path d="M -3.9995444587,-16.460102607 Q -3.9992862926,-16.221818157 -3.8748502709,-15.9916057358" />
      <path d="M 3.9115891611,-16.5270392379 Q 4.0003257063,-16.7588666806 4.0004555152,-16.9955387907" />
      <path d="M 4.0004555152,-16.9955387907 C 4.0047047298,-17.581104585 3.5733479594,-18.1628410107 2.8288735351,-18.5883834926" />
      <path d="M 3.8235637773,-18.7240807715 A 4.0,2.0633121071776728 0.0 0,1 4.0004555208,-18.1172768391" />
      <path d="M 2.8288735351,-18.7222492494 C 2.0491505139,-19.1754152502 0.9305240313,-19.446763332 -0.1761909297,-19.4659465399 C -0.8699503958,-19.4801457631 -1.5545537538,-19.3987430433 -2.1406424415,-19.2362213236 C -2.5164379075,-19.1318632999 -2.8436553102,-18.9995217119 -3.1222946498,-18.8391965597 C -3.6870219862,-18.5155798966 -4.0019009989,-18.0911094816 -3.9995444792,-17.6648375582" />
      <path d="M 2.8288735351,-18.5883834926 C 2.1315604519,-18.9926686911 1.1652946987,-19.2542324948 0.1765050902,-19.3170658568 C -0.504648362,-19.3619984748 -1.1927918414,-19.3147897688 -1.8012032244,-19.1850522541 C -2.285277939,-19.0823596262 -2.7186723509,-18.9281681899 -3.0664017156,-18.7367875358 C -3.6656691984,-18.4093650593 -4.0022175508,-17.971213108 -3.9995444613,-17.5309706547" />
      <path d="M -3.9995444613,-17.5309706547 Q -3.9992865864,-17.292685857 -3.8748495518,-17.0624718957" />
      <path d="M 3.9115886524,-17.5979053985 Q 4.0003274815,-17.829743667 4.0004555211,-18.0664062969" />
      <path d="M 4.0004555211,-18.0664062969 Q 3.9999378613,-18.4020644237 3.8235637773,-18.7240807715" />
      <path d="M 2.7854479403,-19.6064754985 Q 2.9862594023,-19.5017587603 3.1590818909,-19.3835752821" />
      <path d="M 3.1590818909,-19.3835752821 Q 3.5962221692,-19.0838275604 3.8235637773,-18.7240807715" />
      <path d="M 2.7682432384,-19.6509051638 Q 2.5977343904,-19.7674832239 2.4053830252,-19.8708935831" />
      <path d="M 2.2893925558,-19.9515902655 Q 2.4445223248,-19.872138766 2.58195108,-19.7783272257" />
      <path d="M 2.58195108,-19.7783272257 L 2.663456487,-19.7200014415" />
      <path d="M 2.7854479403,-19.6064754985 C 2.1592797301,-19.9345303439 1.3342781775,-20.1510035926 0.4790995451,-20.2145509548 C -0.3365989048,-20.2771942867 -1.1743371958,-20.2002803196 -1.8694788756,-20.0018239178 C -2.3025996029,-19.8790332344 -2.6804877949,-19.7105658436 -2.9719441417,-19.5109525741" />
      <path d="M -2.9719441417,-19.5109525741 C -3.4222960519,-19.2043984408 -3.6618896807,-18.8234094408 -3.6421599873,-18.4447422181" />
      <path d="M 2.2631899323,-19.969819908 A 3.2,1.6506496857421382 0.0 0,1 2.5553631748,-19.796513098" />
      <path d="M 2.5553631748,-19.796513098 A 3.2,1.6506496857421382 0.0 0,1 2.5685815796,-19.787406729" />
      <path d="M -2.5544521332,-19.796513098 A 3.2,1.6506496857421382 0.0 0,1 2.2631899323,-19.969819908" />
      <path d="M 2.2893925558,-19.9515902655 C 2.1754677063,-20.0101375492 2.0533629039,-20.0628892638 1.9419717194,-20.103611318 C 1.8936545791,-20.1212118786 1.853132158,-20.1347836215 1.820404456,-20.1443265466 C 1.7786923129,-20.1561614421 1.7829993804,-20.1518920407 1.8333256585,-20.1315183424" />
      <path d="M 1.8333256585,-20.1315183424 Q 1.8757020209,-20.1145303337 1.9325255489,-20.0917543056" />
      <path d="M 2.4053830252,-19.8708935831 Q 2.1809828657,-19.991466611 1.9325255489,-20.0917543056" />
      <path d="M 2.8885487236,-1.5537209981 Q 2.6590044124,-1.7650032351 2.3505019351,-1.9440438165" />
      <path d="M 2.3505019351,-1.9440438165 Q 2.3155603878,-1.9011678719 2.2983678757,-1.8478477885" />
      <path d="M 2.8288735352,-2.5253711656 L 2.3505019351,-1.9440438165" />
      <path d="M 2.3505019351,-1.9440438165 C 1.5915512792,-2.3966493437 0.4417015272,-2.6346908676 -0.6191806072,-2.5819203844 C -1.1488623945,-2.5579936907 -1.6529688717,-2.4661300533 -2.0737920786,-2.3200115229 C -2.4952896425,-2.1743286926 -2.832614317,-1.974758448 -3.0471444498,-1.7473154534" />
      <path d="M 2.8398411947,-2.6529351821 Q 2.6324110625,-2.8490063936 2.3504995559,-3.014905795" />
      <path d="M 2.3504995559,-3.014905795 Q 2.3155592835,-2.9720312619 2.2983667787,-2.9187130756" />
      <path d="M 2.8288735352,-3.5962386539 L 2.3504995559,-3.014905795" />
      <path d="M 2.3504861089,-2.7471825609 C 1.8499925176,-3.0428661177 1.184289362,-3.2516689454 0.4821572888,-3.3402548795 C -0.2195081095,-3.4304603191 -0.9531546546,-3.4000981883 -1.5768007312,-3.2620727459 C -2.2019553906,-3.1254908979 -2.7131945541,-2.8823389183 -3.0115739676,-2.5867174794 C -3.3128338101,-2.2917886993 -3.39934712,-1.9464734888 -3.2543671052,-1.6246355829" />
      <path d="M 2.3504995559,-3.014905795 C 1.591551887,-3.4675095132 0.4417079507,-3.7055508764 -0.6191705237,-3.652782285 C -1.1488504818,-3.6288565048 -1.6529557,-3.5369942281 -2.0737786995,-3.3908772602 C -2.4952760438,-3.2451959884 -2.8326015614,-3.0456274963 -3.0471337295,-2.8181860858" />
      <path d="M 2.839826958,-3.723808277 Q 2.6324005653,-3.9198731468 2.3504971768,-4.0857677734" />
      <path d="M 2.3504971768,-4.0857677734 Q 2.3155581792,-4.0428946518 2.2983656817,-3.9895783627" />
      <path d="M 2.8288735352,-4.6671061422 L 2.3504971768,-4.0857677734" />
      <path d="M 2.3504845208,-3.8180449473 C 1.8499915238,-4.1137281541 1.1842892728,-4.3225307912 0.4821580963,-4.4111167641 C -0.2195064054,-4.5013222377 -0.9531520777,-4.4709603705 -1.5767976315,-4.3329353521 C -2.2019517617,-4.1963539244 -2.7131907584,-3.95320252 -3.0115705097,-3.6575816357 C -3.3128306801,-3.3626534099 -3.3993448248,-3.0173387246 -3.2543660084,-2.6955011272" />
      <path d="M 2.3504971768,-4.0857677734 C 1.5915524947,-4.5383696826 0.4417143742,-4.7764108852 -0.6191604401,-4.7236441856 C -1.148838569,-4.6997193188 -1.6529425282,-4.6078584029 -2.0737653204,-4.4617429976 C -2.4952624449,-4.3160632843 -2.8325888056,-4.1164965445 -3.0471230091,-3.8890567183" />
      <path d="M 2.8398127211,-4.794681372 Q 2.6323900682,-4.9907399 2.3504947976,-5.1566297519" />
      <path d="M 2.3504947976,-5.1566297519 Q 2.3155570749,-5.1137580418 2.2983645847,-5.0604436498" />
      <path d="M 2.8288735352,-5.7379736306 L 2.3504947976,-5.1566297519" />
      <path d="M 2.3504947976,-5.1566297519 C 1.5915531025,-5.609229852 0.4417207977,-5.8472708939 -0.6191503564,-5.7945060862 C -1.1488266561,-5.7705821329 -1.6529293563,-5.6787225777 -2.0737519411,-5.532608735 C -2.4952488459,-5.3869305801 -2.8325760497,-5.1873655929 -3.0471122885,-4.9599273509" />
      <path d="M 2.8397984841,-5.8655544669 Q 2.6323795709,-6.0616066532 2.3504924184,-6.2274917303" />
      <path d="M 2.3504924184,-6.2274917303 Q 2.3155559706,-6.1846214317 2.2983634877,-6.1313089368" />
      <path d="M 2.8288735352,-6.8088411189 L 2.3504924184,-6.2274917303" />
      <path d="M 2.3504813444,-5.9597697202 C 1.849989536,-6.2554522268 1.1842890944,-6.4642544828 0.4821597115,-6.5528405333 C -0.2195029973,-6.6430460749 -0.9531469239,-6.6126847351 -1.5767914321,-6.4746605646 C -2.2019445038,-6.3380799773 -2.7131831671,-6.0949297233 -3.011563594,-5.7993099484 C -3.3128244201,-5.504382831 -3.3993402342,-5.1590691963 -3.2543638149,-4.837232216" />
      <path d="M 2.3504924184,-6.2274917303 C 1.5915537104,-6.6800900214 0.4417272214,-6.9181309027 -0.6191402726,-6.8653679867 C -1.1488147431,-6.8414449469 -1.6529161842,-6.7495867525 -2.0737385617,-6.6034744724 C -2.4952352467,-6.457797876 -2.8325632936,-6.2582346412 -3.0471015677,-6.0307979834" />
      <path d="M 2.8397842468,-6.9364275619 Q 2.6323690737,-7.1324734065 2.3504900393,-7.2983537087" />
      <path d="M 2.3504900393,-7.2983537087 Q 2.3155548663,-7.2554848216 2.2983623908,-7.2021742239" />
      <path d="M 2.8288735352,-7.8797086073 L 2.3504900393,-7.2983537087" />
      <path d="M 2.3504797563,-7.0306321066 C 1.8499885422,-7.3263142632 1.1842890052,-7.5351163286 0.482160519,-7.623702418 C -0.2195012932,-7.7139079934 -0.953144347,-7.6835469174 -1.5767883324,-7.5455231708 C -2.2019408749,-7.4089430038 -2.7131793715,-7.165793325 -3.0115601362,-6.8701741047 C -3.3128212901,-6.5752475416 -3.3993379389,-6.2299344321 -3.2543627182,-5.9080977604" />
      <path d="M 2.3504900393,-7.2983537087 C 1.5915543182,-7.7509501908 0.441733645,-7.9889909114 -0.6191301887,-7.9362298873 C -1.1488028299,-7.912307761 -1.652903012,-7.8204509272 -2.0737251821,-7.6743402097 C -2.4952216473,-7.5286651719 -2.8325505374,-7.3291036896 -3.0470908468,-7.101668616" />
      <path d="M 2.8397700092,-8.0073006571 Q 2.6323585763,-8.2033401598 2.3504876601,-8.3692156872" />
      <path d="M 2.3504876601,-8.3692156872 Q 2.315553762,-8.3263482115 2.2983612939,-8.2730395109" />
      <path d="M 2.8288735352,-8.9505760958 L 2.3504876601,-8.3692156872" />
      <path d="M 2.3504876601,-8.3692156872 C 1.5915549261,-8.8218103601 0.4417400688,-9.0598509201 -0.6191201047,-9.0070917878 C -1.1487909167,-8.983170575 -1.6528898397,-8.891315102 -2.0737118024,-8.7452059471 C -2.4952080478,-8.5995324678 -2.8325377809,-8.399972738 -3.0470801256,-8.1725392487" />
      <path d="M 2.8397557714,-9.0781737523 Q 2.6323480788,-9.2742069131 2.350485281,-9.4400776656" />
      <path d="M 2.350485281,-9.4400776656 Q 2.3155526576,-9.3972116014 2.2983601971,-9.3439047979" />
      <path d="M 2.8288735352,-10.0214435842 L 2.350485281,-9.4400776656" />
      <path d="M 2.35047658,-9.1723568794 C 1.8499865545,-9.4680383359 1.1842888268,-9.6768400202 0.4821621342,-9.7654261872 C -0.219497885,-9.8556318306 -0.9531391932,-9.825271282 -1.576782133,-9.6872483832 C -2.2019336171,-9.5506690568 -2.7131717801,-9.3075205283 -3.0115532204,-9.0119024174 C -3.3128150302,-8.7169769627 -3.3993333484,-8.3716649037 -3.2543605247,-8.0498288492" />
      <path d="M 2.350485281,-9.4400776656 C 1.591555534,-9.8926705295 0.4417464926,-10.1307109287 -0.6191100206,-10.0779536883 C -1.1487790033,-10.054033389 -1.6528766672,-9.9621792768 -2.0736984225,-9.8160716845 C -2.4951944482,-9.6703997637 -2.8325250244,-9.4708417864 -3.0470694044,-9.2434098814" />
      <path d="M 2.8397415334,-10.1490468475 Q 2.6323375813,-10.3450736665 2.3504829018,-10.510939644" />
      <path d="M 2.3504829018,-10.510939644 Q 2.3155515533,-10.4680749913 2.2983591003,-10.4147700849" />
      <path d="M 2.8288735352,-11.0923110727 L 2.3504829018,-10.510939644" />
      <path d="M 2.3504829018,-10.510939644 C 1.5915561419,-10.9635306988 0.4417529165,-11.2015709374 -0.6190999365,-11.1488155888 C -1.1487670899,-11.124896203 -1.6528634946,-11.0330434515 -2.0736850425,-10.8869374219 C -2.4951808483,-10.7412670596 -2.8325122676,-10.5417108349 -3.0470586829,-10.3142805142" />
      <path d="M 2.8397272953,-11.2199199427 Q 2.6323270838,-11.4159404199 2.3504805227,-11.5818016224" />
      <path d="M 2.3504805227,-11.5818016224 Q 2.315550449,-11.5389383812 2.2983580035,-11.4856353719" />
      <path d="M 2.8288735351,-12.1631785612 L 2.3504805227,-11.5818016224" />
      <path d="M 2.3504805227,-11.5818016224 C 1.5915567498,-12.0343908681 0.4417593404,-12.272430946 -0.6190898522,-12.2196774892 C -1.1487551763,-12.195759017 -1.6528503219,-12.1039076263 -2.0736716623,-11.9578031593 C -2.4951672483,-11.8121343556 -2.8324995107,-11.6125798834 -3.0470479613,-11.385151147" />
      <path d="M 2.8397130568,-12.2907930381 Q 2.6323165862,-12.4868071733 2.3504781436,-12.6526636008" />
      <path d="M 2.3504781436,-12.6526636008 Q 2.3155493447,-12.6098017711 2.2983569068,-12.5565006589" />
      <path d="M 2.8288735351,-13.2340460497 L 2.3504781436,-12.6526636008" />
      <path d="M 2.3504781436,-12.6526636008 C 1.5915573578,-13.1052510374 0.4417657644,-13.3432909546 -0.6190797678,-13.2905393897 C -1.1487432626,-13.2666218309 -1.652837149,-13.174771801 -2.073658282,-13.0286688967 C -2.4951536482,-12.8830016515 -2.8324867536,-12.6834489319 -3.0470372395,-12.4560217798" />
      <path d="M 2.8396988181,-13.3616661335 Q 2.6323060885,-13.5576739268 2.3504757645,-13.7235255792" />
      <path d="M 2.3504757645,-13.7235255792 Q 2.3155482403,-13.6806651609 2.2983558101,-13.6273659459" />
      <path d="M 2.8288735351,-14.3049135382 L 2.3504757645,-13.7235255792" />
      <path d="M 2.3504757645,-13.7235255792 C 1.5915579658,-14.1761112066 0.4417721884,-14.4141509631 -0.6190696833,-14.3614012901 C -1.1487313488,-14.3374846449 -1.652823976,-14.2456359757 -2.0736449016,-14.0995346341 C -2.4951400479,-13.9538689475 -2.8324739963,-13.7543179805 -3.0470265175,-13.5268924127" />
      <path d="M 2.8396845792,-14.4325392289 Q 2.6322955908,-14.6285406802 2.3504733853,-14.7943875576" />
      <path d="M 2.3504733853,-14.7943875576 Q 2.315547136,-14.7515285507 2.2983547135,-14.6982312328" />
      <path d="M 2.8288735351,-15.3757810268 L 2.3504733853,-14.7943875576" />
      <path d="M 2.3504733853,-14.7943875576 C 1.5915585738,-15.2469713759 0.4417786126,-15.4850109716 -0.6190595988,-15.4322631905 C -1.1487194348,-15.4083474588 -1.6528108029,-15.3165001504 -2.073631521,-15.1704003715 C -2.4951264474,-15.0247362435 -2.8324612388,-14.8251870291 -3.0470157953,-14.5977630456" />
      <path d="M 2.83967034,-15.5034123245 Q 2.6322850929,-15.6994074338 2.3504710062,-15.865249536" />
      <path d="M 2.3504710062,-15.865249536 Q 2.3155460316,-15.8223919406 2.2983536168,-15.7690965198" />
      <path d="M 2.8288735351,-16.4466485154 L 2.3504710062,-15.865249536" />
      <path d="M 2.3504670512,-15.5975311977 C 1.8499805915,-15.8932105539 1.1842882917,-16.1020110949 0.4821669798,-16.1905974947 C -0.2194876604,-16.2808033419 -0.9531237316,-16.2504443755 -1.5767635347,-16.1124240205 C -2.2019118435,-15.9758472157 -2.7131490061,-15.7327021383 -3.0115324732,-15.4370873553 C -3.3127962502,-15.1421652261 -3.3993195768,-14.7968563187 -3.2543539444,-14.4750221155" />
      <path d="M 2.3504710062,-15.865249536 C 1.5915591819,-16.3178315451 0.4417850367,-16.5558709801 -0.6190495141,-16.5031250909 C -1.1487075208,-16.4792102728 -1.6527976296,-16.3873643252 -2.0736181402,-16.2412661089 C -2.4951128468,-16.0956035395 -2.8324484812,-15.8960560777 -3.047005073,-15.6686336786" />
      <path d="M 2.8396561007,-16.57428542 Q 2.6322745951,-16.7702741873 2.3504686271,-16.9361115143" />
      <path d="M 2.3504686271,-16.9361115143 Q 2.3155449273,-16.8932553304 2.2983525203,-16.8399618067" />
      <path d="M 2.8288735351,-17.517516004 L 2.3504686271,-16.9361115143" />
      <path d="M 2.3504654631,-16.6683935841 C 1.8499795977,-16.9640725902 1.1842882025,-17.1728729406 0.4821677874,-17.2614593793 C -0.2194859563,-17.3516652605 -0.9531211547,-17.3213065578 -1.576760435,-17.1832866267 C -2.2019082146,-17.0467102422 -2.7131452104,-16.80356574 -3.0115290154,-16.5079515116 C -3.3127931203,-16.2130299367 -3.3993172815,-15.8677215545 -3.2543528477,-15.5458876599" />
      <path d="M 2.3504686271,-16.9361115143 C 1.5915597899,-17.3886917143 0.441791461,-17.6267309886 -0.6190394293,-17.5739869913 C -1.1486956066,-17.5500730867 -1.6527844562,-17.4582284999 -2.0736047593,-17.3121318463 C -2.495099246,-17.1664708355 -2.8324357234,-16.9669251263 -3.0469943505,-16.7395043117" />
      <path d="M 2.8396418611,-17.6451585156 Q 2.6322640971,-17.8411409409 2.350466248,-18.0069734927" />
      <path d="M 2.350466248,-18.0069734927 Q 2.3155438229,-17.9641187202 2.2983514237,-17.9108270937" />
      <path d="M 2.8288735351,-18.5883834926 L 2.350466248,-18.0069734927" />
      <path d="M 2.350466248,-18.0069734927 C 1.591560398,-18.4595518834 0.4417978853,-18.6975909971 -0.6190293445,-18.6448488916 C -1.1486836923,-18.6209359006 -1.6527712827,-18.5290926746 -2.0735913783,-18.3829975837 C -2.495085645,-18.2373381315 -2.8324229654,-18.037794175 -3.0469836278,-17.8103749447" />
      <path d="M 2.8396276213,-18.7160316113 Q 2.6322535991,-18.9120076945 2.3504638689,-19.077835471" />
      <path d="M 2.3504638689,-19.077835471 Q 2.3155427186,-19.03498211 2.2983503272,-18.9816923806" />
      <path d="M 2.7854479563,-19.6064754902 L 2.3504638689,-19.077835471" />
      <path d="M 2.3504638689,-19.077835471 C 1.5915610062,-19.5304120526 0.4418043096,-19.7684510055 -0.6190192595,-19.715710792 C -1.1486717779,-19.6917987144 -1.6527581091,-19.5999568493 -2.0735779971,-19.4538633212 C -2.4950720439,-19.3082054276 -2.8324102073,-19.1086632237 -3.046972905,-18.8812455779" />
      <path d="M 2.2893926503,-19.951590217 L 2.2965048213,-19.9275037" />
      <line x1="-3.9995444792" y1="4.476760387" x2="-3.9995444792" y2="-0.5310003576" />
      <line x1="4.0004555208" y1="4.2368413397" x2="4.0004555208" y2="-0.0633681549" />
      <line x1="4.0004555208" y1="-0.8883520469" x2="4.0004555208" y2="-1.0664302001" />
      <line x1="-3.9995444792" y1="-1.4679579143" x2="-3.9995444792" y2="-1.6018651904" />
      <line x1="4.0004555208" y1="-2.0033939895" x2="4.0004555208" y2="-2.1372950333" />
      <line x1="-3.9995444792" y1="-2.5388254028" x2="-3.9995444792" y2="-2.6727300232" />
      <line x1="4.0004555208" y1="-3.0742614778" x2="4.0004555208" y2="-3.2081598659" />
      <line x1="-3.9995444792" y1="-3.6096928968" x2="-3.9995444792" y2="-3.7435948561" />
      <line x1="4.0004555208" y1="-4.1451289659" x2="4.0004555208" y2="-4.2790246989" />
      <line x1="-3.9995444792" y1="-4.6805603802" x2="-3.9995444792" y2="-4.8144596889" />
      <line x1="4.0004555208" y1="-5.2159964538" x2="4.0004555208" y2="-5.3498895317" />
      <line x1="-3.9995444792" y1="-5.7514278681" x2="-3.9995444792" y2="-5.8853245217" />
      <line x1="4.0004555208" y1="-6.2868639427" x2="4.0004555208" y2="-6.4207543646" />
      <line x1="-3.9995444792" y1="-6.8222953553" x2="-3.9995444792" y2="-6.9561893545" />
      <line x1="4.0004555208" y1="-7.3577314307" x2="4.0004555208" y2="-7.4916191973" />
      <line x1="-3.9995444792" y1="-7.8931628443" x2="-3.9995444792" y2="-8.0270541874" />
      <line x1="4.0004555208" y1="-8.4285989197" x2="4.0004555208" y2="-8.5624840304" />
      <line x1="-3.9995444792" y1="-8.9640303321" x2="-3.9995444792" y2="-9.0979190202" />
      <line x1="4.0004555208" y1="-9.4994664083" x2="4.0004555208" y2="-9.6333488632" />
      <line x1="-3.9995444792" y1="-10.0348978245" x2="-3.9995444792" y2="-10.1687838531" />
      <line x1="4.0004555208" y1="-10.5703338967" x2="4.0004555208" y2="-10.704213696" />
      <line x1="-3.9995444792" y1="-11.1057653091" x2="-3.9995444792" y2="-11.2396486859" />
      <line x1="4.0004555208" y1="-11.6412013852" x2="4.0004555208" y2="-11.775078529" />
      <line x1="-3.9995444792" y1="-12.1766327982" x2="-3.9995444792" y2="-12.3105135188" />
      <line x1="4.0004555208" y1="-12.7120688736" x2="4.0004555208" y2="-12.8459433618" />
      <line x1="-3.9995444792" y1="-13.2475002877" x2="-3.9995444792" y2="-13.3813783516" />
      <line x1="4.0004555208" y1="-13.7829363617" x2="4.0004555208" y2="-13.9168081947" />
      <line x1="-3.9995444792" y1="-14.318367775" x2="-3.9995444792" y2="-14.4522431845" />
      <line x1="4.0004555208" y1="-14.8538038509" x2="4.0004555208" y2="-14.9876730274" />
      <line x1="-3.9995444792" y1="-15.3892352646" x2="-3.9995444792" y2="-15.5231080174" />
      <line x1="4.0004555208" y1="-15.9246713394" x2="4.0004555208" y2="-16.0585378603" />
      <line x1="-3.9995444792" y1="-16.4601027529" x2="-3.9995444792" y2="-16.5939728502" />
      <line x1="4.0004555208" y1="-16.9955388278" x2="4.0004555208" y2="-17.1294026932" />
      <line x1="-3.9995444792" y1="-17.5309702412" x2="-3.9995444792" y2="-17.6648376831" />
      <line x1="4.0004555208" y1="-18.0664063221" x2="4.0004555208" y2="-18.1172768391" />
      <line x1="2.7682432529" y1="-19.6509051641" x2="3.15908189" y2="-19.3835752809" />
      <line x1="2.5553631748" y1="-19.796513098" x2="2.5819510796" y2="-19.7783272258" />
      <line x1="-2.5544521332" y1="-19.796513098" x2="-2.9719441418" y2="-19.5109525639" />
    </g>
  </g>
</svg>