<?xml version='1.0' encoding='utf-8'?>
<svg width="296.9546193958mm" height="513.0000000001mm" viewBox="-14.189920435 -24.5136081666 28.3798408699 49.0272163332" version="1.1" xmlns="http://www.w3.org/2000/svg">
  <g transform="scale(1,-1)" stroke-linecap="round">
    <g fill="none" stroke="rgb(64,192,64)" stroke-width="0.09556962248186202" id="Visible">
      <line x1="-14.1421356237" y1="-16.8729816244" x2="-14.1421356237" y2="-0.0" />
      <line x1="0.0" y1="-24.4658233554" x2="0.0" y2="-7.592841731" />
      <line x1="0.0" y1="-7.592841731" x2="14.1421356237" y2="-0.0" />
      <line x1="14.1421356237" y1="-16.8729816244" x2="14.1421356237" y2="-0.0" />
      <line x1="0.0" y1="-24.4658233554" x2="14.1421356237" y2="-16.8729816244" />
      <line x1="-14.1421356237" y1="-16.8729816244" x2="0.0" y2="-24.4658233554" />
      <line x1="-14.1421356237" y1="-0.0" x2="0.0" y2="-7.592841731" />
      <line x1="-14.1421356237" y1="-0.0" x2="-14.1421356237" y2="16.8729816244" />
      <line x1="-14.1421356237" y1="16.8729816244" x2="0.0" y2="24.4658233554" />
      <line x1="0.0" y1="-7.592841731" x2="0.0" y2="9.2801398934" />
      <line x1="0.0" y1="9.2801398934" x2="14.1421356237" y2="16.8729816244" />
      <line x1="14.1421356237" y1="-0.0" x2="14.1421356237" y2="16.8729816244" />
      <line x1="0.0" y1="-7.592841731" x2="14.1421356237" y2="-0.0" />
      <line x1="-14.1421356237" y1="-0.0" x2="0.0" y2="-7.592841731" />
      <line x1="-14.1421356237" y1="16.8729816244" x2="0.0" y2="9.2801398934" />
      <line x1="0.0" y1="24.4658233554" x2="14.1421356237" y2="16.8729816244" />
    </g>
  </g>
</svg>