<?xml version='1.0' encoding='utf-8'?>
<svg width="504.8274202568mm" height="513.0000000005mm" viewBox="-20.8241595141 -21.1612788887 41.6483190281 42.3225577774" version="1.1" xmlns="http://www.w3.org/2000/svg">
  <g transform="scale(1,-1)" stroke-linecap="round">
    <g fill="none" stroke="rgb(64,192,64)" stroke-width="0.08250011262643273" id="Visible">
      <line x1="-20.7829094578" y1="-13.6612402708" x2="-20.7829094578" y2="2.9876136601" />
      <line x1="-20.7829094578" y1="2.9876136601" x2="-7.4700137197" y2="11.0940134976" />
      <line x1="-5.9908030821" y1="-21.1200288324" x2="-5.9908030821" y2="-4.4711749015" />
      <line x1="7.4700137197" y1="-12.9235578856" x2="7.4700137197" y2="-11.0940134976" />
      <line x1="-5.9908030821" y1="-21.1200288324" x2="7.4700137197" y2="-12.9235578856" />
      <line x1="-20.7829094578" y1="-13.6612402708" x2="-5.9908030821" y2="-21.1200288324" />
      <line x1="-20.7829094578" y1="2.9876136601" x2="-5.9908030821" y2="-4.4711749015" />
      <line x1="-7.4700137197" y1="-3.7252960453" x2="-7.4700137197" y2="12.9235578856" />
      <line x1="-7.4700137197" y1="12.9235578856" x2="5.9908030821" y2="21.1200288324" />
      <line x1="7.3220926559" y1="-11.1840846069" x2="7.3220926559" y2="5.464769324" />
      <line x1="7.3220926559" y1="5.464769324" x2="20.7829094578" y2="13.6612402708" />
      <line x1="20.7829094578" y1="-2.9876136601" x2="20.7829094578" y2="13.6612402708" />
      <line x1="7.3220926559" y1="-11.1840846069" x2="20.7829094578" y2="-2.9876136601" />
      <line x1="-7.4700137197" y1="-3.7252960453" x2="7.3220926559" y2="-11.1840846069" />
      <line x1="-7.4700137197" y1="12.9235578856" x2="7.3220926559" y2="5.464769324" />
      <line x1="5.9908030821" y1="21.1200288324" x2="20.7829094578" y2="13.6612402708" />
    </g>
  </g>
</svg>