<?xml version='1.0' encoding='utf-8'?>
<svg width="330.877053918mm" height="513.0000000002mm" viewBox="-16.2767611669 -29.7959428543 41.3355891836 64.087723824" version="1.1" xmlns="http://www.w3.org/2000/svg">
  <g transform="scale(1,-1)" stroke-linecap="round">
    <g fill="none" stroke="rgb(64,192,64)" stroke-width="0.12492733688884754" id="Visible">
      <line x1="24.9963643482" y1="-28.5243914668" x2="9.8066413155" y2="-34.2293173012" />
      <line x1="9.8066413155" y1="-34.2293173012" x2="-16.2142974985" y2="-20.9083154779" />
      <line x1="-1.0245744658" y1="29.7334791859" x2="-16.2142974985" y2="24.0285533514" />
      <line x1="-16.2142974985" y1="-20.9083154779" x2="-16.2142974985" y2="24.0285533514" />
      <line x1="24.9963643482" y1="16.4124773625" x2="9.8066413155" y2="10.7075515281" />
      <line x1="-1.0245744658" y1="29.7334791859" x2="24.9963643482" y2="16.4124773625" />
      <line x1="-16.2142974985" y1="24.0285533514" x2="9.8066413155" y2="10.7075515281" />
      <line x1="24.9963643482" y1="14.165633921" x2="9.8066413155" y2="8.4607080866" />
      <line x1="24.9963643482" y1="16.4124773625" x2="24.9963643482" y2="14.165633921" />
      <line x1="9.8066413155" y1="10.7075515281" x2="9.8066413155" y2="8.4607080866" />
      <line x1="9.8066413155" y1="8.4607080866" x2="-14.5879888226" y2="20.949147296" />
      <line x1="0.6017342101" y1="-13.789108816" x2="-14.5879888226" y2="-19.4940346504" />
      <line x1="0.6017342101" y1="13.1730124816" x2="0.6017342101" y2="-13.789108816" />
      <line x1="-14.5879888226" y1="20.949147296" x2="-14.5879888226" y2="-19.4940346504" />
      <line x1="24.9963643482" y1="-26.2775480254" x2="9.8066413155" y2="-31.9824738598" />
      <line x1="0.6017342101" y1="-13.789108816" x2="24.9963643482" y2="-26.2775480254" />
      <line x1="-14.5879888226" y1="-19.4940346504" x2="9.8066413155" y2="-31.9824738598" />
      <line x1="24.9963643482" y1="-26.2775480254" x2="24.9963643482" y2="-28.5243914668" />
      <line x1="9.8066413155" y1="-31.9824738598" x2="9.8066413155" y2="-34.2293173012" />
    </g>
  </g>
</svg>