<?xml version="1.0" encoding="UTF-8" standalone="no"?>
<svg
   xmlns:svg="http://www.w3.org/2000/svg"
   xmlns="http://www.w3.org/2000/svg"
   width="1024.0"
   height="1024.0"

>
    <g transform="scale(11.990578941533682, -11.990578941533682)   translate(44.964032998350184,-59.09236973400904)" stroke-width="0.25"  fill="none">
       <!-- hidden lines -->
       <g  stroke="rgb(32,64,32)" fill="none" stroke-dasharray="0.25,0.25" >

       </g>

       <!-- solid lines -->
       <g  stroke="rgb(64,192,64)" fill="none">
			<path d="M14.142135623730951,-3.686257189091717e-15 L-3.552713678800501e-15,-6.625891564490791 " />
			<path d="M-1.3322676295501878e-15,-6.62589156449079 L-28.2842712474619,6.625891564490801 " />
			<path d="M-14.142135623730937,57.424393558920215 L-28.28427124746189,50.79850199442943 " />
			<path d="M-28.284271247461902,6.6258915644908 L-28.284271247461888,50.79850199442943 " />
			<path d="M14.142135623730962,44.17261042993862 L7.105427357601002e-15,37.546718865447836 " />
			<path d="M-14.142135623730937,57.424393558920215 L14.142135623730962,44.17261042993862 " />
			<path d="M-28.284271247461888,50.79850199442943 L1.0658141036401503e-14,37.546718865447836 " />
			<path d="M14.142135623730969,41.963979908441694 L1.4210854715202004e-14,35.33808834395091 " />
			<path d="M14.142135623730962,44.17261042993862 L14.142135623730962,41.963979908441694 " />
			<path d="M1.0658141036401503e-14,37.546718865447836 L9.96425164601078e-15,35.33808834395091 " />
			<path d="M1.0658141036401503e-14,35.3380883439509 L-26.516504294495515,47.76163502737114 " />
			<path d="M-12.374368670764579,14.632177204917173 L-26.516504294495533,8.006285640426386 " />
			<path d="M-12.374368670764575,41.13574346288035 L-12.374368670764584,14.63217720491717 " />
			<path d="M-26.516504294495526,47.76163502737114 L-26.51650429449554,8.006285640426377 " />
			<path d="M14.142135623730951,2.2086305214969273 L-3.552713678800501e-15,-4.417261042993861 " />
			<path d="M-12.374368670764579,14.632177204917173 L14.142135623730947,2.208630521496932 " />
			<path d="M-26.516504294495533,8.006285640426384 L-7.105427357601002e-15,-4.417261042993857 " />
			<path d="M14.142135623730951,2.2086305214969273 L14.142135623730951,-3.9968028886505635e-15 " />
			<path d="M-8.881784197001252e-16,-4.41726104299386 L-1.582067810090848e-15,-6.625891564490791 " />

       </g>
    </g>
    
</svg>
