<?xml version='1.0' encoding='utf-8'?>
<svg width="65.429112mm" height="100.999999mm" viewBox="-16.534111 -30.053293 41.85029 64.602424" version="1.1" xmlns="http://www.w3.org/2000/svg">
  <g transform="scale(1,-1)" stroke-linecap="round">
    <g fill="none" stroke="rgb(64,192,64)" stroke-width="0.6396279648708993" id="Visible">
      <line x1="24.996364" y1="-28.524391" x2="9.806641" y2="-34.229317" />
      <line x1="9.806641" y1="-34.229317" x2="-16.214297" y2="-20.908315" />
      <line x1="-1.024574" y1="29.733479" x2="-16.214297" y2="24.028553" />
      <line x1="-16.214297" y1="-20.908315" x2="-16.214297" y2="24.028553" />
      <line x1="24.996364" y1="16.412477" x2="9.806641" y2="10.707552" />
      <line x1="-1.024574" y1="29.733479" x2="24.996364" y2="16.412477" />
      <line x1="-16.214297" y1="24.028553" x2="9.806641" y2="10.707552" />
      <line x1="24.996364" y1="14.165634" x2="9.806641" y2="8.460708" />
      <line x1="24.996364" y1="16.412477" x2="24.996364" y2="14.165634" />
      <line x1="9.806641" y1="10.707552" x2="9.806641" y2="8.460708" />
      <line x1="9.806641" y1="8.460708" x2="-14.587989" y2="20.949147" />
      <line x1="0.601734" y1="-13.789109" x2="-14.587989" y2="-19.494035" />
      <line x1="0.601734" y1="13.173012" x2="0.601734" y2="-13.789109" />
      <line x1="-14.587989" y1="20.949147" x2="-14.587989" y2="-19.494035" />
      <line x1="24.996364" y1="-26.277548" x2="9.806641" y2="-31.982474" />
      <line x1="0.601734" y1="-13.789109" x2="24.996364" y2="-26.277548" />
      <line x1="-14.587989" y1="-19.494035" x2="9.806641" y2="-31.982474" />
      <line x1="24.996364" y1="-26.277548" x2="24.996364" y2="-28.524391" />
      <line x1="9.806641" y1="-31.982474" x2="9.806641" y2="-34.229317" />
    </g>
    <g fill="none" stroke="rgb(32,64,32)" stroke-width="0.05756651683838094" id="Hidden" stroke-dasharray="0.001462 0.173431">
      <line x1="-1.024574" y1="-15.20339" x2="-16.214297" y2="-20.908315" />
      <line x1="24.996364" y1="-28.524391" x2="-1.024574" y2="-15.20339" />
      <line x1="-1.024574" y1="-15.20339" x2="-1.024574" y2="29.733479" />
      <line x1="0.601734" y1="26.654073" x2="-14.587989" y2="20.949147" />
      <line x1="24.996364" y1="14.165634" x2="0.601734" y2="26.654073" />
      <line x1="0.601734" y1="26.654073" x2="0.601734" y2="13.173012" />
    </g>
  </g>
</svg>