<?xml version='1.0' encoding='utf-8'?>
<svg width="77.1101058544mm" height="513.0000000004mm" viewBox="-0.6663363417 -4.5428295295 1.3631318368 9.0686768554" version="1.1" xmlns="http://www.w3.org/2000/svg">
  <g transform="scale(1,-1)" stroke-linecap="round">
    <g fill="none" stroke="rgb(64,192,64)" stroke-width="0.017677732661583432" id="Visible">
      <line x1="0.6346456711" y1="-4.1907888469" x2="0.6346456711" y2="4.1099039622" />
      <line x1="0.5526124439" y1="-4.2365256676" x2="0.5526124439" y2="4.0641671415" />
      <line x1="0.5526124439" y1="-4.2365256676" x2="0.6346456711" y2="-4.1907888469" />
      <line x1="0.5526124439" y1="4.0641671415" x2="0.6346456711" y2="4.1099039622" />
      <line x1="0.6629329802" y1="-4.1750175353" x2="0.6629329802" y2="4.1256752738" />
      <path d="M 0.6629329801,-4.1750175353 A 0.0199999944085939,0.011153202499972531 0.0 0,1 0.6346456711,-4.1750175309" />
      <path d="M 0.6629329801,4.1256752738 A 0.0199999944085939,0.011153202499972531 0.0 0,1 0.6287893272,4.1177896202" />
      <path d="M 0.6287893272,4.1177896202 A 0.0199999944085939,0.011153202499972531 0.0 0,1 0.6346456711,4.1099039622" />
      <line x1="0.6629329802" y1="-4.1750175353" x2="0.663640171" y2="-4.174623248" />
      <line x1="0.6629329802" y1="4.1256752738" x2="0.663640171" y2="4.1260695611" />
      <path d="M 0.663640171,-4.174623248 A 0.0829999999999913,0.04628580331501731 0.0 0,1 0.6879566288,-4.1418907182" />
      <path d="M 0.663640171,4.1260695611 A 0.0829999999999913,0.04628580331501731 0.0 0,1 0.6879566288,4.1588020908" />
      <path d="M 0.6879566288,4.1588020908 A 0.0829999999999913,0.04628580331501731 0.0 0,1 0.6636528115,4.1915275715" />
      <line x1="0.6636528115" y1="4.1915275715" x2="0.6629457809" y2="4.1919219393" />
      <line x1="0.6346645557" y1="4.1919219393" x2="0.6346645557" y2="4.2076966524" />
      <path d="M 0.6346645557,4.2076966524 A 0.0200000000000049,0.01115320561808036 0.0 0,1 0.6288051683,4.1998092959" />
      <path d="M 0.6288051683,4.1998092959 A 0.0200000000000049,0.01115320561808036 0.0 0,1 0.6629457809,4.1919219393" />
      <line x1="0.6346645557" y1="4.2076966524" x2="0.5526490028" y2="4.2534433206" />
      <line x1="0.5243677776" y1="4.2534433206" x2="0.5243677776" y2="4.2692180337" />
      <path d="M 0.5243677776,4.2692180337 A 0.0200000000000031,0.011153205618079356 0.0 0,1 0.5185083902,4.2613306771" />
      <path d="M 0.5185083902,4.2613306771 A 0.0200000000000031,0.011153205618079356 0.0 0,1 0.5526490028,4.2534433206" />
      <line x1="0.5243677776" y1="4.2692180337" x2="0.4900767921" y2="4.2883448734" />
      <path d="M 0.4900767921,4.2883448734 A 0.0434999999999981,0.024258222219317782 0.0 0,1 0.4158143348,4.2711935673" />
      <path d="M 0.4158143348,4.2711935673 A 0.0434999999999981,0.024258222219317782 0.0 0,1 0.4285518776,4.2540422612" />
      <line x1="0.4855833364" y1="4.1904391377" x2="0.4855833364" y2="4.2222312311" />
      <line x1="0.4285518776" y1="4.2540422612" x2="0.4855833364" y2="4.2222312311" />
      <path d="M 0.4571354512,4.1830788158 A 0.0417544584372598,0.02328480302111174 0.0 0,1 0.4968270449,4.2063351844" />
      <path d="M 0.4968270449,4.2063351844 A 0.0417544584372598,0.02328480302111174 0.0 0,1 0.4855833365,4.2222312312" />
      <line x1="0.4571354511" y1="4.1830788158" x2="0.2742916534" y2="4.1830882646" />
      <path d="M 0.1859053712,4.203510437 A 0.1250000000000142,0.0697075351129931 0.0 0,1 0.2742916534,4.1830882646" />
      <line x1="0.1859053712" y1="4.203510437" x2="0.0953718439" y2="4.2540082642" />
      <path d="M 0.0587697105,4.3033020162 A 0.1249999999999929,0.06970753511298121 0.0 0,1 0.0587697096,4.3032936267" />
      <path d="M 0.0587697096,4.3032936267 A 0.1249999999999929,0.06970753511298121 0.0 0,1 0.0953718439,4.2540082642" />
      <line x1="0.058791715" y1="4.3019856922" x2="0.058791715" y2="4.4052603328" />
      <line x1="0.0587697104" y1="4.3033020162" x2="0.058791715" y2="4.4052603328" />
      <line x1="0.1291876324" y1="4.2351464801" x2="0.1291876324" y2="4.4210217702" />
      <path d="M 0.1291876325,4.4210217701 A 0.0417544584372544,0.02328480302110873 0.0 0,1 0.058791715,4.4052603328" />
      <line x1="0.1291876324" y1="4.4210217702" x2="0.1860403718" y2="4.3893104264" />
      <path d="M 0.1860403718,4.3893104264 A 0.0434999999999963,0.02425822221931678 0.0 0,1 0.260302829,4.4064617325" />
      <path d="M 0.260302829,4.4064617325 A 0.0434999999999963,0.02425822221931678 0.0 0,1 0.2475652862,4.4236130386" />
      <line x1="0.2475652862" y1="4.4236130386" x2="0.2132743007" y2="4.4427398783" />
      <line x1="0.1849930756" y1="4.4427398783" x2="0.1849930756" y2="4.4585145914" />
      <path d="M 0.1849930756,4.4585145914 A 0.0200000000000031,0.011153205618079356 0.0 0,1 0.1791336881,4.4506272349" />
      <path d="M 0.1791336881,4.4506272349 A 0.0200000000000031,0.011153205618079356 0.0 0,1 0.2132743007,4.4427398783" />
      <line x1="0.1849930756" y1="4.4585145914" x2="0.1029775226" y2="4.5042612595" />
      <line x1="0.0746962974" y1="4.5042612595" x2="0.0746962974" y2="4.5200359727" />
      <path d="M 0.0746962974,4.5200359727 A 0.0200000000000067,0.011153205618081365 0.0 0,1 0.06883691,4.5121486161" />
      <path d="M 0.06883691,4.5121486161 A 0.0200000000000067,0.011153205618081365 0.0 0,1 0.1029775226,4.5042612595" />
      <line x1="0.0746962974" y1="4.5200359727" x2="0.0739892668" y2="4.5204303405" />
      <path d="M 0.0739892668,4.5204303405 A 0.0829999999999984,0.04628580331502126 0.0 0,1 -0.0433904582,4.5204373897" />
      <line x1="-0.0440976411" y1="4.5042717908" x2="-0.0440976411" y2="4.5200431068" />
      <line x1="-0.0433904582" y1="4.5204373897" x2="-0.0440976411" y2="4.5200431068" />
      <path d="M -0.0723849661,4.5042717864 A 0.0200000055914104,0.011153208736185123 0.0 0,1 -0.038241302,4.5121574488" />
      <path d="M -0.038241302,4.5121574488 A 0.0200000055914104,0.011153208736185123 0.0 0,1 -0.0440976412,4.5200431068" />
      <line x1="-0.1544181774" y1="4.4427636585" x2="-0.1544181774" y2="4.4585349745" />
      <line x1="-0.072384966" y1="4.5042717864" x2="-0.1544181774" y2="4.4585349745" />
      <path d="M -0.1827055024,4.4427636541 A 0.0200000055914104,0.011153208736185123 0.0 0,1 -0.1485618383,4.4506493165" />
      <path d="M -0.1485618383,4.4506493165 A 0.0200000055914104,0.011153208736185123 0.0 0,1 -0.1544181774,4.4585349745" />
      <line x1="-0.4938659814" y1="4.2535078668" x2="-0.4938659814" y2="4.2692791828" />
      <line x1="-0.1827055023" y1="4.4427636541" x2="-0.4938659814" y2="4.2692791828" />
      <path d="M -0.5221533063,4.2535078624 A 0.0200000055914104,0.011153208736185123 0.0 0,1 -0.4880096423,4.2613935248" />
      <path d="M -0.4880096423,4.2613935248 A 0.0200000055914104,0.011153208736185123 0.0 0,1 -0.4938659814,4.2692791828" />
      <line x1="-0.6041865177" y1="4.1919997345" x2="-0.6041865177" y2="4.2077710505" />
      <line x1="-0.5221533063" y1="4.2535078625" x2="-0.6041865177" y2="4.2077710505" />
      <path d="M -0.6324738426,4.1919997301 A 0.0200000055914104,0.011153208736185123 0.0 0,1 -0.5983301785,4.1998853925" />
      <path d="M -0.5983301785,4.1998853925 A 0.0200000055914104,0.011153208736185123 0.0 0,1 -0.6041865177,4.2077710505" />
      <line x1="-0.6324738426" y1="4.1919997302" x2="-0.6331810176" y2="4.1916054516" />
      <path d="M -0.6574974754,-4.1418198872 A 0.0829999999999949,0.04628580331501931 0.0 0,1 -0.6331936582,-4.1745453678" />
      <path d="M -0.6331810176,4.1916054516 A 0.0829999999999949,0.04628580331501931 0.0 0,1 -0.6574974754,4.1588729219" />
      <path d="M -0.6574974754,4.1588729219 A 0.0829999999999949,0.04628580331501931 0.0 0,1 -0.6331936582,4.1261474412" />
      <line x1="-0.6324866275" y1="-4.1749397356" x2="-0.6324866275" y2="4.1257530734" />
      <line x1="-0.6331936582" y1="-4.1745453678" x2="-0.6324866276" y2="-4.1749397356" />
      <line x1="-0.6331936582" y1="4.1261474412" x2="-0.6324866276" y2="4.1257530734" />
      <line x1="-0.6042054024" y1="-4.1907144488" x2="-0.6042054024" y2="4.1099783603" />
      <path d="M -0.6042054024,-4.1749397444 A 0.0199999999999991,0.011153205618077125 0.0 0,1 -0.6324866275,-4.1749397356" />
      <path d="M -0.6042054023,4.1099783603 A 0.0199999999999991,0.011153205618077125 0.0 0,1 -0.5983460228,4.1178657125" />
      <path d="M -0.5983460228,4.1178657125 A 0.0199999999999991,0.011153205618077125 0.0 0,1 -0.6324866275,4.1257530734" />
      <line x1="-0.5221898494" y1="-4.2364611169" x2="-0.5221898494" y2="4.0642316922" />
      <line x1="-0.6042054024" y1="-4.1907144488" x2="-0.5221898494" y2="-4.2364611169" />
      <line x1="-0.6042054024" y1="4.1099783603" x2="-0.5221898494" y2="4.0642316921" />
      <line x1="-0.4939086242" y1="-4.25223583" x2="-0.4939086242" y2="4.048456979" />
      <path d="M -0.4939086242,-4.2364611257 A 0.0200000000000063,0.011153205618081143 0.0 0,1 -0.5221898493,-4.2364611169" />
      <path d="M -0.4939086242,4.048456979 A 0.0200000000000063,0.011153205618081143 0.0 0,1 -0.4880492447,4.0563443312" />
      <path d="M -0.4880492447,4.0563443312 A 0.0200000000000063,0.011153205618081143 0.0 0,1 -0.5221898493,4.0642316922" />
      <line x1="-0.1828151474" y1="-4.4257576746" x2="-0.1828151474" y2="3.8749351344" />
      <line x1="-0.4939086242" y1="-4.2522358301" x2="-0.1828151474" y2="-4.4257576746" />
      <line x1="-0.4939086242" y1="4.048456979" x2="-0.1828151474" y2="3.8749351344" />
      <line x1="-0.1545339222" y1="-4.4415323878" x2="-0.1545339222" y2="3.8591604213" />
      <path d="M -0.1545339222,-4.4257576834 A 0.0199999999999991,0.011153205618077125 0.0 0,1 -0.1828151473,-4.4257576746" />
      <path d="M -0.1545339222,3.8591604213 A 0.0199999999999991,0.011153205618077125 0.0 0,1 -0.1486745427,3.8670477735" />
      <path d="M -0.1486745427,3.8670477735 A 0.0199999999999991,0.011153205618077125 0.0 0,1 -0.1828151473,3.8749351345" />
      <line x1="-0.0725183692" y1="-4.4872790559" x2="-0.0725183692" y2="3.8134137532" />
      <line x1="-0.1545339222" y1="-4.4415323878" x2="-0.0725183692" y2="-4.4872790559" />
      <line x1="-0.1545339222" y1="3.8591604213" x2="-0.0725183692" y2="3.8134137532" />
      <line x1="-0.044237144" y1="-4.503053769" x2="-0.044237144" y2="3.79763904" />
      <path d="M -0.044237144,-4.4872790647 A 0.0200000000000027,0.011153205618079134 0.0 0,1 -0.0725183692,-4.4872790559" />
      <path d="M -0.044237144,3.79763904 A 0.0200000000000027,0.011153205618079134 0.0 0,1 -0.0383777645,3.8055263922" />
      <path d="M -0.0383777645,3.8055263922 A 0.0200000000000027,0.011153205618079134 0.0 0,1 -0.0725183692,3.8134137532" />
      <line x1="-0.0442371441" y1="-4.503053769" x2="-0.0435301134" y2="-4.5034481369" />
      <line x1="-0.0442371441" y1="3.79763904" x2="-0.0435301134" y2="3.7972446722" />
      <path d="M -0.0435301134,-4.5034481369 A 0.083000000000002,0.04628580331502327 0.0 0,1 0.0738496116,-4.503455186" />
      <path d="M -0.0435301134,3.7972446722 A 0.083000000000002,0.04628580331502327 0.0 0,1 0.0738496116,3.7972376231" />
      <line x1="0.0745567945" y1="-4.5030609031" x2="0.0745567945" y2="3.797631906" />
      <line x1="0.0738496116" y1="-4.503455186" x2="0.0745567945" y2="-4.5030609031" />
      <line x1="0.0738496116" y1="3.7972376231" x2="0.0745567945" y2="3.797631906" />
      <line x1="0.1028441115" y1="-4.4872895871" x2="0.1028441115" y2="3.8134032219" />
      <path d="M 0.1028441115,-4.4872895871 A 0.0200000000000031,0.011153205618079356 0.0 0,1 0.0745567945,-4.4872895871" />
      <path d="M 0.1028441115,3.8134032219 A 0.0200000000000031,0.011153205618079356 0.0 0,1 0.068700453,3.8055175639" />
      <path d="M 0.068700453,3.8055175639 A 0.0200000000000031,0.011153205618079356 0.0 0,1 0.0745567945,3.797631906" />
      <line x1="0.1848773308" y1="-4.4415527708" x2="0.1848773308" y2="3.8591400382" />
      <line x1="0.1028441115" y1="-4.4872895871" x2="0.1848773308" y2="-4.4415527708" />
      <line x1="0.1028441115" y1="3.8134032219" x2="0.1848773308" y2="3.8591400382" />
      <line x1="0.2131646399" y1="-4.4257814592" x2="0.2131646399" y2="3.8749113498" />
      <path d="M 0.2131646399,-4.4257814592 A 0.0199999944085878,0.01115320249996913 0.0 0,1 0.1848773308,-4.4257814592" />
      <path d="M 0.2131646399,3.8749113498 A 0.0199999944085878,0.01115320249996913 0.0 0,1 0.1790209909,3.867025694" />
      <path d="M 0.1790209909,3.867025694 A 0.0199999944085878,0.01115320249996913 0.0 0,1 0.1848773308,3.8591400382" />
      <line x1="0.5243251348" y1="-4.2522969791" x2="0.5243251348" y2="4.0483958299" />
      <line x1="0.2131646399" y1="-4.4257814592" x2="0.5243251348" y2="-4.2522969791" />
      <line x1="0.2131646399" y1="3.8749113498" x2="0.5243251348" y2="4.0483958299" />
      <path d="M 0.5526124438,-4.2365256676 A 0.0199999944085939,0.011153202499972531 0.0 0,1 0.5243251348,-4.2365256632" />
      <path d="M 0.5526124438,4.0641671415 A 0.0199999944085939,0.011153202499972531 0.0 0,1 0.5184687909,4.0562814879" />
      <path d="M 0.5184687909,4.0562814879 A 0.0199999944085939,0.011153202499972531 0.0 0,1 0.5243251348,4.0483958299" />
      <line x1="-0.0283325616" y1="3.9124146799" x2="-0.028310557" y2="4.0143729965" />
      <path d="M -0.098728479,3.8966532425 A 0.0417544584372667,0.02328480302111559 0.0 0,1 -0.0283325616,3.9124146799" />
      <line x1="-0.455124183" y1="4.0954437815" x2="-0.0987284791" y2="3.8966532425" />
      <line x1="-0.4266762977" y1="4.0795761086" x2="-0.4266762977" y2="4.1345961969" />
      <path d="M -0.4266762977,4.1345961969 A 0.0417544584372643,0.023284803021114252 0.0 0,1 -0.4663678915,4.1113398283" />
      <path d="M -0.4663678915,4.1113398283 A 0.0417544584372643,0.023284803021114252 0.0 0,1 -0.455124183,4.0954437816" />
      <line x1="-0.2438324999" y1="4.1345867481" x2="-0.4266762977" y2="4.1345961969" />
      <path d="M -0.1554462178,4.1141645757 A 0.1250000000000178,0.0697075351129951 0.0 0,1 -0.2438324999,4.1345867481" />
      <line x1="-0.0649126905" y1="4.0636667485" x2="-0.1554462178" y2="4.1141645757" />
      <path d="M -0.028310557,4.0143729965 A 0.1249999999999894,0.06970753511297927 0.0 0,1 -0.0283105561,4.0143813861" />
      <path d="M -0.0283105561,4.0143813861 A 0.1249999999999894,0.06970753511297927 0.0 0,1 -0.0649126905,4.0636667485" />
      <path d="M 0.0877002162,4.1184148039 A 0.1024999999999991,0.05716017879264735 0.0 0,1 0.1177295767,4.1588375064" />
      <path d="M 0.1177295767,4.1588375064 A 0.10250000000000002,0.057160178792647856 0.0 0,1 -0.0872704233,4.1588375064" />
      <path d="M -0.0872704233,4.1588375064 A 0.1024999999999991,0.05716017879264735 0.0 0,1 0.0877002162,4.1184148039" />
      <line x1="-0.4266574196" y1="4.1831303807" x2="-0.2438251109" y2="4.1831181096" />
      <line x1="-0.4549209303" y1="4.1903856851" x2="-0.4549209303" y2="4.2223873877" />
      <path d="M -0.4549209303,4.2223873878 A 0.0417544584372616,0.023284803021112747 0.0 0,1 -0.4663413099,4.2063865364" />
      <path d="M -0.4663413099,4.2063865364 A 0.0417544584372616,0.023284803021112747 0.0 0,1 -0.4266574195,4.1831303807" />
      <line x1="-0.098448458" y1="4.2352998553" x2="-0.098448458" y2="4.4211351161" />
      <line x1="-0.098448458" y1="4.4211351161" x2="-0.4549209304" y2="4.2223873877" />
      <path d="M -0.0282400951,4.4052708604 A 0.0417544584372593,0.023284803021111463 0.0 0,1 -0.098448458,4.4211351161" />
      <line x1="-0.0282570388" y1="4.3033061368" x2="-0.0282400951" y2="4.4052708604" />
      <path d="M -0.0648782096,4.2540166178 A 0.1249999999999861,0.06970753511297742 0.0 0,1 -0.0282570388,4.3033061368" />
      <line x1="-0.155431238" y1="4.2035296656" x2="-0.0648782096" y2="4.2540166178" />
      <path d="M -0.2438251109,4.1831181096 A 0.1249999999999743,0.06970753511297084 0.0 0,1 -0.155431238,4.2035296656" />
      <line x1="0.457116573" y1="4.0795295819" x2="0.457116573" y2="4.1345446321" />
      <line x1="0.457116573" y1="4.1345446321" x2="0.2742842643" y2="4.1345569032" />
      <path d="M 0.4853800837,4.095287625 A 0.0417544584372564,0.023284803021109846 0.0 0,1 0.4968004634,4.1112884763" />
      <path d="M 0.4968004634,4.1112884763 A 0.0417544584372564,0.023284803021109846 0.0 0,1 0.457116573,4.1345446321" />
      <line x1="0.1289076115" y1="3.8965398966" x2="0.4853800837" y2="4.095287625" />
      <path d="M 0.0586992486,3.9124041523 A 0.0417544584372522,0.023284803021107504 0.0 0,1 0.1289076115,3.8965398966" />
      <line x1="0.0587161922" y1="4.0143688759" x2="0.0586992486" y2="3.9124041523" />
      <path d="M 0.0953373631,4.0636583948 A 0.1250000000000439,0.06970753511300966 0.0 0,1 0.0587161922,4.0143688759" />
      <line x1="0.1858903914" y1="4.1141453471" x2="0.0953373631" y2="4.0636583948" />
      <path d="M 0.2742842643,4.1345569031 A 0.1250000000000249,0.06970753511299906 0.0 0,1 0.1858903914,4.1141453471" />
      <line x1="0.663640171" y1="-4.174623248" x2="0.663640171" y2="4.1260695611" />
      <line x1="0.4285518776" y1="4.1830802929" x2="0.4285518776" y2="4.2540422612" />
      <line x1="0.0587697105" y1="4.3032852659" x2="0.0587697105" y2="4.3033020162" />
      <line x1="0.1860403718" y1="4.2034352512" x2="0.1860403718" y2="4.3893104264" />
      <line x1="-0.6331936582" y1="-4.1745453678" x2="-0.6331936582" y2="4.1261474412" />
      <line x1="-0.0435301134" y1="-4.5034481369" x2="-0.0435301134" y2="3.7972446722" />
      <line x1="0.0738496116" y1="-4.503455186" x2="0.0738496116" y2="3.7972376231" />
      <line x1="-0.2438324999" y1="3.9775894216" x2="-0.2438324999" y2="4.1345867481" />
      <line x1="-0.1554462178" y1="3.9282892856" x2="-0.1554462178" y2="4.1141645757" />
      <line x1="-0.0649126905" y1="3.8904604733" x2="-0.0649126905" y2="4.0636667485" />
      <line x1="0.2742842643" y1="3.9775932226" x2="0.2742842643" y2="4.1345569031" />
      <line x1="0.0587161922" y1="3.9122268367" x2="0.0587161922" y2="4.0143688759" />
      <line x1="0.0953373631" y1="3.8904417012" x2="0.0953373631" y2="4.0636583948" />
      <line x1="0.1858903914" y1="3.9283100863" x2="0.1858903914" y2="4.1141453471" />
      <line x1="0.6879566288" y1="4.1588020908" x2="0.6879566288" y2="-4.1418907182" />
      <line x1="0.4158143348" y1="4.2711935673" x2="0.4158143348" y2="4.1830809511" />
      <line x1="0.260302829" y1="4.4064617325" x2="0.260302829" y2="4.1835268753" />
      <line x1="-0.6574974754" y1="4.1588729219" x2="-0.6574974754" y2="-4.1418198872" />
      <line x1="-0.0283105561" y1="4.0143813861" x2="-0.0283105561" y2="4.0143729965" />
    </g>
  </g>
</svg>