<?xml version='1.0' encoding='utf-8'?>
<svg width="513.0mm" height="296.6033378253mm" viewBox="-10.01953125 -5.7930339419 20.0390625 11.5860678838" version="1.1" xmlns="http://www.w3.org/2000/svg">
  <g transform="scale(1,-1)" stroke-linecap="round">
    <g fill="none" stroke="rgb(64,192,64)" stroke-width="0.0390625" id="Visible">
      <path d="M 7.0710678119,-4.0824829046 A 10.0,5.773502691896258 0.0 0,1 -7.0710678119,4.0824829046 A 10.0,5.773502691896258 0.0 0,1 7.0710678119,-4.0824829046" />
      <path d="M -9.5915451773,-1.0107358889 A 9.749999999999998,5.629165124598851 9.738420085757378e-16 0,1 -9.4743643702,-1.3290246775" />
      <path d="M -9.5101053054,-0.9434682613 A 0.09999999999999998,0.057735026918962574 9.738420085757378e-16 0,1 -9.5915451773,-1.0107358889" />
      <line x1="-9.5101053054" y1="-0.9434682613" x2="-9.2144221018" y2="-0.9141344412" />
      <path d="M -9.0991183049,-0.9606501399 A 0.09999999999999998,0.057735026918962574 9.738420085757378e-16 0,1 -9.2144221018,-0.9141344412" />
      <path d="M -9.0991183049,-0.9606501399 A 9.249999999999998,5.340489990004038 9.738420085757378e-16 0,1 -8.9892252019,-1.2591439246" />
      <path d="M -9.0617906856,-1.328714864 A 0.09999999999999998,0.057735026918962574 9.738420085757378e-16 0,1 -8.9892252019,-1.2591439246" />
      <line x1="-9.352576073" y1="-1.3713522279" x2="-9.0617906856" y2="-1.328714864" />
      <path d="M -9.4743643702,-1.3290246775 A 0.09999999999999998,0.057735026918962574 9.738420085757378e-16 0,1 -9.352576073,-1.3713522279" />
      <path d="M -9.7219940162,-0.426353667 A 9.749999999999998,5.629165124598851 -1.7042235150075414e-15 0,1 -9.6630808804,-0.7499706438" />
      <path d="M -9.62882157,-0.3643693971 A 0.09999999999999998,0.057735026918962574 -1.7042235150075414e-15 0,1 -9.7219940162,-0.426353667" />
      <line x1="-9.62882157" y1="-0.3643693971" x2="-9.3294473026" y2="-0.353040615" />
      <path d="M -9.2231967545,-0.4062600265 A 0.09999999999999998,0.057735026918962574 -1.7042235150075414e-15 0,1 -9.3294473026,-0.353040615" />
      <path d="M -9.2231967545,-0.4062600265 A 9.249999999999998,5.340489990004038 -1.7042235150075414e-15 0,1 -9.1679475421,-0.7097506289" />
      <path d="M -9.2527112263,-0.7745611581 A 0.09999999999999998,0.057735026918962574 -1.7042235150075414e-15 0,1 -9.1679475421,-0.7097506289" />
      <line x1="-9.5496230963" y1="-0.7994161867" x2="-9.2527112263" y2="-0.7745611581" />
      <path d="M -9.6630808804,-0.7499706438 A 0.09999999999999998,0.057735026918962574 -1.7042235150075414e-15 0,1 -9.5496230963,-0.7994161867" />
      <path d="M -9.6630808804,0.7499706438 A 9.749999999999998,5.629165124598851 -9.738420085757378e-16 0,1 -9.7219940162,0.426353667" />
      <path d="M -9.5496230963,0.7994161867 A 0.09999999999999998,0.057735026918962574 -9.738420085757378e-16 0,1 -9.6630808804,0.7499706438" />
      <line x1="-9.5496230963" y1="0.7994161867" x2="-9.2527112263" y2="0.7745611581" />
      <path d="M -9.1679475421,0.7097506289 A 0.09999999999999998,0.057735026918962574 -9.738420085757378e-16 0,1 -9.2527112263,0.7745611581" />
      <path d="M -9.1679475421,0.7097506289 A 9.249999999999998,5.340489990004038 -9.738420085757378e-16 0,1 -9.2231967545,0.4062600265" />
      <path d="M -9.3294473026,0.353040615 A 0.09999999999999998,0.057735026918962574 -9.738420085757378e-16 0,1 -9.2231967545,0.4062600265" />
      <line x1="-9.62882157" y1="0.3643693971" x2="-9.3294473026" y2="0.353040615" />
      <path d="M -9.7219940162,0.426353667 A 0.09999999999999998,0.057735026918962574 -9.738420085757378e-16 0,1 -9.62882157,0.3643693971" />
      <path d="M -9.4743643702,1.3290246775 A 9.750000000000002,5.6291651245988525 0.0 0,1 -9.5915451773,1.0107358889" />
      <path d="M -9.352576073,1.3713522279 A 0.10000000000000003,0.0577350269189626 0.0 0,1 -9.4743643702,1.3290246775" />
      <line x1="-9.352576073" y1="1.3713522279" x2="-9.0617906856" y2="1.328714864" />
      <path d="M -8.9892252019,1.2591439246 A 0.10000000000000003,0.0577350269189626 0.0 0,1 -9.0617906856,1.328714864" />
      <path d="M -8.9892252019,1.2591439246 A 9.250000000000002,5.34048999000404 0.0 0,1 -9.0991183049,0.9606501399" />
      <path d="M -9.2144221018,0.9141344412 A 0.10000000000000003,0.0577350269189626 0.0 0,1 -9.0991183049,0.9606501399" />
      <line x1="-9.5101053054" y1="0.9434682613" x2="-9.2144221018" y2="0.9141344412" />
      <path d="M -9.5915451773,1.0107358889 A 0.10000000000000003,0.0577350269189626 0.0 0,1 -9.5101053054,0.9434682613" />
      <path d="M -9.7459266542,0.1626997748 A 9.749999999999998,5.629165124598851 1.7042235150075414e-15 0,1 -9.7459266542,-0.1626997748" />
      <path d="M -9.6420424506,0.2187215744 A 0.09999999999999998,0.057735026918962574 1.7042235150075414e-15 0,1 -9.7459266542,0.1626997748" />
      <line x1="-9.6420424506" y1="0.2187215744" x2="-9.3422571265" y2="0.211921198" />
      <path d="M -9.2462239304,0.1525811567 A 0.09999999999999998,0.057735026918962574 1.7042235150075414e-15 0,1 -9.3422571265,0.211921198" />
      <path d="M -9.2462239304,0.1525811567 A 9.249999999999998,5.340489990004038 1.7042235150075414e-15 0,1 -9.2462239304,-0.1525811567" />
      <path d="M -9.3422571265,-0.211921198 A 0.09999999999999998,0.057735026918962574 1.7042235150075414e-15 0,1 -9.2462239304,-0.1525811567" />
      <line x1="-9.6420424506" y1="-0.2187215744" x2="-9.3422571265" y2="-0.211921198" />
      <path d="M -9.7459266542,-0.1626997748 A 0.09999999999999998,0.057735026918962574 1.7042235150075414e-15 0,1 -9.6420424506,-0.2187215744" />
      <path d="M -8.5811222041,-2.6725045505 A 9.750000000000002,5.6291651245988525 3.895368034302951e-15 0,1 -8.2993179278,-2.9543088268" />
      <path d="M -8.5396721464,-2.5939994624 A 0.10000000000000003,0.0577350269189626 3.895368034302951e-15 0,1 -8.5811222041,-2.6725045505" />
      <line x1="-8.5396721464" y1="-2.5939994624" x2="-8.2741611413" y2="-2.5133481923" />
      <path d="M -8.1396039707,-2.5370157798 A 0.10000000000000003,0.0577350269189626 3.895368034302951e-15 0,1 -8.2741611413,-2.5133481923" />
      <path d="M -8.1396039707,-2.5370157798 A 9.250000000000002,5.34048999000404 3.895368034302951e-15 0,1 -7.875325655,-2.8012940955" />
      <path d="M -7.9071028591,-2.8804064745 A 0.10000000000000003,0.0577350269189626 3.895368034302951e-15 0,1 -7.875325655,-2.8012940955" />
      <line x1="-8.1608352667" y1="-2.972836342" x2="-7.9071028591" y2="-2.8804064745" />
      <path d="M -8.2993179278,-2.9543088268 A 0.10000000000000003,0.0577350269189626 3.895368034302951e-15 0,1 -8.1608352667,-2.972836342" />
      <path d="M -9.0179671508,-2.1399975441 A 9.75,5.629165124598852 -1.9476840171514755e-15 0,1 -8.7887269002,-2.4372648245" />
      <path d="M -8.9625309238,-2.0644240068 A 0.1,0.05773502691896259 -1.9476840171514755e-15 0,1 -9.0179671508,-2.1399975441" />
      <line x1="-8.9625309238" y1="-2.0644240068" x2="-8.6838726155" y2="-2.0002380189" />
      <path d="M -8.554337547,-2.0318964157 A 0.1,0.05773502691896259 -1.9476840171514755e-15 0,1 -8.6838726155,-2.0002380189" />
      <path d="M -8.554337547,-2.0318964157 A 9.25,5.3404899900040395 -1.9476840171514755e-15 0,1 -8.339354197,-2.310676061" />
      <path d="M -8.3852805085,-2.3874373146 A 0.1,0.05773502691896259 -1.9476840171514755e-15 0,1 -8.339354197,-2.310676061" />
      <line x1="-8.6543572424" y1="-2.4640482085" x2="-8.3852805085" y2="-2.3874373146" />
      <path d="M -8.7887269002,-2.4372648245 A 0.1,0.05773502691896259 -1.9476840171514755e-15 0,1 -8.6543572424,-2.4640482085" />
      <path d="M -9.3560093623,-1.5840442768 A 9.749999999999996,5.629165124598849 -3.895368034302951e-15 0,1 -9.1818447414,-1.8935176388" />
      <path d="M -9.2871943369,-1.5122302898 A 0.09999999999999998,0.05773502691896256 -3.895368034302951e-15 0,1 -9.3560093623,-1.5840442768" />
      <line x1="-9.2871943369" y1="-1.5122302898" x2="-8.9984417642" y2="-1.4652128192" />
      <path d="M -8.875348011,-1.5045151693 A 0.09999999999999998,0.05773502691896256 -3.895368034302951e-15 0,1 -8.9984417642,-1.4652128192" />
      <path d="M -8.875348011,-1.5045151693 A 9.249999999999996,5.340489990004036 -3.895368034302951e-15 0,1 -8.7120150294,-1.794741776" />
      <path d="M -8.7715872699,-1.8683108919 A 0.09999999999999998,0.05773502691896256 -3.895368034302951e-15 0,1 -8.7120150294,-1.794741776" />
      <line x1="-9.0530602691" y1="-1.9282634471" x2="-8.7715872699" y2="-1.8683108919" />
      <path d="M -9.1818447414,-1.8935176388 A 0.09999999999999998,0.05773502691896256 -3.895368034302951e-15 0,1 -9.0530602691,-1.9282634471" />
      <line x1="-8.2987578711" y1="-1.3585369332" x2="-8.5402393277" y2="-1.3958942446" />
      <path d="M -8.5402393277,-1.3958942446 A 0.1250000000397083,0.07216878367162881 180.0 0,0 -8.604944089,-1.2564748606" />
      <line x1="-8.604944089" y1="-1.2564748606" x2="-8.3634626324" y2="-1.2191175493" />
      <path d="M -8.3634626324,-1.2191175493 A 0.12499999999999996,0.07216878364870319 180.0 0,0 -8.2987578711,-1.3585369332" />
      <path d="M -8.0502606869,-3.1757310378 A 9.750000000000002,5.6291651245988525 -1.9476840171514763e-15 0,1 -7.7189798916,-3.4389848034" />
      <path d="M -8.0232509339,-3.095154517 A 0.10000000000000003,0.0577350269189626 -1.9476840171514763e-15 0,1 -8.0502606869,-3.1757310378" />
      <line x1="-8.0232509339" y1="-3.095154517" x2="-7.7737962262" y2="-2.998921597" />
      <path d="M -7.63569119,-3.014339068 A 0.10000000000000003,0.0577350269189626 -1.9476840171514763e-15 0,1 -7.7737962262,-2.998921597" />
      <path d="M -7.63569119,-3.014339068 A 9.250000000000002,5.34048999000404 -1.9476840171514763e-15 0,1 -7.3250133971,-3.2612205656" />
      <path d="M -7.3422933361,-3.3418172983 A 0.10000000000000003,0.0577350269189626 -1.9476840171514763e-15 0,1 -7.3250133971,-3.2612205656" />
      <line x1="-7.5779014721" y1="-3.4490534585" x2="-7.3422933361" y2="-3.3418172983" />
      <path d="M -7.7189798916,-3.4389848034 A 0.10000000000000003,0.0577350269189626 -1.9476840171514763e-15 0,1 -7.5779014721,-3.4490534585" />
      <path d="M -7.4311988289,-3.6441635513 A 9.749999999999996,5.62916512459885 0.0 0,1 -7.0540710963,-3.8859825428" />
      <path d="M -7.4189253052,-3.562398411 A 0.09999999999999998,0.057735026918962574 0.0 0,1 -7.4311988289,-3.6441635513" />
      <line x1="-7.4189253052" y1="-3.562398411" x2="-7.1882599728" y2="-3.451638189" />
      <path d="M -7.0481201787,-3.4586366267 A 0.09999999999999998,0.057735026918962574 0.0 0,1 -7.1882599728,-3.451638189" />
      <path d="M -7.0481201787,-3.4586366267 A 9.249999999999996,5.340489990004037 0.0 0,1 -6.6944467595,-3.6854164208" />
      <path d="M -6.6970401109,-3.7666144725 A 0.09999999999999998,0.057735026918962574 0.0 0,1 -6.6944467595,-3.6854164208" />
      <line x1="-6.9119426032" y1="-3.8874820236" x2="-6.6970401109" y2="-3.7666144725" />
      <path d="M -7.0540710963,-3.8859825428 A 0.09999999999999998,0.057735026918962574 0.0 0,1 -6.9119426032,-3.8874820236" />
      <line x1="-6.0104076401" y1="-3.5721725416" x2="-6.1871843354" y2="-3.6742346142" />
      <path d="M -6.1871843354,-3.6742346142 A 0.125,0.07216878364870322 180.0 0,0 -6.3639610307,-3.5721725416" />
      <line x1="-6.3639610307" y1="-3.5721725416" x2="-6.1871843354" y2="-3.4701104689" />
      <path d="M -6.1871843354,-3.4701104689 A 0.1250000000526489,0.07216878367910008 180.0 0,0 -6.0104076401,-3.5721725416" />
      <path d="M -7.8525883294,-1.2740367066 Q -7.6646767739,-1.1704297491 -7.4021443917,-1.1015328666 Q -7.1396120095,-1.0326359841 -6.869526912,-1.0148448904" />
      <line x1="-6.869526912" y1="-1.0148448904" x2="-7.2556217157" y2="-0.7919329515" />
      <line x1="-7.2556217157" y1="-0.7919329515" x2="-7.0979210213" y2="-0.7008844131" />
      <line x1="-7.0979210213" y1="-0.7008844131" x2="-6.5172682726" y2="-1.0361244338" />
      <line x1="-6.5172682726" y1="-1.0361244338" x2="-6.6405285855" y2="-1.1072888087" />
      <path d="M -6.6405285855,-1.1072888087 Q -6.7831238495,-1.1065911187 -6.9897661388,-1.1400802363 Q -7.1964084282,-1.1735693539 -7.3843199837,-1.2370591393 Q -7.5722315392,-1.3005489247 -7.6888454627,-1.3685736948" />
      <line x1="-7.6888454627" y1="-1.3685736948" x2="-7.8525883294" y2="-1.2740367066" />
      <path d="M -9.1818447414,1.8935176388 A 9.75,5.629165124598852 1.9476840171514755e-15 0,1 -9.3560093623,1.5840442768" />
      <path d="M -9.0530602691,1.9282634471 A 0.1,0.05773502691896259 1.9476840171514755e-15 0,1 -9.1818447414,1.8935176388" />
      <line x1="-9.0530602691" y1="1.9282634471" x2="-8.7715872699" y2="1.8683108919" />
      <path d="M -8.7120150294,1.794741776 A 0.1,0.05773502691896259 1.9476840171514755e-15 0,1 -8.7715872699,1.8683108919" />
      <path d="M -8.7120150294,1.794741776 A 9.25,5.3404899900040395 1.9476840171514755e-15 0,1 -8.875348011,1.5045151693" />
      <path d="M -8.9984417642,1.4652128192 A 0.1,0.05773502691896259 1.9476840171514755e-15 0,1 -8.875348011,1.5045151693" />
      <line x1="-9.2871943369" y1="1.5122302898" x2="-8.9984417642" y2="1.4652128192" />
      <path d="M -9.3560093623,1.5840442768 A 0.1,0.05773502691896259 1.9476840171514755e-15 0,1 -9.2871943369,1.5122302898" />
      <line x1="-8.3634626324" y1="1.2191175493" x2="-8.604944089" y2="1.2564748606" />
      <path d="M -8.604944089,1.2564748606 A 0.1250000000397083,0.07216878367162882 180.0 0,0 -8.5402393277,1.3958942446" />
      <line x1="-8.5402393277" y1="1.3958942446" x2="-8.2987578711" y2="1.3585369332" />
      <path d="M -8.2987578711,1.3585369332 A 0.12500000000000003,0.07216878364870324 180.0 0,0 -8.3634626324,1.2191175493" />
      <path d="M -8.7887269002,2.4372648245 A 9.750000000000004,5.629165124598854 1.9476840171514755e-15 0,1 -9.0179671508,2.1399975441" />
      <path d="M -8.6543572424,2.4640482085 A 0.10000000000000005,0.05773502691896261 1.9476840171514755e-15 0,1 -8.7887269002,2.4372648245" />
      <line x1="-8.6543572424" y1="2.4640482085" x2="-8.3852805085" y2="2.3874373146" />
      <path d="M -8.339354197,2.310676061 A 0.10000000000000005,0.05773502691896261 1.9476840171514755e-15 0,1 -8.3852805085,2.3874373146" />
      <path d="M -8.339354197,2.310676061 A 9.250000000000004,5.340489990004041 1.9476840171514755e-15 0,1 -8.554337547,2.0318964157" />
      <path d="M -8.6838726155,2.0002380189 A 0.10000000000000005,0.05773502691896261 1.9476840171514755e-15 0,1 -8.554337547,2.0318964157" />
      <line x1="-8.9625309238" y1="2.0644240068" x2="-8.6838726155" y2="2.0002380189" />
      <path d="M -9.0179671508,2.1399975441 A 0.10000000000000005,0.05773502691896261 1.9476840171514755e-15 0,1 -8.9625309238,2.0644240068" />
      <path d="M -8.2993179278,2.9543088268 A 9.750000000000002,5.6291651245988525 0.0 0,1 -8.5811222041,2.6725045505" />
      <path d="M -8.1608352667,2.972836342 A 0.10000000000000003,0.0577350269189626 0.0 0,1 -8.2993179278,2.9543088268" />
      <line x1="-8.1608352667" y1="2.972836342" x2="-7.9071028591" y2="2.8804064745" />
      <path d="M -7.875325655,2.8012940955 A 0.10000000000000003,0.0577350269189626 0.0 0,1 -7.9071028591,2.8804064745" />
      <path d="M -7.875325655,2.8012940955 A 9.250000000000002,5.34048999000404 0.0 0,1 -8.1396039707,2.5370157798" />
      <path d="M -8.2741611413,2.5133481923 A 0.10000000000000003,0.0577350269189626 0.0 0,1 -8.1396039707,2.5370157798" />
      <line x1="-8.5396721464" y1="2.5939994624" x2="-8.2741611413" y2="2.5133481923" />
      <path d="M -8.5811222041,2.6725045505 A 0.10000000000000003,0.0577350269189626 0.0 0,1 -8.5396721464,2.5939994624" />
      <path d="M -7.8299301836,1.0094377933 C -7.8432229624,1.0747880852 -7.806365712,1.1325800694 -7.7193584323,1.1828137457 C -7.6245593426,1.2368918958 -7.4913041207,1.262343221 -7.3465564074,1.2271170575" />
      <path d="M -7.3465564074,1.2271170575 C -7.3991360206,1.2988846207 -7.3646702089,1.3610517478 -7.2891557715,1.4053768396 C -7.2230946887,1.4435172235 -7.1454527759,1.461715303 -7.0562300331,1.4599710782 C -6.9670072902,1.4582268533 -6.8798993076,1.432819311 -6.7949060853,1.3837484512 C -6.6247684636,1.2891535045 -6.6270848752,1.17205751 -6.7574446176,1.0983932618 C -6.8380445676,1.051132048 -6.9529719373,1.0378613784 -7.0625743139,1.0631599194" />
      <path d="M -7.0625743139,1.0631599194 C -7.0030714573,0.9843864167 -7.0312431817,0.907160754 -7.1296424253,0.8507133297 C -7.2114131558,0.8035029765 -7.3039590934,0.780188504 -7.407280238,0.7807699123 C -7.5106013827,0.7813513206 -7.6055641891,0.8066425813 -7.6921686574,0.8566436943 C -7.7727309534,0.9031563576 -7.8186514621,0.9540877239 -7.8299301836,1.0094377933" />
      <path d="M -7.7189798916,3.4389848034 A 9.750000000000004,5.629165124598854 1.9476840171514755e-15 0,1 -8.0502606869,3.1757310378" />
      <path d="M -7.5779014721,3.4490534585 A 0.10000000000000005,0.05773502691896261 1.9476840171514755e-15 0,1 -7.7189798916,3.4389848034" />
      <line x1="-7.5779014721" y1="3.4490534585" x2="-7.3422933361" y2="3.3418172983" />
      <path d="M -7.3250133971,3.2612205656 A 0.10000000000000005,0.05773502691896261 1.9476840171514755e-15 0,1 -7.3422933361,3.3418172983" />
      <path d="M -7.3250133971,3.2612205656 A 9.250000000000004,5.340489990004041 1.9476840171514755e-15 0,1 -7.63569119,3.014339068" />
      <path d="M -7.7737962262,2.998921597 A 0.10000000000000005,0.05773502691896261 1.9476840171514755e-15 0,1 -7.63569119,3.014339068" />
      <line x1="-8.0232509339" y1="3.095154517" x2="-7.7737962262" y2="2.998921597" />
      <path d="M -8.0502606869,3.1757310378 A 0.10000000000000005,0.05773502691896261 1.9476840171514755e-15 0,1 -8.0232509339,3.095154517" />
      <path d="M -7.0540710963,3.8859825428 A 9.75,5.629165124598851 0.0 0,1 -7.4311988289,3.6441635513" />
      <path d="M -6.9119426032,3.8874820236 A 0.1,0.057735026918962574 0.0 0,1 -7.0540710963,3.8859825428" />
      <line x1="-6.9119426032" y1="3.8874820236" x2="-6.6970401109" y2="3.7666144725" />
      <path d="M -6.6944467595,3.6854164208 A 0.1,0.057735026918962574 0.0 0,1 -6.6970401109,3.7666144725" />
      <path d="M -6.6944467595,3.6854164208 A 9.25,5.340489990004038 0.0 0,1 -7.0481201787,3.4586366267" />
      <path d="M -7.1882599728,3.451638189 A 0.1,0.057735026918962574 0.0 0,1 -7.0481201787,3.4586366267" />
      <line x1="-7.4189253052" y1="3.562398411" x2="-7.1882599728" y2="3.451638189" />
      <path d="M -7.4311988289,3.6441635513 A 0.1,0.057735026918962574 0.0 0,1 -7.4189253052,3.562398411" />
      <path d="M -6.7307192014,-4.0726698463 A 9.75,5.629165124598851 -3.895368034302951e-15 0,1 -6.311876422,-4.2904046442" />
      <path d="M -6.7333163783,-3.9906119226 A 0.1,0.057735026918962574 -3.895368034302951e-15 0,1 -6.7307192014,-4.0726698463" />
      <line x1="-6.7333163783" y1="-3.9906119226" x2="-6.5239676389" y2="-3.8665379108" />
      <path d="M -6.3833284879,-3.8650406387 A 0.1,0.057735026918962574 -3.895368034302951e-15 0,1 -6.5239676389,-3.8665379108" />
      <path d="M -6.3833284879,-3.8650406387 A 9.25,5.340489990004038 -3.895368034302951e-15 0,1 -5.9905343623,-4.0692340825" />
      <path d="M -5.9784127127,-4.1501438303 A 0.1,0.057735026918962574 -3.895368034302951e-15 0,1 -5.9905343623,-4.0692340825" />
      <line x1="-6.1702550447" y1="-4.283318522" x2="-5.9784127127" y2="-4.1501438303" />
      <path d="M -6.311876422,-4.2904046442 A 0.1,0.057735026918962574 -3.895368034302951e-15 0,1 -6.1702550447,-4.283318522" />
      <path d="M -5.9564964059,-4.4565551183 A 9.749999999999996,5.62916512459885 0.0 0,1 -5.5005275087,-4.6478201746" />
      <path d="M -5.9739358282,-4.3751034548 A 0.09999999999999998,0.057735026918962574 0.0 0,1 -5.9564964059,-4.4565551183" />
      <line x1="-5.9739358282" y1="-4.3751034548" x2="-5.7881973503" y2="-4.2390750341" />
      <path d="M -5.6485997144,-4.2290984566 A 0.09999999999999998,0.057735026918962574 0.0 0,1 -5.7881973503,-4.2390750341" />
      <path d="M -5.6485997144,-4.2290984566 A 9.249999999999996,5.340489990004037 0.0 0,1 -5.2209884171,-4.408468364" />
      <path d="M -5.1942845739,-4.4882033438 A 0.09999999999999998,0.057735026918962574 0.0 0,1 -5.2209884171,-4.408468364" />
      <line x1="-5.3609648807" y1="-4.6322260865" x2="-5.1942845739" y2="-4.4882033438" />
      <path d="M -5.5005275087,-4.6478201746 A 0.09999999999999998,0.057735026918962574 0.0 0,1 -5.3609648807,-4.6322260865" />
      <path d="M -5.3600972776,-2.9561621511 C -5.2678534486,-2.9517434481 -5.1903122387,-2.9676740353 -5.1274736478,-3.0039539127 C -5.0565788273,-3.0448850564 -5.0228433658,-3.0955257185 -5.0262672634,-3.1558758992 C -5.029691161,-3.2162260798 -5.0741011267,-3.2710528817 -5.1594971605,-3.3203563048 C -5.2501297435,-3.372683051 -5.3494227734,-3.3993115507 -5.4573762501,-3.400241804 C -5.5653297267,-3.4011720573 -5.6609974533,-3.3775668806 -5.7443794297,-3.3294262741 C -5.8338035783,-3.2777972179 -5.8725741832,-3.2152958265 -5.8606912446,-3.1419221002 C -5.8488083059,-3.0685483738 -5.7637143807,-2.986162819 -5.605409469,-2.8947654356 C -5.4430764425,-2.801042419 -5.2960502523,-2.7508087426 -5.1643308982,-2.7440644065 C -5.0326115442,-2.7373200703 -4.9188173011,-2.7616229369 -4.8229481688,-2.8169730062 C -4.6892274023,-2.8935225968 -4.6720826246,-2.9938011489 -4.7921330906,-3.0894209315" />
      <line x1="-4.7921330906" y1="-3.0894209315" x2="-4.9746066911" y2="-3.0050004476" />
      <path d="M -4.9746066911,-3.0050004476 C -4.9142982115,-2.9613875657 -4.9195096816,-2.9226802936 -4.9727940394,-2.8916258308 C -5.0086442612,-2.8709276956 -5.0550682842,-2.8627298387 -5.1120661087,-2.8670322601 C -5.1690639331,-2.8713346814 -5.2517409894,-2.9010446451 -5.3600972776,-2.9561621511" />
      <path d="M -5.1170129893,-4.7916134397 A 9.750000000000002,5.6291651245988525 0.0 0,1 -4.6289136649,-4.9543132145" />
      <path d="M -5.149103587,-4.7116604381 A 0.10000000000000003,0.0577350269189626 0.0 0,1 -5.1170129893,-4.7916134397" />
      <line x1="-5.149103587" y1="-4.7116604381" x2="-4.9890103603" y2="-4.5651679642" />
      <path d="M -4.8519837003,-4.5468213869 A 0.10000000000000003,0.0577350269189626 0.0 0,1 -4.9890103603,-4.5651679642" />
      <path d="M -4.8519837003,-4.5468213869 A 9.250000000000002,5.34048999000404 0.0 0,1 -4.3942402302,-4.6994025436" />
      <path d="M -4.3532467662,-4.7770891623 A 0.10000000000000003,0.0577350269189626 0.0 0,1 -4.3942402302,-4.6994025436" />
      <line x1="-4.4929388636" y1="-4.9303820125" x2="-4.3532467662" y2="-4.7770891623" />
      <path d="M -4.6289136649,-4.9543132145 A 0.10000000000000003,0.0577350269189626 0.0 0,1 -4.4929388636,-4.9303820125" />
      <path d="M -4.2214665076,-5.0741738416 A 9.750000000000002,5.6291651245988525 -3.895368034302951e-15 0,1 -3.7065844745,-5.2065257621" />
      <path d="M -4.2678566893,-4.9965954836 A 0.10000000000000003,0.0577350269189626 -3.895368034302951e-15 0,1 -4.2214665076,-5.0741738416" />
      <line x1="-4.2678566893" y1="-4.9965954836" x2="-4.1351627288" y2="-4.8412439588" />
      <path d="M -4.0022083375,-4.8147283905 A 0.10000000000000003,0.0577350269189626 -3.895368034302951e-15 0,1 -4.1351627288,-4.8412439588" />
      <path d="M -4.0022083375,-4.8147283905 A 9.250000000000002,5.34048999000404 -3.895368034302951e-15 0,1 -3.5193478277,-4.9388490855" />
      <path d="M -3.464513876,-5.0136361922 A 0.10000000000000003,0.0577350269189626 -3.895368034302951e-15 0,1 -3.5193478277,-4.9388490855" />
      <line x1="-3.5756872681" y1="-5.1745196415" x2="-3.464513876" y2="-5.0136361922" />
      <path d="M -3.7065844745,-5.2065257621 A 0.10000000000000003,0.0577350269189626 -3.895368034302951e-15 0,1 -3.5756872681,-5.1745196415" />
      <path d="M -3.2796687554,-5.3011405331 A 9.750000000000002,5.6291651245988525 -1.9476840171514755e-15 0,1 -2.7436451688,-5.4016945239" />
      <path d="M -3.3398502607,-5.2267867834 A 0.10000000000000003,0.0577350269189626 -1.9476840171514755e-15 0,1 -3.2796687554,-5.3011405331" />
      <line x1="-3.3398502607" y1="-5.2267867834" x2="-3.236009389" y2="-5.0642782715" />
      <path d="M -3.1085839426,-5.0298842224 A 0.10000000000000003,0.0577350269189626 -1.9476840171514755e-15 0,1 -3.236009389,-5.0642782715" />
      <path d="M -3.1085839426,-5.0298842224 A 9.250000000000002,5.34048999000404 -1.9476840171514755e-15 0,1 -2.605896714,-5.1241845633" />
      <path d="M -2.5378230468,-5.1952527748 A 0.10000000000000003,0.0577350269189626 -1.9476840171514755e-15 0,1 -2.605896714,-5.1241845633" />
      <line x1="-2.6192596947" y1="-5.3619641504" x2="-2.5378230468" y2="-5.1952527748" />
      <path d="M -2.7436451688,-5.4016945239 A 0.10000000000000003,0.0577350269189626 -1.9476840171514755e-15 0,1 -2.6192596947,-5.3619641504" />
      <line x1="-2.1115735357" y1="-4.8286474022" x2="-2.176278297" y2="-4.9680667861" />
      <path d="M -2.176278297,-4.9680667861 A 0.12500000000435274,0.07216878365121629 180.0 0,0 -2.4177597536,-4.9307094748" />
      <line x1="-2.4177597536" y1="-4.9307094748" x2="-2.3530549923" y2="-4.7912900908" />
      <path d="M -2.3530549923,-4.7912900908 A 0.12500000002676756,0.0721687836641575 180.0 0,0 -2.1115735357,-4.8286474022" />
      <path d="M -2.0338901816,-4.5068329227 C -2.1696376504,-4.5186936519 -2.2886684428,-4.4950884752 -2.3909825587,-4.4360173929 C -2.5549016818,-4.3438498005 -2.5682447594,-4.2218990974 -2.4405283708,-4.1269407452" />
      <line x1="-2.4405283708" y1="-4.1269407452" x2="-2.2538252497" y2="-4.2145008339" />
      <path d="M -2.2538252497,-4.2145008339 C -2.3215102233,-4.2626340588 -2.3144357326,-4.3243943825 -2.2532210325,-4.3585738085 C -2.1844033535,-4.3982330329 -2.0668576389,-4.3999628998 -1.9529250741,-4.3317127454 C -1.8426553261,-4.2697928232 -1.8448709998,-4.2057215079 -1.9215057786,-4.1614763977 C -1.9702459677,-4.1333362364 -2.0355014275,-4.120545254 -2.117272158,-4.1231034505" />
      <line x1="-2.117272158" y1="-4.1231034505" x2="-2.2350945159" y2="-4.0320549121" />
      <line x1="-2.2350945159" y1="-4.0320549121" x2="-1.6870694972" y2="-3.8161198727" />
      <line x1="-1.6870694972" y1="-3.8161198727" x2="-1.2381361025" y2="-4.0753116889" />
      <line x1="-1.2381361025" y1="-4.0753116889" x2="-1.3970452314" y2="-4.1670579173" />
      <line x1="-1.3970452314" y1="-4.1670579173" x2="-1.7172803582" y2="-3.9821700807" />
      <line x1="-1.7172803582" y1="-3.9821700807" x2="-1.8943160037" y2="-4.0536833005" />
      <path d="M -1.8943160037,-4.0536833005 Q -1.8091213756,-4.0700790143 -1.7499080881,-4.1042658219 Q -1.6369194679,-4.1694998321 -1.6405447712,-4.2622925954 Q -1.6441700745,-4.3550853587 -1.7752852113,-4.4307847182 Q -1.8846485282,-4.4939256587 -2.0338901816,-4.5068329227" />
      <path d="M -2.301938266,-5.4700268195 A 9.750000000000002,5.6291651245988525 0.0 0,1 -1.7506459125,-5.5376811901" />
      <path d="M -2.3752517337,-5.3997123134 A 0.10000000000000003,0.0577350269189626 0.0 0,1 -2.301938266,-5.4700268195" />
      <line x1="-2.3752517337" y1="-5.3997123134" x2="-2.3014016533" y2="-5.2318272917" />
      <path d="M -2.1809012515,-5.1899315901 A 0.10000000000000003,0.0577350269189626 0.0 0,1 -2.3014016533,-5.2318272917" />
      <path d="M -2.1809012515,-5.1899315901 A 9.250000000000002,5.34048999000404 0.0 0,1 -1.6638948506,-5.2533784027" />
      <path d="M -1.5833272972,-5.3199490809 A 0.10000000000000003,0.0577350269189626 0.0 0,1 -1.6638948506,-5.2533784027" />
      <line x1="-1.6341349639" y1="-5.4906618581" x2="-1.5833272972" y2="-5.3199490809" />
      <path d="M -1.7506459125,-5.5376811901 A 0.10000000000000003,0.0577350269189626 0.0 0,1 -1.6341349639,-5.4906618581" />
      <path d="M -1.2989872593,-5.5789823475 A 9.750000000000002,5.6291651245988525 -1.9476840171514755e-15 0,1 -0.7384662133,-5.6129958623" />
      <path d="M -1.3846294517,-5.5134774653 A 0.10000000000000003,0.0577350269189626 -1.9476840171514755e-15 0,1 -1.2989872593,-5.5789823475" />
      <line x1="-1.3846294517" y1="-5.5134774653" x2="-1.3415792794" y2="-5.3420553172" />
      <path d="M -1.2293241499,-5.2931169813 A 0.10000000000000003,0.0577350269189626 -1.9476840171514755e-15 0,1 -1.3415792794,-5.3420553172" />
      <path d="M -1.2293241499,-5.2931169813 A 9.250000000000002,5.34048999000404 -1.9476840171514755e-15 0,1 -0.703663007,-5.325015129" />
      <path d="M -0.6114842824,-5.3863589116 A 0.10000000000000003,0.0577350269189626 -1.9476840171514755e-15 0,1 -0.703663007,-5.325015129" />
      <line x1="-0.6311063085" y1="-5.5592027254" x2="-0.6114842824" y2="-5.3863589116" />
      <path d="M -0.7384662133,-5.6129958623 A 0.10000000000000003,0.0577350269189626 -1.9476840171514755e-15 0,1 -0.6311063085,-5.5592027254" />
      <path d="M -0.2818042763,-5.6268133773 A 9.750000000000002,5.6291651245988525 1.2173025107196723e-15 0,1 0.2818042763,-5.6268133773" />
      <path d="M -0.3788368797,-5.5668358044 A 0.10000000000000003,0.0577350269189626 1.2173025107196723e-15 0,1 -0.2818042763,-5.6268133773" />
      <line x1="-0.3788368797" y1="-5.5668358044" x2="-0.3670582822" y2="-5.3937546668" />
      <path d="M -0.2642783157,-5.3383098752 A 0.10000000000000003,0.0577350269189626 1.2173025107196723e-15 0,1 -0.3670582822,-5.3937546668" />
      <path d="M -0.2642783157,-5.3383098752 A 9.250000000000002,5.34048999000404 1.2173025107196723e-15 0,1 0.2642783157,-5.3383098752" />
      <path d="M 0.3670582822,-5.3937546668 A 0.10000000000000003,0.0577350269189626 1.2173025107196723e-15 0,1 0.2642783157,-5.3383098752" />
      <line x1="0.3788368797" y1="-5.5668358044" x2="0.3670582822" y2="-5.3937546668" />
      <path d="M 0.2818042763,-5.6268133773 A 0.10000000000000003,0.0577350269189626 1.2173025107196723e-15 0,1 0.3788368797,-5.5668358044" />
      <path d="M 0.7384662133,-5.6129958623 A 9.749999999999998,5.629165124598851 -1.7042235150075414e-15 0,1 1.2989872593,-5.5789823475" />
      <path d="M 0.6311063085,-5.5592027254 A 0.09999999999999998,0.057735026918962574 -1.7042235150075414e-15 0,1 0.7384662133,-5.6129958623" />
      <line x1="0.6311063085" y1="-5.5592027254" x2="0.6114842824" y2="-5.3863589116" />
      <path d="M 0.703663007,-5.325015129 A 0.09999999999999998,0.057735026918962574 -1.7042235150075414e-15 0,1 0.6114842824,-5.3863589116" />
      <path d="M 0.703663007,-5.325015129 A 9.249999999999998,5.340489990004038 -1.7042235150075414e-15 0,1 1.2293241499,-5.2931169813" />
      <path d="M 1.3415792794,-5.3420553172 A 0.09999999999999998,0.057735026918962574 -1.7042235150075414e-15 0,1 1.2293241499,-5.2931169813" />
      <line x1="1.3846294517" y1="-5.5134774653" x2="1.3415792794" y2="-5.3420553172" />
      <path d="M 1.2989872593,-5.5789823475 A 0.09999999999999998,0.057735026918962574 -1.7042235150075414e-15 0,1 1.3846294517,-5.5134774653" />
      <path d="M 1.7506459125,-5.5376811901 A 9.749999999999998,5.629165124598851 9.738420085757378e-16 0,1 2.301938266,-5.4700268195" />
      <path d="M 1.6341349639,-5.4906618581 A 0.09999999999999998,0.057735026918962574 9.738420085757378e-16 0,1 1.7506459125,-5.5376811901" />
      <line x1="1.6341349639" y1="-5.4906618581" x2="1.5833272972" y2="-5.3199490809" />
      <path d="M 1.6638948506,-5.2533784027 A 0.09999999999999998,0.057735026918962574 9.738420085757378e-16 0,1 1.5833272972,-5.3199490809" />
      <path d="M 1.6638948506,-5.2533784027 A 9.249999999999998,5.340489990004038 9.738420085757378e-16 0,1 2.1809012515,-5.1899315901" />
      <path d="M 2.3014016533,-5.2318272917 A 0.09999999999999998,0.057735026918962574 9.738420085757378e-16 0,1 2.1809012515,-5.1899315901" />
      <line x1="2.3752517337" y1="-5.3997123134" x2="2.3014016533" y2="-5.2318272917" />
      <path d="M 2.301938266,-5.4700268195 A 0.09999999999999998,0.057735026918962574 9.738420085757378e-16 0,1 2.3752517337,-5.3997123134" />
      <line x1="1.8831379851" y1="-4.4567736689" x2="1.7048939052" y2="-4.5596829364" />
      <line x1="1.7048939052" y1="-4.5596829364" x2="1.5405468212" y2="-4.4647971033" />
      <line x1="1.5405468212" y1="-4.4647971033" x2="1.7187909012" y2="-4.3618878357" />
      <line x1="1.7187909012" y1="-4.3618878357" x2="1.3562605691" y2="-4.1525808509" />
      <line x1="1.3562605691" y1="-4.1525808509" x2="1.5048980052" y2="-4.0667649871" />
      <line x1="1.5048980052" y1="-4.0667649871" x2="2.4517063894" y2="-3.9638557195" />
      <line x1="2.4517063894" y1="-3.9638557195" x2="2.5943016534" y2="-4.0461831336" />
      <line x1="2.5943016534" y1="-4.0461831336" x2="2.0323796385" y2="-4.3706089601" />
      <line x1="2.0323796385" y1="-4.3706089601" x2="2.1423471726" y2="-4.4340987455" />
      <line x1="2.1423471726" y1="-4.4340987455" x2="1.9931055192" y2="-4.5202634543" />
      <line x1="1.9931055192" y1="-4.5202634543" x2="1.8831379851" y2="-4.4567736689" />
      <line x1="2.3530549923" y1="-4.7912900908" x2="2.4177597536" y2="-4.9307094748" />
      <path d="M 2.4177597536,-4.9307094748 A 0.12500000000435274,0.07216878365121628 180.0 0,0 2.176278297,-4.9680667861" />
      <line x1="2.176278297" y1="-4.9680667861" x2="2.1115735357" y2="-4.8286474022" />
      <path d="M 2.1115735357,-4.8286474022 A 0.12500000002676756,0.07216878366415748 180.0 0,0 2.3530549923,-4.7912900908" />
      <path d="M 2.7436451688,-5.4016945239 A 9.749999999999996,5.629165124598849 -3.895368034302951e-15 0,1 3.2796687554,-5.3011405331" />
      <path d="M 2.6192596947,-5.3619641504 A 0.09999999999999998,0.05773502691896256 -3.895368034302951e-15 0,1 2.7436451688,-5.4016945239" />
      <line x1="2.6192596947" y1="-5.3619641504" x2="2.5378230468" y2="-5.1952527748" />
      <path d="M 2.605896714,-5.1241845633 A 0.09999999999999998,0.05773502691896256 -3.895368034302951e-15 0,1 2.5378230468,-5.1952527748" />
      <path d="M 2.605896714,-5.1241845633 A 9.249999999999996,5.340489990004036 -3.895368034302951e-15 0,1 3.1085839426,-5.0298842224" />
      <path d="M 3.236009389,-5.0642782715 A 0.09999999999999998,0.05773502691896256 -3.895368034302951e-15 0,1 3.1085839426,-5.0298842224" />
      <line x1="3.3398502607" y1="-5.2267867834" x2="3.236009389" y2="-5.0642782715" />
      <path d="M 3.2796687554,-5.3011405331 A 0.09999999999999998,0.05773502691896256 -3.895368034302951e-15 0,1 3.3398502607,-5.2267867834" />
      <path d="M 3.7065844745,-5.2065257621 A 9.75,5.629165124598852 -1.9476840171514755e-15 0,1 4.2214665076,-5.0741738416" />
      <path d="M 3.5756872681,-5.1745196415 A 0.1,0.05773502691896259 -1.9476840171514755e-15 0,1 3.7065844745,-5.2065257621" />
      <line x1="3.5756872681" y1="-5.1745196415" x2="3.464513876" y2="-5.0136361922" />
      <path d="M 3.5193478277,-4.9388490855 A 0.1,0.05773502691896259 -1.9476840171514755e-15 0,1 3.464513876,-5.0136361922" />
      <path d="M 3.5193478277,-4.9388490855 A 9.25,5.3404899900040395 -1.9476840171514755e-15 0,1 4.0022083375,-4.8147283905" />
      <path d="M 4.1351627288,-4.8412439588 A 0.1,0.05773502691896259 -1.9476840171514755e-15 0,1 4.0022083375,-4.8147283905" />
      <line x1="4.2678566893" y1="-4.9965954836" x2="4.1351627288" y2="-4.8412439588" />
      <path d="M 4.2214665076,-5.0741738416 A 0.1,0.05773502691896259 -1.9476840171514755e-15 0,1 4.2678566893,-4.9965954836" />
      <path d="M 4.6289136649,-4.9543132145 A 9.750000000000004,5.629165124598854 -1.9476840171514755e-15 0,1 5.1170129893,-4.7916134397" />
      <path d="M 4.4929388636,-4.9303820125 A 0.10000000000000005,0.05773502691896261 -1.9476840171514755e-15 0,1 4.6289136649,-4.9543132145" />
      <line x1="4.4929388636" y1="-4.9303820125" x2="4.3532467662" y2="-4.7770891623" />
      <path d="M 4.3942402302,-4.6994025436 A 0.10000000000000005,0.05773502691896261 -1.9476840171514755e-15 0,1 4.3532467662,-4.7770891623" />
      <path d="M 4.3942402302,-4.6994025436 A 9.250000000000004,5.340489990004041 -1.9476840171514755e-15 0,1 4.8519837003,-4.5468213869" />
      <path d="M 4.9890103603,-4.5651679642 A 0.10000000000000005,0.05773502691896261 -1.9476840171514755e-15 0,1 4.8519837003,-4.5468213869" />
      <line x1="5.149103587" y1="-4.7116604381" x2="4.9890103603" y2="-4.5651679642" />
      <path d="M 5.1170129893,-4.7916134397 A 0.10000000000000005,0.05773502691896261 -1.9476840171514755e-15 0,1 5.149103587,-4.7116604381" />
      <path d="M 5.5005275087,-4.6478201746 A 9.750000000000002,5.6291651245988525 -1.9476840171514763e-15 0,1 5.9564964059,-4.4565551183" />
      <path d="M 5.3609648807,-4.6322260865 A 0.10000000000000003,0.0577350269189626 -1.9476840171514763e-15 0,1 5.5005275087,-4.6478201746" />
      <line x1="5.3609648807" y1="-4.6322260865" x2="5.1942845739" y2="-4.4882033438" />
      <path d="M 5.2209884171,-4.408468364 A 0.10000000000000003,0.0577350269189626 -1.9476840171514763e-15 0,1 5.1942845739,-4.4882033438" />
      <path d="M 5.2209884171,-4.408468364 A 9.250000000000002,5.34048999000404 -1.9476840171514763e-15 0,1 5.6485997144,-4.2290984566" />
      <path d="M 5.7881973503,-4.2390750341 A 0.10000000000000003,0.0577350269189626 -1.9476840171514763e-15 0,1 5.6485997144,-4.2290984566" />
      <line x1="5.9739358282" y1="-4.3751034548" x2="5.7881973503" y2="-4.2390750341" />
      <path d="M 5.9564964059,-4.4565551183 A 0.10000000000000003,0.0577350269189626 -1.9476840171514763e-15 0,1 5.9739358282,-4.3751034548" />
      <path d="M 6.311876422,-4.2904046442 A 9.749999999999996,5.62916512459885 0.0 0,1 6.7307192014,-4.0726698463" />
      <path d="M 6.1702550447,-4.283318522 A 0.09999999999999998,0.057735026918962574 0.0 0,1 6.311876422,-4.2904046442" />
      <line x1="6.1702550447" y1="-4.283318522" x2="5.9784127127" y2="-4.1501438303" />
      <path d="M 5.9905343623,-4.0692340825 A 0.09999999999999998,0.057735026918962574 0.0 0,1 5.9784127127,-4.1501438303" />
      <path d="M 5.9905343623,-4.0692340825 A 9.249999999999996,5.340489990004037 0.0 0,1 6.3833284879,-3.8650406387" />
      <path d="M 6.5239676389,-3.8665379108 A 0.09999999999999998,0.057735026918962574 0.0 0,1 6.3833284879,-3.8650406387" />
      <line x1="6.7333163783" y1="-3.9906119226" x2="6.5239676389" y2="-3.8665379108" />
      <path d="M 6.7307192014,-4.0726698463 A 0.09999999999999998,0.057735026918962574 0.0 0,1 6.7333163783,-3.9906119226" />
      <path d="M -6.311876422,4.2904046442 A 9.749999999999998,5.629165124598851 0.0 0,1 -6.7307192014,4.0726698463" />
      <path d="M -6.1702550447,4.283318522 A 0.09999999999999998,0.057735026918962574 0.0 0,1 -6.311876422,4.2904046442" />
      <line x1="-6.1702550447" y1="4.283318522" x2="-5.9784127127" y2="4.1501438303" />
      <path d="M -5.9905343623,4.0692340825 A 0.09999999999999998,0.057735026918962574 0.0 0,1 -5.9784127127,4.1501438303" />
      <path d="M -5.9905343623,4.0692340825 A 9.249999999999998,5.340489990004038 0.0 0,1 -6.3833284879,3.8650406387" />
      <path d="M -6.5239676389,3.8665379108 A 0.09999999999999998,0.057735026918962574 0.0 0,1 -6.3833284879,3.8650406387" />
      <line x1="-6.7333163783" y1="3.9906119226" x2="-6.5239676389" y2="3.8665379108" />
      <path d="M -6.7307192014,4.0726698463 A 0.09999999999999998,0.057735026918962574 0.0 0,1 -6.7333163783,3.9906119226" />
      <line x1="-6.1871843354" y1="3.4701104689" x2="-6.3639610307" y2="3.5721725416" />
      <path d="M -6.3639610307,3.5721725416 A 0.125,0.07216878364870322 180.0 0,0 -6.1871843354,3.6742346142" />
      <line x1="-6.1871843354" y1="3.6742346142" x2="-6.0104076401" y2="3.5721725416" />
      <path d="M -6.0104076401,3.5721725416 A 0.12500000005264897,0.07216878367910011 180.0 0,0 -6.1871843354,3.4701104689" />
      <path d="M -5.2462023316,2.9556388837 C -5.3384461605,2.9516853073 -5.4165915877,2.9681973028 -5.480638613,3.0051748701 C -5.5503249991,3.0454083238 -5.5835569462,3.0956420002 -5.5803344544,3.1558758992 C -5.5771119625,3.2161097982 -5.5323998882,3.2711110225 -5.4461982315,3.3208795722 C -5.3563712714,3.3727411918 -5.2572796473,3.3991371282 -5.1489233591,3.4000673815 C -5.040567071,3.4009976348 -4.9451007502,3.3776250215 -4.8625243967,3.3299495416 C -4.7726974366,3.278087922 -4.7337254259,3.215470249 -4.7456083646,3.1420965227 C -4.7574913033,3.0687227963 -4.8429880399,2.9861046781 -5.0020985746,2.8942421681 C -5.1640287896,2.8007517149 -5.3108535742,2.7506343202 -5.4425729282,2.743889984 C -5.5742922822,2.7371456478 -5.6882879311,2.761564796 -5.7845598748,2.8171474287 C -5.9225605309,2.8967494635 -5.9371877017,2.9906905639 -5.8141665186,3.088897664" />
      <line x1="-5.8141665186" y1="3.088897664" x2="-5.6316929181" y2="3.0044771801" />
      <path d="M -5.6316929181,3.0044771801 Q -5.7174917634,2.9392431699 -5.6316929181,2.8907537184 Q -5.5791260199,2.8604042056 -5.4939313919,2.8670322601 Q -5.4087367638,2.8736603146 -5.2462023316,2.9556388837" />
      <path d="M -5.5005275087,4.6478201746 A 9.750000000000002,5.6291651245988525 0.0 0,1 -5.9564964059,4.4565551183" />
      <path d="M -5.3609648807,4.6322260865 A 0.10000000000000003,0.0577350269189626 0.0 0,1 -5.5005275087,4.6478201746" />
      <line x1="-5.3609648807" y1="4.6322260865" x2="-5.1942845739" y2="4.4882033438" />
      <path d="M -5.2209884171,4.408468364 A 0.10000000000000003,0.0577350269189626 0.0 0,1 -5.1942845739,4.4882033438" />
      <path d="M -5.2209884171,4.408468364 A 9.250000000000002,5.34048999000404 0.0 0,1 -5.6485997144,4.2290984566" />
      <path d="M -5.7881973503,4.2390750341 A 0.10000000000000003,0.0577350269189626 0.0 0,1 -5.6485997144,4.2290984566" />
      <line x1="-5.9739358282" y1="4.3751034548" x2="-5.7881973503" y2="4.2390750341" />
      <path d="M -5.9564964059,4.4565551183 A 0.10000000000000003,0.0577350269189626 0.0 0,1 -5.9739358282,4.3751034548" />
      <path d="M -4.6289136649,4.9543132145 A 9.750000000000004,5.629165124598854 -1.9476840171514755e-15 0,1 -5.1170129893,4.7916134397" />
      <path d="M -4.4929388636,4.9303820125 A 0.10000000000000005,0.05773502691896261 -1.9476840171514755e-15 0,1 -4.6289136649,4.9543132145" />
      <line x1="-4.4929388636" y1="4.9303820125" x2="-4.3532467662" y2="4.7770891623" />
      <path d="M -4.3942402302,4.6994025436 A 0.10000000000000005,0.05773502691896261 -1.9476840171514755e-15 0,1 -4.3532467662,4.7770891623" />
      <path d="M -4.3942402302,4.6994025436 A 9.250000000000004,5.340489990004041 -1.9476840171514755e-15 0,1 -4.8519837003,4.5468213869" />
      <path d="M -4.9890103603,4.5651679642 A 0.10000000000000005,0.05773502691896261 -1.9476840171514755e-15 0,1 -4.8519837003,4.5468213869" />
      <line x1="-5.149103587" y1="4.7116604381" x2="-4.9890103603" y2="4.5651679642" />
      <path d="M -5.1170129893,4.7916134397 A 0.10000000000000005,0.05773502691896261 -1.9476840171514755e-15 0,1 -5.149103587,4.7116604381" />
      <path d="M -3.7065844745,5.2065257621 A 9.75,5.629165124598852 -1.9476840171514755e-15 0,1 -4.2214665076,5.0741738416" />
      <path d="M -3.5756872681,5.1745196415 A 0.1,0.05773502691896259 -1.9476840171514755e-15 0,1 -3.7065844745,5.2065257621" />
      <line x1="-3.5756872681" y1="5.1745196415" x2="-3.464513876" y2="5.0136361922" />
      <path d="M -3.5193478277,4.9388490855 A 0.1,0.05773502691896259 -1.9476840171514755e-15 0,1 -3.464513876,5.0136361922" />
      <path d="M -3.5193478277,4.9388490855 A 9.25,5.3404899900040395 -1.9476840171514755e-15 0,1 -4.0022083375,4.8147283905" />
      <path d="M -4.1351627288,4.8412439588 A 0.1,0.05773502691896259 -1.9476840171514755e-15 0,1 -4.0022083375,4.8147283905" />
      <line x1="-4.2678566893" y1="4.9965954836" x2="-4.1351627288" y2="4.8412439588" />
      <path d="M -4.2214665076,5.0741738416 A 0.1,0.05773502691896259 -1.9476840171514755e-15 0,1 -4.2678566893,4.9965954836" />
      <path d="M -2.7436451688,5.4016945239 A 9.750000000000002,5.6291651245988525 0.0 0,1 -3.2796687554,5.3011405331" />
      <path d="M -2.6192596947,5.3619641504 A 0.10000000000000003,0.0577350269189626 0.0 0,1 -2.7436451688,5.4016945239" />
      <line x1="-2.6192596947" y1="5.3619641504" x2="-2.5378230468" y2="5.1952527748" />
      <path d="M -2.605896714,5.1241845633 A 0.10000000000000003,0.0577350269189626 0.0 0,1 -2.5378230468,5.1952527748" />
      <path d="M -2.605896714,5.1241845633 A 9.250000000000002,5.34048999000404 0.0 0,1 -3.1085839426,5.0298842224" />
      <path d="M -3.236009389,5.0642782715 A 0.10000000000000003,0.0577350269189626 0.0 0,1 -3.1085839426,5.0298842224" />
      <line x1="-3.3398502607" y1="5.2267867834" x2="-3.236009389" y2="5.0642782715" />
      <path d="M -3.2796687554,5.3011405331 A 0.10000000000000003,0.0577350269189626 0.0 0,1 -3.3398502607,5.2267867834" />
      <line x1="-2.3530549923" y1="4.7912900908" x2="-2.4177597536" y2="4.9307094748" />
      <path d="M -2.4177597536,4.9307094748 A 0.12500000000435277,0.0721687836512163 180.0 0,0 -2.176278297,4.9680667861" />
      <line x1="-2.176278297" y1="4.9680667861" x2="-2.1115735357" y2="4.8286474022" />
      <path d="M -2.1115735357,4.8286474022 A 0.12500000002676756,0.0721687836641575 180.0 0,0 -2.3530549923,4.7912900908" />
      <line x1="-1.8462807347" y1="4.6500337849" x2="-1.7085192085" y2="4.5704971306" />
      <line x1="-1.7085192085" y1="4.5704971306" x2="-2.5979269567" y2="4.0569973278" />
      <line x1="-2.5979269567" y1="4.0569973278" x2="-2.7677119956" y2="4.1550227657" />
      <line x1="-2.7677119956" y1="4.1550227657" x2="-2.1278459593" y2="4.524449594" />
      <path d="M -2.1278459593,4.524449594 Q -2.307902691,4.5279380437 -2.4758750782,4.5767763402" />
      <line x1="-2.4758750782" y1="4.5767763402" x2="-2.321799687" y2="4.6657318087" />
      <path d="M -2.321799687,4.6657318087 Q -2.2335839729,4.6399172806 -2.0949161208,4.6299751988 Q -1.9562482688,4.620033117 -1.8462807347,4.6500337849" />
      <path d="M -1.4589774965,4.3217706636 Q -1.2964430643,4.3325848578 -1.1677447963,4.2582808782 Q -1.0390465284,4.1839768986 -1.0583814795,4.0890910655" />
      <path d="M -1.0583814795,4.0890910655 Q -1.0807375166,3.9764141386 -1.3326960975,3.8309457841 Q -1.5840504611,3.6858262746 -1.7810252749,3.6725701656" />
      <path d="M -1.7810252749,3.6725701656 Q -1.9435597071,3.6617559714 -2.0722579751,3.736059951 Q -2.2015604602,3.8107127756 -2.1813191833,3.9137964656 Q -2.1610779064,4.0168801557 -1.9060982395,4.164092735 Q -1.6559523103,4.3085145546 -1.4589774965,4.3217706636" />
      <path d="M -1.7506459125,5.5376811901 A 9.749999999999998,5.629165124598851 9.738420085757378e-16 0,1 -2.301938266,5.4700268195" />
      <path d="M -1.6341349639,5.4906618581 A 0.09999999999999998,0.057735026918962574 9.738420085757378e-16 0,1 -1.7506459125,5.5376811901" />
      <line x1="-1.6341349639" y1="5.4906618581" x2="-1.5833272972" y2="5.3199490809" />
      <path d="M -1.6638948506,5.2533784027 A 0.09999999999999998,0.057735026918962574 9.738420085757378e-16 0,1 -1.5833272972,5.3199490809" />
      <path d="M -1.6638948506,5.2533784027 A 9.249999999999998,5.340489990004038 9.738420085757378e-16 0,1 -2.1809012515,5.1899315901" />
      <path d="M -2.3014016533,5.2318272917 A 0.09999999999999998,0.057735026918962574 9.738420085757378e-16 0,1 -2.1809012515,5.1899315901" />
      <line x1="-2.3752517337" y1="5.3997123134" x2="-2.3014016533" y2="5.2318272917" />
      <path d="M -2.301938266,5.4700268195 A 0.09999999999999998,0.057735026918962574 9.738420085757378e-16 0,1 -2.3752517337,5.3997123134" />
      <path d="M -0.7384662133,5.6129958623 A 9.749999999999998,5.629165124598851 -1.7042235150075414e-15 0,1 -1.2989872593,5.5789823475" />
      <path d="M -0.6311063085,5.5592027254 A 0.09999999999999998,0.057735026918962574 -1.7042235150075414e-15 0,1 -0.7384662133,5.6129958623" />
      <line x1="-0.6311063085" y1="5.5592027254" x2="-0.6114842824" y2="5.3863589116" />
      <path d="M -0.703663007,5.325015129 A 0.09999999999999998,0.057735026918962574 -1.7042235150075414e-15 0,1 -0.6114842824,5.3863589116" />
      <path d="M -0.703663007,5.325015129 A 9.249999999999998,5.340489990004038 -1.7042235150075414e-15 0,1 -1.2293241499,5.2931169813" />
      <path d="M -1.3415792794,5.3420553172 A 0.09999999999999998,0.057735026918962574 -1.7042235150075414e-15 0,1 -1.2293241499,5.2931169813" />
      <line x1="-1.3846294517" y1="5.5134774653" x2="-1.3415792794" y2="5.3420553172" />
      <path d="M -1.2989872593,5.5789823475 A 0.09999999999999998,0.057735026918962574 -1.7042235150075414e-15 0,1 -1.3846294517,5.5134774653" />
      <path d="M 0.2818042763,5.6268133773 A 9.749999999999998,5.629165124598851 1.7042235150075414e-15 0,1 -0.2818042763,5.6268133773" />
      <path d="M 0.3788368797,5.5668358044 A 0.09999999999999998,0.057735026918962574 1.7042235150075414e-15 0,1 0.2818042763,5.6268133773" />
      <line x1="0.3788368797" y1="5.5668358044" x2="0.3670582822" y2="5.3937546668" />
      <path d="M 0.2642783157,5.3383098752 A 0.09999999999999998,0.057735026918962574 1.7042235150075414e-15 0,1 0.3670582822,5.3937546668" />
      <path d="M 0.2642783157,5.3383098752 A 9.249999999999998,5.340489990004038 1.7042235150075414e-15 0,1 -0.2642783157,5.3383098752" />
      <path d="M -0.3670582822,5.3937546668 A 0.09999999999999998,0.057735026918962574 1.7042235150075414e-15 0,1 -0.2642783157,5.3383098752" />
      <line x1="-0.3788368797" y1="5.5668358044" x2="-0.3670582822" y2="5.3937546668" />
      <path d="M -0.2818042763,5.6268133773 A 0.09999999999999998,0.057735026918962574 1.7042235150075414e-15 0,1 -0.3788368797,5.5668358044" />
      <path d="M 1.2989872593,5.5789823475 A 9.749999999999998,5.629165124598851 -9.738420085757378e-16 0,1 0.7384662133,5.6129958623" />
      <path d="M 1.3846294517,5.5134774653 A 0.09999999999999998,0.057735026918962574 -9.738420085757378e-16 0,1 1.2989872593,5.5789823475" />
      <line x1="1.3846294517" y1="5.5134774653" x2="1.3415792794" y2="5.3420553172" />
      <path d="M 1.2293241499,5.2931169813 A 0.09999999999999998,0.057735026918962574 -9.738420085757378e-16 0,1 1.3415792794,5.3420553172" />
      <path d="M 1.2293241499,5.2931169813 A 9.249999999999998,5.340489990004038 -9.738420085757378e-16 0,1 0.703663007,5.325015129" />
      <path d="M 0.6114842824,5.3863589116 A 0.09999999999999998,0.057735026918962574 -9.738420085757378e-16 0,1 0.703663007,5.325015129" />
      <line x1="0.6311063085" y1="5.5592027254" x2="0.6114842824" y2="5.3863589116" />
      <path d="M 0.7384662133,5.6129958623 A 0.09999999999999998,0.057735026918962574 -9.738420085757378e-16 0,1 0.6311063085,5.5592027254" />
      <path d="M 2.301938266,5.4700268195 A 9.750000000000002,5.6291651245988525 0.0 0,1 1.7506459125,5.5376811901" />
      <path d="M 2.3752517337,5.3997123134 A 0.10000000000000003,0.0577350269189626 0.0 0,1 2.301938266,5.4700268195" />
      <line x1="2.3752517337" y1="5.3997123134" x2="2.3014016533" y2="5.2318272917" />
      <path d="M 2.1809012515,5.1899315901 A 0.10000000000000003,0.0577350269189626 0.0 0,1 2.3014016533,5.2318272917" />
      <path d="M 2.1809012515,5.1899315901 A 9.250000000000002,5.34048999000404 0.0 0,1 1.6638948506,5.2533784027" />
      <path d="M 1.5833272972,5.3199490809 A 0.10000000000000003,0.0577350269189626 0.0 0,1 1.6638948506,5.2533784027" />
      <line x1="1.6341349639" y1="5.4906618581" x2="1.5833272972" y2="5.3199490809" />
      <path d="M 1.7506459125,5.5376811901 A 0.10000000000000003,0.0577350269189626 0.0 0,1 1.6341349639,5.4906618581" />
      <line x1="2.1326796971" y1="4.5854974645" x2="2.2704412233" y2="4.5059608103" />
      <line x1="2.2704412233" y1="4.5059608103" x2="1.3810334751" y2="3.9924610074" />
      <line x1="1.3810334751" y1="3.9924610074" x2="1.2112484362" y2="4.0904864454" />
      <line x1="1.2112484362" y1="4.0904864454" x2="1.8511144725" y2="4.4599132736" />
      <path d="M 1.8511144725,4.4599132736 Q 1.6710577408,4.4634017234 1.5030853536,4.5122400198" />
      <line x1="1.5030853536" y1="4.5122400198" x2="1.6571607448" y2="4.6011954884" />
      <path d="M 1.6571607448,4.6011954884 Q 1.7453764589,4.5753809603 1.884044311,4.5654388785 Q 2.022712163,4.5554967967 2.1326796971,4.5854974645" />
      <line x1="2.7526065651" y1="4.2275825204" x2="2.8903680913" y2="4.1480458662" />
      <line x1="2.8903680913" y1="4.1480458662" x2="2.0009603431" y2="3.6345460633" />
      <line x1="2.0009603431" y1="3.6345460633" x2="1.8311753042" y2="3.7325715012" />
      <line x1="1.8311753042" y1="3.7325715012" x2="2.4710413404" y2="4.1019983295" />
      <path d="M 2.4710413404,4.1019983295 Q 2.2909846088,4.1054867793 2.1230122216,4.1543250757" />
      <line x1="2.1230122216" y1="4.1543250757" x2="2.2770876127" y2="4.2432805443" />
      <path d="M 2.2770876127,4.2432805443 Q 2.3653033269,4.2174660162 2.5039711789,4.2075239344 Q 2.642639031,4.1975818526 2.7526065651,4.2275825204" />
      <line x1="2.1115735357" y1="4.8286474022" x2="2.176278297" y2="4.9680667861" />
      <path d="M 2.176278297,4.9680667861 A 0.12500000000435274,0.07216878365121629 180.0 0,0 2.4177597536,4.9307094748" />
      <line x1="2.4177597536" y1="4.9307094748" x2="2.3530549923" y2="4.7912900908" />
      <path d="M 2.3530549923,4.7912900908 A 0.12500000002676756,0.0721687836641575 180.0 0,0 2.1115735357,4.8286474022" />
      <path d="M 3.2796687554,5.3011405331 A 9.75,5.629165124598852 1.9476840171514755e-15 0,1 2.7436451688,5.4016945239" />
      <path d="M 3.3398502607,5.2267867834 A 0.1,0.05773502691896259 1.9476840171514755e-15 0,1 3.2796687554,5.3011405331" />
      <line x1="3.3398502607" y1="5.2267867834" x2="3.236009389" y2="5.0642782715" />
      <path d="M 3.1085839426,5.0298842224 A 0.1,0.05773502691896259 1.9476840171514755e-15 0,1 3.236009389,5.0642782715" />
      <path d="M 3.1085839426,5.0298842224 A 9.25,5.3404899900040395 1.9476840171514755e-15 0,1 2.605896714,5.1241845633" />
      <path d="M 2.5378230468,5.1952527748 A 0.1,0.05773502691896259 1.9476840171514755e-15 0,1 2.605896714,5.1241845633" />
      <line x1="2.6192596947" y1="5.3619641504" x2="2.5378230468" y2="5.1952527748" />
      <path d="M 2.7436451688,5.4016945239 A 0.1,0.05773502691896259 1.9476840171514755e-15 0,1 2.6192596947,5.3619641504" />
      <path d="M 4.2214665076,5.0741738416 A 9.750000000000002,5.6291651245988525 -3.895368034302951e-15 0,1 3.7065844745,5.2065257621" />
      <path d="M 4.2678566893,4.9965954836 A 0.10000000000000003,0.0577350269189626 -3.895368034302951e-15 0,1 4.2214665076,5.0741738416" />
      <line x1="4.2678566893" y1="4.9965954836" x2="4.1351627288" y2="4.8412439588" />
      <path d="M 4.0022083375,4.8147283905 A 0.10000000000000003,0.0577350269189626 -3.895368034302951e-15 0,1 4.1351627288,4.8412439588" />
      <path d="M 4.0022083375,4.8147283905 A 9.250000000000002,5.34048999000404 -3.895368034302951e-15 0,1 3.5193478277,4.9388490855" />
      <path d="M 3.464513876,5.0136361922 A 0.10000000000000003,0.0577350269189626 -3.895368034302951e-15 0,1 3.5193478277,4.9388490855" />
      <line x1="3.5756872681" y1="5.1745196415" x2="3.464513876" y2="5.0136361922" />
      <path d="M 3.7065844745,5.2065257621 A 0.10000000000000003,0.0577350269189626 -3.895368034302951e-15 0,1 3.5756872681,5.1745196415" />
      <path d="M 5.1170129893,4.7916134397 A 9.750000000000002,5.6291651245988525 0.0 0,1 4.6289136649,4.9543132145" />
      <path d="M 5.149103587,4.7116604381 A 0.10000000000000003,0.0577350269189626 0.0 0,1 5.1170129893,4.7916134397" />
      <line x1="5.149103587" y1="4.7116604381" x2="4.9890103603" y2="4.5651679642" />
      <path d="M 4.8519837003,4.5468213869 A 0.10000000000000003,0.0577350269189626 0.0 0,1 4.9890103603,4.5651679642" />
      <path d="M 4.8519837003,4.5468213869 A 9.250000000000002,5.34048999000404 0.0 0,1 4.3942402302,4.6994025436" />
      <path d="M 4.3532467662,4.7770891623 A 0.10000000000000003,0.0577350269189626 0.0 0,1 4.3942402302,4.6994025436" />
      <line x1="4.4929388636" y1="4.9303820125" x2="4.3532467662" y2="4.7770891623" />
      <path d="M 4.6289136649,4.9543132145 A 0.10000000000000003,0.0577350269189626 0.0 0,1 4.4929388636,4.9303820125" />
      <line x1="5.3912144644" y1="3.5246050375" x2="5.5289759907" y2="3.4450683833" />
      <line x1="5.5289759907" y1="3.4450683833" x2="4.6395682425" y2="2.9315685804" />
      <line x1="4.6395682425" y1="2.9315685804" x2="4.4697832036" y2="3.0295940183" />
      <line x1="4.4697832036" y1="3.0295940183" x2="5.1096492398" y2="3.3990208466" />
      <path d="M 5.1096492398,3.3990208466 Q 4.9295925082,3.4025092963 4.7616201209,3.4513475928" />
      <line x1="4.7616201209" y1="3.4513475928" x2="4.9156955121" y2="3.5403030614" />
      <path d="M 4.9156955121,3.5403030614 Q 5.0039112263,3.5144885332 5.1425790783,3.5045464515 Q 5.2812469304,3.4946043697 5.3912144644,3.5246050375" />
      <path d="M 5.9564964059,4.4565551183 A 9.749999999999996,5.62916512459885 0.0 0,1 5.5005275087,4.6478201746" />
      <path d="M 5.9739358282,4.3751034548 A 0.09999999999999998,0.057735026918962574 0.0 0,1 5.9564964059,4.4565551183" />
      <line x1="5.9739358282" y1="4.3751034548" x2="5.7881973503" y2="4.2390750341" />
      <path d="M 5.6485997144,4.2290984566 A 0.09999999999999998,0.057735026918962574 0.0 0,1 5.7881973503,4.2390750341" />
      <path d="M 5.6485997144,4.2290984566 A 9.249999999999996,5.340489990004037 0.0 0,1 5.2209884171,4.408468364" />
      <path d="M 5.1942845739,4.4882033438 A 0.09999999999999998,0.057735026918962574 0.0 0,1 5.2209884171,4.408468364" />
      <line x1="5.3609648807" y1="4.6322260865" x2="5.1942845739" y2="4.4882033438" />
      <path d="M 5.5005275087,4.6478201746 A 0.09999999999999998,0.057735026918962574 0.0 0,1 5.3609648807,4.6322260865" />
      <path d="M 6.7307192014,4.0726698463 A 9.75,5.629165124598851 0.0 0,1 6.311876422,4.2904046442" />
      <path d="M 6.7333163783,3.9906119226 A 0.1,0.057735026918962574 0.0 0,1 6.7307192014,4.0726698463" />
      <line x1="6.7333163783" y1="3.9906119226" x2="6.5239676389" y2="3.8665379108" />
      <path d="M 6.3833284879,3.8650406387 A 0.1,0.057735026918962574 0.0 0,1 6.5239676389,3.8665379108" />
      <path d="M 6.3833284879,3.8650406387 A 9.25,5.340489990004038 0.0 0,1 5.9905343623,4.0692340825" />
      <path d="M 5.9784127127,4.1501438303 A 0.1,0.057735026918962574 0.0 0,1 5.9905343623,4.0692340825" />
      <line x1="6.1702550447" y1="4.283318522" x2="5.9784127127" y2="4.1501438303" />
      <path d="M 6.311876422,4.2904046442 A 0.1,0.057735026918962574 0.0 0,1 6.1702550447,4.283318522" />
      <path d="M 5.4691584859,-3.1126191223 C 5.54910399,-3.181857448 5.5332180859,-3.2707114385 5.4262590632,-3.3306472315 C 5.3485164475,-3.3755319516 5.2538557497,-3.3973929034 5.1422769697,-3.3962300868 C 5.0306981897,-3.3950672702 4.9326135943,-3.3700667137 4.8480231834,-3.3212284172 C 4.687578327,-3.2317935046 4.6749401343,-3.1013541189 4.8069364125,-3.0086633198" />
      <line x1="4.8069364125" y1="-3.0086633198" x2="4.9912226646" y2="-3.0920372688" />
      <path d="M 4.9912226646,-3.0920372688 C 4.9170297637,-3.1455122305 4.923223113,-3.2025194452 4.9875973613,-3.2392498481 C 5.0226419601,-3.2594828567 5.0654406799,-3.2688435302 5.1159935206,-3.2673318686 C 5.1665463614,-3.2658202071 5.2143802247,-3.2520408306 5.2594951104,-3.2259937391 C 5.3021931273,-3.2013420276 5.3245491645,-3.1751786544 5.3265632219,-3.1475036198 C 5.3292901762,-3.1002728866 5.2868080176,-3.071363516 5.1894059129,-3.0397105226" />
      <line x1="5.1894059129" y1="-3.0397105226" x2="5.3465023901" y2="-2.9706392176" />
      <path d="M 5.3465023901,-2.9706392176 C 5.3912144644,-2.9978491256 5.4362286474,-3.0123261921 5.4815449389,-3.0140704169 C 5.5268612304,-3.0158146418 5.5670416755,-3.00657025 5.6020862743,-2.9863372414 C 5.6318943238,-2.969127556 5.6467983486,-2.9502899274 5.6467983486,-2.9298243555 C 5.6467983486,-2.9093587837 5.6320957296,-2.8906374367 5.6026904915,-2.8736603146 C 5.546133343,-2.8407163053 5.4572376827,-2.8374167373 5.3724837306,-2.8774976093" />
      <line x1="5.3724837306" y1="-2.8774976093" x2="5.2425770283" y2="-2.771797582" />
      <path d="M 5.2425770283,-2.771797582 C 5.3736797307,-2.7223487967 5.4701779489,-2.7114764819 5.587585061,-2.7355177046 C 5.6451871027,-2.747610997 5.6983582181,-2.7677277239 5.7470984072,-2.7958678852 C 5.8304803836,-2.8440084917 5.8707615316,-2.8979631812 5.8679418512,-2.9577319535" />
      <path d="M 5.8679418512,-2.9577319535 Q 5.8649207651,-3.0313382432 5.7827472232,-3.0787811598 Q 5.6661332997,-3.1461082399 5.4691584859,-3.1126191223" />
      <line x1="6.1871843354" y1="-3.4701104689" x2="6.3639610307" y2="-3.5721725416" />
      <path d="M 6.3639610307,-3.5721725416 A 0.125,0.07216878364870323 180.0 0,0 6.1871843354,-3.6742346142" />
      <line x1="6.1871843354" y1="-3.6742346142" x2="6.0104076401" y2="-3.5721725416" />
      <path d="M 6.0104076401,-3.5721725416 A 0.12500000005264894,0.07216878367910011 180.0 0,0 6.1871843354,-3.4701104689" />
      <path d="M 7.0540710963,-3.8859825428 A 9.75,5.629165124598852 0.0 0,1 7.4311988289,-3.6441635513" />
      <path d="M 6.9119426032,-3.8874820236 A 0.1,0.05773502691896259 0.0 0,1 7.0540710963,-3.8859825428" />
      <line x1="6.9119426032" y1="-3.8874820236" x2="6.6970401109" y2="-3.7666144725" />
      <path d="M 6.6944467595,-3.6854164208 A 0.1,0.05773502691896259 0.0 0,1 6.6970401109,-3.7666144725" />
      <path d="M 6.6944467595,-3.6854164208 A 9.25,5.3404899900040395 0.0 0,1 7.0481201787,-3.4586366267" />
      <path d="M 7.1882599728,-3.451638189 A 0.1,0.05773502691896259 0.0 0,1 7.0481201787,-3.4586366267" />
      <line x1="7.4189253052" y1="-3.562398411" x2="7.1882599728" y2="-3.451638189" />
      <path d="M 7.4311988289,-3.6441635513 A 0.1,0.05773502691896259 0.0 0,1 7.4189253052,-3.562398411" />
      <path d="M 7.7189798916,-3.4389848034 A 9.749999999999996,5.62916512459885 0.0 0,1 8.0502606869,-3.1757310378" />
      <path d="M 7.5779014721,-3.4490534585 A 0.09999999999999998,0.057735026918962574 0.0 0,1 7.7189798916,-3.4389848034" />
      <line x1="7.5779014721" y1="-3.4490534585" x2="7.3422933361" y2="-3.3418172983" />
      <path d="M 7.3250133971,-3.2612205656 A 0.09999999999999998,0.057735026918962574 0.0 0,1 7.3422933361,-3.3418172983" />
      <path d="M 7.3250133971,-3.2612205656 A 9.249999999999996,5.340489990004037 0.0 0,1 7.63569119,-3.014339068" />
      <path d="M 7.7737962262,-2.998921597 A 0.09999999999999998,0.057735026918962574 0.0 0,1 7.63569119,-3.014339068" />
      <line x1="8.0232509339" y1="-3.095154517" x2="7.7737962262" y2="-2.998921597" />
      <path d="M 8.0502606869,-3.1757310378 A 0.09999999999999998,0.057735026918962574 0.0 0,1 8.0232509339,-3.095154517" />
      <path d="M 7.423594103,-1.2576409928 Q 7.3535049054,-1.2625248225 7.1994295143,-1.2586875277 Q 7.0453541231,-1.254850233 6.999735723,-1.2564200354 Q 6.9541173228,-1.2579898378 6.9178642896,-1.2635713574" />
      <line x1="6.9178642896" y1="-1.2635713574" x2="7.2550174985" y2="-1.4582268533" />
      <line x1="7.2550174985" y1="-1.4582268533" x2="7.097316804" y2="-1.5492753917" />
      <line x1="7.097316804" y1="-1.5492753917" x2="6.5021628421" y2="-1.2056630916" />
      <path d="M 6.5021628421,-1.2056630916 Q 6.6012544662,-1.1596155549 6.7296506255,-1.1413011937 Q 6.8580467848,-1.1229868325 7.13296562,-1.1289171971" />
      <path d="M 7.13296562,-1.1289171971 Q 7.3547133399,-1.1334521818 7.4187603652,-1.1264752823" />
      <path d="M 7.4187603652,-1.1264752823 C 7.5408154316,-1.1138986163 7.6158960345,-1.061053839 7.6145267446,-1.0186821851 C 7.6145267446,-0.9951932901 7.5966016337,-0.9730997751 7.560751412,-0.9524016399 C 7.4892900983,-0.9123790099 7.4076453254,-0.9081200676 7.3015422245,-0.9625181442" />
      <line x1="7.3015422245" y1="-0.9625181442" x2="7.149279485" y2="-0.8550738919" />
      <path d="M 7.149279485,-0.8550738919 C 7.3556322053,-0.7562124998 7.5469425792,-0.7840477813 7.7057635448,-0.8735626756 C 7.793173636,-0.9240289153 7.8382885218,-0.9772859148 7.8411082022,-1.033333674 C 7.8439278825,-1.0893814333 7.8102931239,-1.1376383215 7.7402039264,-1.1781043386 C 7.658936605,-1.2245879618 7.5660887693,-1.2474372469 7.423594103,-1.2576409928" />
      <path d="M 8.2993179278,-2.9543088268 A 9.750000000000002,5.6291651245988525 0.0 0,1 8.5811222041,-2.6725045505" />
      <path d="M 8.1608352667,-2.972836342 A 0.10000000000000003,0.0577350269189626 0.0 0,1 8.2993179278,-2.9543088268" />
      <line x1="8.1608352667" y1="-2.972836342" x2="7.9071028591" y2="-2.8804064745" />
      <path d="M 7.875325655,-2.8012940955 A 0.10000000000000003,0.0577350269189626 0.0 0,1 7.9071028591,-2.8804064745" />
      <path d="M 7.875325655,-2.8012940955 A 9.250000000000002,5.34048999000404 0.0 0,1 8.1396039707,-2.5370157798" />
      <path d="M 8.2741611413,-2.5133481923 A 0.10000000000000003,0.0577350269189626 0.0 0,1 8.1396039707,-2.5370157798" />
      <line x1="8.5396721464" y1="-2.5939994624" x2="8.2741611413" y2="-2.5133481923" />
      <path d="M 8.5811222041,-2.6725045505 A 0.10000000000000003,0.0577350269189626 0.0 0,1 8.5396721464,-2.5939994624" />
      <path d="M 8.7887269002,-2.4372648245 A 9.750000000000002,5.6291651245988525 -3.895368034302951e-15 0,1 9.0179671508,-2.1399975441" />
      <path d="M 8.6543572424,-2.4640482085 A 0.10000000000000003,0.0577350269189626 -3.895368034302951e-15 0,1 8.7887269002,-2.4372648245" />
      <line x1="8.6543572424" y1="-2.4640482085" x2="8.3852805085" y2="-2.3874373146" />
      <path d="M 8.339354197,-2.310676061 A 0.10000000000000003,0.0577350269189626 -3.895368034302951e-15 0,1 8.3852805085,-2.3874373146" />
      <path d="M 8.339354197,-2.310676061 A 9.250000000000002,5.34048999000404 -3.895368034302951e-15 0,1 8.554337547,-2.0318964157" />
      <path d="M 8.6838726155,-2.0002380189 A 0.10000000000000003,0.0577350269189626 -3.895368034302951e-15 0,1 8.554337547,-2.0318964157" />
      <line x1="8.9625309238" y1="-2.0644240068" x2="8.6838726155" y2="-2.0002380189" />
      <path d="M 9.0179671508,-2.1399975441 A 0.10000000000000003,0.0577350269189626 -3.895368034302951e-15 0,1 8.9625309238,-2.0644240068" />
      <line x1="8.3634626324" y1="-1.2191175493" x2="8.604944089" y2="-1.2564748606" />
      <path d="M 8.604944089,-1.2564748606 A 0.1250000000397083,0.07216878367162882 180.0 0,0 8.5402393277,-1.3958942446" />
      <line x1="8.5402393277" y1="-1.3958942446" x2="8.2987578711" y2="-1.3585369332" />
      <path d="M 8.2987578711,-1.3585369332 A 0.12500000000000003,0.07216878364870324 180.0 0,0 8.3634626324,-1.2191175493" />
      <path d="M 9.1818447414,-1.8935176388 A 9.75,5.629165124598852 1.9476840171514755e-15 0,1 9.3560093623,-1.5840442768" />
      <path d="M 9.0530602691,-1.9282634471 A 0.1,0.05773502691896259 1.9476840171514755e-15 0,1 9.1818447414,-1.8935176388" />
      <line x1="9.0530602691" y1="-1.9282634471" x2="8.7715872699" y2="-1.8683108919" />
      <path d="M 8.7120150294,-1.794741776 A 0.1,0.05773502691896259 1.9476840171514755e-15 0,1 8.7715872699,-1.8683108919" />
      <path d="M 8.7120150294,-1.794741776 A 9.25,5.3404899900040395 1.9476840171514755e-15 0,1 8.875348011,-1.5045151693" />
      <path d="M 8.9984417642,-1.4652128192 A 0.1,0.05773502691896259 1.9476840171514755e-15 0,1 8.875348011,-1.5045151693" />
      <line x1="9.2871943369" y1="-1.5122302898" x2="8.9984417642" y2="-1.4652128192" />
      <path d="M 9.3560093623,-1.5840442768 A 0.1,0.05773502691896259 1.9476840171514755e-15 0,1 9.2871943369,-1.5122302898" />
      <line x1="7.74594399" y1="1.344677814" x2="7.8837055162" y2="1.2651411598" />
      <line x1="7.8837055162" y1="1.2651411598" x2="6.994297768" y2="0.7516413569" />
      <line x1="6.994297768" y1="0.7516413569" x2="6.8245127291" y2="0.8496667948" />
      <line x1="6.8245127291" y1="0.8496667948" x2="7.4643787653" y2="1.2190936231" />
      <path d="M 7.4643787653,1.2190936231 Q 7.2843220337,1.2225820728 7.1163496465,1.2714203693" />
      <line x1="7.1163496465" y1="1.2714203693" x2="7.2704250376" y2="1.3603758379" />
      <path d="M 7.2704250376,1.3603758379 Q 7.3586407518,1.3345613097 7.4973086038,1.324619228 Q 7.6359764559,1.3146771462 7.74594399,1.344677814" />
      <path d="M 5.7930189159,2.7456342089 Q 5.7229297184,2.7407503792 5.5688543272,2.7445876739 Q 5.414778936,2.7484249687 5.3691605359,2.7468551663 Q 5.3235421358,2.7452853639 5.2872891026,2.7397038443" />
      <line x1="5.2872891026" y1="2.7397038443" x2="5.6244423115" y2="2.5450483484" />
      <line x1="5.6244423115" y1="2.5450483484" x2="5.466741617" y2="2.45399981" />
      <line x1="5.466741617" y1="2.45399981" x2="4.871587655" y2="2.7976121101" />
      <path d="M 4.871587655,2.7976121101 Q 4.9706792792,2.8436596468 5.0990754385,2.8619740079 Q 5.2274715978,2.8802883691 5.502390433,2.8743580045" />
      <path d="M 5.502390433,2.8743580045 Q 5.7241381528,2.8698230199 5.7881851782,2.8767999194" />
      <path d="M 5.7881851782,2.8767999194 C 5.9102402445,2.8893765854 5.9853208474,2.9422213627 5.9839515575,2.9845930166 C 5.9839515575,3.0080819115 5.9660264466,3.0301754266 5.9301762249,3.0508735618 C 5.8587149113,3.0908961917 5.7770701383,3.0951551341 5.6709670374,3.0407570575" />
      <line x1="5.6709670374" y1="3.0407570575" x2="5.5187042979" y2="3.1482013097" />
      <path d="M 5.5187042979,3.1482013097 C 5.7250570182,3.2470627019 5.9163673921,3.2192274203 6.0751883578,3.1297125261 C 6.162598449,3.0792462864 6.2077133347,3.0259892869 6.2105330151,2.9699415276 C 6.2133526955,2.9138937684 6.1797179369,2.8656368802 6.1096287393,2.8251708631 C 6.0283614179,2.7786872398 5.9355135823,2.7558379548 5.7930189159,2.7456342089" />
      <line x1="6.0104076401" y1="3.5721725416" x2="6.1871843354" y2="3.6742346142" />
      <path d="M 6.1871843354,3.6742346142 A 0.125,0.07216878364870322 180.0 0,0 6.3639610307,3.5721725416" />
      <line x1="6.3639610307" y1="3.5721725416" x2="6.1871843354" y2="3.4701104689" />
      <path d="M 6.1871843354,3.4701104689 A 0.1250000000526489,0.07216878367910008 180.0 0,0 6.0104076401,3.5721725416" />
      <path d="M 7.4311988289,3.6441635513 A 9.749999999999996,5.62916512459885 0.0 0,1 7.0540710963,3.8859825428" />
      <path d="M 7.4189253052,3.562398411 A 0.09999999999999998,0.057735026918962574 0.0 0,1 7.4311988289,3.6441635513" />
      <line x1="7.4189253052" y1="3.562398411" x2="7.1882599728" y2="3.451638189" />
      <path d="M 7.0481201787,3.4586366267 A 0.09999999999999998,0.057735026918962574 0.0 0,1 7.1882599728,3.451638189" />
      <path d="M 7.0481201787,3.4586366267 A 9.249999999999996,5.340489990004037 0.0 0,1 6.6944467595,3.6854164208" />
      <path d="M 6.6970401109,3.7666144725 A 0.09999999999999998,0.057735026918962574 0.0 0,1 6.6944467595,3.6854164208" />
      <line x1="6.9119426032" y1="3.8874820236" x2="6.6970401109" y2="3.7666144725" />
      <path d="M 7.0540710963,3.8859825428 A 0.09999999999999998,0.057735026918962574 0.0 0,1 6.9119426032,3.8874820236" />
      <path d="M 8.0502606869,3.1757310378 A 9.750000000000002,5.6291651245988525 0.0 0,1 7.7189798916,3.4389848034" />
      <path d="M 8.0232509339,3.095154517 A 0.10000000000000003,0.0577350269189626 0.0 0,1 8.0502606869,3.1757310378" />
      <line x1="8.0232509339" y1="3.095154517" x2="7.7737962262" y2="2.998921597" />
      <path d="M 7.63569119,3.014339068 A 0.10000000000000003,0.0577350269189626 0.0 0,1 7.7737962262,2.998921597" />
      <path d="M 7.63569119,3.014339068 A 9.250000000000002,5.34048999000404 0.0 0,1 7.3250133971,3.2612205656" />
      <path d="M 7.3422933361,3.3418172983 A 0.10000000000000003,0.0577350269189626 0.0 0,1 7.3250133971,3.2612205656" />
      <line x1="7.5779014721" y1="3.4490534585" x2="7.3422933361" y2="3.3418172983" />
      <path d="M 7.7189798916,3.4389848034 A 0.10000000000000003,0.0577350269189626 0.0 0,1 7.5779014721,3.4490534585" />
      <line x1="8.2987578711" y1="1.3585369332" x2="8.5402393277" y2="1.3958942446" />
      <path d="M 8.5402393277,1.3958942446 A 0.1250000000397083,0.07216878367162882 180.0 0,0 8.604944089,1.2564748606" />
      <line x1="8.604944089" y1="1.2564748606" x2="8.3634626324" y2="1.2191175493" />
      <path d="M 8.3634626324,1.2191175493 A 0.12500000000000003,0.07216878364870324 180.0 0,0 8.2987578711,1.3585369332" />
      <path d="M 9.3560093623,1.5840442768 A 9.750000000000002,5.6291651245988525 0.0 0,1 9.1818447414,1.8935176388" />
      <path d="M 9.2871943369,1.5122302898 A 0.10000000000000003,0.0577350269189626 0.0 0,1 9.3560093623,1.5840442768" />
      <line x1="9.2871943369" y1="1.5122302898" x2="8.9984417642" y2="1.4652128192" />
      <path d="M 8.875348011,1.5045151693 A 0.10000000000000003,0.0577350269189626 0.0 0,1 8.9984417642,1.4652128192" />
      <path d="M 8.875348011,1.5045151693 A 9.250000000000002,5.34048999000404 0.0 0,1 8.7120150294,1.794741776" />
      <path d="M 8.7715872699,1.8683108919 A 0.10000000000000003,0.0577350269189626 0.0 0,1 8.7120150294,1.794741776" />
      <line x1="9.0530602691" y1="1.9282634471" x2="8.7715872699" y2="1.8683108919" />
      <path d="M 9.1818447414,1.8935176388 A 0.10000000000000003,0.0577350269189626 0.0 0,1 9.0530602691,1.9282634471" />
      <path d="M 9.0179671508,2.1399975441 A 9.75,5.629165124598852 -1.9476840171514755e-15 0,1 8.7887269002,2.4372648245" />
      <path d="M 8.9625309238,2.0644240068 A 0.1,0.05773502691896259 -1.9476840171514755e-15 0,1 9.0179671508,2.1399975441" />
      <line x1="8.9625309238" y1="2.0644240068" x2="8.6838726155" y2="2.0002380189" />
      <path d="M 8.554337547,2.0318964157 A 0.1,0.05773502691896259 -1.9476840171514755e-15 0,1 8.6838726155,2.0002380189" />
      <path d="M 8.554337547,2.0318964157 A 9.25,5.3404899900040395 -1.9476840171514755e-15 0,1 8.339354197,2.310676061" />
      <path d="M 8.3852805085,2.3874373146 A 0.1,0.05773502691896259 -1.9476840171514755e-15 0,1 8.339354197,2.310676061" />
      <line x1="8.6543572424" y1="2.4640482085" x2="8.3852805085" y2="2.3874373146" />
      <path d="M 8.7887269002,2.4372648245 A 0.1,0.05773502691896259 -1.9476840171514755e-15 0,1 8.6543572424,2.4640482085" />
      <path d="M 8.5811222041,2.6725045505 A 9.750000000000002,5.6291651245988525 3.895368034302951e-15 0,1 8.2993179278,2.9543088268" />
      <path d="M 8.5396721464,2.5939994624 A 0.10000000000000003,0.0577350269189626 3.895368034302951e-15 0,1 8.5811222041,2.6725045505" />
      <line x1="8.5396721464" y1="2.5939994624" x2="8.2741611413" y2="2.5133481923" />
      <path d="M 8.1396039707,2.5370157798 A 0.10000000000000003,0.0577350269189626 3.895368034302951e-15 0,1 8.2741611413,2.5133481923" />
      <path d="M 8.1396039707,2.5370157798 A 9.250000000000002,5.34048999000404 3.895368034302951e-15 0,1 7.875325655,2.8012940955" />
      <path d="M 7.9071028591,2.8804064745 A 0.10000000000000003,0.0577350269189626 3.895368034302951e-15 0,1 7.875325655,2.8012940955" />
      <line x1="8.1608352667" y1="2.972836342" x2="7.9071028591" y2="2.8804064745" />
      <path d="M 8.2993179278,2.9543088268 A 0.10000000000000003,0.0577350269189626 3.895368034302951e-15 0,1 8.1608352667,2.972836342" />
      <path d="M 9.7459266542,-0.1626997748 A 9.749999999999998,5.629165124598851 1.7042235150075414e-15 0,1 9.7459266542,0.1626997748" />
      <path d="M 9.6420424506,-0.2187215744 A 0.09999999999999998,0.057735026918962574 1.7042235150075414e-15 0,1 9.7459266542,-0.1626997748" />
      <line x1="9.6420424506" y1="-0.2187215744" x2="9.3422571265" y2="-0.211921198" />
      <path d="M 9.2462239304,-0.1525811567 A 0.09999999999999998,0.057735026918962574 1.7042235150075414e-15 0,1 9.3422571265,-0.211921198" />
      <path d="M 9.2462239304,-0.1525811567 A 9.249999999999998,5.340489990004038 1.7042235150075414e-15 0,1 9.2462239304,0.1525811567" />
      <path d="M 9.3422571265,0.211921198 A 0.09999999999999998,0.057735026918962574 1.7042235150075414e-15 0,1 9.2462239304,0.1525811567" />
      <line x1="9.6420424506" y1="0.2187215744" x2="9.3422571265" y2="0.211921198" />
      <path d="M 9.7459266542,0.1626997748 A 0.09999999999999998,0.057735026918962574 1.7042235150075414e-15 0,1 9.6420424506,0.2187215744" />
      <path d="M 9.4743643702,-1.3290246775 A 9.750000000000002,5.6291651245988525 0.0 0,1 9.5915451773,-1.0107358889" />
      <path d="M 9.352576073,-1.3713522279 A 0.10000000000000003,0.0577350269189626 0.0 0,1 9.4743643702,-1.3290246775" />
      <line x1="9.352576073" y1="-1.3713522279" x2="9.0617906856" y2="-1.328714864" />
      <path d="M 8.9892252019,-1.2591439246 A 0.10000000000000003,0.0577350269189626 0.0 0,1 9.0617906856,-1.328714864" />
      <path d="M 8.9892252019,-1.2591439246 A 9.250000000000002,5.34048999000404 0.0 0,1 9.0991183049,-0.9606501399" />
      <path d="M 9.2144221018,-0.9141344412 A 0.10000000000000003,0.0577350269189626 0.0 0,1 9.0991183049,-0.9606501399" />
      <line x1="9.5101053054" y1="-0.9434682613" x2="9.2144221018" y2="-0.9141344412" />
      <path d="M 9.5915451773,-1.0107358889 A 0.10000000000000003,0.0577350269189626 0.0 0,1 9.5101053054,-0.9434682613" />
      <path d="M 9.6630808804,-0.7499706438 A 9.749999999999998,5.629165124598851 -9.738420085757378e-16 0,1 9.7219940162,-0.426353667" />
      <path d="M 9.5496230963,-0.7994161867 A 0.09999999999999998,0.057735026918962574 -9.738420085757378e-16 0,1 9.6630808804,-0.7499706438" />
      <line x1="9.5496230963" y1="-0.7994161867" x2="9.2527112263" y2="-0.7745611581" />
      <path d="M 9.1679475421,-0.7097506289 A 0.09999999999999998,0.057735026918962574 -9.738420085757378e-16 0,1 9.2527112263,-0.7745611581" />
      <path d="M 9.1679475421,-0.7097506289 A 9.249999999999998,5.340489990004038 -9.738420085757378e-16 0,1 9.2231967545,-0.4062600265" />
      <path d="M 9.3294473026,-0.353040615 A 0.09999999999999998,0.057735026918962574 -9.738420085757378e-16 0,1 9.2231967545,-0.4062600265" />
      <line x1="9.62882157" y1="-0.3643693971" x2="9.3294473026" y2="-0.353040615" />
      <path d="M 9.7219940162,-0.426353667 A 0.09999999999999998,0.057735026918962574 -9.738420085757378e-16 0,1 9.62882157,-0.3643693971" />
      <path d="M 9.7219940162,0.426353667 A 9.749999999999998,5.629165124598851 -1.7042235150075414e-15 0,1 9.6630808804,0.7499706438" />
      <path d="M 9.62882157,0.3643693971 A 0.09999999999999998,0.057735026918962574 -1.7042235150075414e-15 0,1 9.7219940162,0.426353667" />
      <line x1="9.62882157" y1="0.3643693971" x2="9.3294473026" y2="0.353040615" />
      <path d="M 9.2231967545,0.4062600265 A 0.09999999999999998,0.057735026918962574 -1.7042235150075414e-15 0,1 9.3294473026,0.353040615" />
      <path d="M 9.2231967545,0.4062600265 A 9.249999999999998,5.340489990004038 -1.7042235150075414e-15 0,1 9.1679475421,0.7097506289" />
      <path d="M 9.2527112263,0.7745611581 A 0.09999999999999998,0.057735026918962574 -1.7042235150075414e-15 0,1 9.1679475421,0.7097506289" />
      <line x1="9.5496230963" y1="0.7994161867" x2="9.2527112263" y2="0.7745611581" />
      <path d="M 9.6630808804,0.7499706438 A 0.09999999999999998,0.057735026918962574 -1.7042235150075414e-15 0,1 9.5496230963,0.7994161867" />
      <path d="M 9.5915451773,1.0107358889 A 9.749999999999998,5.629165124598851 9.738420085757378e-16 0,1 9.4743643702,1.3290246775" />
      <path d="M 9.5101053054,0.9434682613 A 0.09999999999999998,0.057735026918962574 9.738420085757378e-16 0,1 9.5915451773,1.0107358889" />
      <line x1="9.5101053054" y1="0.9434682613" x2="9.2144221018" y2="0.9141344412" />
      <path d="M 9.0991183049,0.9606501399 A 0.09999999999999998,0.057735026918962574 9.738420085757378e-16 0,1 9.2144221018,0.9141344412" />
      <path d="M 9.0991183049,0.9606501399 A 9.249999999999998,5.340489990004038 9.738420085757378e-16 0,1 8.9892252019,1.2591439246" />
      <path d="M 9.0617906856,1.328714864 A 0.09999999999999998,0.057735026918962574 9.738420085757378e-16 0,1 8.9892252019,1.2591439246" />
      <line x1="9.352576073" y1="1.3713522279" x2="9.0617906856" y2="1.328714864" />
      <path d="M 9.4743643702,1.3290246775 A 0.09999999999999998,0.057735026918962574 9.738420085757378e-16 0,1 9.352576073,1.3713522279" />
      <path d="M -1.7490017622,3.8159454502 C -1.6938165894,3.8343179522 -1.6142613221,3.8735048711 -1.5103359602,3.9335062067 C -1.4064105983,3.9935075424 -1.3402488127,4.0377527133 -1.3118506034,4.0662417196 C -1.283452394,4.0947307259 -1.2706631295,4.1173475084 -1.2734828099,4.1340920672 C -1.2763024903,4.150836626 -1.2879840232,4.16513927 -1.3085274087,4.1769999991 C -1.3503695038,4.1997766031 -1.4048496512,4.2081780846 -1.4910010092,4.178395379" />
      <path d="M -1.4910010092,4.178395379 C -1.5465889934,4.1597903137 -1.6263456665,4.1204871132 -1.7302710284,4.0604857775 C -1.8341963903,4.0004844419 -1.9003581759,3.9562392709 -1.9287563853,3.9277502646 C -1.9571545946,3.8992612584 -1.9698431562,3.8767026167 -1.9668220701,3.8600743395 C -1.963800984,3.8434460624 -1.9520187482,3.8292015593 -1.9314753627,3.8173408301 C -1.8896332676,3.7945642261 -1.8351531202,3.7861627447 -1.7490017622,3.8159454502" />
      <path d="M -5.0588949933,3.0812230746 C -4.947504904,3.1424088853 -4.9469261169,3.2171346746 -5.0111618329,3.2532036471 C -5.0734968744,3.2879572214 -5.1671506137,3.2912423909 -5.2794342787,3.2245983592 C -5.3961616552,3.1592408478 -5.3925108516,3.0986725428 -5.3271674391,3.0602923761 C -5.2640520644,3.0235619731 -5.1566521553,3.0226025178 -5.0588949933,3.0812230746" />
      <path d="M -7.1405183353,1.3056071768 C -7.208568326,1.267481394 -7.206201756,1.2186138954 -7.1429352042,1.1828137457 C -7.0801848467,1.1457853178 -6.9944109403,1.1446079407 -6.928438091,1.1838602806 C -6.8647309334,1.2194060465 -6.8650582265,1.2698288477 -6.9278338738,1.3049094869 C -6.9910751358,1.3426574253 -7.0788883192,1.3422794997 -7.1405183353,1.3056071768" />
      <path d="M -7.5356763973,1.095602502 C -7.6301357596,1.0432467968 -7.6293299963,0.9770241696 -7.5586366517,0.9372268835 C -7.4906875393,0.8974876774 -7.3832876301,0.8962666187 -7.2903642059,0.9518783724 C -7.2070703226,0.9980057287 -7.2050814848,1.0633126631 -7.2764672098,1.1029282465 C -7.3179567923,1.1268822681 -7.3631723809,1.1364755049 -7.4121139758,1.1317079569 C -7.4610555706,1.1269404089 -7.5022430445,1.1149052573 -7.5356763973,1.095602502" />
      <path d="M -5.5474046159,-3.0810486521 C -5.6598521029,-3.1426995894 -5.6583160946,-3.2174253788 -5.5951377763,-3.2530292246 C -5.5328656785,-3.2877464584 -5.4388846461,-3.2916857173 -5.3274695477,-3.2254704716 C -5.2098736045,-3.159611493 -5.2138517013,-3.0992321508 -5.2791321701,-3.0608156436 C -5.3422475448,-3.0241579217 -5.4496474539,-3.0223554142 -5.5474046159,-3.0810486521" />
      <line x1="2.170745382" y1="-4.1009517946" x2="1.6644113514" y2="-4.1581623705" />
      <line x1="1.8680325546" y1="-4.275723127" x2="2.170745382" y2="-4.1009517946" />
      <line x1="1.6644113514" y1="-4.1581623705" x2="1.8680325546" y2="-4.275723127" />
    </g>
  </g>
</svg>