<?xml version='1.0' encoding='utf-8'?>
<svg width="101.0mm" height="98.266745mm" viewBox="-10.1 -9.826674 20.2 19.653349" version="1.1" xmlns="http://www.w3.org/2000/svg">
  <g transform="scale(1,-1)" stroke-linecap="round">
    <g fill="none" stroke="rgb(64,192,64)" stroke-width="0.2" id="Visible">
      <path d="M 7.071068,-8.093446 A 10.0,5.576189073395618 0.0 0,1 10.0,-4.150485" />
      <path d="M -10.0,-4.150485 A 10.0,5.576189073395618 0.0 0,1 7.071068,-8.093446" />
      <path d="M 7.071068,0.207524 A 10.0,5.576189073395618 0.0 0,1 10.0,4.150485" />
      <path d="M 10.0,4.150485 A 10.0,5.576189073395618 0.0 0,1 -10.0,4.150485" />
      <path d="M -10.0,4.150485 A 10.0,5.576189073395618 0.0 0,1 7.071068,0.207524" />
      <line x1="-10.0" y1="4.150485" x2="-10.0" y2="-4.150485" />
      <line x1="10.0" y1="4.150485" x2="10.0" y2="-4.150485" />
    </g>
    <g fill="none" stroke="rgb(32,64,32)" stroke-width="0.018" id="Hidden" stroke-dasharray="0.000457 0.054229">
      <path d="M 10.0,-4.150485 A 10.0,5.576189073395618 0.0 0,1 -10.0,-4.150485" />
    </g>
  </g>
</svg>