<?xml version='1.0' encoding='utf-8'?>
<svg width="512.9999999896mm" height="296.6245577704mm" viewBox="-0.6588113954 -0.3985324845 1.3480819442 0.7794818919" version="1.1" xmlns="http://www.w3.org/2000/svg">
  <g transform="scale(1,-1)" stroke-linecap="round">
    <g fill="none" stroke="rgb(64,192,64)" stroke-width="0.0026278400472267227" id="Visible">
      <line x1="0.5526124439" y1="-0.0892285036" x2="0.6346456711" y2="-0.0418733983" />
      <path d="M 0.6629329801,-0.0255440578 A 0.0199999944085939,0.011547831059330561 -1.9477539308579945e-15 1,1 0.6346456711,-0.0418733983" />
      <line x1="0.6629329802" y1="-0.0255440578" x2="0.663640171" y2="-0.0251358196" />
      <path d="M 0.663640171,-0.0251358196 A 0.0829999999999913,0.04792351229420776 -1.9477539308579945e-15 0,1 0.6636528115,0.042638261" />
      <line x1="0.6636528115" y1="0.042638261" x2="0.6629457809" y2="0.0430465826" />
      <path d="M 0.6346645557,0.059379445 A 0.0200000000000049,0.011547834287764944 -1.9477539308579945e-15 1,1 0.6629457809,0.0430465826" />
      <line x1="0.6346645557" y1="0.059379445" x2="0.5526490027" y2="0.1067447462" />
      <path d="M 0.5243677776,0.1230776086 A 0.0200000000000031,0.011547834287763905 -1.9477539308579945e-15 1,1 0.5526490027,0.1067447462" />
      <line x1="0.5243677776" y1="0.1230776086" x2="0.4900767921" y2="0.1428812043" />
      <path d="M 0.4900767921,0.1428812043 A 0.0434999999999981,0.025116539575881506 -1.9477539308579945e-15 0,1 0.4285518776,0.1073648788" />
      <line x1="0.4285518776" y1="0.1073648788" x2="0.4855833364" y2="0.0744282939" />
      <path d="M 0.4571354512,0.0338905669 A 0.0417544584372598,0.024108678340436344 -1.9477539308579945e-15 0,1 0.4855833365,0.074428294" />
      <line x1="0.4571354511" y1="0.0338905669" x2="0.2742916534" y2="0.0339003501" />
      <path d="M 0.1859053712,0.0550451107 A 0.1250000000000142,0.07217396429852142 -1.9477539308579945e-15 0,1 0.2742916534,0.0339003501" />
      <line x1="0.1859053712" y1="0.0550451107" x2="0.0953718439" y2="0.107329679" />
      <path d="M 0.0587697105,0.1583675688 A 0.1249999999999929,0.07217396429850911 -1.9477539308579945e-15 0,1 0.0953718439,0.107329679" />
      <line x1="0.0587697104" y1="0.1583675687" x2="0.058791715" y2="0.2639334289" />
      <path d="M 0.1291876325,0.2802525458 A 0.0417544584372544,0.024108678340433225 -1.9477539308579945e-15 0,1 0.058791715,0.2639334289" />
      <line x1="0.1291876324" y1="0.2802525459" x2="0.1860403718" y2="0.2474191744" />
      <path d="M 0.1860403718,0.2474191744 A 0.0434999999999963,0.025116539575880465 -1.9477539308579945e-15 0,1 0.2475652862,0.2829354999" />
      <line x1="0.2475652862" y1="0.2829354999" x2="0.2132743007" y2="0.3027390957" />
      <path d="M 0.1849930756,0.3190719581 A 0.0200000000000031,0.011547834287763905 -1.9477539308579945e-15 1,1 0.2132743007,0.3027390957" />
      <line x1="0.1849930756" y1="0.3190719581" x2="0.1029775226" y2="0.3664372592" />
      <path d="M 0.0746962974,0.3827701217 A 0.020000000037375364,0.011547834309342342 -1.9477539308579945e-15 1,1 0.1029775226,0.3664372592" />
      <line x1="0.0746962974" y1="0.3827701217" x2="0.0739892668" y2="0.3831784433" />
      <path d="M 0.0739892668,0.3831784433 A 0.0829999999999984,0.04792351229421185 -1.9477539308579945e-15 0,1 -0.0433904582,0.3831857418" />
      <line x1="-0.0433904582" y1="0.3831857418" x2="-0.0440976411" y2="0.3827775082" />
      <path d="M -0.0723849661,0.3664481585 A 0.02000000561950374,0.011547837532417015 -1.9477539308579945e-15 0,1 -0.0440976412,0.3827775082" />
      <line x1="-0.072384966" y1="0.3664481586" x2="-0.1544181774" y2="0.3190930623" />
      <path d="M -0.1827055024,0.3027637127 A 0.02000000559363663,0.01154783751748156 -1.9477539308579945e-15 0,1 -0.1544181774,0.3190930623" />
      <line x1="-0.1827055023" y1="0.3027637127" x2="-0.4938659814" y2="0.1231409213" />
      <path d="M -0.5221533063,0.1068115717 A 0.0200000055914104,0.011547837516196154 -1.9477539308579945e-15 0,1 -0.4938659814,0.1231409213" />
      <line x1="-0.5221533063" y1="0.1068115717" x2="-0.6041865177" y2="0.0594564755" />
      <path d="M -0.6324738426,0.0431271258 A 0.02000000561950373,0.01154783753241701 -1.9477539308579945e-15 0,1 -0.6041865177,0.0594564755" />
      <line x1="-0.6324738426" y1="0.0431271259" x2="-0.6331810176" y2="0.0427188968" />
      <path d="M -0.6331810176,0.0427188968 A 0.0829999999999949,0.04792351229420983 -1.9477539308579945e-15 0,1 -0.6331936582,-0.0250551839" />
      <line x1="-0.6331936582" y1="-0.0250551839" x2="-0.6324866276" y2="-0.0254635054" />
      <path d="M -0.6042054023,-0.0417963679 A 0.020000000037375332,0.011547834309342322 -1.9477539308579945e-15 0,1 -0.6324866275,-0.0254635054" />
      <line x1="-0.6042054024" y1="-0.0417963679" x2="-0.5221898494" y2="-0.089161669" />
      <path d="M -0.4939086242,-0.1054945314 A 0.0200000000000063,0.011547834287765754 -1.9477539308579945e-15 0,1 -0.5221898493,-0.089161669" />
      <line x1="-0.4939086242" y1="-0.1054945315" x2="-0.1828151474" y2="-0.2851560185" />
      <path d="M -0.1545339222,-0.3014888809 A 0.0199999999999991,0.011547834287761594 -1.9477539308579945e-15 0,1 -0.1828151473,-0.2851560185" />
      <line x1="-0.1545339222" y1="-0.301488881" x2="-0.0725183692" y2="-0.3488541821" />
      <path d="M -0.044237144,-0.3651870445 A 0.0200000000000027,0.011547834287763674 -1.9477539308579945e-15 0,1 -0.0725183692,-0.3488541821" />
      <line x1="-0.0442371441" y1="-0.3651870445" x2="-0.0435301134" y2="-0.3655953661" />
      <path d="M -0.0435301134,-0.3655953661 A 0.083000000000002,0.04792351229421393 -1.9477539308579945e-15 0,1 0.0738496116,-0.3656026647" />
      <line x1="0.0738496116" y1="-0.3656026647" x2="0.0745567945" y2="-0.365194431" />
      <path d="M 0.1028441115,-0.3488650859 A 0.02000000000972353,0.011547834293376403 -1.9477539308579945e-15 0,1 0.0745567945,-0.365194431" />
      <line x1="0.1028441115" y1="-0.3488650859" x2="0.1848773308" y2="-0.3015099852" />
      <path d="M 0.2131646399,-0.2851806447 A 0.0199999944085878,0.01154783105932704 -1.9477539308579945e-15 0,1 0.1848773308,-0.3015099852" />
      <line x1="0.2131646399" y1="-0.2851806446" x2="0.5243251348" y2="-0.1055578442" />
      <path d="M 0.5526124438,-0.0892285037 A 0.0199999944085939,0.011547831059330561 -1.9477539308579945e-15 1,1 0.5243251348,-0.1055578442" />
      <line x1="-0.0283325616" y1="-0.2463503518" x2="-0.028310557" y2="-0.1407844916" />
      <path d="M -0.098728479,-0.2626694687 A 0.0417544584372667,0.02410867834044033 -1.9477539308579945e-15 0,1 -0.0283325616,-0.2463503518" />
      <line x1="-0.455124183" y1="-0.0568452168" x2="-0.0987284791" y2="-0.2626694687" />
      <path d="M -0.4266762977,-0.0163074898 A 0.0417544584372643,0.024108678340438942 -1.9477539308579945e-15 0,1 -0.455124183,-0.0568452168" />
      <line x1="-0.2438324999" y1="-0.0163172729" x2="-0.4266762977" y2="-0.0163074898" />
      <path d="M -0.1554462178,-0.0374620335 A 0.1250000000000178,0.07217396429852349 -1.9477539308579945e-15 0,1 -0.2438324999,-0.0163172729" />
      <line x1="-0.0649126905" y1="-0.0897466018" x2="-0.1554462178" y2="-0.0374620335" />
      <path d="M -0.028310557,-0.1407844916 A 0.1249999999999894,0.0721739642985071 -1.9477539308579945e-15 0,1 -0.0649126905,-0.0897466018" />
      <path d="M 0.0877002162,-0.0330614215 A 0.1025000000083875,0.05918265072962372 -1.9477539308579945e-15 0,1 -0.0572410628,0.0506444986 A 0.1025000000083875,0.05918265072962372 -1.9477539308579945e-15 0,1 0.0877002162,-0.0330614215" />
      <line x1="-0.4266574196" y1="0.0339439563" x2="-0.2438251109" y2="0.0339312511" />
      <path d="M -0.4549209303,0.0745899758 A 0.0417544584372616,0.024108678340437385 -1.9477539308579945e-15 0,1 -0.4266574195,0.0339439563" />
      <line x1="-0.098448458" y1="0.2803699023" x2="-0.4549209304" y2="0.0745899757" />
      <path d="M -0.0282400951,0.263944329 A 0.0417544584372593,0.024108678340436056 -1.9477539308579945e-15 0,1 -0.098448458,0.2803699023" />
      <line x1="-0.0282570388" y1="0.1583718351" x2="-0.0282400951" y2="0.263944329" />
      <path d="M -0.0648782096,0.1073383281 A 0.1249999999999861,0.07217396429850519 -1.9477539308579945e-15 0,1 -0.0282570388,0.1583718351" />
      <line x1="-0.155431238" y1="0.0550650196" x2="-0.0648782096" y2="0.1073383281" />
      <path d="M -0.2438251109,0.033931251 A 0.1249999999999743,0.07217396429849839 -1.9477539308579945e-15 0,1 -0.155431238,0.0550650196" />
      <line x1="0.457116573" y1="-0.0163608791" x2="0.2742842643" y2="-0.0163481739" />
      <path d="M 0.4853800837,-0.0570068986 A 0.0417544584372564,0.02410867834043438 -1.9477539308579945e-15 0,1 0.457116573,-0.0163608791" />
      <line x1="0.1289076115" y1="-0.2627868251" x2="0.4853800837" y2="-0.0570068986" />
      <path d="M 0.0586992486,-0.2463612519 A 0.0417544584372522,0.024108678340431955 -1.9477539308579945e-15 0,1 0.1289076115,-0.2627868251" />
      <line x1="0.0587161922" y1="-0.140788758" x2="0.0586992486" y2="-0.2463612518" />
      <path d="M 0.0953373631,-0.089755251 A 0.1250000000000439,0.07217396429853858 -1.9477539308579945e-15 0,1 0.0587161922,-0.140788758" />
      <line x1="0.1858903914" y1="-0.0374819425" x2="0.0953373631" y2="-0.089755251" />
      <path d="M 0.2742842643,-0.0163481739 A 0.1250000000000249,0.0721739642985276 -1.9477539308579945e-15 0,1 0.1858903914,-0.0374819425" />
    </g>
  </g>
</svg>